<?xml version="1.0" standalone="no"?>
<!DOCTYPE svg PUBLIC "-//W3C//DTD SVG 1.1//EN" "http://www.w3.org/Graphics/SVG/1.1/DTD/svg11.dtd" >
<svg xmlns="http://www.w3.org/2000/svg" xmlns:xlink="http://www.w3.org/1999/xlink" version="1.1">
<metadata>
Created by FontForge 20161116 at Mon Jun 13 04:14:02 2016
 By Jimmy Warting
(c) 1990-2006 Apple Computer Inc. (c) 1981 Linotype AG (c) 1990-91 Type Solutions Inc.
</metadata>
<defs>
<font id="Helvetica-Bold" horiz-adv-x="1251" >
  <font-face 
    font-family="Helvetica"
    font-weight="700"
    font-stretch="normal"
    units-per-em="2048"
    panose-1="0 0 0 0 0 0 0 0 0 0"
    ascent="1638"
    descent="-410"
    x-height="1088"
    cap-height="1446"
    bbox="-2084 -985 2942 2374"
    underline-thickness="101"
    underline-position="-205"
    unicode-range="U+0008-FFA7"
  />
<missing-glyph horiz-adv-x="1479" 
d="M154 0v1474h1187v-1474h-1187zM1157 184v1106h-819v-1106h819z" />
    <glyph glyph-name="fi" unicode="fi" 
d="M827 1483h279v-260h-279v260zM827 1085h284v-1085h-284v1085zM595 1487q27 -2 56 -4v-232q-20 1 -39 1.5t-46 0.5q-67 0 -82 -37t-13 -116v-20h187v-201h-187v-879h-284v879h-159v201h156v70q0 174 77 259q69 80 281 80q26 0 53 -2z" />
    <glyph glyph-name="fl" unicode="fl" 
d="M827 1474h284v-1474h-284v1474zM595 1487q27 -2 56 -4v-232q-20 1 -39 1.5t-46 0.5q-67 0 -82 -37t-13 -116v-20h187v-201h-187v-879h-284v879h-159v201h156v70q0 174 77 259q69 80 281 80q26 0 53 -2z" />
    <glyph glyph-name=".notdef" horiz-adv-x="1479" 
d="M154 0v1474h1187v-1474h-1187zM1157 184v1106h-819v-1106h819z" />
    <glyph glyph-name=".null" horiz-adv-x="0" 
 />
    <glyph glyph-name=".null" horiz-adv-x="0" 
 />
    <glyph glyph-name=".null" horiz-adv-x="0" 
 />
    <glyph glyph-name="nonmarkingreturn" unicode="&#x9;" horiz-adv-x="569" 
 />
    <glyph glyph-name="nonmarkingreturn" unicode="&#xd;" horiz-adv-x="569" 
 />
    <glyph glyph-name="nonmarkingreturn" unicode="&#xa;" horiz-adv-x="569" 
 />
    <glyph glyph-name="space" unicode=" " horiz-adv-x="569" 
 />
    <glyph glyph-name="exclam" unicode="!" horiz-adv-x="682" 
d="M225 1469h313v-374l-81 -688h-149l-83 688v374zM232 289h298v-289h-298v289z" />
    <glyph glyph-name="quotedbl" unicode="&#x22;" horiz-adv-x="971" 
d="M819 1474l-47 -609h-180l-46 609h273zM440 1474l-48 -609h-180l-45 609h273z" />
    <glyph glyph-name="numbersign" unicode="#" horiz-adv-x="1139" 
d="M611 568l81 292h-166l-78 -292h163zM45 568h203l79 292h-204l45 168h204l109 403h199l-109 -403h166l106 403h199l-106 -403h201l-45 -168h-201l-81 -292h204l-45 -168h-204l-107 -400h-199l107 400h-164l-109 -400h-199l109 400h-203z" />
    <glyph glyph-name="dollar" unicode="$" horiz-adv-x="1139" 
d="M616 187q79 10 115 36q63 46 63 159q0 86 -59 136q-35 29 -119 60v-391zM521 1232q-87 -2 -129 -46.5t-42 -121.5q0 -84 63 -133q35 -27 108 -50v351zM618 -237h-97v199q-197 22 -294 86q-171 115 -168 392h270q14 -126 39 -169q39 -67 153 -87v427l-81 24
q-191 56 -269.5 156t-78.5 241q0 93 30.5 169t85.5 131q71 71 158 98q53 17 155 25v133h95v-135q163 -13 256 -80q169 -107 175 -347h-263q-8 89 -30 130q-38 71 -138 78v-381q238 -82 320 -145q135 -105 135 -296q0 -252 -185 -366q-113 -70 -268 -82v-201z" />
    <glyph glyph-name="percent" unicode="%" horiz-adv-x="1821" 
d="M531.5 958.5q46.5 46.5 46.5 112.5t-46.5 112.5t-112.5 46.5t-112.5 -46.5t-46.5 -112.5t46.5 -112.5t112.5 -46.5t112.5 46.5zM682.5 808q-108.5 -109 -263.5 -109q-154 0 -263 109t-109 263t109 263t263 109t263 -109t109 -263t-108.5 -263zM1503.5 455.5
q-46.5 46.5 -112.5 46.5t-112.5 -46.5t-46.5 -112.5t46.5 -112.5t112.5 -46.5t112.5 46.5t46.5 112.5t-46.5 112.5zM1654 80q-109 -109 -263 -109t-263 109t-109 263q0 155 109 263.5t263 108.5t263 -109t109 -263t-109 -263zM1232 1450h152l-808 -1488h-155z" />
    <glyph glyph-name="ampersand" unicode="&#x26;" horiz-adv-x="1479" 
d="M177 617q66 95 216 188l31 19q-64 72 -99 147t-35 156q0 161 108 251.5t280 90.5q157 0 259.5 -92.5t102.5 -236.5q0 -130 -61.5 -211t-180.5 -150l209 -258q36 52 55.5 113t20.5 129h253q-6 -134 -64 -271q-32 -77 -104 -170l268 -322h-346l-102 125q-74 -69 -138 -102
q-114 -59 -263 -59q-224 0 -350 132t-126 293q0 133 66 228zM580 1053q18 -29 78 -103q60 42 86 71q50 54 50 117q0 46 -30 82t-91 36q-38 0 -71 -21q-50 -31 -50 -98q0 -40 28 -84zM454.5 264q59.5 -61 152.5 -61q70 0 132.5 32.5t101.5 72.5l-270 334
q-107 -71 -141.5 -125t-34.5 -119q0 -73 59.5 -134z" />
    <glyph glyph-name="quotesingle" unicode="'" horiz-adv-x="487" 
d="M372 1474l-50 -609h-173l-50 609h273z" />
    <glyph glyph-name="parenleft" unicode="(" horiz-adv-x="682" 
d="M206 1102q79 184 231 396h215l-61 -112q-126 -231 -175 -484q-32 -166 -32 -362q0 -306 89 -563q52 -152 184 -390h-211l-71 97q-69 88 -147 262q-139 311 -139 612q0 274 117 544z" />
    <glyph glyph-name="parenright" unicode=")" horiz-adv-x="682" 
d="M472 1102q117 -270 117 -544q0 -301 -139 -612q-78 -174 -147 -262l-71 -97h-211q132 238 184 390q89 257 89 563q0 196 -32 362q-49 253 -175 484l-61 112h215q152 -212 231 -396z" />
    <glyph glyph-name="asterisk" unicode="*" horiz-adv-x="797" 
d="M94 1310l209 -68v241h173v-241l209 68l47 -149l-213 -66l139 -199l-128 -91l-139 188l-143 -188l-128 91l140 199l-213 66z" />
    <glyph glyph-name="plus" unicode="+" horiz-adv-x="1196" 
d="M73 412v261h410v410h263v-410h410v-261h-410v-412h-263v412h-410z" />
    <glyph glyph-name="comma" unicode="," horiz-adv-x="569" 
d="M118 -237q86 24 126.5 80t46.5 157h-173v298h308v-258q0 -68 -18 -142t-67 -128q-53 -58 -124.5 -87.5t-98.5 -29.5v110z" />
    <glyph glyph-name="hyphen" unicode="-" horiz-adv-x="682" 
d="M47 706h574v-270h-574v270z" />
    <glyph glyph-name="period" unicode="." horiz-adv-x="569" 
d="M128 298h303v-298h-303v298z" />
    <glyph glyph-name="slash" unicode="/" horiz-adv-x="569" 
d="M459 1519h237l-573 -1519h-235z" />
    <glyph glyph-name="zero" unicode="0" horiz-adv-x="1139" 
d="M396 328.5q41 -132.5 168 -132.5t166.5 132.5t39.5 382.5q0 262 -39.5 388t-166.5 126t-168 -126t-41 -388q0 -250 41 -382.5zM952.5 1265q111.5 -195 111.5 -554t-111.5 -553t-388.5 -194t-388.5 194t-111.5 553t111.5 554t388.5 195t388.5 -195z" />
    <glyph glyph-name="one" unicode="1" horiz-adv-x="1139" 
d="M142 1000v194q135 6 189 18q86 19 140 76q37 39 56 104q11 39 11 58h237v-1450h-292v1000h-341z" />
    <glyph glyph-name="two" unicode="2" horiz-adv-x="1139" 
d="M131 285q61 145 288 307q197 141 255 202q89 95 89 208q0 92 -51 153t-146 61q-130 0 -177 -97q-27 -56 -32 -178h-277q7 185 67 299q114 217 405 217q230 0 366 -127.5t136 -337.5q0 -161 -96 -286q-63 -83 -207 -185l-114 -81q-107 -76 -146.5 -110t-66.5 -79h633v-251
h-993q4 156 67 285z" />
    <glyph glyph-name="three" unicode="3" horiz-adv-x="1139" 
d="M334 445q0 -87 28 -144q52 -105 189 -105q84 0 146.5 57.5t62.5 165.5q0 143 -116 191q-66 27 -208 27v204q139 2 194 27q95 42 95 170q0 83 -48.5 135t-136.5 52q-101 0 -148.5 -64t-45.5 -171h-266q4 108 37 205q35 85 110 157q56 51 133 78t189 27q208 0 335.5 -107.5
t127.5 -288.5q0 -128 -76 -216q-48 -55 -100 -75q39 0 112 -67q109 -101 109 -276q0 -184 -127.5 -323.5t-377.5 -139.5q-308 0 -428 201q-63 107 -70 280h280z" />
    <glyph glyph-name="four" unicode="4" horiz-adv-x="1139" 
d="M1071 312h-164v-312h-279v312h-574v249l533 880h320v-906h164v-223zM628 535v626l-363 -626h363z" />
    <glyph glyph-name="five" unicode="5" horiz-adv-x="1139" 
d="M338 388q17 -93 65 -143.5t140 -50.5q106 0 161.5 74.5t55.5 187.5q0 111 -52 187.5t-162 76.5q-52 0 -90 -13q-67 -24 -101 -89l-256 12l102 801h799v-242h-593l-52 -317q66 43 103 57q62 23 151 23q180 0 314 -121t134 -352q0 -201 -129 -359t-386 -158
q-207 0 -340 111t-148 315h284z" />
    <glyph glyph-name="six" unicode="6" horiz-adv-x="1139" 
d="M413 268q63 -74 160 -74q95 0 149.5 71.5t54.5 185.5q0 127 -62 194.5t-152 67.5q-73 0 -129 -44q-84 -65 -84 -210q0 -117 63 -191zM751 1085q0 35 -27 77q-46 68 -139 68q-139 0 -198 -156q-32 -86 -44 -254q53 63 123 92t160 29q193 0 316.5 -131t123.5 -335
q0 -203 -121 -358t-376 -155q-274 0 -404 229q-101 179 -101 462q0 166 14 270q25 185 97 308q62 105 162.5 169t240.5 64q202 0 322 -103.5t135 -275.5h-284z" />
    <glyph glyph-name="seven" unicode="7" horiz-adv-x="1139" 
d="M1080 1208q-64 -63 -178 -224.5t-191 -333.5q-61 -135 -110 -330t-49 -320h-296q13 390 256 811q157 261 263 364h-723l4 256h1024v-223z" />
    <glyph glyph-name="eight" unicode="8" horiz-adv-x="1139" 
d="M405.5 255q55.5 -59 153.5 -59t153.5 59t55.5 166q0 111 -56.5 168.5t-152.5 57.5t-152.5 -57.5t-56.5 -168.5q0 -107 55.5 -166zM109.5 623q55.5 99 162.5 149q-105 70 -136.5 151.5t-31.5 152.5q0 158 119 269.5t336 111.5t336 -111.5t119 -269.5q0 -71 -31.5 -152.5
t-136.5 -141.5q107 -60 161 -159t54 -221q0 -183 -135.5 -311.5t-378.5 -128.5t-368 128.5t-125 311.5q0 122 55.5 221zM424.5 915q48.5 -50 134.5 -50q87 0 134.5 50t47.5 129q0 86 -47.5 134.5t-134.5 48.5q-86 0 -134.5 -48.5t-48.5 -134.5q0 -79 48.5 -129z" />
    <glyph glyph-name="nine" unicode="9" horiz-adv-x="1139" 
d="M195.5 1317.5q134.5 144.5 349.5 144.5q331 0 454 -293q70 -166 70 -437q0 -263 -67 -439q-128 -335 -470 -335q-163 0 -293 96.5t-149 281.5h284q10 -64 54 -104t117 -40q141 0 198 156q31 86 39 251q-39 -49 -83 -75q-80 -48 -197 -48q-173 0 -307 119.5t-134 344.5
q0 233 134.5 377.5zM675 742q97 62 97 215q0 123 -57.5 195t-157.5 72q-73 0 -125 -41q-82 -64 -82 -217q0 -129 52.5 -193.5t161.5 -64.5q59 0 111 34z" />
    <glyph glyph-name="colon" unicode=":" horiz-adv-x="682" 
d="M232 1047h303v-298h-303v298zM232 298h303v-298h-303v298z" />
    <glyph glyph-name="semicolon" unicode=";" horiz-adv-x="682" 
d="M232 1047h303v-298h-303v298zM232 -237q101 29 141 103q25 46 32 134h-173v298h308v-258q0 -69 -18 -142.5t-67 -127.5q-51 -57 -123 -87t-100 -30v110z" />
    <glyph glyph-name="less" unicode="&#x3c;" horiz-adv-x="1196" 
d="M23 670l1178 448v-279l-841 -297l841 -298v-278l-1178 448v256z" />
    <glyph glyph-name="equal" unicode="=" horiz-adv-x="1196" 
d="M1156 907v-263h-1083v263h1083zM1156 440v-263h-1083v263h1083z" />
    <glyph glyph-name="greater" unicode="&#x3e;" horiz-adv-x="1196" 
d="M1201 414l-1178 -448v278l842 298l-842 297v279l1178 -450v-254z" />
    <glyph glyph-name="question" unicode="?" 
d="M488 289h298v-289h-298v289zM322 1413q118 76 290 76q226 0 375.5 -108t149.5 -320q0 -130 -65 -219q-38 -54 -146 -138l-71 -55q-58 -45 -77 -105q-12 -38 -13 -118h-270q6 169 32 233.5t134 148.5l73 57q36 27 58 59q40 55 40 121q0 76 -44.5 138.5t-162.5 62.5
q-116 0 -164.5 -77t-48.5 -160h-289q12 285 199 404z" />
    <glyph glyph-name="at" unicode="@" horiz-adv-x="1997" 
d="M1155 997q-32 36 -86 36q-104 0 -179 -129.5t-75 -250.5q0 -73 33.5 -118t94.5 -45q107 0 175.5 162.5t68.5 255.5q0 53 -32 89zM677.5 430q-80.5 87 -80.5 243q0 181 123 339t302 158q105 0 163 -58q44 -45 59 -103l36 126h189l-128 -434q-15 -53 -21.5 -78.5
t-6.5 -44.5q0 -30 20 -56.5t64 -26.5q86 0 172.5 112.5t86.5 298.5q0 275 -236 395q-148 76 -333 76q-340 0 -546 -208q-186 -188 -186 -451q0 -292 218 -463q193 -151 471 -151q190 0 355 70q90 37 186 105l24 17l73 -112q-142 -110 -307.5 -167.5t-343.5 -57.5
q-415 0 -643 258q-189 214 -189 507q0 328 236 556q248 241 635 241q315 0 522 -165q218 -174 218 -462q0 -227 -138 -389.5t-315 -162.5q-92 0 -141.5 52t-49.5 107q0 7 0.5 15.5t1.5 18.5q-38 -72 -85 -115q-85 -77 -204 -77q-121 0 -201.5 87z" />
    <glyph glyph-name="A" unicode="A" horiz-adv-x="1479" 
d="M559 557h374l-184 580zM578 1474h348l522 -1474h-334l-95 303h-543l-102 -303h-322zM750 1474z" />
    <glyph glyph-name="B" unicode="B" horiz-adv-x="1479" 
d="M455 1218v-325h362q97 0 157.5 36.5t60.5 129.5q0 103 -80 136q-69 23 -176 23h-324zM455 649v-393h362q97 0 151 26q98 48 98 184q0 115 -95 158q-53 24 -149 25h-367zM1261 1317q68 -94 68 -225q0 -135 -68 -217q-38 -46 -112 -84q113 -41 170.5 -130t57.5 -216
q0 -131 -66 -235q-42 -69 -105 -116q-71 -54 -167.5 -74t-209.5 -20h-668v1474h716q271 -4 384 -157z" />
    <glyph glyph-name="C" unicode="C" horiz-adv-x="1479" 
d="M299 1320q180 182 458 182q372 0 544 -244q95 -137 102 -275h-308q-30 106 -77 160q-84 96 -249 96q-168 0 -265 -135.5t-97 -383.5t102.5 -371.5t260.5 -123.5q162 0 247 106q47 57 78 171h305q-40 -241 -204.5 -392t-421.5 -151q-318 0 -500 204q-182 205 -182 562
q0 386 207 595zM748 1519z" />
    <glyph glyph-name="D" unicode="D" horiz-adv-x="1479" 
d="M455 1218v-962h284q218 0 304 215q47 118 47 281q0 225 -70.5 345.5t-280.5 120.5h-284zM1019 1442q155 -51 251 -187q77 -110 105 -238t28 -244q0 -294 -118 -498q-160 -275 -494 -275h-635v1474h635q137 -2 228 -32z" />
    <glyph glyph-name="E" unicode="E" horiz-adv-x="1366" 
d="M1246 1213h-780v-313h716v-256h-716v-379h816v-265h-1117v1474h1081v-261z" />
    <glyph glyph-name="F" unicode="F" 
d="M156 1472h1045v-259h-739v-339h647v-256h-647v-618h-306v1472z" />
    <glyph glyph-name="G" unicode="G" horiz-adv-x="1593" 
d="M1147 1014q-35 151 -171 211q-76 33 -169 33q-178 0 -292.5 -134.5t-114.5 -404.5q0 -272 124 -385t282 -113q155 0 254 89.5t122 234.5h-341v246h614v-791h-204l-31 184q-89 -105 -160 -148q-122 -75 -300 -75q-293 0 -480 203q-195 204 -195 558q0 358 197 574t521 216
q281 0 451.5 -142.5t195.5 -355.5h-303zM802 1512z" />
    <glyph glyph-name="H" unicode="H" horiz-adv-x="1479" 
d="M154 0v1474h305v-562h576v562h306v-1474h-306v658h-576v-658h-305z" />
    <glyph glyph-name="I" unicode="I" horiz-adv-x="569" 
d="M438 0h-306v1474h306v-1474zM285 1503z" />
    <glyph glyph-name="J" unicode="J" horiz-adv-x="1139" 
d="M336 559v-34q4 -171 37.5 -240.5t143.5 -69.5q109 0 144 76q21 45 21 152v1031h308v-1026q0 -188 -65 -298q-110 -186 -397 -186t-385 150.5t-98 410.5v34h291z" />
    <glyph glyph-name="K" unicode="K" horiz-adv-x="1479" 
d="M161 1474h303v-607l569 607h398l-604 -607l635 -867h-396l-455 644l-147 -151v-493h-303v1474z" />
    <glyph glyph-name="L" unicode="L" 
d="M156 1474h308v-1209h730v-265h-1038v1474z" />
    <glyph glyph-name="M" unicode="M" horiz-adv-x="1706" 
d="M1133 1474h443v-1474h-287v997q0 43 1 120.5t1 119.5l-279 -1237h-299l-277 1237q0 -42 1 -119.5t1 -120.5v-997h-287v1474h448l268 -1159z" />
    <glyph glyph-name="N" unicode="N" horiz-adv-x="1479" 
d="M151 1474h323l587 -1029v1029h287v-1474h-308l-602 1047v-1047h-287v1474zM761 1477z" />
    <glyph glyph-name="O" unicode="O" horiz-adv-x="1593" 
d="M1098.5 355q107.5 135 107.5 384q0 248 -107.5 383.5t-290.5 135.5t-292 -135t-109 -384t109 -384t292 -135t290.5 135zM1291 131q-167 -172 -483 -172t-483 172q-224 211 -224 608q0 405 224 608q167 172 483 172t483 -172q223 -203 223 -608q0 -397 -223 -608z
M808 1519z" />
    <glyph glyph-name="P" unicode="P" horiz-adv-x="1366" 
d="M925.5 1169q-60.5 49 -169.5 49h-287v-434h287q109 0 169.5 53t60.5 168t-60.5 164zM1159 638q-132 -108 -377 -108h-313v-530h-306v1474h642q222 0 354 -114t132 -353q0 -261 -132 -369z" />
    <glyph glyph-name="Q" unicode="Q" horiz-adv-x="1593" 
d="M907 233q27 7 69 25l-149 142l159 166l149 -142q35 72 49 126q22 81 22 189q0 248 -101.5 383.5t-296.5 135.5q-183 0 -292 -130t-109 -389q0 -303 156 -434q101 -85 242 -85q53 0 102 13zM1466 431q-39 -127 -115 -211l170 -159l-161 -168l-178 168q-81 -49 -140 -69
q-99 -33 -237 -33q-288 0 -476 172q-228 207 -228 608q0 404 234 611q191 169 475 169q286 0 480 -179q224 -207 224 -579q0 -197 -48 -330z" />
    <glyph glyph-name="R" unicode="R" horiz-adv-x="1479" 
d="M464 1218v-396h349q104 0 156 24q92 42 92 166q0 134 -89 180q-50 26 -150 26h-358zM1124.5 1436q83.5 -35 141.5 -103q48 -56 76 -124t28 -155q0 -105 -53 -206.5t-175 -143.5q102 -41 144.5 -116.5t42.5 -230.5v-99q0 -101 8 -137q12 -57 56 -84v-37h-339
q-14 49 -20 79q-12 62 -13 127l-2 137q-2 141 -51.5 188t-185.5 47h-318v-578h-301v1474h723q155 -3 238.5 -38z" />
    <glyph glyph-name="S" unicode="S" horiz-adv-x="1366" 
d="M379 455q14 -101 55 -151q75 -91 257 -91q109 0 177 24q129 46 129 171q0 73 -64 113q-64 39 -201 69l-156 35q-230 52 -318 113q-149 102 -149 319q0 198 144 329t423 131q233 0 397.5 -123.5t172.5 -358.5h-296q-8 133 -116 189q-72 37 -179 37q-119 0 -190 -48
t-71 -134q0 -79 70 -118q45 -26 192 -61l254 -61q167 -40 252 -107q132 -104 132 -301q0 -202 -154.5 -335.5t-436.5 -133.5q-288 0 -453 131.5t-165 361.5h294zM678 1519z" />
    <glyph glyph-name="T" unicode="T" 
d="M1227 1474v-261h-441v-1213h-310v1213h-443v261h1194z" />
    <glyph glyph-name="U" unicode="U" horiz-adv-x="1479" 
d="M156 1474h313v-906q0 -152 36 -222q56 -124 244 -124q187 0 243 124q36 70 36 222v906h313v-906q0 -235 -73 -366q-136 -240 -519 -240t-520 240q-73 131 -73 366v906zM749 1474z" />
    <glyph glyph-name="V" unicode="V" horiz-adv-x="1366" 
d="M1019 1474h320l-503 -1474h-291l-498 1474h329l320 -1119z" />
    <glyph glyph-name="W" unicode="W" horiz-adv-x="1933" 
d="M357 1474l195 -844l42 -235l43 230l166 849h325l175 -844l45 -235l45 226l197 853h313l-415 -1474h-294l-178 862l-52 285l-52 -285l-178 -862h-286l-418 1474h327z" />
    <glyph glyph-name="X" unicode="X" horiz-adv-x="1366" 
d="M391 0h-358l474 751l-451 723h368l263 -479l270 479h356l-451 -711l479 -763h-374l-280 502z" />
    <glyph glyph-name="Y" unicode="Y" horiz-adv-x="1366" 
d="M997 1474h349l-493 -920v-554h-308v554l-510 920h363l306 -642zM691 1474z" />
    <glyph glyph-name="Z" unicode="Z" 
d="M52 260l761 953h-742v261h1126v-247l-771 -967h773v-260h-1147v260zM634 1474z" />
    <glyph glyph-name="bracketleft" unicode="[" horiz-adv-x="682" 
d="M128 1488h502v-208h-232v-1465h232v-209h-502v1882z" />
    <glyph glyph-name="backslash" unicode="\" horiz-adv-x="569" 
d="M123 1519l573 -1519h-237l-571 1519h235z" />
    <glyph glyph-name="bracketright" unicode="]" horiz-adv-x="682" 
d="M47 -185h232v1469h-232v204h502v-1882h-502v209z" />
    <glyph glyph-name="asciicircum" unicode="^" horiz-adv-x="1196" 
d="M732 1474l367 -884h-251l-227 566l-230 -566h-252l368 884h225z" />
    <glyph glyph-name="underscore" unicode="_" horiz-adv-x="1139" 
d="M0 -256v101h1139v-101h-1139z" />
    <glyph glyph-name="grave" unicode="`" horiz-adv-x="682" 
d="M459 1237h-206l-303 299h317zM290 1119z" />
    <glyph glyph-name="a" unicode="a" horiz-adv-x="1139" 
d="M734 530q-27 -17 -54.5 -27.5t-75.5 -19.5l-64 -12q-90 -16 -129 -39q-66 -39 -66 -121q0 -73 40.5 -105.5t98.5 -32.5q92 0 169.5 54t80.5 197v106zM561 663q79 10 113 25q61 26 61 81q0 67 -46.5 92.5t-136.5 25.5q-101 0 -143 -50q-30 -37 -40 -100h-275q9 143 80 235
q113 144 388 144q179 0 318 -71t139 -268v-500q0 -52 2 -126q3 -56 17 -76t42 -33v-42h-310q-13 33 -18 62t-8 66q-59 -64 -136 -109q-92 -53 -208 -53q-148 0 -244.5 84.5t-96.5 239.5q0 201 155 291q85 49 250 70zM576 1119z" />
    <glyph glyph-name="b" unicode="b" 
d="M1058.5 959q121.5 -155 121.5 -400q0 -254 -120 -421t-335 -167q-135 0 -217 54q-49 32 -106 112v-137h-279v1472h284v-524q54 76 119 116q77 50 196 50q215 0 336.5 -155zM820 295q61 89 61 234q0 116 -30 192q-57 144 -210 144q-155 0 -213 -141q-30 -75 -30 -194
q0 -140 62 -232t189 -92q110 0 171 89z" />
    <glyph glyph-name="c" unicode="c" horiz-adv-x="1139" 
d="M784 699q-8 61 -41 110q-48 66 -149 66q-144 0 -197 -143q-28 -76 -28 -202q0 -120 28 -193q51 -136 192 -136q100 0 142 54t51 140h291q-10 -130 -94 -246q-134 -187 -397 -187t-387 156t-124 405q0 281 137 437t378 156q205 0 335.5 -92t154.5 -325h-292zM591 1119z
" />
    <glyph glyph-name="d" unicode="d" 
d="M711 1072.5q77 -43.5 125 -120.5v520h289v-1472h-277v151q-61 -97 -139 -141t-194 -44q-191 0 -321.5 154.5t-130.5 396.5q0 279 128.5 439t343.5 160q99 0 176 -43.5zM781 296q63 90 63 233q0 200 -101 286q-62 52 -144 52q-125 0 -183.5 -94.5t-58.5 -234.5
q0 -151 59.5 -241.5t180.5 -90.5t184 90z" />
    <glyph glyph-name="e" unicode="e" horiz-adv-x="1139" 
d="M409.5 822q-54.5 -62 -68.5 -168h443q-7 113 -68.5 171.5t-152.5 58.5q-99 0 -153.5 -62zM808 1068q109 -51 180 -161q64 -97 83 -225q11 -75 9 -216h-746q6 -164 103 -230q59 -41 142 -41q88 0 143 50q30 27 53 75h291q-11 -97 -101 -197q-140 -159 -392 -159
q-208 0 -367 134t-159 436q0 283 143.5 434t372.5 151q136 0 245 -51zM583 1119z" />
    <glyph glyph-name="f" unicode="f" horiz-adv-x="682" 
d="M584 1487.5q22 -1.5 60 -4.5v-232q-24 3 -80.5 4.5t-78 -25t-21.5 -58.5v-92h187v-201h-187v-879h-284v879h-159v201h156v70q0 175 59 241q62 98 299 98q27 0 49 -1.5z" />
    <glyph glyph-name="g" unicode="g" 
d="M770 309.5q69 75.5 69 240.5q0 155 -65.5 236t-175.5 81q-150 0 -207 -141q-30 -75 -30 -185q0 -95 32 -169q58 -138 208 -138q100 0 169 75.5zM673 1091q104 -43 168 -158v157h277v-1034q0 -211 -71 -318q-122 -184 -468 -184q-209 0 -341 82t-146 245h310
q12 -50 39 -72q46 -39 155 -39q154 0 206 103q34 66 34 222v70q-41 -70 -88 -105q-85 -65 -221 -65q-210 0 -335.5 147.5t-125.5 399.5q0 243 121 408.5t343 165.5q82 0 143 -25zM621 1119z" />
    <glyph glyph-name="h" unicode="h" 
d="M917.5 1083q82.5 -35 135.5 -107q45 -61 55 -125.5t10 -210.5v-640h-291v663q0 88 -30 142q-39 76 -148 76q-113 0 -171.5 -75.5t-58.5 -215.5v-590h-284v1469h284v-521q62 95 143.5 132.5t171.5 37.5q101 0 183.5 -35z" />
    <glyph glyph-name="i" unicode="i" horiz-adv-x="569" 
d="M426 1220h-289v263h289v-263zM137 1090h289v-1090h-289v1090z" />
    <glyph glyph-name="j" unicode="j" horiz-adv-x="569" 
d="M431 1220h-285v263h285v-263zM9 -209q24 -2 34 -2.5t18 -0.5q42 0 63.5 20.5t21.5 79.5v1197h285v-1202q0 -165 -65 -244t-255 -79q-13 0 -38.5 1t-63.5 2v228z" />
    <glyph glyph-name="k" unicode="k" horiz-adv-x="1139" 
d="M130 1469h280v-794l355 410h353l-381 -417l396 -668h-344l-261 466l-118 -123v-343h-280v1469z" />
    <glyph glyph-name="l" unicode="l" horiz-adv-x="569" 
d="M424 0h-285v1474h285v-1474z" />
    <glyph glyph-name="m" unicode="m" horiz-adv-x="1821" 
d="M1493 1086q70 -28 127 -98q46 -57 62 -140q10 -55 10 -161l-2 -687h-292v694q0 62 -20 102q-38 76 -140 76q-118 0 -163 -98q-23 -52 -23 -125v-649h-287v649q0 97 -20 141q-36 79 -141 79q-122 0 -164 -79q-23 -45 -23 -134v-656h-289v1088h277v-159q53 85 100 121
q83 64 215 64q125 0 202 -55q62 -51 94 -131q56 96 139 141q88 45 196 45q72 0 142 -28z" />
    <glyph glyph-name="n" unicode="n" 
d="M1013.5 1027.5q107.5 -88.5 107.5 -293.5v-734h-292v663q0 86 -23 132q-42 84 -160 84q-145 0 -199 -123q-28 -65 -28 -166v-590h-284v1088h275v-159q55 84 104 121q88 66 223 66q169 0 276.5 -88.5zM632 1119z" />
    <glyph glyph-name="o" unicode="o" 
d="M814 290q67 89 67 253t-67 252.5t-192 88.5t-192.5 -88.5t-67.5 -252.5t67.5 -253t192.5 -89t192 89zM1042 132.5q-138 -170.5 -419 -170.5t-419 170.5t-138 410.5q0 236 138 409t419 173t419 -173t138 -409q0 -240 -138 -410.5zM623 1119z" />
    <glyph glyph-name="p" unicode="p" 
d="M826.5 768q-57.5 97 -186.5 97q-155 0 -213 -147q-30 -78 -30 -198q0 -190 101 -267q60 -45 142 -45q119 0 181.5 92t62.5 245q0 126 -57.5 223zM1045.5 973q132.5 -141 132.5 -414q0 -288 -129.5 -439t-333.5 -151q-130 0 -216 65q-47 36 -92 105v-568h-282v1519h273
v-161q46 71 98 112q95 73 226 73q191 0 323.5 -141z" />
    <glyph glyph-name="q" unicode="q" 
d="M804 336q40 83 40 210q0 100 -34 179q-61 142 -214 142q-108 0 -173.5 -83t-65.5 -252q0 -113 30 -185q56 -137 208 -137q147 0 209 126zM743 1051q49 -38 100 -125v162h275v-1520h-282v567q-32 -66 -109.5 -117.5t-211.5 -51.5q-189 0 -322 151t-133 403
q0 272 133.5 435t329.5 163q136 0 220 -67z" />
    <glyph glyph-name="r" unicode="r" horiz-adv-x="797" 
d="M738.5 1115.5q5.5 -0.5 24.5 -1.5v-292q-27 3 -48 4t-34 1q-172 0 -231 -112q-33 -63 -33 -194v-521h-287v1090h272v-190q66 109 115 149q80 67 208 67q8 0 13.5 -0.5z" />
    <glyph glyph-name="s" unicode="s" horiz-adv-x="1139" 
d="M355 348q9 -76 39 -108q53 -57 196 -57q84 0 133.5 25t49.5 75q0 48 -40 73t-297 86q-185 46 -261 115q-76 68 -76 196q0 151 118.5 259.5t333.5 108.5q204 0 332.5 -81.5t147.5 -281.5h-285q-6 55 -31 87q-47 58 -160 58q-93 0 -132.5 -29t-39.5 -68q0 -49 42 -71
q42 -23 297 -79q170 -40 255 -121q84 -82 84 -205q0 -162 -120.5 -264.5t-372.5 -102.5q-257 0 -379.5 108.5t-122.5 276.5h289zM573 1119z" />
    <glyph glyph-name="t" unicode="t" horiz-adv-x="682" 
d="M21 877v203h152v304h282v-304h177v-203h-177v-576q0 -67 17 -83.5t104 -16.5q13 0 27.5 0.5t28.5 1.5v-213l-135 -5q-202 -7 -276 70q-48 49 -48 151v671h-152z" />
    <glyph glyph-name="u" unicode="u" 
d="M417 1090v-657q0 -93 22 -140q39 -83 153 -83q146 0 200 118q28 64 28 169v593h289v-1090h-277v154q-4 -5 -20 -30t-38 -44q-67 -60 -129.5 -82t-146.5 -22q-242 0 -326 174q-47 96 -47 283v657h292zM617 1119z" />
    <glyph glyph-name="v" unicode="v" horiz-adv-x="1139" 
d="M805 1090h306l-393 -1090h-301l-391 1090h320l227 -804z" />
    <glyph glyph-name="w" unicode="w" horiz-adv-x="1593" 
d="M647 1090h289l166 -785l170 785h297l-316 -1090h-293l-171 794l-173 -794h-296l-306 1090h306l170 -782z" />
    <glyph glyph-name="x" unicode="x" horiz-adv-x="1139" 
d="M26 0l372 552l-356 536h349l182 -316l178 316h339l-358 -531l372 -557h-355l-188 327l-189 -327h-346z" />
    <glyph glyph-name="y" unicode="y" horiz-adv-x="1139" 
d="M177 -209l36 -2q42 -2 80 3t64 23q25 17 46.5 71t17.5 66l-400 1138h317l238 -804l225 804h303l-374 -1072q-108 -310 -171 -384.5t-252 -74.5q-38 0 -61 0.5t-69 3.5v228zM563 1119z" />
    <glyph glyph-name="z" unicode="z" horiz-adv-x="1024" 
d="M71 858v232h884v-237l-553 -619h572v-234h-941v222l559 636h-521zM513 1119z" />
    <glyph glyph-name="braceleft" unicode="{" horiz-adv-x="797" 
d="M208 225q0 126 -76 193q-46 41 -132 65v121q97 33 137 73q71 69 71 211v268q0 51 17 107q30 97 102 154q66 52 155 69q54 11 155 12v-159q-83 -18 -113 -48q-46 -46 -46 -161v-232q0 -112 -30 -178q-51 -111 -200 -180q135 -55 181.5 -128t48.5 -202v-253q0 -111 54 -160
q30 -29 105 -51v-159l-71 2q-143 4 -250.5 85.5t-107.5 237.5v313z" />
    <glyph glyph-name="bar" unicode="|" horiz-adv-x="573" 
d="M369 1488v-1488h-263v1488h263z" />
    <glyph glyph-name="braceright" unicode="}" horiz-adv-x="797" 
d="M45 -413v159q75 22 105 52q51 50 53 159v253q0 142 55 210.5t175 119.5q-131 64 -180.5 145.5t-49.5 212.5v232q0 111 -35.5 151t-122.5 58v159q100 -1 154 -12q89 -17 156 -69t93 -128t26 -133v-268q0 -143 65 -210q40 -40 143 -74v-121q-85 -24 -129 -62
q-79 -68 -79 -196v-313q0 -152 -105 -235.5t-253 -87.5z" />
    <glyph glyph-name="asciitilde" unicode="~" horiz-adv-x="1196" 
d="M52.5 510q31.5 86 77.5 141q49 58 101 81.5t107 23.5q24 0 63 -6q62 -10 115 -30l233 -90q41 -16 79.5 -22.5t59.5 -6.5q66 0 105 51.5t57 124.5h170q-27 -186 -110.5 -319t-225.5 -133q-28 0 -59 5q-60 9 -142 43l-209 79q-29 11 -71 20t-62 9q-57 0 -101 -43.5
t-63 -132.5h-173q17 119 48.5 205z" />
    <glyph glyph-name="Adieresis" unicode="&#xc4;" horiz-adv-x="1479" 
d="M559 557h374l-184 580zM578 1474h348l522 -1474h-334l-95 303h-543l-102 -303h-322zM750 1474zM819 1848h261v-237h-261v237zM419 1848h261v-237h-261v237zM750 1474z" />
    <glyph glyph-name="Aring" unicode="&#xc5;" horiz-adv-x="1479" 
d="M559 557h374l-184 580zM578 1474h348l522 -1474h-334l-95 303h-543l-102 -303h-322zM750 1474zM678 1664.5q35 -34.5 84 -34.5t83.5 34.5t34.5 83.5t-34.5 84t-83.5 35t-84 -35t-35 -84t35 -83.5zM608 1902q64 64 154 64t154 -64t64 -154t-64 -154t-154 -64t-154 64
t-64 154t64 154zM762 1424z" />
    <glyph glyph-name="Ccedilla" unicode="&#xc7;" horiz-adv-x="1479" 
d="M299 1320q180 182 458 182q372 0 544 -244q95 -137 102 -275h-308q-30 106 -77 160q-84 96 -249 96q-168 0 -265 -135.5t-97 -383.5t102.5 -371.5t260.5 -123.5q162 0 247 106q47 57 78 171h305q-40 -241 -204.5 -392t-393.5 -151l-61 -90q33 7 47 9.5t30 2.5
q81 0 129 -39.5t48 -113.5q0 -92 -75 -145.5t-193 -53.5q-51 0 -123 21q-33 10 -93 32l38 86q57 -17 78 -22q48 -12 78 -12q60 0 86 25.5t26 53.5q0 42 -29 59t-62 17q-19 0 -39 -4.5t-45 -12.5l-43 40l94 147q-237 0 -419 204q-182 205 -182 562q0 386 207 595z" />
    <glyph glyph-name="Eacute" unicode="&#xc9;" horiz-adv-x="1366" 
d="M1246 1213h-780v-313h716v-256h-716v-379h816v-265h-1117v1474h1081v-261zM1054 1891l-304 -299h-206l192 299h318zM713 1474z" />
    <glyph glyph-name="Ntilde" unicode="&#xd1;" horiz-adv-x="1479" 
d="M151 1474h323l587 -1029v1029h287v-1474h-308l-602 1047v-1047h-287v1474zM761 1477zM685 1854q26 -6 44 -13l94 -35q42 -14 55 -18t29 -4q48 0 67.5 25.5t28.5 60.5h133q-18 -105 -71.5 -176t-156.5 -71q-31 0 -88 15q-33 8 -63 18l-81 27q-17 6 -33 8.5t-32 2.5
q-38 0 -62 -22q-24 -23 -34 -63h-130q22 103 57 156q64 95 190 95q27 0 53 -6zM761 1477z" />
    <glyph glyph-name="Odieresis" unicode="&#xd6;" horiz-adv-x="1593" 
d="M1098.5 355q107.5 135 107.5 384q0 248 -107.5 383.5t-290.5 135.5t-292 -135t-109 -384t109 -384t292 -135t290.5 135zM1291 131q-167 -172 -483 -172t-483 172q-224 211 -224 608q0 405 224 608q167 172 483 172t483 -172q223 -203 223 -608q0 -397 -223 -608z
M808 1519zM877 1893h261v-237h-261v237zM477 1893h261v-237h-261v237zM808 1519z" />
    <glyph glyph-name="Udieresis" unicode="&#xdc;" horiz-adv-x="1479" 
d="M156 1474h313v-906q0 -152 36 -222q56 -124 244 -124q187 0 243 124q36 70 36 222v906h313v-906q0 -235 -73 -366q-136 -240 -519 -240t-520 240q-73 131 -73 366v906zM749 1474zM818 1848h261v-237h-261v237zM418 1848h261v-237h-261v237zM749 1474z" />
    <glyph glyph-name="aacute" unicode="&#xe1;" horiz-adv-x="1139" 
d="M734 530q-27 -17 -54.5 -27.5t-75.5 -19.5l-64 -12q-90 -16 -129 -39q-66 -39 -66 -121q0 -73 40.5 -105.5t98.5 -32.5q92 0 169.5 54t80.5 197v106zM561 663q79 10 113 25q61 26 61 81q0 67 -46.5 92.5t-136.5 25.5q-101 0 -143 -50q-30 -37 -40 -100h-275q9 143 80 235
q113 144 388 144q179 0 318 -71t139 -268v-500q0 -52 2 -126q3 -56 17 -76t42 -33v-42h-310q-13 33 -18 62t-8 66q-59 -64 -136 -109q-92 -53 -208 -53q-148 0 -244.5 84.5t-96.5 239.5q0 201 155 291q85 49 250 70zM576 1119zM917 1536l-304 -299h-206l192 299h318z
M576 1119z" />
    <glyph glyph-name="agrave" unicode="&#xe0;" horiz-adv-x="1139" 
d="M734 530q-27 -17 -54.5 -27.5t-75.5 -19.5l-64 -12q-90 -16 -129 -39q-66 -39 -66 -121q0 -73 40.5 -105.5t98.5 -32.5q92 0 169.5 54t80.5 197v106zM561 663q79 10 113 25q61 26 61 81q0 67 -46.5 92.5t-136.5 25.5q-101 0 -143 -50q-30 -37 -40 -100h-275q9 143 80 235
q113 144 388 144q179 0 318 -71t139 -268v-500q0 -52 2 -126q3 -56 17 -76t42 -33v-42h-310q-13 33 -18 62t-8 66q-59 -64 -136 -109q-92 -53 -208 -53q-148 0 -244.5 84.5t-96.5 239.5q0 201 155 291q85 49 250 70zM576 1119zM745 1237h-206l-303 299h317zM576 1119z" />
    <glyph glyph-name="acircumflex" unicode="&#xe2;" horiz-adv-x="1139" 
d="M734 530q-27 -17 -54.5 -27.5t-75.5 -19.5l-64 -12q-90 -16 -129 -39q-66 -39 -66 -121q0 -73 40.5 -105.5t98.5 -32.5q92 0 169.5 54t80.5 197v106zM561 663q79 10 113 25q61 26 61 81q0 67 -46.5 92.5t-136.5 25.5q-101 0 -143 -50q-30 -37 -40 -100h-275q9 143 80 235
q113 144 388 144q179 0 318 -71t139 -268v-500q0 -52 2 -126q3 -56 17 -76t42 -33v-42h-310q-13 33 -18 62t-8 66q-59 -64 -136 -109q-92 -53 -208 -53q-148 0 -244.5 84.5t-96.5 239.5q0 201 155 291q85 49 250 70zM576 1119zM938 1237h-232l-130 168l-131 -168h-232
l235 299h256zM576 1119z" />
    <glyph glyph-name="adieresis" unicode="&#xe4;" horiz-adv-x="1139" 
d="M734 530q-27 -17 -54.5 -27.5t-75.5 -19.5l-64 -12q-90 -16 -129 -39q-66 -39 -66 -121q0 -73 40.5 -105.5t98.5 -32.5q92 0 169.5 54t80.5 197v106zM561 663q79 10 113 25q61 26 61 81q0 67 -46.5 92.5t-136.5 25.5q-101 0 -143 -50q-30 -37 -40 -100h-275q9 143 80 235
q113 144 388 144q179 0 318 -71t139 -268v-500q0 -52 2 -126q3 -56 17 -76t42 -33v-42h-310q-13 33 -18 62t-8 66q-59 -64 -136 -109q-92 -53 -208 -53q-148 0 -244.5 84.5t-96.5 239.5q0 201 155 291q85 49 250 70zM576 1119zM645 1493h261v-237h-261v237zM245 1493h261
v-237h-261v237zM576 1119z" />
    <glyph glyph-name="atilde" unicode="&#xe3;" horiz-adv-x="1139" 
d="M734 530q-27 -17 -54.5 -27.5t-75.5 -19.5l-64 -12q-90 -16 -129 -39q-66 -39 -66 -121q0 -73 40.5 -105.5t98.5 -32.5q92 0 169.5 54t80.5 197v106zM561 663q79 10 113 25q61 26 61 81q0 67 -46.5 92.5t-136.5 25.5q-101 0 -143 -50q-30 -37 -40 -100h-275q9 143 80 235
q113 144 388 144q179 0 318 -71t139 -268v-500q0 -52 2 -126q3 -56 17 -76t42 -33v-42h-310q-13 33 -18 62t-8 66q-59 -64 -136 -109q-92 -53 -208 -53q-148 0 -244.5 84.5t-96.5 239.5q0 201 155 291q85 49 250 70zM576 1119zM500 1496q26 -6 44 -13l94 -35q42 -14 55 -18
t29 -4q48 0 67.5 25.5t28.5 60.5h133q-18 -105 -71.5 -176t-156.5 -71q-31 0 -88 15q-33 8 -63 18l-81 27q-17 6 -33 8.5t-32 2.5q-38 0 -62 -22q-24 -23 -34 -63h-130q22 103 57 156q64 95 190 95q27 0 53 -6zM576 1119z" />
    <glyph glyph-name="aring" unicode="&#xe5;" horiz-adv-x="1139" 
d="M734 530q-27 -17 -54.5 -27.5t-75.5 -19.5l-64 -12q-90 -16 -129 -39q-66 -39 -66 -121q0 -73 40.5 -105.5t98.5 -32.5q92 0 169.5 54t80.5 197v106zM561 663q79 10 113 25q61 26 61 81q0 67 -46.5 92.5t-136.5 25.5q-101 0 -143 -50q-30 -37 -40 -100h-275q9 143 80 235
q113 144 388 144q179 0 318 -71t139 -268v-500q0 -52 2 -126q3 -56 17 -76t42 -33v-42h-310q-13 33 -18 62t-8 66q-59 -64 -136 -109q-92 -53 -208 -53q-148 0 -244.5 84.5t-96.5 239.5q0 201 155 291q85 49 250 70zM576 1119zM492 1359.5q35 -34.5 84 -34.5t83.5 34.5
t34.5 83.5t-34.5 84t-83.5 35t-84 -35t-35 -84t35 -83.5zM422 1597q64 64 154 64t154 -64t64 -154t-64 -154t-154 -64t-154 64t-64 154t64 154zM576 1119z" />
    <glyph glyph-name="ccedilla" unicode="&#xe7;" horiz-adv-x="1139" 
d="M784 699q-8 61 -41 110q-48 66 -149 66q-144 0 -197 -143q-28 -76 -28 -202q0 -120 28 -193q51 -136 192 -136q100 0 142 54t51 140h291q-10 -130 -94 -246q-134 -187 -366 -187l-63 -93q33 7 47 9.5t30 2.5q81 0 129 -39.5t48 -113.5q0 -92 -75 -145.5t-193 -53.5
q-51 0 -123 21q-33 10 -93 32l38 86q57 -17 78 -22q48 -12 78 -12q60 0 86 25.5t26 53.5q0 42 -29 59t-62 17q-19 0 -39 -4.5t-45 -12.5l-43 40l99 150q-188 0 -312 156t-124 405q0 281 137 437t378 156q205 0 335.5 -92t154.5 -325h-292z" />
    <glyph glyph-name="eacute" unicode="&#xe9;" horiz-adv-x="1139" 
d="M409.5 822q-54.5 -62 -68.5 -168h443q-7 113 -68.5 171.5t-152.5 58.5q-99 0 -153.5 -62zM808 1068q109 -51 180 -161q64 -97 83 -225q11 -75 9 -216h-746q6 -164 103 -230q59 -41 142 -41q88 0 143 50q30 27 53 75h291q-11 -97 -101 -197q-140 -159 -392 -159
q-208 0 -367 134t-159 436q0 283 143.5 434t372.5 151q136 0 245 -51zM583 1119zM924 1536l-304 -299h-206l192 299h318zM583 1119z" />
    <glyph glyph-name="egrave" unicode="&#xe8;" horiz-adv-x="1139" 
d="M409.5 822q-54.5 -62 -68.5 -168h443q-7 113 -68.5 171.5t-152.5 58.5q-99 0 -153.5 -62zM808 1068q109 -51 180 -161q64 -97 83 -225q11 -75 9 -216h-746q6 -164 103 -230q59 -41 142 -41q88 0 143 50q30 27 53 75h291q-11 -97 -101 -197q-140 -159 -392 -159
q-208 0 -367 134t-159 436q0 283 143.5 434t372.5 151q136 0 245 -51zM583 1119zM752 1237h-206l-303 299h317zM583 1119z" />
    <glyph glyph-name="ecircumflex" unicode="&#xea;" horiz-adv-x="1139" 
d="M409.5 822q-54.5 -62 -68.5 -168h443q-7 113 -68.5 171.5t-152.5 58.5q-99 0 -153.5 -62zM808 1068q109 -51 180 -161q64 -97 83 -225q11 -75 9 -216h-746q6 -164 103 -230q59 -41 142 -41q88 0 143 50q30 27 53 75h291q-11 -97 -101 -197q-140 -159 -392 -159
q-208 0 -367 134t-159 436q0 283 143.5 434t372.5 151q136 0 245 -51zM583 1119zM945 1237h-232l-130 168l-131 -168h-232l235 299h256zM583 1119z" />
    <glyph glyph-name="edieresis" unicode="&#xeb;" horiz-adv-x="1139" 
d="M409.5 822q-54.5 -62 -68.5 -168h443q-7 113 -68.5 171.5t-152.5 58.5q-99 0 -153.5 -62zM808 1068q109 -51 180 -161q64 -97 83 -225q11 -75 9 -216h-746q6 -164 103 -230q59 -41 142 -41q88 0 143 50q30 27 53 75h291q-11 -97 -101 -197q-140 -159 -392 -159
q-208 0 -367 134t-159 436q0 283 143.5 434t372.5 151q136 0 245 -51zM583 1119zM652 1493h261v-237h-261v237zM252 1493h261v-237h-261v237zM583 1119z" />
    <glyph glyph-name="iacute" unicode="&#xed;" horiz-adv-x="569" 
d="M137 1090h289v-1090h-289v1090zM282 1119zM628 1536l-304 -299h-206l192 299h318zM287 1119z" />
    <glyph glyph-name="igrave" unicode="&#xec;" horiz-adv-x="569" 
d="M137 1090h289v-1090h-289v1090zM282 1119zM459 1237h-206l-303 299h317zM290 1119z" />
    <glyph glyph-name="icircumflex" unicode="&#xee;" horiz-adv-x="569" 
d="M137 1090h289v-1090h-289v1090zM282 1119zM651 1237h-232l-130 168l-131 -168h-232l235 299h256zM289 1119z" />
    <glyph glyph-name="idieresis" unicode="&#xef;" horiz-adv-x="569" 
d="M137 1090h289v-1090h-289v1090zM282 1119zM357 1493h261v-237h-261v237zM-43 1493h261v-237h-261v237zM288 1119z" />
    <glyph glyph-name="ntilde" unicode="&#xf1;" 
d="M1013.5 1027.5q107.5 -88.5 107.5 -293.5v-734h-292v663q0 86 -23 132q-42 84 -160 84q-145 0 -199 -123q-28 -65 -28 -166v-590h-284v1088h275v-159q55 84 104 121q88 66 223 66q169 0 276.5 -88.5zM632 1119zM556 1496q26 -6 44 -13l94 -35q42 -14 55 -18t29 -4
q48 0 67.5 25.5t28.5 60.5h133q-18 -105 -71.5 -176t-156.5 -71q-31 0 -88 15q-33 8 -63 18l-81 27q-17 6 -33 8.5t-32 2.5q-38 0 -62 -22q-24 -23 -34 -63h-130q22 103 57 156q64 95 190 95q27 0 53 -6zM632 1119z" />
    <glyph glyph-name="oacute" unicode="&#xf3;" 
d="M814 290q67 89 67 253t-67 252.5t-192 88.5t-192.5 -88.5t-67.5 -252.5t67.5 -253t192.5 -89t192 89zM1042 132.5q-138 -170.5 -419 -170.5t-419 170.5t-138 410.5q0 236 138 409t419 173t419 -173t138 -409q0 -240 -138 -410.5zM623 1119zM964 1536l-304 -299h-206
l192 299h318zM623 1119z" />
    <glyph glyph-name="ograve" unicode="&#xf2;" 
d="M814 290q67 89 67 253t-67 252.5t-192 88.5t-192.5 -88.5t-67.5 -252.5t67.5 -253t192.5 -89t192 89zM1042 132.5q-138 -170.5 -419 -170.5t-419 170.5t-138 410.5q0 236 138 409t419 173t419 -173t138 -409q0 -240 -138 -410.5zM623 1119zM792 1237h-206l-303 299h317z
M623 1119z" />
    <glyph glyph-name="ocircumflex" unicode="&#xf4;" 
d="M814 290q67 89 67 253t-67 252.5t-192 88.5t-192.5 -88.5t-67.5 -252.5t67.5 -253t192.5 -89t192 89zM1042 132.5q-138 -170.5 -419 -170.5t-419 170.5t-138 410.5q0 236 138 409t419 173t419 -173t138 -409q0 -240 -138 -410.5zM623 1119zM985 1237h-232l-130 168
l-131 -168h-232l235 299h256zM623 1119z" />
    <glyph glyph-name="odieresis" unicode="&#xf6;" 
d="M814 290q67 89 67 253t-67 252.5t-192 88.5t-192.5 -88.5t-67.5 -252.5t67.5 -253t192.5 -89t192 89zM1042 132.5q-138 -170.5 -419 -170.5t-419 170.5t-138 410.5q0 236 138 409t419 173t419 -173t138 -409q0 -240 -138 -410.5zM623 1119zM692 1493h261v-237h-261v237z
M292 1493h261v-237h-261v237zM623 1119z" />
    <glyph glyph-name="otilde" unicode="&#xf5;" 
d="M814 290q67 89 67 253t-67 252.5t-192 88.5t-192.5 -88.5t-67.5 -252.5t67.5 -253t192.5 -89t192 89zM1042 132.5q-138 -170.5 -419 -170.5t-419 170.5t-138 410.5q0 236 138 409t419 173t419 -173t138 -409q0 -240 -138 -410.5zM623 1119zM547 1496q26 -6 44 -13l94 -35
q42 -14 55 -18t29 -4q48 0 67.5 25.5t28.5 60.5h133q-18 -105 -71.5 -176t-156.5 -71q-31 0 -88 15q-33 8 -63 18l-81 27q-17 6 -33 8.5t-32 2.5q-38 0 -62 -22q-24 -23 -34 -63h-130q22 103 57 156q64 95 190 95q27 0 53 -6zM623 1119z" />
    <glyph glyph-name="uacute" unicode="&#xfa;" 
d="M417 1090v-657q0 -93 22 -140q39 -83 153 -83q146 0 200 118q28 64 28 169v593h289v-1090h-277v154q-4 -5 -20 -30t-38 -44q-67 -60 -129.5 -82t-146.5 -22q-242 0 -326 174q-47 96 -47 283v657h292zM617 1119zM958 1536l-304 -299h-206l192 299h318zM617 1119z" />
    <glyph glyph-name="ugrave" unicode="&#xf9;" 
d="M417 1090v-657q0 -93 22 -140q39 -83 153 -83q146 0 200 118q28 64 28 169v593h289v-1090h-277v154q-4 -5 -20 -30t-38 -44q-67 -60 -129.5 -82t-146.5 -22q-242 0 -326 174q-47 96 -47 283v657h292zM617 1119zM786 1237h-206l-303 299h317zM617 1119z" />
    <glyph glyph-name="ucircumflex" unicode="&#xfb;" 
d="M417 1090v-657q0 -93 22 -140q39 -83 153 -83q146 0 200 118q28 64 28 169v593h289v-1090h-277v154q-4 -5 -20 -30t-38 -44q-67 -60 -129.5 -82t-146.5 -22q-242 0 -326 174q-47 96 -47 283v657h292zM617 1119zM979 1237h-232l-130 168l-131 -168h-232l235 299h256z
M617 1119z" />
    <glyph glyph-name="udieresis" unicode="&#xfc;" 
d="M417 1090v-657q0 -93 22 -140q39 -83 153 -83q146 0 200 118q28 64 28 169v593h289v-1090h-277v154q-4 -5 -20 -30t-38 -44q-67 -60 -129.5 -82t-146.5 -22q-242 0 -326 174q-47 96 -47 283v657h292zM617 1119zM686 1493h261v-237h-261v237zM286 1493h261v-237h-261v237z
M617 1119z" />
    <glyph glyph-name="dagger" unicode="&#x2020;" horiz-adv-x="1139" 
d="M426 1453h278v-451h357v-230h-357v-1142h-278v1142h-355v225h355v456z" />
    <glyph glyph-name="degree" unicode="&#xb0;" horiz-adv-x="819" 
d="M644.5 1364.5q95.5 -95.5 95.5 -227.5t-95.5 -227.5t-227.5 -95.5t-227.5 95.5t-95.5 227.5t95.5 227.5t227.5 95.5t227.5 -95.5zM303 1023q47 -47 114 -47t114 47t47 114t-47 114t-114 47t-114 -47t-47 -114t47 -114z" />
    <glyph glyph-name="cent" unicode="&#xa2;" horiz-adv-x="1139" 
d="M578 874q-100 0 -155.5 -102t-55.5 -239q0 -117 24.5 -183.5t51.5 -91.5l170 614q-17 2 -35 2zM209 956.5q140 159.5 358 159.5q46 0 64.5 -2t48.5 -8l50 181h106l-59 -202q108 -37 175 -104q104 -102 124 -282h-292q-11 60 -36 99q-15 26 -40 43l-175 -635q16 -3 28 -5
t26 -2q68 0 124 47t71 149h291q-17 -187 -133.5 -311.5t-378.5 -124.5q-30 0 -49 2t-48 5l-59 -211h-112l74 242q-126 48 -212 184.5t-86 346.5q0 269 140 428.5z" />
    <glyph glyph-name="sterling" unicode="&#xa3;" horiz-adv-x="1139" 
d="M66 175q72 39 149 125.5t77 169.5q0 44 -16 100q-9 32 -30 86h-178v112h114q-46 90 -68 158.5t-22 147.5q0 154 127.5 276t363.5 122q196 0 340 -108.5t153 -366.5h-271q-10 99 -46 160q-53 85 -179 85q-93 0 -147 -57.5t-54 -132.5q0 -45 19 -94.5t85 -189.5h287v-112
h-244q4 -39 6.5 -65t2.5 -52q0 -96 -58 -178q-37 -51 -150 -155q80 29 118 38q61 16 119 16q36 0 70.5 -6t73.5 -17l41 -13q27 -9 45.5 -11.5t31.5 -2.5q46 0 108 26q36 15 90 46l82 -223q-50 -33 -140 -64t-173 -31q-44 0 -92 11t-104 29l-57 19q-37 12 -61 18q-40 8 -82 8
q-45 0 -97 -18q-34 -13 -125 -55z" />
    <glyph glyph-name="section" unicode="&#xa7;" horiz-adv-x="1139" 
d="M187 949q-38 72 -38 160q0 149 106.5 257t310.5 108q244 0 346 -160q55 -86 64 -215h-258q-7 60 -30 95q-41 62 -135 62q-63 0 -103 -30.5t-40 -89.5q0 -68 70 -102t257 -120q326 -154 326 -357q0 -127 -74 -210q-41 -46 -120 -87q56 -48 82 -90q46 -73 46 -172
q0 -191 -132 -291.5t-296 -100.5q-178 0 -302.5 89t-141.5 295h270q14 -74 40 -107q43 -56 141 -56q60 0 103 37t43 96q0 53 -45 93t-255 146q-183 90 -250 148q-107 93 -107 226q0 125 72 207q42 49 119 89q-32 22 -69 80zM766 573q-26 21 -72 45l-299 152q-52 -22 -74 -65
q-14 -28 -14 -60q0 -49 43 -87q25 -23 88 -56l284 -149q33 14 56 41q36 39 36 93q0 45 -48 86z" />
    <glyph glyph-name="bullet" unicode="&#x2022;" horiz-adv-x="717" 
d="M587 734q0 -96 -62.5 -159t-158.5 -63t-158.5 63t-62.5 159t62.5 158t158.5 62t158.5 -62t62.5 -158z" />
    <glyph glyph-name="paragraph" unicode="&#xb6;" horiz-adv-x="1139" 
d="M950 -370h-202v1673h-196v-1673h-202v865q-188 0 -299.5 129t-111.5 347q0 214 123 358.5t362 144.5h651v-171h-125v-1673z" />
    <glyph glyph-name="germandbls" unicode="&#xdf;" 
d="M137 1035q0 188 60 286q108 177 418 177q216 0 348 -104t132 -282q0 -67 -19 -118q-36 -95 -133 -153q125 -53 180 -147.5t55 -223.5q0 -184 -113.5 -340.5t-393.5 -156.5q-14 0 -43.5 2.5t-63.5 9.5v228q22 -2 37 -2.5t27 -0.5q158 0 221 92q40 60 40 160
q0 148 -103 204q-61 33 -208 45v199q107 1 151 23q72 38 72 152q0 96 -56.5 139.5t-136.5 43.5q-126 0 -165 -85q-24 -50 -24 -181v-1002h-282v1035z" />
    <glyph glyph-name="registered" unicode="&#xae;" horiz-adv-x="1509" 
d="M330 1164q-176 -180 -176 -427q0 -256 179 -435q178 -179 430 -179q251 0 429 180q178 181 178 434q0 246 -177 427q-179 184 -430 184q-254 0 -433 -184zM1279 208q-215 -208 -516 -208q-311 0 -524 213t-213 524q0 323 230 537q216 200 507 200q305 0 521 -216
t216 -521q0 -314 -221 -529zM830 983q-44 17 -124 17h-52v-237h83q75 0 117 30t42 97t-66 93zM440 327v817q76 0 227.5 -0.5t168.5 -1.5q97 -7 161 -42q109 -60 109 -195q0 -103 -57.5 -149t-141.5 -55q77 -16 116 -47q72 -58 72 -183v-73q0 -12 1.5 -24t5.5 -24l7 -23h-204
q-10 39 -13 113t-13 100q-16 43 -60 60q-24 10 -73 13l-47 3h-45v-289h-214z" />
    <glyph glyph-name="copyright" unicode="&#xa9;" horiz-adv-x="1509" 
d="M330 1164q-176 -180 -176 -427q0 -256 179 -435q178 -179 430 -179q251 0 429 180q178 181 178 434q0 246 -177 427q-179 184 -430 184q-254 0 -433 -184zM1279 208q-215 -208 -516 -208q-311 0 -524 213t-213 524q0 323 230 537q216 200 507 200q305 0 521 -216
t216 -521q0 -314 -221 -529zM999.5 369.5q-105.5 -69.5 -218.5 -69.5q-168 0 -290.5 120t-122.5 315q0 182 105.5 310t289.5 128q117 0 203 -48q140 -78 174 -273l-188 3q-17 90 -72 121q-46 29 -101 29q-83 0 -136 -68.5t-53 -206.5q0 -137 58.5 -199t140.5 -62
q75 0 113.5 41t49.5 103h183q-30 -174 -135.5 -243.5z" />
    <glyph glyph-name="trademark" unicode="&#x2122;" horiz-adv-x="2048" 
d="M203 1296v178h655v-178h-221v-564h-216v564h-218zM1232 1474l135 -427l133 427h308v-742h-197v538l-161 -538h-168l-161 538v-538h-197v742h308z" />
    <glyph glyph-name="acute" unicode="&#xb4;" horiz-adv-x="682" 
d="M628 1536l-304 -299h-206l192 299h318zM287 1119z" />
    <glyph glyph-name="dieresis" unicode="&#xa8;" horiz-adv-x="682" 
d="M357 1493h261v-237h-261v237zM-43 1493h261v-237h-261v237zM288 1119z" />
    <glyph glyph-name="old_notequal" horiz-adv-x="1124" 
d="M1156 644h-351l-83 -204h434v-263h-557l-90 -196h-272l87 196h-251v263h370l90 204h-460v263h578l88 197h273l-88 -197h232v-263z" />
    <glyph glyph-name="AE" unicode="&#xc6;" horiz-adv-x="2048" 
d="M886 1218h-133l-227 -664h360v664zM554 1469h1394v-256h-759v-317h683v-252h-683v-384h773v-260h-1076v312h-441l-107 -312h-320z" />
    <glyph glyph-name="Oslash" unicode="&#xd8;" horiz-adv-x="1593" 
d="M984 1218q-72 40 -179 40q-214 0 -307 -141.5t-93 -377.5q0 -98 18 -180q10 -48 36 -119l633 697q-39 47 -108 81zM658 247.5q71 -27.5 147 -27.5q214 0 307.5 161t93.5 358q0 66 -8 128q-13 95 -42 164l-628 -690q59 -66 130 -93.5zM1061.5 1475q125.5 -44 222.5 -127
l164 178l85 -81l-168 -187q56 -69 102 -192q45 -128 45 -327q0 -346 -197 -565q-194 -215 -510 -215q-122 0 -243.5 37.5t-230.5 131.5l-175 -185l-85 80l182 190q-58 78 -102 197q-52 142 -52 329q0 346 218 594q188 186 488 186q131 0 256.5 -44z" />
    <glyph glyph-name="infinity" unicode="&#x221e;" horiz-adv-x="1460" 
d="M1178.5 874q-42.5 52 -118.5 52q-75 0 -114.5 -40t-95.5 -156q47 -94 91.5 -144t118.5 -50q77 0 119 54.5t42 146.5q0 85 -42.5 137zM509 586q46 50 93 151q-56 109 -104.5 151t-125.5 42q-61 0 -104 -54t-43 -139q0 -92 40.5 -146.5t106.5 -54.5q91 0 137 50zM875 1089
q78 52 185 52q173 0 265 -115t92 -289q0 -180 -89.5 -294t-267.5 -114q-110 0 -202 75q-66 55 -126 150q-69 -111 -161 -169t-199 -58q-178 0 -262.5 115t-84.5 295q0 174 95 288.5t252 114.5q94 0 177 -49t164 -174q84 120 162 172z" />
    <glyph glyph-name="plusminus" unicode="&#xb1;" horiz-adv-x="1124" 
d="M1156 246v-246h-1083v246h1083zM73 566v244h410v273h263v-273h410v-244h-410v-256h-263v256h-410z" />
    <glyph glyph-name="lessequal" unicode="&#x2264;" horiz-adv-x="1124" 
d="M71 0v246h1083v-246h-1083zM71 568v254l1083 294v-266l-659 -154l659 -156v-266z" />
    <glyph glyph-name="greaterequal" unicode="&#x2265;" horiz-adv-x="1124" 
d="M73 540l659 156l-659 154v266l1083 -294v-254l-1083 -294v266zM73 246h1083v-246h-1083v246z" />
    <glyph glyph-name="yen" unicode="&#xa5;" horiz-adv-x="1139" 
d="M1161 1431l-228 -471h143v-136h-209l-107 -218h282v-135h-320v-471h-291v471h-318v135h280l-109 218h-213v136h147l-240 471h339l266 -623l253 623h325z" />
    <glyph glyph-name="mu" unicode="&#xb5;" horiz-adv-x="1180" 
d="M521 1090l-130 -728q-1 -7 -2 -15t-1 -16q0 -68 48.5 -94.5t97.5 -26.5q72 0 134 41.5t97 98.5q24 39 41 105t44 211l79 424h284l-194 -1088h-263l28 182q-45 -72 -136.5 -144t-198.5 -72q-42 0 -75 12t-50 27l-87 -482h-290l285 1565h289z" />
    <glyph glyph-name="old_partialdiff" horiz-adv-x="1012" 
d="M375.5 233.5q62.5 -56.5 143.5 -56.5q102 0 175 79t73 211q0 97 -50 163.5t-155 66.5q-110 0 -179.5 -86t-69.5 -216q0 -105 62.5 -161.5zM158.5 92q-122.5 133 -122.5 323q0 221 142 367.5t360 146.5q80 0 158 -36q91 -48 138 -118q1 30 3 57t2 44q0 165 -59 300
t-179 135q-32 0 -58.5 -11.5t-52.5 -34.5l-140 190q54 26 106 43q76 24 149 24q206 0 340 -166q161 -199 161 -584q0 -328 -174 -565q-183 -248 -454 -248q-197 0 -319.5 133z" />
    <glyph glyph-name="old_summation" horiz-adv-x="1460" 
d="M1173 1471v-270h-717l515 -606l-525 -625h746v-270h-1201v220l583 675l-555 656v220h1154z" />
    <glyph glyph-name="product" unicode="&#x220f;" horiz-adv-x="1686" 
d="M1287 -300h-306v1520h-481v-1520h-306v1520h-187v254h1467v-254h-187v-1520z" />
    <glyph glyph-name="pi" unicode="&#x3c0;" horiz-adv-x="1124" 
d="M166 852h-125v213h1169v-213h-125v-852h-286v852h-346v-852h-287v852z" />
    <glyph glyph-name="old_integral" horiz-adv-x="561" 
d="M612 -247q-80 -185 -283 -185q-43 0 -100 11.5t-111 31.5l24 227q38 -21 62 -30t52 -9q73 0 98 80q16 52 22 215l38 920q10 248 58 355q77 177 285 177q62 0 142 -19q80 -20 70 -20l-21 -227q-36 17 -62.5 26t-58.5 9q-76 0 -104 -80q-18 -52 -24 -221l-36 -972
q-8 -189 -51 -289z" />
    <glyph glyph-name="ordfeminine" unicode="&#xaa;" horiz-adv-x="758" 
d="M481 1170q-18 -12 -32.5 -17.5t-46.5 -10.5l-47 -7q-72 -11 -100.5 -36t-28.5 -63q0 -40 27 -60.5t69 -20.5q35 0 75 16q26 12 41 26q19 14 29.5 34t13.5 75v64zM417 1256q28 3 46 16.5t18 37.5q0 47 -47 64q-27 10 -74 10q-53 0 -79 -22.5t-37 -67.5h-180q12 91 54 142
q70 83 237 83q123 0 188 -24q120 -45 120 -195v-322q0 -39 8 -65.5t33 -35.5v-36h-200q-7 17 -11.5 34.5t-4.5 41.5q-52 -45 -87 -64q-62 -33 -136 -33q-137 0 -192 85q-33 49 -33 116q0 108 82 166q54 38 167 52z" />
    <glyph glyph-name="ordmasculine" unicode="&#xba;" horiz-adv-x="748" 
d="M501.5 1021q40.5 56 40.5 149t-40.5 149t-125.5 56t-127.5 -56t-42.5 -149t42.5 -149t127.5 -56t125.5 56zM642 916q-96 -96 -266 -96t-266 96t-96 254t96 254t266 96t266 -96t96 -254t-96 -254z" />
    <glyph glyph-name="Omega" unicode="&#x2126;" horiz-adv-x="1573" 
d="M1436 507.5q-64 -114.5 -211 -256.5h318v-251h-614v279q130 98 191 200t61 307q0 238 -104.5 351.5t-280.5 113.5t-280.5 -113.5t-104.5 -351.5q0 -205 66.5 -307t185.5 -200v-279h-614v251h318q-147 142 -211 256.5t-64 288.5q0 283 137 473q187 250 567 250t567 -250
q137 -190 137 -473q0 -174 -64 -288.5z" />
    <glyph glyph-name="ae" unicode="&#xe6;" horiz-adv-x="1821" 
d="M1455 658q-7 105 -60 167.5t-160 62.5q-108 0 -164 -56.5t-62 -173.5h446zM744 521q-21 -15 -38 -21.5t-76 -18.5l-109 -22q-94 -19 -126 -41q-54 -36 -54 -119q0 -47 35 -88t119 -41q87 0 145 32q104 58 104 210v109zM599 661q68 10 99 27q48 26 48 78q0 79 -80 108
q-43 15 -115 15q-110 0 -153 -62q-23 -33 -26 -93h-278q11 225 187 318q117 62 298 62q129 0 228 -44q55 -24 115 -73q61 52 140 84.5t183 32.5q332 0 449 -273q62 -145 57 -367h-746q0 -113 27 -173q50 -110 192 -110q80 0 139 27.5t87 108.5h289q-12 -100 -99 -200
q-143 -163 -406 -163q-135 0 -231.5 51t-149.5 131q-74 -95 -177.5 -139t-237.5 -44q-202 0 -292 98t-90 234q0 185 137 270q76 46 231 70z" />
    <glyph glyph-name="oslash" unicode="&#xf8;" 
d="M702 872q-43 12 -84 12q-119 0 -187.5 -89.5t-68.5 -245.5q0 -49 7 -98t24 -84l415 441q-36 44 -106 64zM515 223q46 -24 116 -24q123 0 186.5 96t63.5 244q0 50 -4.5 81.5t-18.5 97.5l-413 -439q42 -41 70 -56zM1028.5 123.5q-151.5 -164.5 -417.5 -164.5
q-132 0 -235 44q-58 25 -125 77l-135 -142l-74 62l142 144q-69 93 -93.5 200.5t-24.5 197.5q0 250 146 416.5t390 166.5q142 0 230 -30.5t163 -92.5l138 145l71 -67l-143 -149q66 -87 92.5 -185.5t26.5 -193.5q0 -264 -151.5 -428.5z" />
    <glyph glyph-name="questiondown" unicode="&#xbf;" 
d="M758 796h-299v289h299v-289zM961 -304.5q-150 -99.5 -326 -99.5q-229 0 -377.5 109t-148.5 318q0 130 64 220q39 55 147 138l71 55q58 45 77 105q12 38 13 117h270q-6 -166 -32.5 -231.5t-133.5 -149.5l-73 -57q-62 -49 -84 -104q-14 -34 -14 -79q0 -91 53.5 -145
t145.5 -54q136 0 192 110q29 59 29 127h289q-12 -280 -162 -379.5z" />
    <glyph glyph-name="exclamdown" unicode="&#xa1;" horiz-adv-x="682" 
d="M538 -384h-313v374l80 687h150l83 -687v-374zM530 796h-298v289h298v-289z" />
    <glyph glyph-name="logicalnot" unicode="&#xac;" horiz-adv-x="1196" 
d="M1156 907v-730h-263v467h-820v263h1083z" />
    <glyph glyph-name="old_radical" horiz-adv-x="1124" 
d="M481 -38l-271 910l-175 -107l-78 138l389 222l248 -919l536 1699h168l-604 -1943h-213z" />
    <glyph glyph-name="florin" unicode="&#x192;" horiz-adv-x="1139" 
d="M1057 1242q-34 18 -59.5 26.5t-51.5 8.5q-36 0 -64.5 -14t-50.5 -56q-18 -42 -30 -100.5t-24 -130.5h247v-199h-275l-121 -735q-32 -193 -93 -299q-102 -175 -297 -175q-47 0 -104.5 12t-103.5 31l50 227q40 -23 60.5 -30.5t48.5 -7.5q72 0 99.5 61t57.5 233l116 683
h-249v199h280q57 289 114 383q90 148 296 148q58 0 104 -9t99 -29z" />
    <glyph glyph-name="old_approxequal" horiz-adv-x="1124" 
d="M202 484q62 31 151 32q99 0 269.5 -77t242.5 -77q109 0 206 69q49 36 85 81v-285q-48 -43 -106 -73q-88 -45 -176 -45q-102 0 -266.5 75.5t-257.5 75.5q-92 0 -149 -32.5t-128 -114.5v278q67 62 129 93zM1063 618q-94 -52 -189 -52q-99 0 -268.5 77t-255.5 77
q-92 0 -150.5 -36t-126.5 -113v277q63 56 129 91t151 35q98 0 268.5 -77t243.5 -77q86 0 159.5 40t131.5 109v-284q-36 -36 -93 -67z" />
    <glyph glyph-name="Delta" unicode="&#x2206;" horiz-adv-x="1253" 
d="M1392 0h-1398l546 1474h306zM984 265l-291 894l-291 -894h582z" />
    <glyph glyph-name="guillemotleft" unicode="&#xab;" horiz-adv-x="1139" 
d="M175 682l342 294v-238l-204 -175l204 -174v-238l-342 293v238zM618 682l342 294v-238l-204 -175l204 -174v-238l-342 293v238z" />
    <glyph glyph-name="guillemotright" unicode="&#xbb;" horiz-adv-x="1139" 
d="M785 444l-342 -293v238l204 174l-204 175v238l342 -294v-238zM342 444l-342 -293v238l204 174l-204 175v238l342 -294v-238z" />
    <glyph glyph-name="ellipsis" unicode="&#x2026;" horiz-adv-x="2048" 
d="M872 0v298h306v-298h-306zM189 0v298h306v-298h-306zM1554 0v298h306v-298h-306z" />
    <glyph glyph-name="nonbreakingspace" unicode="&#xa0;" horiz-adv-x="569" 
 />
    <glyph glyph-name="Agrave" unicode="&#xc0;" horiz-adv-x="1479" 
d="M559 557h374l-184 580zM578 1474h348l522 -1474h-334l-95 303h-543l-102 -303h-322zM750 1474zM919 1592h-206l-303 299h317zM750 1474z" />
    <glyph glyph-name="Atilde" unicode="&#xc3;" horiz-adv-x="1479" 
d="M559 557h374l-184 580zM578 1474h348l522 -1474h-334l-95 303h-543l-102 -303h-322zM750 1474zM674 1851q26 -6 44 -13l94 -35q42 -14 55 -18t29 -4q48 0 67.5 25.5t28.5 60.5h133q-18 -105 -71.5 -176t-156.5 -71q-31 0 -88 15q-33 8 -63 18l-81 27q-17 6 -33 8.5
t-32 2.5q-38 0 -62 -22q-24 -23 -34 -63h-130q22 103 57 156q64 95 190 95q27 0 53 -6zM750 1474z" />
    <glyph glyph-name="Otilde" unicode="&#xd5;" horiz-adv-x="1593" 
d="M1098.5 355q107.5 135 107.5 384q0 248 -107.5 383.5t-290.5 135.5t-292 -135t-109 -384t109 -384t292 -135t290.5 135zM1291 131q-167 -172 -483 -172t-483 172q-224 211 -224 608q0 405 224 608q167 172 483 172t483 -172q223 -203 223 -608q0 -397 -223 -608z
M808 1519zM732 1896q26 -6 44 -13l94 -35q42 -14 55 -18t29 -4q48 0 67.5 25.5t28.5 60.5h133q-18 -105 -71.5 -176t-156.5 -71q-31 0 -88 15q-33 8 -63 18l-81 27q-17 6 -33 8.5t-32 2.5q-38 0 -62 -22q-24 -23 -34 -63h-130q22 103 57 156q64 95 190 95q27 0 53 -6z
M808 1519z" />
    <glyph glyph-name="OE" unicode="&#x152;" horiz-adv-x="2048" 
d="M911.5 270.5q74.5 60.5 74.5 129.5v654q0 78 -68 135t-196 57q-178 0 -262 -155t-84 -371q0 -209 87 -359.5t262 -150.5q112 0 186.5 60.5zM260 1322q163 183 413 183q127 0 220 -48q51 -26 112 -85v97h962v-256h-683v-322h636v-247h-636v-384h683v-260h-962v101
q-52 -78 -138 -108.5t-192 -30.5q-252 0 -415 184q-185 245 -185 588t185 588z" />
    <glyph glyph-name="oe" unicode="&#x153;" horiz-adv-x="1933" 
d="M801 290q59 98 59 247q0 162 -57 254.5t-200 92.5q-157 0 -215 -145q-31 -76 -31 -197q0 -172 61 -261t180 -89q144 0 203 98zM841 1070q93 -44 154 -115q80 78 138 109q95 50 233 50q127 0 229 -51t174 -147q58 -77 78 -200q16 -80 16 -242h-745q6 -127 63.5 -203.5
t163.5 -76.5q89 0 144 28.5t75 99.5h284q-19 -141 -146.5 -248.5t-363.5 -107.5q-135 0 -235 55q-58 32 -127 102q-55 -64 -116 -98q-108 -61 -268 -61q-244 0 -386.5 159t-142.5 413q0 273 149 425.5t392 152.5q144 0 237 -44zM1541 794q-56 99 -201 99q-66 0 -117 -29
q-96 -57 -102 -206h452q-2 83 -32 136z" />
    <glyph glyph-name="endash" unicode="&#x2013;" horiz-adv-x="1139" 
d="M-5 682h1147v-218h-1147v218z" />
    <glyph glyph-name="emdash" unicode="&#x2014;" horiz-adv-x="2048" 
d="M241 682h1565v-218h-1565v218z" />
    <glyph glyph-name="quotedblleft" unicode="&#x201c;" horiz-adv-x="1024" 
d="M613 1137q0 152 73.5 238t206.5 113v-104q-101 -31 -136 -112q-20 -43 -16 -83h157v-263h-285v211zM139 1137q0 150 71.5 237t208.5 114v-104q-102 -32 -137 -110q-18 -41 -15 -85h157v-263h-285v211z" />
    <glyph glyph-name="quotedblright" unicode="&#x201d;" horiz-adv-x="1024" 
d="M628 1012q103 31 137 114q14 33 14 80h-156v263h284v-211q0 -143 -69.5 -233.5t-209.5 -117.5v105zM156 1012q101 32 136 110q19 41 16 84h-157v263h285v-211q0 -147 -71.5 -236t-208.5 -115v105z" />
    <glyph glyph-name="quoteleft" unicode="&#x2018;" horiz-adv-x="569" 
d="M137 1137q0 153 72.5 238.5t207.5 112.5v-104q-103 -30 -137 -112q-19 -44 -15 -83h156v-263h-284v211z" />
    <glyph glyph-name="quoteright" unicode="&#x2019;" horiz-adv-x="569" 
d="M137 1012q98 31 135 105q20 44 17 89h-157v263h285v-211q0 -151 -73.5 -238t-206.5 -113v105z" />
    <glyph glyph-name="divide" unicode="&#xf7;" horiz-adv-x="1124" 
d="M462 0v298h306v-298h-306zM1156 673v-261h-1083v261h1083zM768 1083v-297h-306v297h306z" />
    <glyph glyph-name="lozenge" unicode="&#x25ca;" horiz-adv-x="1012" 
d="M1002 751l-486 -789l-483 789l483 768zM256 751l260 -446l263 446l-263 424z" />
    <glyph glyph-name="ydieresis" unicode="&#xff;" horiz-adv-x="1139" 
d="M177 -209l36 -2q42 -2 80 3t64 23q25 17 46.5 71t17.5 66l-400 1138h317l238 -804l225 804h303l-374 -1072q-108 -310 -171 -384.5t-252 -74.5q-38 0 -61 0.5t-69 3.5v228zM563 1119zM632 1493h261v-237h-261v237zM232 1493h261v-237h-261v237zM563 1119z" />
    <glyph glyph-name="Ydieresis" unicode="&#x178;" horiz-adv-x="1366" 
d="M997 1474h349l-493 -920v-554h-308v554l-510 920h363l306 -642zM691 1474zM760 1848h261v-237h-261v237zM360 1848h261v-237h-261v237zM691 1474z" />
    <glyph glyph-name="fraction" unicode="&#x2044;" horiz-adv-x="342" 
d="M-349 -38l870 1483h161l-870 -1483h-161z" />
    <glyph glyph-name="Euro" unicode="&#x20ac;" horiz-adv-x="1524" 
d="M68 419l42 201h247q-4 50 -4 105q0 48 3 94h-288l42 201h274q42 179 143 300q151 182 385 182q312 0 457 -244q80 -137 86 -275h-259q-25 106 -65 160q-70 96 -209 96q-141 0 -223 -136q-22 -37 -38 -83h397l-42 -201h-395q-3 -47 -3 -99q0 -53 3 -100h370l-42 -201h-283
q16 -39 38 -71q86 -123 219 -123q136 0 207 106q40 57 66 171h256q-34 -241 -172 -392t-354 -151q-267 0 -420 204q-80 107 -118 256h-320z" />
    <glyph glyph-name="guilsinglleft" unicode="&#x2039;" horiz-adv-x="682" 
d="M170 682l342 294v-238l-204 -175l204 -174v-238l-342 293v238z" />
    <glyph glyph-name="guilsinglright" unicode="&#x203a;" horiz-adv-x="682" 
d="M512 444l-342 -293v238l204 174l-204 175v238l342 -294v-238z" />
    <glyph glyph-name="daggerdbl" unicode="&#x2021;" horiz-adv-x="1139" 
d="M429 1445h270v-429h362v-227h-362v-498h362v-223l-362 -2v-436h-270v438h-358v225h358v496h-358v227h358v429z" />
    <glyph glyph-name="periodcentered" unicode="&#xb7;" horiz-adv-x="569" 
d="M399 600.5q-49 -48.5 -118 -48.5t-118.5 48.5t-49.5 117.5q0 68 49 117t117 49q69 0 119 -48.5t50 -117.5t-49 -117.5z" />
    <glyph glyph-name="quotesinglbase.old" horiz-adv-x="569" 
d="M151 -228q84 28 118 75t34 153h-157v289h290v-237q-1 -116 -24 -180q-38 -99 -118 -151q-47 -30 -143 -58v109z" />
    <glyph glyph-name="quotedblbase.old" horiz-adv-x="1024" 
d="M151 -228q84 28 118 75t34 153h-157v289h290v-237q-1 -116 -24 -180q-38 -99 -118 -151q-47 -30 -143 -58v109zM599 -228q99 28 133 105q19 44 19 123h-157v289h290v-237q-4 -124 -24 -185q-24 -70 -93.5 -126.5t-167.5 -77.5v109z" />
    <glyph glyph-name="perthousand" unicode="&#x2030;" horiz-adv-x="2048" 
d="M244.5 1245q-36.5 -37 -36.5 -89t37 -88.5t89 -36.5t88.5 36.5t36.5 88.5t-36.5 89t-88.5 37q-53 0 -89.5 -37zM995 1498h147l-834 -1536h-147zM566.5 1389.5q96.5 -96.5 96.5 -233.5q0 -136 -96 -232.5t-233 -96.5t-233.5 96.5t-96.5 232.5q0 137 97 233.5t233 96.5
t232.5 -96.5zM1631.5 373q-36.5 -36 -36.5 -89q0 -52 36.5 -89t88.5 -37t89 37t37 89q0 53 -37 89t-89 36t-88.5 -36zM1487.5 517q96.5 96 232.5 96q137 0 233.5 -96.5t96.5 -232.5t-96.5 -233t-233.5 -97q-136 0 -232.5 97t-96.5 233q0 137 96.5 233zM1066.5 195
q37.5 37 37.5 89q0 53 -37.5 89t-89.5 36t-88 -36t-36 -89q0 -52 36 -89t88 -37t89.5 37zM1211.5 51q-96.5 -97 -233.5 -97q-136 0 -232.5 97t-96.5 233q0 137 96.5 233t232.5 96q137 0 233.5 -96.5t96.5 -232.5t-96.5 -233z" />
    <glyph glyph-name="Acircumflex" unicode="&#xc2;" horiz-adv-x="1479" 
d="M559 557h374l-184 580zM578 1474h348l522 -1474h-334l-95 303h-543l-102 -303h-322zM750 1474zM1112 1592h-232l-130 168l-131 -168h-232l235 299h256zM750 1474z" />
    <glyph glyph-name="Ecircumflex" unicode="&#xca;" horiz-adv-x="1366" 
d="M1246 1213h-780v-313h716v-256h-716v-379h816v-265h-1117v1474h1081v-261zM1075 1592h-232l-130 168l-131 -168h-232l235 299h256zM713 1474z" />
    <glyph glyph-name="Aacute" unicode="&#xc1;" horiz-adv-x="1479" 
d="M559 557h374l-184 580zM578 1474h348l522 -1474h-334l-95 303h-543l-102 -303h-322zM750 1474zM1091 1891l-304 -299h-206l192 299h318zM750 1474z" />
    <glyph glyph-name="Edieresis" unicode="&#xcb;" horiz-adv-x="1366" 
d="M1246 1213h-780v-313h716v-256h-716v-379h816v-265h-1117v1474h1081v-261zM782 1848h261v-237h-261v237zM382 1848h261v-237h-261v237zM713 1474z" />
    <glyph glyph-name="Egrave" unicode="&#xc8;" horiz-adv-x="1366" 
d="M1246 1213h-780v-313h716v-256h-716v-379h816v-265h-1117v1474h1081v-261zM882 1592h-206l-303 299h317zM713 1474z" />
    <glyph glyph-name="Iacute" unicode="&#xcd;" horiz-adv-x="569" 
d="M438 0h-306v1474h306v-1474zM285 1503zM628 1920l-304 -299h-206l192 299h318zM287 1503z" />
    <glyph glyph-name="Icircumflex" unicode="&#xce;" horiz-adv-x="569" 
d="M438 0h-306v1474h306v-1474zM285 1503zM651 1621h-232l-130 168l-131 -168h-232l235 299h256zM289 1503z" />
    <glyph glyph-name="Idieresis" unicode="&#xcf;" horiz-adv-x="569" 
d="M438 0h-306v1474h306v-1474zM285 1503zM357 1877h261v-237h-261v237zM-43 1877h261v-237h-261v237zM288 1503z" />
    <glyph glyph-name="Igrave" unicode="&#xcc;" horiz-adv-x="569" 
d="M438 0h-306v1474h306v-1474zM285 1503zM459 1621h-206l-303 299h317zM290 1503z" />
    <glyph glyph-name="Oacute" unicode="&#xd3;" horiz-adv-x="1593" 
d="M1098.5 355q107.5 135 107.5 384q0 248 -107.5 383.5t-290.5 135.5t-292 -135t-109 -384t109 -384t292 -135t290.5 135zM1291 131q-167 -172 -483 -172t-483 172q-224 211 -224 608q0 405 224 608q167 172 483 172t483 -172q223 -203 223 -608q0 -397 -223 -608z
M808 1519zM1149 1936l-304 -299h-206l192 299h318zM808 1519z" />
    <glyph glyph-name="Ocircumflex" unicode="&#xd4;" horiz-adv-x="1593" 
d="M1098.5 355q107.5 135 107.5 384q0 248 -107.5 383.5t-290.5 135.5t-292 -135t-109 -384t109 -384t292 -135t290.5 135zM1291 131q-167 -172 -483 -172t-483 172q-224 211 -224 608q0 405 224 608q167 172 483 172t483 -172q223 -203 223 -608q0 -397 -223 -608z
M808 1519zM1170 1637h-232l-130 168l-131 -168h-232l235 299h256zM808 1519z" />
    <glyph glyph-name="apple" unicode="&#xf8ff;" horiz-adv-x="1618" 
d="M835 1204q45 0 147 35t177 35q123 0 219 -66q54 -38 107 -103q-80 -68 -117 -121q-67 -96 -67 -212q0 -127 71 -229t162 -129q-38 -123 -126 -257q-133 -201 -264 -201q-52 0 -143.5 33t-154.5 33t-146.5 -34.5t-135.5 -34.5q-157 0 -308 266q-151 263 -151 516
q0 235 115.5 383t291.5 148q75 0 181.5 -31t141.5 -31zM1148 1617q0 -64 -30 -140t-95 -141q-56 -55 -111 -74q-35 -11 -106 -17q2 152 79.5 263t256.5 152q4 -13 5 -23t1 -20z" />
    <glyph glyph-name="Ograve" unicode="&#xd2;" horiz-adv-x="1593" 
d="M1098.5 355q107.5 135 107.5 384q0 248 -107.5 383.5t-290.5 135.5t-292 -135t-109 -384t109 -384t292 -135t290.5 135zM1291 131q-167 -172 -483 -172t-483 172q-224 211 -224 608q0 405 224 608q167 172 483 172t483 -172q223 -203 223 -608q0 -397 -223 -608z
M808 1519zM977 1637h-206l-303 299h317zM808 1519z" />
    <glyph glyph-name="Uacute" unicode="&#xda;" horiz-adv-x="1479" 
d="M156 1474h313v-906q0 -152 36 -222q56 -124 244 -124q187 0 243 124q36 70 36 222v906h313v-906q0 -235 -73 -366q-136 -240 -519 -240t-520 240q-73 131 -73 366v906zM749 1474zM1090 1891l-304 -299h-206l192 299h318zM749 1474z" />
    <glyph glyph-name="Ucircumflex" unicode="&#xdb;" horiz-adv-x="1479" 
d="M156 1474h313v-906q0 -152 36 -222q56 -124 244 -124q187 0 243 124q36 70 36 222v906h313v-906q0 -235 -73 -366q-136 -240 -519 -240t-520 240q-73 131 -73 366v906zM749 1474zM1111 1592h-232l-130 168l-131 -168h-232l235 299h256zM749 1474z" />
    <glyph glyph-name="Ugrave" unicode="&#xd9;" horiz-adv-x="1479" 
d="M156 1474h313v-906q0 -152 36 -222q56 -124 244 -124q187 0 243 124q36 70 36 222v906h313v-906q0 -235 -73 -366q-136 -240 -519 -240t-520 240q-73 131 -73 366v906zM749 1474zM918 1592h-206l-303 299h317zM749 1474z" />
    <glyph glyph-name="dotlessi" unicode="&#x131;" horiz-adv-x="569" 
d="M137 1090h289v-1090h-289v1090zM282 1119z" />
    <glyph glyph-name="circumflex" unicode="&#x2c6;" horiz-adv-x="682" 
d="M651 1237h-232l-130 168l-131 -168h-232l235 299h256zM289 1119z" />
    <glyph glyph-name="tilde" unicode="&#x2dc;" horiz-adv-x="682" 
d="M212 1496q26 -6 44 -13l94 -35q42 -14 55 -18t29 -4q48 0 67.5 25.5t28.5 60.5h133q-18 -105 -71.5 -176t-156.5 -71q-31 0 -88 15q-33 8 -63 18l-81 27q-17 6 -33 8.5t-32 2.5q-38 0 -62 -22q-24 -23 -34 -63h-130q22 103 57 156q64 95 190 95q27 0 53 -6zM288 1119z
" />
    <glyph glyph-name="macron" unicode="&#xaf;" horiz-adv-x="682" 
d="M-67 1453h711v-152h-711v152z" />
    <glyph glyph-name="breve" unicode="&#x2d8;" horiz-adv-x="682" 
d="M533 1310.5q-89 -72.5 -243 -72.5t-243 72.5t-102 225.5h135q14 -92 96 -125q46 -19 114 -19t114 19q82 33 96 125h135q-13 -153 -102 -225.5zM290 1119z" />
    <glyph glyph-name="dotaccent" unicode="&#x2d9;" horiz-adv-x="682" 
d="M154 1493h260v-237h-260v237zM284 1119z" />
    <glyph glyph-name="ring" unicode="&#x2da;" horiz-adv-x="682" 
d="M200 1359.5q35 -34.5 84 -34.5t83.5 34.5t34.5 83.5t-34.5 84t-83.5 35t-84 -35t-35 -84t35 -83.5zM130 1597q64 64 154 64t154 -64t64 -154t-64 -154t-154 -64t-154 64t-64 154t64 154zM284 1119z" />
    <glyph glyph-name="cedilla" unicode="&#xb8;" horiz-adv-x="682" 
d="M454 -158.5q48 -39.5 48 -113.5q0 -92 -75 -145.5t-193 -53.5q-51 0 -123 21q-33 10 -93 32l38 86q57 -17 78 -22q48 -12 78 -12q60 0 86 25.5t26 53.5q0 42 -29 59t-62 17q-19 0 -39 -4.5t-45 -12.5l-129 117l207 111h109l-88 -131q33 7 47 9.5t30 2.5q81 0 129 -39.5z
" />
    <glyph glyph-name="hungarumlaut" unicode="&#x2dd;" horiz-adv-x="682" 
d="M543 1536h291l-244 -292h-196zM395 1536l-244 -292h-196l149 292h291z" />
    <glyph glyph-name="ogonek" unicode="&#x2db;" horiz-adv-x="682" 
d="M488 0l-67 -48q-69 -50 -102 -86t-33 -80q0 -46 33 -72.5t82 -26.5q22 0 46 6t55 17v-144q-45 -17 -75 -24q-54 -13 -122 -13q-105 0 -172 58.5t-67 139.5q0 91 84 168q49 45 158 105h180z" />
    <glyph glyph-name="caron" unicode="&#x2c7;" horiz-adv-x="682" 
d="M161 1237l-235 299h232l131 -169l130 169h232l-234 -299h-256zM289 1119z" />
    <glyph glyph-name="Lslash" unicode="&#x141;" 
d="M1194 0h-1038v566l-171 -109v194l171 105v718h308v-533l304 182v-187l-304 -183v-488h730v-265z" />
    <glyph glyph-name="lslash" unicode="&#x142;" horiz-adv-x="569" 
d="M424 0h-285v568l-163 -104v178l163 104v728h285v-552l163 104v-176l-163 -104v-746z" />
    <glyph glyph-name="Scaron" unicode="&#x160;" horiz-adv-x="1366" 
d="M379 455q14 -101 55 -151q75 -91 257 -91q109 0 177 24q129 46 129 171q0 73 -64 113q-64 39 -201 69l-156 35q-230 52 -318 113q-149 102 -149 319q0 198 144 329t423 131q233 0 397.5 -123.5t172.5 -358.5h-296q-8 133 -116 189q-72 37 -179 37q-119 0 -190 -48
t-71 -134q0 -79 70 -118q45 -26 192 -61l254 -61q167 -40 252 -107q132 -104 132 -301q0 -202 -154.5 -335.5t-436.5 -133.5q-288 0 -453 131.5t-165 361.5h294zM678 1519zM550 1637l-235 299h232l131 -169l130 169h232l-234 -299h-256zM678 1519z" />
    <glyph glyph-name="scaron" unicode="&#x161;" horiz-adv-x="1139" 
d="M355 348q9 -76 39 -108q53 -57 196 -57q84 0 133.5 25t49.5 75q0 48 -40 73t-297 86q-185 46 -261 115q-76 68 -76 196q0 151 118.5 259.5t333.5 108.5q204 0 332.5 -81.5t147.5 -281.5h-285q-6 55 -31 87q-47 58 -160 58q-93 0 -132.5 -29t-39.5 -68q0 -49 42 -71
q42 -23 297 -79q170 -40 255 -121q84 -82 84 -205q0 -162 -120.5 -264.5t-372.5 -102.5q-257 0 -379.5 108.5t-122.5 276.5h289zM573 1119zM445 1237l-235 299h232l131 -169l130 169h232l-234 -299h-256zM573 1119z" />
    <glyph glyph-name="Zcaron" unicode="&#x17d;" 
d="M52 260l761 953h-742v261h1126v-247l-771 -967h773v-260h-1147v260zM634 1474zM506 1592l-235 299h232l131 -169l130 169h232l-234 -299h-256zM634 1474z" />
    <glyph glyph-name="zcaron" unicode="&#x17e;" horiz-adv-x="1024" 
d="M71 858v232h884v-237l-553 -619h572v-234h-941v222l559 636h-521zM513 1119zM385 1237l-235 299h232l131 -169l130 169h232l-234 -299h-256zM513 1119z" />
    <glyph glyph-name="brokenbar" unicode="&#xa6;" horiz-adv-x="573" 
d="M106 903v585h263v-585h-263zM369 0h-263v587h263v-587z" />
    <glyph glyph-name="Eth" unicode="&#xd0;" horiz-adv-x="1479" 
d="M668 256q125 0 179 16q89 25 148 109q54 77 74.5 182.5t20.5 187.5q0 304 -150 409q-84 58 -258 58h-227v-304h310v-256h-310v-402h213zM1304 312q-159 -312 -534 -312h-614v658h-138v256h138v558h616q171 0 291.5 -51.5t208.5 -173.5q67 -93 99 -212t32 -263
q0 -266 -99 -460z" />
    <glyph glyph-name="eth" unicode="&#xf0;" 
d="M629.5 1004q26.5 -3 76.5 -16q-77 84 -107.5 113.5t-84.5 76.5l-221 -100l-102 103l226 99q-55 39 -70.5 53t-55.5 46l235 104q33 -22 56.5 -39.5t69.5 -52.5l182 79l102 -103l-178 -73q113 -118 156 -169q68 -79 109 -148q83 -141 111.5 -250.5t28.5 -225.5
q0 -225 -136.5 -377.5t-382.5 -152.5q-255 0 -395 149t-140 379q0 222 132.5 365t323.5 143q38 0 64.5 -3zM825 713q-56 89 -184 89q-111 0 -178.5 -76.5t-67.5 -232.5q0 -152 69.5 -226t172.5 -74q117 0 180.5 83t63.5 233q0 115 -56 204z" />
    <glyph glyph-name="Yacute" unicode="&#xdd;" horiz-adv-x="1366" 
d="M997 1474h349l-493 -920v-554h-308v554l-510 920h363l306 -642zM691 1474zM1032 1891l-304 -299h-206l192 299h318zM691 1474z" />
    <glyph glyph-name="yacute" unicode="&#xfd;" horiz-adv-x="1139" 
d="M177 -209l36 -2q42 -2 80 3t64 23q25 17 46.5 71t17.5 66l-400 1138h317l238 -804l225 804h303l-374 -1072q-108 -310 -171 -384.5t-252 -74.5q-38 0 -61 0.5t-69 3.5v228zM563 1119zM904 1536l-304 -299h-206l192 299h318zM563 1119z" />
    <glyph glyph-name="Thorn" unicode="&#xde;" horiz-adv-x="1366" 
d="M128 1472h299v-221h282q256 0 386.5 -114t130.5 -307q0 -292 -226 -399q-121 -57 -322 -57h-251v-374h-299v1472zM837 988q-54 24 -178 24h-232v-401h216q124 0 183 26q106 47 106 183q0 126 -95 168z" />
    <glyph glyph-name="thorn" unicode="&#xfe;" 
d="M859 359q30 78 30 194q0 146 -65 230t-181 84q-97 0 -167.5 -77t-70.5 -247q0 -156 61 -245t182 -89q154 0 211 150zM412 1472v-529q51 89 128.5 132.5t179.5 43.5q210 0 335 -141.5t125 -425.5q0 -245 -117.5 -413t-338.5 -168q-87 0 -146 23q-102 39 -166 150v-571
h-284v1899h284z" />
    <glyph glyph-name="minus" unicode="&#x2212;" horiz-adv-x="1196" 
d="M1156 673v-261h-1083v261h1083z" />
    <glyph glyph-name="multiply" unicode="&#xd7;" horiz-adv-x="1196" 
d="M960 1071l184 -185l-346 -344l346 -343l-184 -188l-347 346l-343 -346l-185 188l344 343l-344 344l185 185l343 -344z" />
    <glyph glyph-name="onesuperior" unicode="&#xb9;" horiz-adv-x="682" 
d="M80 1180v116q110 5 141 14t53 26q29 21 46.5 50.5t17.5 63.5h164v-870h-199v600h-223z" />
    <glyph glyph-name="twosuperior" unicode="&#xb2;" horiz-adv-x="682" 
d="M446 1282.5q-35 32.5 -93 32.5q-86 0 -115 -53q-18 -32 -20 -110h-181q3 156 85 232t228 76q135 0 227.5 -74t92.5 -204q0 -83 -46 -150.5t-153 -136.5l-73 -45q-44 -28 -70 -48q-55 -40 -68 -65h410v-157h-644q0 205 228 359q142 96 184.5 143.5t42.5 105.5
q0 62 -35 94.5z" />
    <glyph glyph-name="threesuperior" unicode="&#xb3;" horiz-adv-x="682" 
d="M201 853q4 -64 22 -94q33 -55 120 -55q37 0 71 18q64 34 64 117q0 82 -64 109q-39 17 -147 21v121q89 2 125 17q63 27 63 104q0 54 -35 82.5t-87 28.5q-60 0 -92.5 -39.5t-32.5 -102.5h-171q-5 135 94 220q75 60 210 60q138 0 219.5 -65.5t81.5 -171.5q0 -65 -31 -107.5
t-83 -68.5q55 -8 98.5 -55t43.5 -145q0 -134 -92.5 -207.5t-221.5 -73.5q-153 0 -245.5 67.5t-92.5 219.5h183z" />
    <glyph glyph-name="onehalf" unicode="&#xbd;" horiz-adv-x="1708" 
d="M1154 1445h161l-875 -1483h-161zM47 1180v116q111 5 145.5 16t56.5 29q32 24 44 57t12 52h164v-870h-199v600h-223zM1398 698.5q-33 35.5 -96 35.5q-86 0 -115 -56q-17 -31 -19 -107h-180q0 144 88 231q84 77 225 77q145 0 232.5 -78.5t87.5 -198.5q0 -88 -50.5 -157
t-146.5 -128l-76 -47q-24 -15 -38 -25t-38 -27q-18 -14 -35.5 -30.5t-25.5 -31.5h410v-156h-645q3 209 230 360q154 107 189.5 148.5t35.5 98.5q0 56 -33 91.5z" />
    <glyph glyph-name="onequarter" unicode="&#xbc;" horiz-adv-x="1708" 
d="M1630 187h-97v-187h-189v187h-375v149l348 526h216v-542h97v-133zM1344 320v372l-238 -372h238zM1244 1445h161l-875 -1483h-161zM90 1180v116q113 6 165 26q93 36 93 128h164v-870h-200v600h-222z" />
    <glyph glyph-name="threequarters" unicode="&#xbe;" horiz-adv-x="1708" 
d="M260 853q3 -58 22 -90q33 -59 120 -59q40 0 74 19q62 34 62 118q0 80 -66 108q-39 16 -145 20v121q90 2 126 18q62 27 62 107q0 40 -31 73.5t-92 33.5q-76 0 -106 -54q-16 -31 -19 -88h-170q-5 146 103 228q75 52 200 52q140 0 220.5 -66t80.5 -167q0 -66 -28 -108.5
t-86 -71.5q31 2 87 -51.5t56 -152.5q0 -125 -90.5 -201t-224.5 -76q-207 0 -287 111q-43 61 -50 176h182zM1678 187h-97v-187h-190v187h-375v149l349 526h216v-542h97v-133zM1391 320v372l-237 -372h237zM1310 1445h162l-870 -1483h-162z" />
    <glyph glyph-name="franc" unicode="&#x20a3;" horiz-adv-x="1139" 
d="M1118 1175h-670v-284h576v-251h-576v-216h310v-223h-310v-201h-280v201h-168v223h168v1007h950v-256z" />
    <glyph glyph-name="Gbreve" unicode="&#x11e;" horiz-adv-x="1593" 
d="M1147 1014q-35 151 -171 211q-76 33 -169 33q-178 0 -292.5 -134.5t-114.5 -404.5q0 -272 124 -385t282 -113q155 0 254 89.5t122 234.5h-341v246h614v-791h-204l-31 184q-89 -105 -160 -148q-122 -75 -300 -75q-293 0 -480 203q-195 204 -195 558q0 358 197 574t521 216
q281 0 451.5 -142.5t195.5 -355.5h-303zM802 1512zM1045 1703.5q-89 -72.5 -243 -72.5t-243 72.5t-102 225.5h135q14 -92 96 -125q46 -19 114 -19t114 19q82 33 96 125h135q-13 -153 -102 -225.5zM802 1512z" />
    <glyph glyph-name="gbreve" unicode="&#x11f;" 
d="M770 309.5q69 75.5 69 240.5q0 155 -65.5 236t-175.5 81q-150 0 -207 -141q-30 -75 -30 -185q0 -95 32 -169q58 -138 208 -138q100 0 169 75.5zM673 1091q104 -43 168 -158v157h277v-1034q0 -211 -71 -318q-122 -184 -468 -184q-209 0 -341 82t-146 245h310
q12 -50 39 -72q46 -39 155 -39q154 0 206 103q34 66 34 222v70q-41 -70 -88 -105q-85 -65 -221 -65q-210 0 -335.5 147.5t-125.5 399.5q0 243 121 408.5t343 165.5q82 0 143 -25zM621 1119zM864 1310.5q-89 -72.5 -243 -72.5t-243 72.5t-102 225.5h135q14 -92 96 -125
q46 -19 114 -19t114 19q82 33 96 125h135q-13 -153 -102 -225.5zM621 1119z" />
    <glyph glyph-name="Idotaccent" unicode="&#x130;" horiz-adv-x="569" 
d="M438 0h-306v1474h306v-1474zM285 1503zM155 1877h260v-237h-260v237zM285 1503z" />
    <glyph glyph-name="Scedilla" unicode="&#x15e;" horiz-adv-x="1366" 
d="M379 455q14 -101 55 -151q75 -91 257 -91q109 0 177 24q129 46 129 171q0 73 -64 112.5t-201 69.5l-156 35q-230 52 -318 113q-149 102 -149 319q0 198 144 329t423 131q233 0 397.5 -123.5t172.5 -358.5h-296q-8 133 -116 189q-72 37 -179 37q-119 0 -190 -48t-71 -134
q0 -79 70 -118q45 -26 192 -61l254 -61q167 -40 252 -107q132 -104 132 -301q0 -202 -154.5 -335.5t-431.5 -133.5l-62 -93q33 7 47 9.5t30 2.5q81 0 129 -39.5t48 -113.5q0 -92 -75 -145.5t-193 -53.5q-51 0 -123 21q-33 10 -93 32l38 86q57 -17 78 -22q48 -12 78 -12
q60 0 86 25.5t26 53.5q0 42 -29 59t-62 17q-19 0 -39 -4.5t-45 -12.5l-43 40l99 150q-188 0 -353 131.5t-165 361.5h294z" />
    <glyph glyph-name="scedilla" unicode="&#x15f;" horiz-adv-x="1139" 
d="M355 348q9 -76 39 -108q53 -57 196 -57q84 0 133.5 25t49.5 75q0 48 -40 73t-297 86q-185 46 -261 114.5t-76 196.5q0 151 118.5 259.5t333.5 108.5q204 0 332.5 -81.5t147.5 -281.5h-285q-6 55 -31 87q-47 58 -160 58q-93 0 -132.5 -29t-39.5 -68q0 -49 42 -71.5
t297 -78.5q339 -81 339 -326q0 -162 -120.5 -264.5t-344.5 -102.5l-64 -94q33 7 47 9.5t30 2.5q81 0 129 -39.5t48 -113.5q0 -92 -75 -145.5t-193 -53.5q-51 0 -123 21q-33 10 -93 32l38 86q57 -17 78 -22q48 -12 78 -12q60 0 86 25.5t26 53.5q0 42 -29 59t-62 17
q-19 0 -39 -4.5t-45 -12.5l-43 40l97 151q-176 0 -298.5 108.5t-122.5 276.5h289z" />
    <glyph glyph-name="Cacute" unicode="&#x106;" horiz-adv-x="1479" 
d="M299 1320q180 182 458 182q372 0 544 -244q95 -137 102 -275h-308q-30 106 -77 160q-84 96 -249 96q-168 0 -265 -135.5t-97 -383.5t102.5 -371.5t260.5 -123.5q162 0 247 106q47 57 78 171h305q-40 -241 -204.5 -392t-421.5 -151q-318 0 -500 204q-182 205 -182 562
q0 386 207 595zM748 1519zM1065 1900l-304 -299h-206l192 299h318zM724 1483z" />
    <glyph glyph-name="cacute" unicode="&#x107;" horiz-adv-x="1139" 
d="M784 699q-8 61 -41 110q-48 66 -149 66q-144 0 -197 -143q-28 -76 -28 -202q0 -120 28 -193q51 -136 192 -136q100 0 142 54t51 140h291q-10 -130 -94 -246q-134 -187 -397 -187t-387 156t-124 405q0 281 137 437t378 156q205 0 335.5 -92t154.5 -325h-292zM591 1119z
M920 1499l-304 -299h-206l192 299h318zM579 1082z" />
    <glyph glyph-name="Ccaron" unicode="&#x10c;" horiz-adv-x="1479" 
d="M299 1320q180 182 458 182q372 0 544 -244q95 -137 102 -275h-308q-30 106 -77 160q-84 96 -249 96q-168 0 -265 -135.5t-97 -383.5t102.5 -371.5t260.5 -123.5q162 0 247 106q47 57 78 171h305q-40 -241 -204.5 -392t-421.5 -151q-318 0 -500 204q-182 205 -182 562
q0 386 207 595zM748 1519zM626 1583l-235 299h232l131 -169l130 169h232l-234 -299h-256zM754 1465z" />
    <glyph glyph-name="ccaron" unicode="&#x10d;" horiz-adv-x="1139" 
d="M784 699q-8 61 -41 110q-48 66 -149 66q-144 0 -197 -143q-28 -76 -28 -202q0 -120 28 -193q51 -136 192 -136q100 0 142 54t51 140h291q-10 -130 -94 -246q-134 -187 -397 -187t-387 156t-124 405q0 281 137 437t378 156q205 0 335.5 -92t154.5 -325h-292zM591 1119z
M457 1218l-235 299h232l131 -169l130 169h232l-234 -299h-256zM585 1100z" />
    <glyph glyph-name="dcroat" unicode="&#x111;" 
d="M711 1072.5q77 -43.5 125 -120.5v253h-295v152h295v115h289v-115h127v-152h-127v-1205h-277v151q-61 -97 -139 -141t-194 -44q-191 0 -321.5 154.5t-130.5 396.5q0 279 128.5 439t343.5 160q99 0 176 -43.5zM781 296q63 90 63 233q0 200 -101 286q-62 52 -144 52
q-125 0 -183.5 -94.5t-58.5 -234.5q0 -151 59.5 -241.5t180.5 -90.5t184 90z" />
    <glyph glyph-name="Amacron" unicode="&#x100;" horiz-adv-x="1479" 
d="M559 557h374l-184 580zM578 1474h348l522 -1474h-334l-95 303h-543l-102 -303h-322zM750 1474zM397 1786h711v-152h-711v152z" />
    <glyph glyph-name="amacron" unicode="&#x101;" horiz-adv-x="1139" 
d="M734 530q-27 -17 -54.5 -27.5t-75.5 -19.5l-64 -12q-90 -16 -129 -39q-66 -39 -66 -121q0 -73 40.5 -105.5t98.5 -32.5q92 0 169.5 54t80.5 197v106zM561 663q79 10 113 25q61 26 61 81q0 67 -46.5 92.5t-136.5 25.5q-101 0 -143 -50q-30 -37 -40 -100h-275q9 143 80 235
q113 144 388 144q179 0 318 -71t139 -268v-500q0 -52 2 -126q3 -56 17 -76t42 -33v-42h-310q-13 33 -18 62t-8 66q-59 -64 -136 -109q-92 -53 -208 -53q-148 0 -244.5 84.5t-96.5 239.5q0 201 155 291q85 49 250 70zM576 1119zM205 1434h711v-152h-711v152z" />
    <glyph glyph-name="Abreve" unicode="&#x102;" horiz-adv-x="1479" 
d="M559 557h374l-184 580zM578 1474h348l522 -1474h-334l-95 303h-543l-102 -303h-322zM750 1474zM1009 1697.5q-89 -72.5 -243 -72.5t-243 72.5t-102 225.5h135q14 -92 96 -125q46 -19 114 -19t114 19q82 33 96 125h135q-13 -153 -102 -225.5zM766 1506z" />
    <glyph glyph-name="abreve" unicode="&#x103;" horiz-adv-x="1139" 
d="M734 530q-27 -17 -54.5 -27.5t-75.5 -19.5l-64 -12q-90 -16 -129 -39q-66 -39 -66 -121q0 -73 40.5 -105.5t98.5 -32.5q92 0 169.5 54t80.5 197v106zM561 663q79 10 113 25q61 26 61 81q0 67 -46.5 92.5t-136.5 25.5q-101 0 -143 -50q-30 -37 -40 -100h-275q9 143 80 235
q113 144 388 144q179 0 318 -71t139 -268v-500q0 -52 2 -126q3 -56 17 -76t42 -33v-42h-310q-13 33 -18 62t-8 66q-59 -64 -136 -109q-92 -53 -208 -53q-148 0 -244.5 84.5t-96.5 239.5q0 201 155 291q85 49 250 70zM576 1119zM831 1336.5q-89 -72.5 -243 -72.5t-243 72.5
t-102 225.5h135q14 -92 96 -125q46 -19 114 -19t114 19q82 33 96 125h135q-13 -153 -102 -225.5zM588 1145z" />
    <glyph glyph-name="Aogonek" unicode="&#x104;" horiz-adv-x="1479" 
d="M559 557h374l-184 580zM578 1474h348l522 -1474h-334l-95 303h-543l-102 -303h-322zM750 1474zM1434 0l-67 -48q-69 -50 -102 -86t-33 -80q0 -46 33 -72.5t82 -26.5q22 0 46 6t55 17v-144q-45 -17 -75 -24q-54 -13 -122 -13q-105 0 -172 58.5t-67 139.5q0 91 84 168
q49 45 158 105h180z" />
    <glyph glyph-name="aogonek" unicode="&#x105;" horiz-adv-x="1139" 
d="M734 530q-27 -17 -54.5 -27.5t-75.5 -19.5l-64 -12q-90 -16 -129 -39q-66 -39 -66 -121q0 -73 40.5 -105.5t98.5 -32.5q92 0 169.5 54t80.5 197v106zM561 663q79 10 113 25q61 26 61 81q0 67 -46.5 92.5t-136.5 25.5q-101 0 -143 -50q-30 -37 -40 -100h-275q9 143 80 235
q113 144 388 144q179 0 318 -71t139 -268v-500q0 -52 2 -126q3 -56 17 -76t42 -33v-42h-310q-13 33 -18 62t-8 66q-59 -64 -136 -109q-92 -53 -208 -53q-148 0 -244.5 84.5t-96.5 239.5q0 201 155 291q85 49 250 70zM576 1119zM1066 7l-67 -48q-69 -50 -102 -86t-33 -80
q0 -46 33 -72.5t82 -26.5q22 0 46 6t55 17v-144q-45 -17 -75 -24q-54 -13 -122 -13q-105 0 -172 58.5t-67 139.5q0 91 84 168q49 45 158 105h180z" />
    <glyph glyph-name="Ccircumflex" unicode="&#x108;" horiz-adv-x="1479" 
d="M299 1320q180 182 458 182q372 0 544 -244q95 -137 102 -275h-308q-30 106 -77 160q-84 96 -249 96q-168 0 -265 -135.5t-97 -383.5t102.5 -371.5t260.5 -123.5q162 0 247 106q47 57 78 171h305q-40 -241 -204.5 -392t-421.5 -151q-318 0 -500 204q-182 205 -182 562
q0 386 207 595zM748 1519zM1135 1621h-232l-130 168l-131 -168h-232l235 299h256zM773 1503z" />
    <glyph glyph-name="ccircumflex" unicode="&#x109;" horiz-adv-x="1139" 
d="M784 699q-8 61 -41 110q-48 66 -149 66q-144 0 -197 -143q-28 -76 -28 -202q0 -120 28 -193q51 -136 192 -136q100 0 142 54t51 140h291q-10 -130 -94 -246q-134 -187 -397 -187t-387 156t-124 405q0 281 137 437t378 156q205 0 335.5 -92t154.5 -325h-292zM591 1119z
M957 1258h-232l-130 168l-131 -168h-232l235 299h256zM595 1140z" />
    <glyph glyph-name="Cdotaccent" unicode="&#x10a;" horiz-adv-x="1479" 
d="M299 1320q180 182 458 182q372 0 544 -244q95 -137 102 -275h-308q-30 106 -77 160q-84 96 -249 96q-168 0 -265 -135.5t-97 -383.5t102.5 -371.5t260.5 -123.5q162 0 247 106q47 57 78 171h305q-40 -241 -204.5 -392t-421.5 -151q-318 0 -500 204q-182 205 -182 562
q0 386 207 595zM748 1519zM635 1865h260v-237h-260v237zM765 1491z" />
    <glyph glyph-name="cdotaccent" unicode="&#x10b;" horiz-adv-x="1139" 
d="M784 699q-8 61 -41 110q-48 66 -149 66q-144 0 -197 -143q-28 -76 -28 -202q0 -120 28 -193q51 -136 192 -136q100 0 142 54t51 140h291q-10 -130 -94 -246q-134 -187 -397 -187t-387 156t-124 405q0 281 137 437t378 156q205 0 335.5 -92t154.5 -325h-292zM591 1119z
M449 1470h260v-237h-260v237zM579 1096z" />
    <glyph glyph-name="Dcaron" unicode="&#x10e;" horiz-adv-x="1479" 
d="M455 1218v-962h284q218 0 304 215q47 118 47 281q0 225 -70.5 345.5t-280.5 120.5h-284zM1019 1442q155 -51 251 -187q77 -110 105 -238t28 -244q0 -294 -118 -498q-160 -275 -494 -275h-635v1474h635q137 -2 228 -32zM586 1613l-235 299h232l131 -169l130 169h232
l-234 -299h-256zM714 1495z" />
    <glyph glyph-name="dcaron" unicode="&#x10f;" horiz-adv-x="1536" 
d="M1227 1310q86 24 126.5 80t46.5 157h-173v298h308v-258q0 -68 -18 -142t-67 -128q-53 -58 -124.5 -87.5t-98.5 -29.5v110zM836 952v520h289v-1472h-277v151q-61 -97 -139 -141t-194 -44q-191 0 -321.5 154.5t-130.5 396.5q0 279 128.5 439t343.5 160q99 0 176 -43.5
t125 -120.5zM844 529q0 200 -101 286q-62 52 -144 52q-125 0 -183.5 -94.5t-58.5 -234.5q0 -151 59.5 -241.5t180.5 -90.5t184 90t63 233z" />
    <glyph glyph-name="Emacron" unicode="&#x112;" horiz-adv-x="1366" 
d="M1246 1213h-780v-313h716v-256h-716v-379h816v-265h-1117v1474h1081v-261zM377 1791h711v-152h-711v152z" />
    <glyph glyph-name="emacron" unicode="&#x113;" horiz-adv-x="1139" 
d="M409.5 822q-54.5 -62 -68.5 -168h443q-7 113 -68.5 171.5t-152.5 58.5q-99 0 -153.5 -62zM808 1068q109 -51 180 -161q64 -97 83 -225q11 -75 9 -216h-746q6 -164 103 -230q59 -41 142 -41q88 0 143 50q30 27 53 75h291q-11 -97 -101 -197q-140 -159 -392 -159
q-208 0 -367 134t-159 436q0 283 143.5 434t372.5 151q136 0 245 -51zM583 1119zM190 1401h711v-152h-711v152z" />
    <glyph glyph-name="Ebreve" unicode="&#x114;" horiz-adv-x="1366" 
d="M1246 1213h-780v-313h716v-256h-716v-379h816v-265h-1117v1474h1081v-261zM953 1691.5q-89 -72.5 -243 -72.5t-243 72.5t-102 225.5h135q14 -92 96 -125q46 -19 114 -19t114 19q82 33 96 125h135q-13 -153 -102 -225.5zM710 1500z" />
    <glyph glyph-name="ebreve" unicode="&#x115;" horiz-adv-x="1139" 
d="M409.5 822q-54.5 -62 -68.5 -168h443q-7 113 -68.5 171.5t-152.5 58.5q-99 0 -153.5 -62zM808 1068q109 -51 180 -161q64 -97 83 -225q11 -75 9 -216h-746q6 -164 103 -230q59 -41 142 -41q88 0 143 50q30 27 53 75h291q-11 -97 -101 -197q-140 -159 -392 -159
q-208 0 -367 134t-159 436q0 283 143.5 434t372.5 151q136 0 245 -51zM583 1119zM829 1349.5q-89 -72.5 -243 -72.5t-243 72.5t-102 225.5h135q14 -92 96 -125q46 -19 114 -19t114 19q82 33 96 125h135q-13 -153 -102 -225.5zM586 1158z" />
    <glyph glyph-name="Edotaccent" unicode="&#x116;" horiz-adv-x="1366" 
d="M1246 1213h-780v-313h716v-256h-716v-379h816v-265h-1117v1474h1081v-261zM625 1902h260v-237h-260v237zM755 1528z" />
    <glyph glyph-name="edotaccent" unicode="&#x117;" horiz-adv-x="1139" 
d="M409.5 822q-54.5 -62 -68.5 -168h443q-7 113 -68.5 171.5t-152.5 58.5q-99 0 -153.5 -62zM808 1068q109 -51 180 -161q64 -97 83 -225q11 -75 9 -216h-746q6 -164 103 -230q59 -41 142 -41q88 0 143 50q30 27 53 75h291q-11 -97 -101 -197q-140 -159 -392 -159
q-208 0 -367 134t-159 436q0 283 143.5 434t372.5 151q136 0 245 -51zM583 1119zM428 1493h260v-237h-260v237zM558 1119z" />
    <glyph glyph-name="Eogonek" unicode="&#x118;" horiz-adv-x="1366" 
d="M1246 1213h-780v-313h716v-256h-716v-379h816v-265h-1117v1474h1081v-261zM927 0l-67 -48q-69 -50 -102 -86t-33 -80q0 -46 33 -72.5t82 -26.5q22 0 46 6t55 17v-144q-45 -17 -75 -24q-54 -13 -122 -13q-105 0 -172 58.5t-67 139.5q0 91 84 168q49 45 158 105h180z" />
    <glyph glyph-name="eogonek" unicode="&#x119;" horiz-adv-x="1139" 
d="M409.5 822q-54.5 -62 -68.5 -168h443q-7 113 -68.5 171.5t-152.5 58.5q-99 0 -153.5 -62zM808 1068q109 -51 180 -161q64 -97 83 -225q11 -75 9 -216h-746q6 -164 103 -230q59 -41 142 -41q88 0 143 50q30 27 53 75h291q-11 -97 -101 -197q-140 -159 -392 -159
q-208 0 -367 134t-159 436q0 283 143.5 434t372.5 151q136 0 245 -51zM583 1119zM726 -6l-67 -48q-69 -50 -102 -86t-33 -80q0 -46 33 -72.5t82 -26.5q22 0 46 6t55 17v-144q-45 -17 -75 -24q-54 -13 -122 -13q-105 0 -172 58.5t-67 139.5q0 91 84 168q49 45 158 105h180z
" />
    <glyph glyph-name="Ecaron" unicode="&#x11a;" horiz-adv-x="1366" 
d="M1246 1213h-780v-313h716v-256h-716v-379h816v-265h-1117v1474h1081v-261zM584 1632l-235 299h232l131 -169l130 169h232l-234 -299h-256zM712 1514z" />
    <glyph glyph-name="ecaron" unicode="&#x11b;" horiz-adv-x="1139" 
d="M409.5 822q-54.5 -62 -68.5 -168h443q-7 113 -68.5 171.5t-152.5 58.5q-99 0 -153.5 -62zM808 1068q109 -51 180 -161q64 -97 83 -225q11 -75 9 -216h-746q6 -164 103 -230q59 -41 142 -41q88 0 143 50q30 27 53 75h291q-11 -97 -101 -197q-140 -159 -392 -159
q-208 0 -367 134t-159 436q0 283 143.5 434t372.5 151q136 0 245 -51zM583 1119zM440 1266l-235 299h232l131 -169l130 169h232l-234 -299h-256zM568 1148z" />
    <glyph glyph-name="Gcircumflex" unicode="&#x11c;" horiz-adv-x="1593" 
d="M1147 1014q-35 151 -171 211q-76 33 -169 33q-178 0 -292.5 -134.5t-114.5 -404.5q0 -272 124 -385t282 -113q155 0 254 89.5t122 234.5h-341v246h614v-791h-204l-31 184q-89 -105 -160 -148q-122 -75 -300 -75q-293 0 -480 203q-195 204 -195 558q0 358 197 574t521 216
q281 0 451.5 -142.5t195.5 -355.5h-303zM802 1512zM1135 1639h-232l-130 168l-131 -168h-232l235 299h256zM773 1521z" />
    <glyph glyph-name="gcircumflex" unicode="&#x11d;" 
d="M770 309.5q69 75.5 69 240.5q0 155 -65.5 236t-175.5 81q-150 0 -207 -141q-30 -75 -30 -185q0 -95 32 -169q58 -138 208 -138q100 0 169 75.5zM673 1091q104 -43 168 -158v157h277v-1034q0 -211 -71 -318q-122 -184 -468 -184q-209 0 -341 82t-146 245h310
q12 -50 39 -72q46 -39 155 -39q154 0 206 103q34 66 34 222v70q-41 -70 -88 -105q-85 -65 -221 -65q-210 0 -335.5 147.5t-125.5 399.5q0 243 121 408.5t343 165.5q82 0 143 -25zM621 1119zM989 1287h-232l-130 168l-131 -168h-232l235 299h256zM627 1169z" />
    <glyph glyph-name="Gdotaccent" unicode="&#x120;" horiz-adv-x="1593" 
d="M1147 1014q-35 151 -171 211q-76 33 -169 33q-178 0 -292.5 -134.5t-114.5 -404.5q0 -272 124 -385t282 -113q155 0 254 89.5t122 234.5h-341v246h614v-791h-204l-31 184q-89 -105 -160 -148q-122 -75 -300 -75q-293 0 -480 203q-195 204 -195 558q0 358 197 574t521 216
q281 0 451.5 -142.5t195.5 -355.5h-303zM802 1512zM661 1921h260v-237h-260v237zM791 1547z" />
    <glyph glyph-name="gdotaccent" unicode="&#x121;" 
d="M770 309.5q69 75.5 69 240.5q0 155 -65.5 236t-175.5 81q-150 0 -207 -141q-30 -75 -30 -185q0 -95 32 -169q58 -138 208 -138q100 0 169 75.5zM673 1091q104 -43 168 -158v157h277v-1034q0 -211 -71 -318q-122 -184 -468 -184q-209 0 -341 82t-146 245h310
q12 -50 39 -72q46 -39 155 -39q154 0 206 103q34 66 34 222v70q-41 -70 -88 -105q-85 -65 -221 -65q-210 0 -335.5 147.5t-125.5 399.5q0 243 121 408.5t343 165.5q82 0 143 -25zM621 1119zM457 1538h260v-237h-260v237zM587 1164z" />
    <glyph glyph-name="Gcedilla" horiz-adv-x="1593" 
d="M1147 1014q-35 151 -171 211q-76 33 -169 33q-178 0 -292.5 -134.5t-114.5 -404.5q0 -272 124 -385t282 -113q155 0 254 89.5t122 234.5h-341v246h614v-791h-204l-31 184q-89 -105 -160 -148q-122 -75 -300 -75q-293 0 -480 203q-195 204 -195 558q0 358 197 574t521 216
q281 0 451.5 -142.5t195.5 -355.5h-303zM802 1512zM964 -184.5q48 -39.5 48 -113.5q0 -92 -75 -145.5t-193 -53.5q-51 0 -123 21q-33 10 -93 32l38 86q57 -17 78 -22q48 -12 78 -12q60 0 86 25.5t26 53.5q0 42 -29 59t-62 17q-19 0 -39 -4.5t-45 -12.5l-129 117l207 111h109
l-88 -131q33 7 47 9.5t30 2.5q81 0 129 -39.5z" />
    <glyph glyph-name="gcedilla" 
d="M770 309.5q69 75.5 69 240.5q0 155 -65.5 236t-175.5 81q-150 0 -207 -141q-30 -75 -30 -185q0 -95 32 -169q58 -138 208 -138q100 0 169 75.5zM673 1091q104 -43 168 -158v157h277v-1034q0 -211 -71 -318q-122 -184 -468 -184q-209 0 -341 82t-146 245h310
q12 -50 39 -72q46 -39 155 -39q154 0 206 103q34 66 34 222v70q-41 -70 -88 -105q-85 -65 -221 -65q-210 0 -335.5 147.5t-125.5 399.5q0 243 121 408.5t343 165.5q82 0 143 -25zM621 1119zM786 -591.5q48 -39.5 48 -113.5q0 -92 -75 -145.5t-193 -53.5q-51 0 -123 21
q-33 10 -93 32l38 86q57 -17 78 -22q48 -12 78 -12q60 0 86 25.5t26 53.5q0 42 -29 59t-62 17q-19 0 -39 -4.5t-45 -12.5l-129 117l207 111h109l-88 -131q33 7 47 9.5t30 2.5q81 0 129 -39.5z" />
    <glyph glyph-name="gacute" unicode="&#x1f5;" 
d="M770 309.5q69 75.5 69 240.5q0 155 -65.5 236t-175.5 81q-150 0 -207 -141q-30 -75 -30 -185q0 -95 32 -169q58 -138 208 -138q100 0 169 75.5zM673 1091q104 -43 168 -158v157h277v-1034q0 -211 -71 -318q-122 -184 -468 -184q-209 0 -341 82t-146 245h310
q12 -50 39 -72q46 -39 155 -39q154 0 206 103q34 66 34 222v70q-41 -70 -88 -105q-85 -65 -221 -65q-210 0 -335.5 147.5t-125.5 399.5q0 243 121 408.5t343 165.5q82 0 143 -25zM621 1119zM914 1581l-304 -299h-206l192 299h318zM573 1164z" />
    <glyph glyph-name="Hcircumflex" unicode="&#x124;" horiz-adv-x="1479" 
d="M154 0v1474h305v-562h576v562h306v-1474h-306v658h-576v-658h-305zM1104 1622h-232l-130 168l-131 -168h-232l235 299h256zM742 1504z" />
    <glyph glyph-name="hcircumflex" unicode="&#x125;" 
d="M917.5 1083q82.5 -35 135.5 -107q45 -61 55 -125.5t10 -210.5v-640h-291v663q0 88 -30 142q-39 76 -148 76q-113 0 -171.5 -75.5t-58.5 -215.5v-590h-284v1469h284v-521q62 95 143.5 132.5t171.5 37.5q101 0 183.5 -35zM935 1595h-232l-130 168l-131 -168h-232l235 299
h256zM573 1477z" />
    <glyph glyph-name="Hbar" unicode="&#x126;" horiz-adv-x="1479" 
d="M154 0v1081h-139v218h139v175h305v-175h576v175h306v-175h121v-218h-121v-1081h-306v658h-576v-658h-305zM1035 912v169h-576v-169h576z" />
    <glyph glyph-name="hbar" unicode="&#x127;" 
d="M917.5 1083q82.5 -35 135.5 -107q45 -61 55 -125.5t10 -210.5v-640h-291v663q0 88 -30 142q-39 76 -148 76q-113 0 -171.5 -75.5t-58.5 -215.5v-590h-284v1469h284v-521q62 95 143.5 132.5t171.5 37.5q101 0 183.5 -35zM-15 1352h711v-152h-711v152z" />
    <glyph glyph-name="Itilde" unicode="&#x128;" horiz-adv-x="860" 
d="M518 0h-306v1474h306v-1474zM365 1503zM296 1872q26 -6 44 -13l94 -35q42 -14 55 -18t29 -4q48 0 67.5 25.5t28.5 60.5h133q-18 -105 -71.5 -176t-156.5 -71q-31 0 -88 15q-33 8 -63 18l-81 27q-17 6 -33 8.5t-32 2.5q-38 0 -62 -22q-24 -23 -34 -63h-130q22 103 57 156
q64 95 190 95q27 0 53 -6zM372 1495z" />
    <glyph glyph-name="itilde" unicode="&#x129;" horiz-adv-x="881" 
d="M230 1090h289v-1090h-289v1090zM375 1119zM301 1598q26 -6 44 -13l94 -35q42 -14 55 -18t29 -4q48 0 67.5 25.5t28.5 60.5h133q-18 -105 -71.5 -176t-156.5 -71q-31 0 -88 15q-33 8 -63 18l-81 27q-17 6 -33 8.5t-32 2.5q-38 0 -62 -22q-24 -23 -34 -63h-130
q22 103 57 156q64 95 190 95q27 0 53 -6zM377 1221z" />
    <glyph glyph-name="Imacron" unicode="&#x12a;" horiz-adv-x="870" 
d="M506 0h-306v1474h306v-1474zM353 1503zM10 1824h711v-152h-711v152z" />
    <glyph glyph-name="imacron" unicode="&#x12b;" horiz-adv-x="860" 
d="M211 1090h289v-1090h-289v1090zM356 1119zM12 1471h711v-152h-711v152z" />
    <glyph glyph-name="Iogonek" unicode="&#x12e;" horiz-adv-x="569" 
d="M438 0h-306v1474h306v-1474zM285 1503zM433 0l-67 -48q-69 -50 -102 -86t-33 -80q0 -46 33 -72.5t82 -26.5q22 0 46 6t55 17v-144q-45 -17 -75 -24q-54 -13 -122 -13q-105 0 -172 58.5t-67 139.5q0 91 84 168q49 45 158 105h180z" />
    <glyph glyph-name="iogonek" unicode="&#x12f;" horiz-adv-x="569" 
d="M426 1220h-289v263h289v-263zM137 1090h289v-1090h-289v1090zM425 0l-67 -48q-69 -50 -102 -86t-33 -80q0 -46 33 -72.5t82 -26.5q22 0 46 6t55 17v-144q-45 -17 -75 -24q-54 -13 -122 -13q-105 0 -172 58.5t-67 139.5q0 91 84 168q49 45 158 105h180z" />
    <glyph glyph-name="IJ" unicode="&#x132;" horiz-adv-x="1708" 
d="M438 0h-306v1474h306v-1474zM285 1503zM905 559v-34q4 -171 37.5 -240.5t143.5 -69.5q109 0 144 76q21 45 21 152v1031h308v-1026q0 -188 -65 -298q-110 -186 -397 -186t-385 150.5t-98 410.5v34h291z" />
    <glyph glyph-name="ij" unicode="&#x133;" horiz-adv-x="1138" 
d="M426 1220h-289v263h289v-263zM137 1090h289v-1090h-289v1090zM1000 1220h-285v263h285v-263zM578 -209q24 -2 34 -2.5t18 -0.5q42 0 63.5 20.5t21.5 79.5v1197h285v-1202q0 -165 -65 -244t-255 -79q-13 0 -38.5 1t-63.5 2v228z" />
    <glyph glyph-name="Jcircumflex" unicode="&#x134;" horiz-adv-x="1139" 
d="M336 559v-34q4 -171 37.5 -240.5t143.5 -69.5q109 0 144 76q21 45 21 152v1031h308v-1026q0 -188 -65 -298q-110 -186 -397 -186t-385 150.5t-98 410.5v34h291zM1189 1609h-232l-130 168l-131 -168h-232l235 299h256zM827 1491z" />
    <glyph glyph-name="jcircumflex" unicode="&#x135;" horiz-adv-x="635" 
d="M9 -209q24 -2 34 -2.5t18 -0.5q42 0 63.5 20.5t21.5 79.5v1197h285v-1202q0 -165 -65 -244t-255 -79q-13 0 -38.5 1t-63.5 2v228zM670 1238h-232l-130 168l-131 -168h-232l235 299h256zM308 1120z" />
    <glyph glyph-name="Kcedilla" horiz-adv-x="1479" 
d="M161 1474h303v-607l569 607h398l-604 -607l635 -867h-396l-455 644l-147 -151v-493h-303v1474zM578 -158.5q48 -39.5 48 -113.5q0 -92 -75 -145.5t-193 -53.5q-51 0 -123 21q-33 10 -93 32l38 86q57 -17 78 -22q48 -12 78 -12q60 0 86 25.5t26 53.5q0 42 -29 59t-62 17
q-19 0 -39 -4.5t-45 -12.5l-129 117l207 111h109l-88 -131q33 7 47 9.5t30 2.5q81 0 129 -39.5z" />
    <glyph glyph-name="kcedilla" horiz-adv-x="1139" 
d="M130 1469h280v-794l355 410h353l-381 -417l396 -668h-344l-261 466l-118 -123v-343h-280v1469zM524 -158.5q48 -39.5 48 -113.5q0 -92 -75 -145.5t-193 -53.5q-51 0 -123 21q-33 10 -93 32l38 86q57 -17 78 -22q48 -12 78 -12q60 0 86 25.5t26 53.5q0 42 -29 59t-62 17
q-19 0 -39 -4.5t-45 -12.5l-129 117l207 111h109l-88 -131q33 7 47 9.5t30 2.5q81 0 129 -39.5z" />
    <glyph glyph-name="Lacute" unicode="&#x139;" 
d="M156 1474h308v-1209h730v-265h-1038v1474zM693 1909l-304 -299h-206l192 299h318zM352 1492z" />
    <glyph glyph-name="lacute" unicode="&#x13a;" horiz-adv-x="625" 
d="M424 0h-285v1474h285v-1474zM653 1903l-304 -299h-206l192 299h318zM312 1486z" />
    <glyph glyph-name="Lcedilla" 
d="M156 1474h308v-1209h730v-265h-1038v1474zM869 -158.5q48 -39.5 48 -113.5q0 -92 -75 -145.5t-193 -53.5q-51 0 -123 21q-33 10 -93 32l38 86q57 -17 78 -22q48 -12 78 -12q60 0 86 25.5t26 53.5q0 42 -29 59t-62 17q-19 0 -39 -4.5t-45 -12.5l-129 117l207 111h109
l-88 -131q33 7 47 9.5t30 2.5q81 0 129 -39.5z" />
    <glyph glyph-name="lcedilla" horiz-adv-x="569" 
d="M424 0h-285v1474h285v-1474zM475 -158.5q48 -39.5 48 -113.5q0 -92 -75 -145.5t-193 -53.5q-51 0 -123 21q-33 10 -93 32l38 86q57 -17 78 -22q48 -12 78 -12q60 0 86 25.5t26 53.5q0 42 -29 59t-62 17q-19 0 -39 -4.5t-45 -12.5l-129 117l207 111h109l-88 -131
q33 7 47 9.5t30 2.5q81 0 129 -39.5z" />
    <glyph glyph-name="Lcaron" unicode="&#x13d;" 
d="M156 1474h308v-1209h730v-265h-1038v1474zM886 939q86 24 126.5 80t46.5 157h-173v298h308v-258q0 -68 -18 -142t-67 -128q-53 -58 -124.5 -87.5t-98.5 -29.5v110z" />
    <glyph glyph-name="lcaron" unicode="&#x13e;" horiz-adv-x="854" 
d="M526 939q86 24 126.5 80t46.5 157h-173v298h308v-258q0 -68 -18 -142t-67 -128q-53 -58 -124.5 -87.5t-98.5 -29.5v110zM424 0h-285v1474h285v-1474z" />
    <glyph glyph-name="Ldotaccent" unicode="&#x13f;" 
d="M156 1474h308v-1209h730v-265h-1038v1474zM659 934h260v-237h-260v237zM789 560z" />
    <glyph glyph-name="ldotaccent" unicode="&#x140;" horiz-adv-x="809" 
d="M424 0h-285v1474h285v-1474zM526 937h260v-237h-260v237zM656 563z" />
    <glyph glyph-name="Nacute" unicode="&#x143;" horiz-adv-x="1479" 
d="M151 1474h323l587 -1029v1029h287v-1474h-308l-602 1047v-1047h-287v1474zM761 1477zM1081 1880l-304 -299h-206l192 299h318zM740 1463z" />
    <glyph glyph-name="nacute" unicode="&#x144;" 
d="M1013.5 1027.5q107.5 -88.5 107.5 -293.5v-734h-292v663q0 86 -23 132q-42 84 -160 84q-145 0 -199 -123q-28 -65 -28 -166v-590h-284v1088h275v-159q55 84 104 121q88 66 223 66q169 0 276.5 -88.5zM632 1119zM1041 1576l-304 -299h-206l192 299h318zM700 1159z" />
    <glyph glyph-name="Ncedilla" horiz-adv-x="1479" 
d="M151 1474h323l587 -1029v1029h287v-1474h-308l-602 1047v-1047h-287v1474zM761 1477zM553 -158.5q48 -39.5 48 -113.5q0 -92 -75 -145.5t-193 -53.5q-51 0 -123 21q-33 10 -93 32l38 86q57 -17 78 -22q48 -12 78 -12q60 0 86 25.5t26 53.5q0 42 -29 59t-62 17
q-19 0 -39 -4.5t-45 -12.5l-129 117l207 111h109l-88 -131q33 7 47 9.5t30 2.5q81 0 129 -39.5z" />
    <glyph glyph-name="ncedilla" 
d="M1013.5 1027.5q107.5 -88.5 107.5 -293.5v-734h-292v663q0 86 -23 132q-42 84 -160 84q-145 0 -199 -123q-28 -65 -28 -166v-590h-284v1088h275v-159q55 84 104 121q88 66 223 66q169 0 276.5 -88.5zM632 1119zM528 -158.5q48 -39.5 48 -113.5q0 -92 -75 -145.5
t-193 -53.5q-51 0 -123 21q-33 10 -93 32l38 86q57 -17 78 -22q48 -12 78 -12q60 0 86 25.5t26 53.5q0 42 -29 59t-62 17q-19 0 -39 -4.5t-45 -12.5l-129 117l207 111h109l-88 -131q33 7 47 9.5t30 2.5q81 0 129 -39.5z" />
    <glyph glyph-name="Ncaron" unicode="&#x147;" horiz-adv-x="1479" 
d="M151 1474h323l587 -1029v1029h287v-1474h-308l-602 1047v-1047h-287v1474zM761 1477zM665 1570l-235 299h232l131 -169l130 169h232l-234 -299h-256zM793 1452z" />
    <glyph glyph-name="ncaron" unicode="&#x148;" 
d="M1013.5 1027.5q107.5 -88.5 107.5 -293.5v-734h-292v663q0 86 -23 132q-42 84 -160 84q-145 0 -199 -123q-28 -65 -28 -166v-590h-284v1088h275v-159q55 84 104 121q88 66 223 66q169 0 276.5 -88.5zM632 1119zM551 1272l-235 299h232l131 -169l130 169h232l-234 -299
h-256zM679 1154z" />
    <glyph glyph-name="napostrophe" unicode="&#x149;" 
d="M1013.5 1027.5q107.5 -88.5 107.5 -293.5v-734h-292v663q0 86 -23 132q-42 84 -160 84q-145 0 -199 -123q-28 -65 -28 -166v-590h-284v1088h275v-159q55 84 104 121q88 66 223 66q169 0 276.5 -88.5zM632 1119zM135 1331q86 24 126.5 80t46.5 157h-173v298h308v-258
q0 -68 -18 -142t-67 -128q-53 -58 -124.5 -87.5t-98.5 -29.5v110z" />
    <glyph glyph-name="Omacron" unicode="&#x14c;" horiz-adv-x="1593" 
d="M1098.5 355q107.5 135 107.5 384q0 248 -107.5 383.5t-290.5 135.5t-292 -135t-109 -384t109 -384t292 -135t290.5 135zM1291 131q-167 -172 -483 -172t-483 172q-224 211 -224 608q0 405 224 608q167 172 483 172t483 -172q223 -203 223 -608q0 -397 -223 -608z
M808 1519zM423 1825h711v-152h-711v152z" />
    <glyph glyph-name="omacron" unicode="&#x14d;" 
d="M814 290q67 89 67 253t-67 252.5t-192 88.5t-192.5 -88.5t-67.5 -252.5t67.5 -253t192.5 -89t192 89zM1042 132.5q-138 -170.5 -419 -170.5t-419 170.5t-138 410.5q0 236 138 409t419 173t419 -173t138 -409q0 -240 -138 -410.5zM623 1119zM259 1477h711v-152h-711v152z
" />
    <glyph glyph-name="Obreve" unicode="&#x14e;" horiz-adv-x="1593" 
d="M1098.5 355q107.5 135 107.5 384q0 248 -107.5 383.5t-290.5 135.5t-292 -135t-109 -384t109 -384t292 -135t290.5 135zM1291 131q-167 -172 -483 -172t-483 172q-224 211 -224 608q0 405 224 608q167 172 483 172t483 -172q223 -203 223 -608q0 -397 -223 -608z
M808 1519zM1025 1741.5q-89 -72.5 -243 -72.5t-243 72.5t-102 225.5h135q14 -92 96 -125q46 -19 114 -19t114 19q82 33 96 125h135q-13 -153 -102 -225.5zM782 1550z" />
    <glyph glyph-name="obreve" unicode="&#x14f;" 
d="M814 290q67 89 67 253t-67 252.5t-192 88.5t-192.5 -88.5t-67.5 -252.5t67.5 -253t192.5 -89t192 89zM1042 132.5q-138 -170.5 -419 -170.5t-419 170.5t-138 410.5q0 236 138 409t419 173t419 -173t138 -409q0 -240 -138 -410.5zM623 1119zM849 1358.5
q-89 -72.5 -243 -72.5t-243 72.5t-102 225.5h135q14 -92 96 -125q46 -19 114 -19t114 19q82 33 96 125h135q-13 -153 -102 -225.5zM606 1167z" />
    <glyph glyph-name="Ohungarumlaut" unicode="&#x150;" horiz-adv-x="1593" 
d="M1098.5 355q107.5 135 107.5 384q0 248 -107.5 383.5t-290.5 135.5t-292 -135t-109 -384t109 -384t292 -135t290.5 135zM1291 131q-167 -172 -483 -172t-483 172q-224 211 -224 608q0 405 224 608q167 172 483 172t483 -172q223 -203 223 -608q0 -397 -223 -608z
M808 1519zM1031 1952h291l-244 -292h-196zM883 1952l-244 -292h-196l149 292h291z" />
    <glyph glyph-name="ohungarumlaut" unicode="&#x151;" 
d="M814 290q67 89 67 253t-67 252.5t-192 88.5t-192.5 -88.5t-67.5 -252.5t67.5 -253t192.5 -89t192 89zM1042 132.5q-138 -170.5 -419 -170.5t-419 170.5t-138 410.5q0 236 138 409t419 173t419 -173t138 -409q0 -240 -138 -410.5zM623 1119zM878 1603h291l-244 -292h-196z
M730 1603l-244 -292h-196l149 292h291z" />
    <glyph glyph-name="Racute" unicode="&#x154;" horiz-adv-x="1479" 
d="M464 1218v-396h349q104 0 156 24q92 42 92 166q0 134 -89 180q-50 26 -150 26h-358zM1124.5 1436q83.5 -35 141.5 -103q48 -56 76 -124t28 -155q0 -105 -53 -206.5t-175 -143.5q102 -41 144.5 -116.5t42.5 -230.5v-99q0 -101 8 -137q12 -57 56 -84v-37h-339
q-14 49 -20 79q-12 62 -13 127l-2 137q-2 141 -51.5 188t-185.5 47h-318v-578h-301v1474h723q155 -3 238.5 -38zM1057 1937l-304 -299h-206l192 299h318zM716 1520z" />
    <glyph glyph-name="racute" unicode="&#x155;" horiz-adv-x="797" 
d="M738.5 1115.5q5.5 -0.5 24.5 -1.5v-292q-27 3 -48 4t-34 1q-172 0 -231 -112q-33 -63 -33 -194v-521h-287v1090h272v-190q66 109 115 149q80 67 208 67q8 0 13.5 -0.5zM682 1575l-304 -299h-206l192 299h318zM341 1158z" />
    <glyph glyph-name="Rcedilla" horiz-adv-x="1479" 
d="M464 1218v-396h349q104 0 156 24q92 42 92 166q0 134 -89 180q-50 26 -150 26h-358zM1124.5 1436q83.5 -35 141.5 -103q48 -56 76 -124t28 -155q0 -105 -53 -206.5t-175 -143.5q102 -41 144.5 -116.5t42.5 -230.5v-99q0 -101 8 -137q12 -57 56 -84v-37h-339
q-14 49 -20 79q-12 62 -13 127l-2 137q-2 141 -51.5 188t-185.5 47h-318v-578h-301v1474h723q155 -3 238.5 -38zM582 -158.5q48 -39.5 48 -113.5q0 -92 -75 -145.5t-193 -53.5q-51 0 -123 21q-33 10 -93 32l38 86q57 -17 78 -22q48 -12 78 -12q60 0 86 25.5t26 53.5
q0 42 -29 59t-62 17q-19 0 -39 -4.5t-45 -12.5l-129 117l207 111h109l-88 -131q33 7 47 9.5t30 2.5q81 0 129 -39.5z" />
    <glyph glyph-name="rcedilla" horiz-adv-x="797" 
d="M738.5 1115.5q5.5 -0.5 24.5 -1.5v-292q-27 3 -48 4t-34 1q-172 0 -231 -112q-33 -63 -33 -194v-521h-287v1090h272v-190q66 109 115 149q80 67 208 67q8 0 13.5 -0.5zM541 -158.5q48 -39.5 48 -113.5q0 -92 -75 -145.5t-193 -53.5q-51 0 -123 21q-33 10 -93 32l38 86
q57 -17 78 -22q48 -12 78 -12q60 0 86 25.5t26 53.5q0 42 -29 59t-62 17q-19 0 -39 -4.5t-45 -12.5l-129 117l207 111h109l-88 -131q33 7 47 9.5t30 2.5q81 0 129 -39.5z" />
    <glyph glyph-name="Rcaron" unicode="&#x158;" horiz-adv-x="1479" 
d="M464 1218v-396h349q104 0 156 24q92 42 92 166q0 134 -89 180q-50 26 -150 26h-358zM1124.5 1436q83.5 -35 141.5 -103q48 -56 76 -124t28 -155q0 -105 -53 -206.5t-175 -143.5q102 -41 144.5 -116.5t42.5 -230.5v-99q0 -101 8 -137q12 -57 56 -84v-37h-339
q-14 49 -20 79q-12 62 -13 127l-2 137q-2 141 -51.5 188t-185.5 47h-318v-578h-301v1474h723q155 -3 238.5 -38zM584 1642l-235 299h232l131 -169l130 169h232l-234 -299h-256zM712 1524z" />
    <glyph glyph-name="rcaron" unicode="&#x159;" horiz-adv-x="797" 
d="M738.5 1115.5q5.5 -0.5 24.5 -1.5v-292q-27 3 -48 4t-34 1q-172 0 -231 -112q-33 -63 -33 -194v-521h-287v1090h272v-190q66 109 115 149q80 67 208 67q8 0 13.5 -0.5zM289 1271l-235 299h232l131 -169l130 169h232l-234 -299h-256zM417 1153z" />
    <glyph glyph-name="Sacute" unicode="&#x15a;" horiz-adv-x="1366" 
d="M379 455q14 -101 55 -151q75 -91 257 -91q109 0 177 24q129 46 129 171q0 73 -64 113q-64 39 -201 69l-156 35q-230 52 -318 113q-149 102 -149 319q0 198 144 329t423 131q233 0 397.5 -123.5t172.5 -358.5h-296q-8 133 -116 189q-72 37 -179 37q-119 0 -190 -48
t-71 -134q0 -79 70 -118q45 -26 192 -61l254 -61q167 -40 252 -107q132 -104 132 -301q0 -202 -154.5 -335.5t-436.5 -133.5q-288 0 -453 131.5t-165 361.5h294zM678 1519zM1045 1971l-304 -299h-206l192 299h318zM704 1554z" />
    <glyph glyph-name="sacute" unicode="&#x15b;" horiz-adv-x="1139" 
d="M355 348q9 -76 39 -108q53 -57 196 -57q84 0 133.5 25t49.5 75q0 48 -40 73t-297 86q-185 46 -261 115q-76 68 -76 196q0 151 118.5 259.5t333.5 108.5q204 0 332.5 -81.5t147.5 -281.5h-285q-6 55 -31 87q-47 58 -160 58q-93 0 -132.5 -29t-39.5 -68q0 -49 42 -71
q42 -23 297 -79q170 -40 255 -121q84 -82 84 -205q0 -162 -120.5 -264.5t-372.5 -102.5q-257 0 -379.5 108.5t-122.5 276.5h289zM573 1119zM922 1583l-304 -299h-206l192 299h318zM581 1166z" />
    <glyph glyph-name="Scircumflex" unicode="&#x15c;" horiz-adv-x="1366" 
d="M379 455q14 -101 55 -151q75 -91 257 -91q109 0 177 24q129 46 129 171q0 73 -64 113q-64 39 -201 69l-156 35q-230 52 -318 113q-149 102 -149 319q0 198 144 329t423 131q233 0 397.5 -123.5t172.5 -358.5h-296q-8 133 -116 189q-72 37 -179 37q-119 0 -190 -48
t-71 -134q0 -79 70 -118q45 -26 192 -61l254 -61q167 -40 252 -107q132 -104 132 -301q0 -202 -154.5 -335.5t-436.5 -133.5q-288 0 -453 131.5t-165 361.5h294zM678 1519zM1068 1657h-232l-130 168l-131 -168h-232l235 299h256zM706 1539z" />
    <glyph glyph-name="scircumflex" unicode="&#x15d;" horiz-adv-x="1139" 
d="M355 348q9 -76 39 -108q53 -57 196 -57q84 0 133.5 25t49.5 75q0 48 -40 73t-297 86q-185 46 -261 115q-76 68 -76 196q0 151 118.5 259.5t333.5 108.5q204 0 332.5 -81.5t147.5 -281.5h-285q-6 55 -31 87q-47 58 -160 58q-93 0 -132.5 -29t-39.5 -68q0 -49 42 -71
q42 -23 297 -79q170 -40 255 -121q84 -82 84 -205q0 -162 -120.5 -264.5t-372.5 -102.5q-257 0 -379.5 108.5t-122.5 276.5h289zM573 1119zM932 1281h-232l-130 168l-131 -168h-232l235 299h256zM570 1163z" />
    <glyph glyph-name="Tcedilla" unicode="&#x162;" 
d="M1227 1474v-261h-441v-1213h-310v1213h-443v261h1194zM824 -158.5q48 -39.5 48 -113.5q0 -92 -75 -145.5t-193 -53.5q-51 0 -123 21q-33 10 -93 32l38 86q57 -17 78 -22q48 -12 78 -12q60 0 86 25.5t26 53.5q0 42 -29 59t-62 17q-19 0 -39 -4.5t-45 -12.5l-129 117
l207 111h109l-88 -131q33 7 47 9.5t30 2.5q81 0 129 -39.5z" />
    <glyph glyph-name="tcedilla" unicode="&#x163;" horiz-adv-x="682" 
d="M21 877v203h152v304h282v-304h177v-203h-177v-576q0 -67 17 -83.5t104 -16.5q13 0 27.5 0.5t28.5 1.5v-213l-135 -5q-202 -7 -276 70q-48 49 -48 151v671h-152zM660 -158.5q48 -39.5 48 -113.5q0 -92 -75 -145.5t-193 -53.5q-51 0 -123 21q-33 10 -93 32l38 86
q57 -17 78 -22q48 -12 78 -12q60 0 86 25.5t26 53.5q0 42 -29 59t-62 17q-19 0 -39 -4.5t-45 -12.5l-129 117l207 111h109l-88 -131q33 7 47 9.5t30 2.5q81 0 129 -39.5z" />
    <glyph glyph-name="Tcaron" unicode="&#x164;" 
d="M1227 1474v-261h-441v-1213h-310v1213h-443v261h1194zM503 1644l-235 299h232l131 -169l130 169h232l-234 -299h-256zM631 1526z" />
    <glyph glyph-name="tcaron" unicode="&#x165;" horiz-adv-x="952" 
d="M622 1278q86 24 126.5 80t46.5 157h-173v298h308v-258q0 -68 -18 -142t-67 -128q-53 -58 -124.5 -87.5t-98.5 -29.5v110zM21 877v203h152v304h282v-304h177v-203h-177v-576q0 -67 17 -83.5t104 -16.5q13 0 27.5 0.5t28.5 1.5v-213l-135 -5q-202 -7 -276 70
q-48 49 -48 151v671h-152z" />
    <glyph glyph-name="Tbar" unicode="&#x166;" 
d="M1227 1474v-261h-441v-1213h-310v1213h-443v261h1194zM275 826h711v-152h-711v152z" />
    <glyph glyph-name="tbar" unicode="&#x167;" horiz-adv-x="682" 
d="M21 877v203h152v304h282v-304h177v-203h-177v-576q0 -67 17 -83.5t104 -16.5q13 0 27.5 0.5t28.5 1.5v-213l-135 -5q-202 -7 -276 70q-48 49 -48 151v671h-152zM-29 770h711v-152h-711v152z" />
    <glyph glyph-name="Utilde" unicode="&#x168;" horiz-adv-x="1479" 
d="M156 1474h313v-906q0 -152 36 -222q56 -124 244 -124q187 0 243 124q36 70 36 222v906h313v-906q0 -235 -73 -366q-136 -240 -519 -240t-520 240q-73 131 -73 366v906zM749 1474zM710 1913q26 -6 44 -13l94 -35q42 -14 55 -18t29 -4q48 0 67.5 25.5t28.5 60.5h133
q-18 -105 -71.5 -176t-156.5 -71q-31 0 -88 15q-33 8 -63 18l-81 27q-17 6 -33 8.5t-32 2.5q-38 0 -62 -22q-24 -23 -34 -63h-130q22 103 57 156q64 95 190 95q27 0 53 -6zM786 1536z" />
    <glyph glyph-name="utilde" unicode="&#x169;" 
d="M417 1090v-657q0 -93 22 -140q39 -83 153 -83q146 0 200 118q28 64 28 169v593h289v-1090h-277v154q-4 -5 -20 -30t-38 -44q-67 -60 -129.5 -82t-146.5 -22q-242 0 -326 174q-47 96 -47 283v657h292zM617 1119zM572 1535q26 -6 44 -13l94 -35q42 -14 55 -18t29 -4
q48 0 67.5 25.5t28.5 60.5h133q-18 -105 -71.5 -176t-156.5 -71q-31 0 -88 15q-33 8 -63 18l-81 27q-17 6 -33 8.5t-32 2.5q-38 0 -62 -22q-24 -23 -34 -63h-130q22 103 57 156q64 95 190 95q27 0 53 -6zM648 1158z" />
    <glyph glyph-name="Umacron" unicode="&#x16a;" horiz-adv-x="1479" 
d="M156 1474h313v-906q0 -152 36 -222q56 -124 244 -124q187 0 243 124q36 70 36 222v906h313v-906q0 -235 -73 -366q-136 -240 -519 -240t-520 240q-73 131 -73 366v906zM749 1474zM393 1806h711v-152h-711v152z" />
    <glyph glyph-name="umacron" unicode="&#x16b;" 
d="M417 1090v-657q0 -93 22 -140q39 -83 153 -83q146 0 200 118q28 64 28 169v593h289v-1090h-277v154q-4 -5 -20 -30t-38 -44q-67 -60 -129.5 -82t-146.5 -22q-242 0 -326 174q-47 96 -47 283v657h292zM617 1119zM281 1453h711v-152h-711v152z" />
    <glyph glyph-name="Ubreve" unicode="&#x16c;" horiz-adv-x="1479" 
d="M156 1474h313v-906q0 -152 36 -222q56 -124 244 -124q187 0 243 124q36 70 36 222v906h313v-906q0 -235 -73 -366q-136 -240 -519 -240t-520 240q-73 131 -73 366v906zM749 1474zM995 1677.5q-89 -72.5 -243 -72.5t-243 72.5t-102 225.5h135q14 -92 96 -125
q46 -19 114 -19t114 19q82 33 96 125h135q-13 -153 -102 -225.5zM752 1486z" />
    <glyph glyph-name="ubreve" unicode="&#x16d;" 
d="M417 1090v-657q0 -93 22 -140q39 -83 153 -83q146 0 200 118q28 64 28 169v593h289v-1090h-277v154q-4 -5 -20 -30t-38 -44q-67 -60 -129.5 -82t-146.5 -22q-242 0 -326 174q-47 96 -47 283v657h292zM617 1119zM889 1318.5q-89 -72.5 -243 -72.5t-243 72.5t-102 225.5
h135q14 -92 96 -125q46 -19 114 -19t114 19q82 33 96 125h135q-13 -153 -102 -225.5zM646 1127z" />
    <glyph glyph-name="Uring" unicode="&#x16e;" horiz-adv-x="1479" 
d="M156 1474h313v-906q0 -152 36 -222q56 -124 244 -124q187 0 243 124q36 70 36 222v906h313v-906q0 -235 -73 -366q-136 -240 -519 -240t-520 240q-73 131 -73 366v906zM749 1474zM674 1707.5q35 -34.5 84 -34.5t83.5 34.5t34.5 83.5t-34.5 84t-83.5 35t-84 -35t-35 -84
t35 -83.5zM604 1945q64 64 154 64t154 -64t64 -154t-64 -154t-154 -64t-154 64t-64 154t64 154zM758 1467z" />
    <glyph glyph-name="uring" unicode="&#x16f;" 
d="M417 1090v-657q0 -93 22 -140q39 -83 153 -83q146 0 200 118q28 64 28 169v593h289v-1090h-277v154q-4 -5 -20 -30t-38 -44q-67 -60 -129.5 -82t-146.5 -22q-242 0 -326 174q-47 96 -47 283v657h292zM617 1119zM537 1338.5q35 -34.5 84 -34.5t83.5 34.5t34.5 83.5
t-34.5 84t-83.5 35t-84 -35t-35 -84t35 -83.5zM467 1576q64 64 154 64t154 -64t64 -154t-64 -154t-154 -64t-154 64t-64 154t64 154zM621 1098z" />
    <glyph glyph-name="Uhungarumlaut" unicode="&#x170;" horiz-adv-x="1479" 
d="M156 1474h313v-906q0 -152 36 -222q56 -124 244 -124q187 0 243 124q36 70 36 222v906h313v-906q0 -235 -73 -366q-136 -240 -519 -240t-520 240q-73 131 -73 366v906zM749 1474zM973 1945h291l-244 -292h-196zM825 1945l-244 -292h-196l149 292h291z" />
    <glyph glyph-name="uhungarumlaut" unicode="&#x171;" 
d="M417 1090v-657q0 -93 22 -140q39 -83 153 -83q146 0 200 118q28 64 28 169v593h289v-1090h-277v154q-4 -5 -20 -30t-38 -44q-67 -60 -129.5 -82t-146.5 -22q-242 0 -326 174q-47 96 -47 283v657h292zM617 1119zM855 1582h291l-244 -292h-196zM707 1582l-244 -292h-196
l149 292h291z" />
    <glyph glyph-name="Uogonek" unicode="&#x172;" horiz-adv-x="1479" 
d="M156 1474h313v-906q0 -152 36 -222q56 -124 244 -124q187 0 243 124q36 70 36 222v906h313v-906q0 -235 -73 -366q-136 -240 -519 -240t-520 240q-73 131 -73 366v906zM749 1474zM868 -25l-67 -48q-69 -50 -102 -86t-33 -80q0 -46 33 -72.5t82 -26.5q22 0 46 6t55 17
v-144q-45 -17 -75 -24q-54 -13 -122 -13q-105 0 -172 58.5t-67 139.5q0 91 84 168q49 45 158 105h180z" />
    <glyph glyph-name="uogonek" unicode="&#x173;" 
d="M417 1090v-657q0 -93 22 -140q39 -83 153 -83q146 0 200 118q28 64 28 169v593h289v-1090h-277v154q-4 -5 -20 -30t-38 -44q-67 -60 -129.5 -82t-146.5 -22q-242 0 -326 174q-47 96 -47 283v657h292zM617 1119zM1016 0l-67 -48q-69 -50 -102 -86t-33 -80q0 -46 33 -72.5
t82 -26.5q22 0 46 6t55 17v-144q-45 -17 -75 -24q-54 -13 -122 -13q-105 0 -172 58.5t-67 139.5q0 91 84 168q49 45 158 105h180z" />
    <glyph glyph-name="Wcircumflex" unicode="&#x174;" horiz-adv-x="1933" 
d="M357 1474l195 -844l42 -235l43 230l166 849h325l175 -844l45 -235l45 226l197 853h313l-415 -1474h-294l-178 862l-52 285l-52 -285l-178 -862h-286l-418 1474h327zM1348 1645h-232l-130 168l-131 -168h-232l235 299h256zM986 1527z" />
    <glyph glyph-name="wcircumflex" unicode="&#x175;" horiz-adv-x="1593" 
d="M647 1090h289l166 -785l170 785h297l-316 -1090h-293l-171 794l-173 -794h-296l-306 1090h306l170 -782zM1173 1312h-232l-130 168l-131 -168h-232l235 299h256z" />
    <glyph glyph-name="Ycircumflex" unicode="&#x176;" horiz-adv-x="1366" 
d="M997 1474h349l-493 -920v-554h-308v554l-510 920h363l306 -642zM691 1474zM1065 1650h-232l-130 168l-131 -168h-232l235 299h256zM703 1532z" />
    <glyph glyph-name="ycircumflex" unicode="&#x177;" horiz-adv-x="1139" 
d="M177 -209l36 -2q42 -2 80 3t64 23q25 17 46.5 71t17.5 66l-400 1138h317l238 -804l225 804h303l-374 -1072q-108 -310 -171 -384.5t-252 -74.5q-38 0 -61 0.5t-69 3.5v228zM563 1119zM952 1321h-232l-130 168l-131 -168h-232l235 299h256zM590 1203z" />
    <glyph glyph-name="Zacute" unicode="&#x179;" 
d="M52 260l761 953h-742v261h1126v-247l-771 -967h773v-260h-1147v260zM634 1474zM966 1931l-304 -299h-206l192 299h318zM625 1514z" />
    <glyph glyph-name="zacute" unicode="&#x17a;" horiz-adv-x="1024" 
d="M71 858v232h884v-237l-553 -619h572v-234h-941v222l559 636h-521zM513 1119zM838 1563l-304 -299h-206l192 299h318zM497 1146z" />
    <glyph glyph-name="Zdotaccent" unicode="&#x17b;" 
d="M52 260l761 953h-742v261h1126v-247l-771 -967h773v-260h-1147v260zM634 1474zM483 1870h260v-237h-260v237zM613 1496z" />
    <glyph glyph-name="zdotaccent" unicode="&#x17c;" horiz-adv-x="1024" 
d="M71 858v232h884v-237l-553 -619h572v-234h-941v222l559 636h-521zM513 1119zM417 1482h260v-237h-260v237zM547 1108z" />
    <glyph glyph-name="Scommaaccent" unicode="&#x218;" horiz-adv-x="1366" 
d="M379 455q14 -101 55 -151q75 -91 257 -91q109 0 177 24q129 46 129 171q0 73 -64 113q-64 39 -201 69l-156 35q-230 52 -318 113q-149 102 -149 319q0 198 144 329t423 131q233 0 397.5 -123.5t172.5 -358.5h-296q-8 133 -116 189q-72 37 -179 37q-119 0 -190 -48
t-71 -134q0 -79 70 -118q45 -26 192 -61l254 -61q167 -40 252 -107q132 -104 132 -301q0 -202 -154.5 -335.5t-436.5 -133.5q-288 0 -453 131.5t-165 361.5h294zM574 -611q69 20 101.5 64.5t36.5 125.5h-138v238h247v-206q0 -54 -14.5 -113.5t-54.5 -102.5
q-42 -46 -99.5 -70t-78.5 -24v88z" />
    <glyph glyph-name="scommaaccent" unicode="&#x219;" horiz-adv-x="1139" 
d="M355 348q9 -76 39 -108q53 -57 196 -57q84 0 133.5 25t49.5 75q0 48 -40 73t-297 86q-185 46 -261 115q-76 68 -76 196q0 151 118.5 259.5t333.5 108.5q204 0 332.5 -81.5t147.5 -281.5h-285q-6 55 -31 87q-47 58 -160 58q-93 0 -132.5 -29t-39.5 -68q0 -49 42 -71
q42 -23 297 -79q170 -40 255 -121q84 -82 84 -205q0 -162 -120.5 -264.5t-372.5 -102.5q-257 0 -379.5 108.5t-122.5 276.5h289zM464 -615q69 20 101.5 64.5t36.5 125.5h-138v238h247v-206q0 -54 -14.5 -113.5t-54.5 -102.5q-42 -46 -99.5 -70t-78.5 -24v88z" />
    <glyph glyph-name="Tcommaaccent" unicode="&#x21a;" 
d="M1227 1474v-261h-441v-1213h-310v1213h-443v261h1194zM526 -588q69 20 101.5 64.5t36.5 125.5h-138v238h247v-206q0 -54 -14.5 -113.5t-54.5 -102.5q-42 -46 -99.5 -70t-78.5 -24v88z" />
    <glyph glyph-name="tcommaaccent" unicode="&#x21b;" horiz-adv-x="682" 
d="M21 877v203h152v304h282v-304h177v-203h-177v-576q0 -67 17 -83.5t104 -16.5q13 0 27.5 0.5t28.5 1.5v-213l-135 -5q-202 -7 -276 70q-48 49 -48 151v671h-152zM233 -588q69 20 101.5 64.5t36.5 125.5h-138v238h247v-206q0 -54 -14.5 -113.5t-54.5 -102.5
q-42 -46 -99.5 -70t-78.5 -24v88z" />
    <glyph glyph-name="currency" unicode="&#xa4;" horiz-adv-x="1139" 
d="M403 551q68 -68 166 -68t166 68t68 166t-68 166t-166 68t-166 -68t-68 -166t68 -166zM194 952l-140 140l140 140l140 -140q115 71 235 71t235 -71l140 140l140 -140l-140 -140q71 -115 71 -235t-71 -235l140 -140l-140 -140l-140 140q-115 -71 -235 -71t-235 71
l-140 -140l-140 140l140 140q-71 115 -71 235t71 235z" />
    <glyph glyph-name="gravecmb" unicode="&#x300;" horiz-adv-x="0" 
d="M-370 1237h-206l-303 299h317z" />
    <glyph glyph-name="acutecmb" unicode="&#x301;" horiz-adv-x="0" 
d="M-370 1536l-304 -299h-206l192 299h318z" />
    <glyph glyph-name="circumflexcmb" unicode="&#x302;" horiz-adv-x="0" 
d="M-262 1237h-232l-130 168l-131 -168h-232l235 299h256z" />
    <glyph glyph-name="tildecmb" unicode="&#x303;" horiz-adv-x="0" 
d="M-656 1483l94 -35q42 -14 55 -18t29 -4q48 0 67.5 25.5t28.5 60.5h133q-18 -105 -71.5 -176t-156.5 -71q-31 0 -88 15q-33 8 -63 18l-81 27q-17 6 -33 8.5t-32 2.5q-38 0 -62 -22q-24 -23 -34 -63h-130q22 103 57 156q64 95 190 95q27 0 53 -6t44 -13z" />
    <glyph glyph-name="macroncmb" unicode="&#x304;" horiz-adv-x="0" 
d="M-980 1453h711v-152h-711v152z" />
    <glyph glyph-name="brevecmb" unicode="&#x306;" horiz-adv-x="0" 
d="M-625 1238q-154 0 -243 72.5t-102 225.5h135q14 -92 96 -125q46 -19 114 -19t114 19q82 33 96 125h135q-13 -153 -102 -225.5t-243 -72.5z" />
    <glyph glyph-name="dotaccentcmb" unicode="&#x307;" horiz-adv-x="0" 
d="M-755 1493h260v-237h-260v237z" />
    <glyph glyph-name="dieresiscmb" unicode="&#x308;" horiz-adv-x="0" 
d="M-555 1493h261v-237h-261v237zM-955 1493h261v-237h-261v237z" />
    <glyph glyph-name="ringcmb" unicode="&#x30a;" horiz-adv-x="0" 
d="M-625 1325q49 0 83.5 34.5t34.5 83.5t-34.5 84t-83.5 35t-84 -35t-35 -84t35 -83.5t84 -34.5zM-625 1661q90 0 154 -64t64 -154t-64 -154t-154 -64t-154 64t-64 154t64 154t154 64z" />
    <glyph glyph-name="hungarumlautcmb" unicode="&#x30b;" horiz-adv-x="0" 
d="M-476 1536h291l-244 -292h-196zM-624 1536l-244 -292h-196l149 292h291z" />
    <glyph glyph-name="caroncmb" unicode="&#x30c;" horiz-adv-x="0" 
d="M-752 1237l-235 299h232l131 -169l130 169h232l-234 -299h-256z" />
    <glyph glyph-name="commaaccent" unicode="&#x326;" horiz-adv-x="0" 
d="M-762 -588q98 31 135 105q20 44 17 89h-157v263h285v-211q0 -151 -73.5 -238t-206.5 -113v105z" />
    <glyph glyph-name="cedillacmb" unicode="&#x327;" horiz-adv-x="0" 
d="M-383 -272q0 -92 -75 -145.5t-193 -53.5q-51 0 -123 21q-33 10 -93 32l38 86q57 -17 78 -22q48 -12 78 -12q60 0 86 25.5t26 53.5q0 42 -29 59t-62 17q-19 0 -39 -4.5t-45 -12.5l-129 117l207 111h109l-88 -131q33 7 47 9.5t30 2.5q81 0 129 -39.5t48 -113.5z" />
    <glyph glyph-name="ogonekcmb" unicode="&#x328;" horiz-adv-x="0" 
d="M-421 0l-67 -48q-69 -50 -102 -86t-33 -80q0 -46 33 -72.5t82 -26.5q22 0 46 6t55 17v-144q-45 -17 -75 -24q-54 -13 -122 -13q-105 0 -172 58.5t-67 139.5q0 91 84 168q49 45 158 105h180z" />
    <glyph glyph-name="soliduslongoverlaycmb" unicode="&#x338;" horiz-adv-x="0" 
d="M-458 1519h237l-573 -1519h-235z" />
    <glyph glyph-name="Dcroat" unicode="&#x110;" horiz-adv-x="1479" 
d="M668 256q125 0 179 16q89 25 148 109q54 77 74.5 182.5t20.5 187.5q0 304 -150 409q-84 58 -258 58h-227v-304h310v-256h-310v-402h213zM1304 312q-159 -312 -534 -312h-614v658h-138v256h138v558h616q171 0 291.5 -51.5t208.5 -173.5q67 -93 99 -212t32 -263
q0 -266 -99 -460z" />
    <glyph glyph-name="Gcommaaccent" unicode="&#x122;" horiz-adv-x="1593" 
d="M1147 1014q-35 151 -171 211q-76 33 -169 33q-178 0 -292.5 -134.5t-114.5 -404.5q0 -272 124 -385t282 -113q155 0 254 89.5t122 234.5h-341v246h614v-791h-204l-31 184q-89 -105 -160 -148q-122 -75 -300 -75q-293 0 -480 203q-195 204 -195 558q0 358 197 574t521 216
q281 0 451.5 -142.5t195.5 -355.5h-303zM802 1512zM623 -713q86 24 126.5 80t46.5 157h-173v298h308v-258q0 -68 -18 -142t-67 -128q-53 -58 -124.5 -87.5t-98.5 -29.5v110z" />
    <glyph glyph-name="gcommaaccent" unicode="&#x123;" 
d="M770 309.5q69 75.5 69 240.5q0 155 -65.5 236t-175.5 81q-150 0 -207 -141q-30 -75 -30 -185q0 -95 32 -169q58 -138 208 -138q100 0 169 75.5zM673 1091q104 -43 168 -158v157h277v-1034q0 -211 -71 -318q-122 -184 -468 -184q-209 0 -341 82t-146 245h310
q12 -50 39 -72q46 -39 155 -39q154 0 206 103q34 66 34 222v70q-41 -70 -88 -105q-85 -65 -221 -65q-210 0 -335.5 147.5t-125.5 399.5q0 243 121 408.5t343 165.5q82 0 143 -25zM621 1119zM731.866 1818.67q-85.9844 -23.9961 -126.478 -79.9854
q-40.4922 -55.9902 -46.4912 -156.972h172.969v-297.945h-307.944v257.953q0 67.9873 17.9971 141.974t66.9883 127.977q52.9902 57.9893 124.477 87.4844q71.4873 29.4941 98.4824 29.4941v-109.979z" />
    <glyph glyph-name="Lcommaaccent" unicode="&#x13b;" 
d="M156 1474h308v-1209h730v-265h-1038v1474zM488 -702q86 24 126.5 80t46.5 157h-173v298h308v-258q0 -68 -18 -142t-67 -128q-53 -58 -124.5 -87.5t-98.5 -29.5v110z" />
    <glyph glyph-name="lcommaaccent" unicode="&#x13c;" horiz-adv-x="569" 
d="M424 0h-285v1474h285v-1474zM148 -712q86 24 126.5 80t46.5 157h-173v298h308v-258q0 -68 -18 -142t-67 -128q-53 -58 -124.5 -87.5t-98.5 -29.5v110z" />
    <glyph glyph-name="Kcommaaccent" unicode="&#x136;" horiz-adv-x="1479" 
d="M161 1474h303v-607l569 607h398l-604 -607l635 -867h-396l-455 644l-147 -151v-493h-303v1474zM538 -692q86 24 126.5 80t46.5 157h-173v298h308v-258q0 -68 -18 -142t-67 -128q-53 -58 -124.5 -87.5t-98.5 -29.5v110z" />
    <glyph glyph-name="kcommaaccent" unicode="&#x137;" horiz-adv-x="1139" 
d="M130 1469h280v-794l355 410h353l-381 -417l396 -668h-344l-261 466l-118 -123v-343h-280v1469zM429 -672q86 24 126.5 80t46.5 157h-173v298h308v-258q0 -68 -18 -142t-67 -128q-53 -58 -124.5 -87.5t-98.5 -29.5v110z" />
    <glyph glyph-name="Ncommaaccent" unicode="&#x145;" horiz-adv-x="1479" 
d="M151 1474h323l587 -1029v1029h287v-1474h-308l-602 1047v-1047h-287v1474zM761 1477zM558 -644q86 24 126.5 80t46.5 157h-173v298h308v-258q0 -68 -18 -142t-67 -128q-53 -58 -124.5 -87.5t-98.5 -29.5v110z" />
    <glyph glyph-name="ncommaaccent" unicode="&#x146;" 
d="M1013.5 1027.5q107.5 -88.5 107.5 -293.5v-734h-292v663q0 86 -23 132q-42 84 -160 84q-145 0 -199 -123q-28 -65 -28 -166v-590h-284v1088h275v-159q55 84 104 121q88 66 223 66q169 0 276.5 -88.5zM632 1119zM458 -643q86 24 126.5 80t46.5 157h-173v298h308v-258
q0 -68 -18 -142t-67 -128q-53 -58 -124.5 -87.5t-98.5 -29.5v110z" />
    <glyph glyph-name="Rcommaaccent" unicode="&#x156;" horiz-adv-x="1479" 
d="M464 1218v-396h349q104 0 156 24q92 42 92 166q0 134 -89 180q-50 26 -150 26h-358zM1124.5 1436q83.5 -35 141.5 -103q48 -56 76 -124t28 -155q0 -105 -53 -206.5t-175 -143.5q102 -41 144.5 -116.5t42.5 -230.5v-99q0 -101 8 -137q12 -57 56 -84v-37h-339
q-14 49 -20 79q-12 62 -13 127l-2 137q-2 141 -51.5 188t-185.5 47h-318v-578h-301v1474h723q155 -3 238.5 -38zM578 -642q86 24 126.5 80t46.5 157h-173v298h308v-258q0 -68 -18 -142t-67 -128q-53 -58 -124.5 -87.5t-98.5 -29.5v110z" />
    <glyph glyph-name="rcommaaccent" unicode="&#x157;" horiz-adv-x="797" 
d="M738.5 1115.5q5.5 -0.5 24.5 -1.5v-292q-27 3 -48 4t-34 1q-172 0 -231 -112q-33 -63 -33 -194v-521h-287v1090h272v-190q66 109 115 149q80 67 208 67q8 0 13.5 -0.5zM128 -682q86 24 126.5 80t46.5 157h-173v298h308v-258q0 -68 -18 -142t-67 -128
q-53 -58 -124.5 -87.5t-98.5 -29.5v110z" />
    <glyph glyph-name="yotgreek" unicode="&#x3f3;" horiz-adv-x="526" 
d="M387 1464v-256h-287v256h287zM100 31v1044h287v-1001v-54.5t2 -50.5q0 -84 -12 -129t-55 -80.5t-115 -48t-148 -12.5h-30.5t-20.5 2v209q45 -6 64.5 13.5t23.5 33.5t4 33v41z" />
    <glyph glyph-name="questiongreek" unicode="&#x37e;" horiz-adv-x="682" 
d="M539 1067v-299h-308v299h308zM231 299h308v-291q0 -61 -13.5 -149t-109.5 -146q-39 -30 -83 -44.5t-102 -24.5v114q39 0 82 30t69 85t26 90q0 19 -7 37h-170v299z" />
    <glyph glyph-name="softhyphen" unicode="&#xad;" horiz-adv-x="682" 
d="M47 706h574v-270h-574v270z" />
    <glyph glyph-name="dotlessj" unicode="&#x237;" horiz-adv-x="569" 
d="M9 -209q24 -2 34 -2.5t18 -0.5q42 0 63.5 20.5t21.5 79.5v1197h285v-1202q0 -165 -65 -244t-255 -79q-13 0 -38.5 1t-63.5 2v228z" />
    <glyph glyph-name="kgreenlandic" unicode="&#x138;" horiz-adv-x="1139" 
d="M130 1085h280v-410l355 410h353l-381 -417l396 -668h-344l-261 466l-118 -123v-343h-280v1085z" />
    <glyph glyph-name="slong" unicode="&#x17f;" horiz-adv-x="682" 
d="M464 879v-879h-284v879h-159v201h156v70q0 175 59 241q62 98 299 98q27 0 49 -1.5t60 -4.5v-232q-24 3 -80.5 4.5t-78 -25t-21.5 -58.5v-293z" />
    <glyph glyph-name="ereversed" unicode="&#x258;" horiz-adv-x="1139" 
d="M789 654q-14 106 -68.5 168t-153.5 62q-91 0 -152.5 -58.5t-68.5 -171.5h443v0zM142 907q71 110 180 161t245 51q229 0 372.5 -151t143.5 -434q0 -302 -159 -436t-367 -134q-252 0 -392 159q-90 100 -101 197h291q23 -48 53 -75q55 -50 143 -50q83 0 142 41
q97 66 103 230h-746q-2 141 9 216q19 128 83 225z" />
    <glyph glyph-name="schwa" unicode="&#x259;" horiz-adv-x="1139" 
d="M787 428h-443q7 -113 68.5 -171.5t152.5 -58.5q99 0 153.5 62t68.5 168zM140 175q-64 97 -83 225q-11 75 -9 216h746q-6 164 -103 230q-59 41 -142 41q-88 0 -143 -50q-30 -27 -53 -75h-291q11 97 101 197q140 159 392 159q208 0 367 -134t159 -436q0 -283 -143.5 -434
t-372.5 -151q-136 0 -245 51t-180 161z" />
    <glyph glyph-name="oopen" unicode="&#x254;" horiz-adv-x="1139" 
d="M362 379q8 -61 41 -110q48 -66 149 -66q144 0 197 143q28 76 28 202q0 120 -28 193q-51 136 -192 136q-100 0 -142 -54t-51 -140h-291q10 130 94 246q134 187 397 187t387 -156t124 -405q0 -281 -137 -437t-378 -156q-205 0 -335.5 92t-154.5 325h292z" />
    <glyph glyph-name="aturned" unicode="&#x250;" horiz-adv-x="1139" 
d="M404 552q27 17 54.5 27.5t75.5 19.5l64 12q90 16 129 39q66 39 66 121q0 73 -40.5 105.5t-98.5 32.5q-92 0 -169.5 -54t-80.5 -197v-106zM577 419q-79 -10 -113 -25q-61 -26 -61 -81q0 -67 46.5 -92.5t136.5 -25.5q101 0 143 50q30 37 40 100h275q-9 -143 -80 -235
q-113 -144 -388 -144q-179 0 -318 71t-139 268v500q0 52 -2 126q-3 56 -17 76t-42 33v42h310q13 -33 18 -62t8 -66q59 64 136 109q92 53 208 53q148 0 244.5 -84.5t96.5 -239.5q0 -201 -155 -291q-85 -49 -250 -70z" />
    <glyph glyph-name="hookcmb" unicode="&#x309;" horiz-adv-x="0" 
d="M-651 1514q-11 9 -22 13.5t-43 5.5l-53 1l-4 79q22 3 48.5 5t46.5 2q51 0 99 -16.5t81 -63.5q9 -13 15.5 -34t6.5 -45q0 -20 -6 -41t-21 -39.5t-40.5 -32.5t-63.5 -22l-14 -44h-138l7 76q83 6 106.5 34t23.5 61q0 17 -7 32.5t-22 28.5z" />
    <glyph glyph-name="overlinecmb" unicode="&#x305;" horiz-adv-x="0" 
d="M-980 1453h711v-152h-711v152z" />
    <glyph glyph-name="breveinvertedcmb" unicode="&#x311;" horiz-adv-x="0" 
d="M-625 1536q154 0 243 -72.5t102 -225.5h-135q-14 92 -96 125q-46 19 -114 19t-114 -19q-82 -33 -96 -125h-135q13 153 102 225.5t243 72.5z" />
    <glyph glyph-name="Ibreve" unicode="&#x12c;" horiz-adv-x="569" 
d="M438 0h-306v1474h306v-1474zM285 1503zM536 1620.5q-89 -72.5 -243 -72.5t-243 72.5t-102 225.5h135q14 -92 96 -125q46 -19 114 -19t114 19q82 33 96 125h135q-13 -153 -102 -225.5zM293 1429z" />
    <glyph glyph-name="ibreve" unicode="&#x12d;" horiz-adv-x="569" 
d="M137 1090h289v-1090h-289v1090zM282 1119zM533 1340.5q-89 -72.5 -243 -72.5t-243 72.5t-102 225.5h135q14 -92 96 -125q46 -19 114 -19t114 19q82 33 96 125h135q-13 -153 -102 -225.5zM290 1149z" />
    <glyph glyph-name="Eng" unicode="&#x14a;" horiz-adv-x="1479" 
d="M926 -209q24 -2 34 -2.5t18 -0.5q42 0 63.5 20.5t21.5 79.5v112h-23l-602 1047v-1047h-287v1474h323l587 -1029v1029h287v-1591q0 -165 -65 -244t-255 -79q-13 0 -38.5 1t-63.5 2v228z" />
    <glyph glyph-name="eng" unicode="&#x14b;" 
d="M699 -209q24 -2 34 -2.5t18 -0.5q42 0 63.5 20.5t21.5 79.5v112h-7v663q0 86 -23 132q-42 84 -160 84q-145 0 -199 -123q-28 -65 -28 -166v-590h-284v1088h275v-159q55 84 104 121q88 66 223 66q169 0 276.5 -88.5t107.5 -293.5v-851q0 -165 -65 -244t-255 -79
q-13 0 -38.5 1t-63.5 2v228z" />
    <glyph glyph-name="horncmb" unicode="&#x31b;" horiz-adv-x="0" 
d="M-885 962q64 18 132.5 11t159.5 38l-87 150l258 149l154 -267l-223 -129q-59 -34 -132 -55.5t-145 -5.5q-76 17 -137.5 24t-75.5 30z" />
    <glyph glyph-name="Acyrillic" unicode="&#x410;" horiz-adv-x="1479" 
d="M567 1470h351l520 -1470h-334l-94 303h-543l-102 -303h-324zM549 557h375l-183 582h-4z" />
    <glyph glyph-name="Becyrillic" unicode="&#x411;" horiz-adv-x="1469" 
d="M168 1470h1070v-253h-763v-326h365q33 0 85 -2t110.5 -14.5t118 -39.5t107.5 -76.5t78 -126t30 -188.5q0 -111 -30 -187t-76.5 -125.5t-103.5 -76t-110.5 -39t-98 -14.5t-65.5 -2h-717v1470zM475 254h332q42 0 86.5 6t82 26t61.5 59.5t24 105.5q0 69 -23.5 108.5
t-61.5 59.5t-85.5 25t-95.5 5h-320v-395z" />
    <glyph glyph-name="Vecyrillic" unicode="&#x412;" horiz-adv-x="1479" 
d="M168 1470h721q90 0 158.5 -17t118.5 -46t84 -67t54 -79.5t28.5 -84.5t8.5 -82q0 -56 -10 -100.5t-31.5 -81t-56 -66t-82.5 -53.5q74 -28 119 -69t69 -88.5t32 -98t8 -97.5q0 -107 -39 -189t-110 -137.5t-172.5 -84.5t-225.5 -29h-674v1470zM463 254h383q51 0 94 12
t74.5 36.5t49 62t17.5 88.5q0 64 -21 102.5t-55.5 59.5t-78 27.5t-88.5 6.5h-375v-395zM463 891h379q40 0 77 9t65.5 29.5t45.5 52.5t17 77q0 47 -15.5 77.5t-42.5 48.5t-63 25t-76 7h-387v-326z" />
    <glyph glyph-name="Gecyrillic" unicode="&#x413;" horiz-adv-x="1184" 
d="M168 1470h989v-253h-682v-1217h-307v1470z" />
    <glyph glyph-name="Decyrillic" unicode="&#x414;" horiz-adv-x="1509" 
d="M25 254h129q23 62 45.5 127t42.5 141t36.5 167t29.5 205.5t21 256t11 319.5h1001v-1216h143v-569h-266v315h-927v-315h-266v569zM1034 1217h-424q-1 -40 -2.5 -102t-6.5 -138.5t-14.5 -165t-25.5 -182t-40.5 -189t-59.5 -186.5h573v963z" />
    <glyph glyph-name="Iecyrillic" unicode="&#x415;" horiz-adv-x="1366" 
d="M168 1470h1079v-253h-784v-326h721v-254h-721v-371h819v-266h-1114v1470z" />
    <glyph glyph-name="Zhecyrillic" unicode="&#x416;" horiz-adv-x="2048" 
d="M1176 881h59l438 589h350l-530 -671l530 -799h-366l-422 635h-59v-635h-297v635h-62l-426 -635h-366l538 799l-526 671h342l438 -589h62v589h297v-589z" />
    <glyph glyph-name="Zecyrillic" unicode="&#x417;" horiz-adv-x="1380" 
d="M481 869l254 -1q43 0 81.5 12t67 36.5t45.5 60.5t17 84q0 61 -24 101t-62 63t-85 32t-94 9q-61 0 -106.5 -12.5t-78 -32.5t-54 -44.5t-33.5 -49t-17 -46t-5 -34.5h-283q0 31 7.5 77t29.5 97t62.5 102t107.5 92t163.5 66.5t230.5 25.5q141 0 242.5 -37.5t166.5 -96
t96 -130.5t31 -141q0 -39 -9.5 -82t-35 -84t-69 -76t-112.5 -57v-4q22 -6 51 -15t59.5 -25.5t60 -42.5t52.5 -65t37.5 -93.5t14.5 -127.5q0 -96 -41 -181t-119.5 -148.5t-194 -100.5t-264.5 -37q-76 0 -151 8.5t-142.5 29.5t-125.5 55.5t-100.5 86t-66.5 122t-24 163.5h283
q0 -37 17.5 -76.5t56.5 -72t102 -53.5t153 -21q84 0 143 19.5t96 52t54 74t17 85.5q0 69 -23.5 110.5t-59.5 63.5t-78 28.5t-79 6.5h-262v224z" />
    <glyph glyph-name="Iicyrillic" unicode="&#x418;" horiz-adv-x="1479" 
d="M143 1470h295v-1001h4l582 1001h311v-1470h-295v995h-4l-581 -995h-312v1470z" />
    <glyph glyph-name="Iishortcyrillic" unicode="&#x419;" horiz-adv-x="1479" 
d="M143 1470h295v-1001h4l582 1001h311v-1470h-295v995h-4l-581 -995h-312v1470zM764 1547q-192 0 -289 75.5t-97 232.5h232q1 -31 9.5 -57t26.5 -45t47 -29.5t71 -10.5t71.5 10.5t48 29t27 44.5t7.5 58h232q0 -157 -97 -232.5t-289 -75.5z" />
    <glyph glyph-name="Kacyrillic" unicode="&#x41a;" horiz-adv-x="1479" 
d="M178 1470h307v-598l562 598h397l-600 -602l635 -868h-389l-455 651l-150 -153v-498h-307v1470z" />
    <glyph glyph-name="Elcyrillic" unicode="&#x41b;" horiz-adv-x="1476" 
d="M1050 1217h-431l1 -222q1 -201 -8.5 -354.5t-30 -267t-52 -190.5t-74.5 -123.5t-98 -66.5t-121 -20q-54 0 -95.5 6.5t-82.5 23.5l-1 281q14 -7 29.5 -11.5t30.5 -7t27.5 -3.5t19.5 -1q27 0 50.5 7.5t42 32.5t32.5 72t23.5 125t14 193t4.5 275v504h1026v-1470h-307v1217z
" />
    <glyph glyph-name="Emcyrillic" unicode="&#x41c;" horiz-adv-x="1706" 
d="M143 1470h449l258 -1144h4l258 1144h451v-1470h-283v1229h-4l-279 -1229h-299l-268 1229h-4v-1229h-283v1470z" />
    <glyph glyph-name="Encyrillic" unicode="&#x41d;" horiz-adv-x="1479" 
d="M143 1470h308v-559h577v559h307v-1470h-307v657h-577v-657h-308v1470z" />
    <glyph glyph-name="Ocyrillic" unicode="&#x41e;" horiz-adv-x="1593" 
d="M90 735q0 165 44 306t132 244.5t221 162.5t310 59q163 0 294 -59t222.5 -162.5t140.5 -244.5t49 -306q0 -164 -49 -305.5t-140.5 -245t-222.5 -162.5t-294 -59q-177 0 -310 59t-221 162.5t-132 245t-44 305.5zM797 229q94 0 168 38t125.5 105.5t78.5 160t27 202.5
t-27 202.5t-78.5 160t-125.5 105.5t-168 38t-168 -38t-125.5 -105.5t-79 -160t-27.5 -202.5t27.5 -202.5t79 -160t125.5 -105.5t168 -38z" />
    <glyph glyph-name="Pecyrillic" unicode="&#x41f;" horiz-adv-x="1479" 
d="M143 1470h1192v-1470h-307v1217h-577v-1217h-308v1470z" />
    <glyph glyph-name="Ercyrillic" unicode="&#x420;" horiz-adv-x="1366" 
d="M168 1470h668q117 0 203.5 -32t143.5 -93t85 -148t28 -198q0 -103 -33 -189.5t-95.5 -149t-152.5 -97.5t-204 -35h-336v-528h-307v1470zM475 782h291q104 0 163.5 51t59.5 166q0 58 -15.5 99t-44 67.5t-70 39t-93.5 12.5h-291v-435z" />
    <glyph glyph-name="Escyrillic" unicode="&#x421;" horiz-adv-x="1479" 
d="M1094 987q-6 21 -15 48.5t-24.5 55.5t-39 55t-58.5 48t-84 34t-115 13q-28 0 -66 -7t-78 -26.5t-79 -54.5t-69.5 -91.5t-49.5 -136.5t-19 -190q0 -119 25 -213t72 -159t113.5 -99.5t150.5 -34.5q97 0 158 30t97.5 73t54.5 90t28 82h305q-25 -138 -83 -239.5t-141 -168.5
t-186.5 -100t-220.5 -33q-164 0 -290.5 54.5t-213 155.5t-131.5 243.5t-45 318.5q0 136 26 246t72.5 195.5t109.5 148t137.5 103t156.5 60t166 19.5q120 0 213 -25t163 -67t119.5 -96t81 -111.5t47 -115t19.5 -105.5h-307z" />
    <glyph glyph-name="Tecyrillic" unicode="&#x422;" horiz-adv-x="1253" 
d="M25 1470h1204v-253h-449v-1217h-307v1217h-448v253z" />
    <glyph glyph-name="Ucyrillic" unicode="&#x423;" horiz-adv-x="1366" 
d="M268 279q29 -19 67 -30t86 -11q63 0 99 37t50 93l-521 1102h346l334 -790l293 790h330l-469 -1085q-92 -215 -195 -318.5t-230 -103.5q-40 0 -69.5 4t-51 10t-38 12t-31.5 11v279z" />
    <glyph glyph-name="Efcyrillic" unicode="&#x424;" horiz-adv-x="1708" 
d="M707 160q-148 7 -267.5 52.5t-203.5 121.5t-129.5 178.5t-45.5 222.5q0 56 12 119.5t41 126.5t77 120.5t120 103t169.5 74t226.5 32.5v159h294v-159q129 -4 227 -32.5t169.5 -74t119.5 -103t77 -120.5t41 -126.5t12 -119.5q0 -120 -45.5 -222.5t-129.5 -178.5
t-203.5 -121.5t-267.5 -52.5v-160h-294v160zM707 1098q-105 -3 -173.5 -37t-108 -85t-55 -112t-14.5 -119q0 -101 32.5 -171.5t83 -115t113 -65t122.5 -20.5v725zM1001 375q60 0 122.5 20.5t113 65t83 115.5t32.5 172q0 57 -15.5 117.5t-55.5 111t-107.5 84.5t-172.5 37
v-723z" />
    <glyph glyph-name="Khacyrillic" unicode="&#x425;" horiz-adv-x="1366" 
d="M504 752l-451 718h367l264 -475l270 475h355l-451 -706l481 -764h-376l-279 502l-297 -502h-360z" />
    <glyph glyph-name="Tsecyrillic" unicode="&#x426;" horiz-adv-x="1509" 
d="M143 1470h308v-1216h577v1216h307v-1216h153v-569h-266v315h-1079v1470z" />
    <glyph glyph-name="Checyrillic" unicode="&#x427;" horiz-adv-x="1366" 
d="M928 588q-77 -16 -142 -25.5t-114.5 -14t-83 -6t-47.5 -1.5q-109 0 -185 18t-126 48t-78 70t-42 83t-17 87t-3 83v540h295v-466q0 -72 14 -117.5t45 -71.5t80.5 -35.5t120.5 -9.5q29 0 66.5 2.5t76 7.5t75 12.5t65.5 16.5v661h307v-1470h-307v588z" />
    <glyph glyph-name="Shacyrillic" unicode="&#x428;" horiz-adv-x="1933" 
d="M143 1470h283v-1216h399v1216h283v-1216h399v1216h283v-1470h-1647v1470z" />
    <glyph glyph-name="Shchacyrillic" unicode="&#x429;" horiz-adv-x="1963" 
d="M143 1470h283v-1216h399v1216h283v-1216h399v1216h283v-1216h153v-569h-266v315h-1534v1470z" />
    <glyph glyph-name="Hardsigncyrillic" unicode="&#x42a;" horiz-adv-x="1706" 
d="M793 254h262q41 0 86 6t82.5 26t61.5 59.5t24 105.5q0 69 -24 108.5t-62 59.5t-85.5 25t-95.5 5h-249v-395zM47 1470h746v-579h294q33 0 85 -2t111 -14.5t118 -39.5t107 -76.5t78 -126t30 -188.5q0 -111 -30 -187t-76.5 -125.5t-103 -76t-110 -39t-98 -14.5t-65.5 -2
h-648v1217h-438v253z" />
    <glyph glyph-name="Yericyrillic" unicode="&#x42b;" horiz-adv-x="1933" 
d="M1495 1470h307v-1470h-307v1470zM475 254h260q42 0 86.5 6t82 26t61.5 59.5t24 105.5q0 69 -23.5 108.5t-61.5 59.5t-85.5 25t-95.5 5h-248v-395zM168 1470h307v-579h293q33 0 84.5 -2t110.5 -14.5t118 -39.5t107 -76.5t78 -126t30 -188.5q0 -111 -30 -187t-76.5 -125.5
t-103 -76t-110 -39t-98 -14.5t-65.5 -2h-645v1470z" />
    <glyph glyph-name="Softsigncyrillic" unicode="&#x42c;" horiz-adv-x="1366" 
d="M475 254h260q42 0 86.5 6t82 26t61.5 59.5t24 105.5q0 69 -23.5 108.5t-61.5 59.5t-85.5 25t-95.5 5h-248v-395zM168 1470h307v-579h293q33 0 84.5 -2t110.5 -14.5t118 -39.5t107 -76.5t78 -126t30 -188.5q0 -111 -30 -187t-76.5 -125.5t-103 -76t-110 -39t-98 -14.5
t-65.5 -2h-645v1470z" />
    <glyph glyph-name="Ereversedcyrillic" unicode="&#x42d;" horiz-adv-x="1479" 
d="M587 856h478q0 35 -8.5 77t-27 84.5t-48 83t-71 71.5t-96.5 50t-124 19q-72 0 -123 -23t-85.5 -57t-54.5 -73.5t-30 -73.5h-307q17 115 67 206.5t130 155t188 97.5t240 34q112 0 205.5 -28.5t168.5 -79.5t131 -121.5t93.5 -155.5t56.5 -180.5t19 -196.5
q0 -162 -32.5 -282.5t-86 -207.5t-123 -143.5t-144 -89.5t-148.5 -46t-136 -13q-135 0 -242 40t-185.5 109t-128.5 162.5t-71 200.5h307q15 -45 38.5 -89t59.5 -79t86.5 -56.5t118.5 -21.5q86 1 154 29t115.5 78.5t72.5 120.5t25 157h-482v242z" />
    <glyph glyph-name="IUcyrillic" unicode="&#x42e;" horiz-adv-x="2048" 
d="M143 1470h295v-614h191q7 83 31 164t63.5 153.5t95 133.5t126 105.5t156 69.5t185.5 25q67 0 143.5 -13.5t151 -47t143 -89.5t120.5 -140.5t83 -200t31 -268.5q0 -181 -48 -326t-136.5 -247t-212.5 -157t-275 -55q-160 0 -277.5 52t-197 141.5t-124 207.5t-58.5 250h-191
v-614h-295v1470zM924 737q0 -131 26 -227t73.5 -158.5t114.5 -92.5t148 -30q82 0 149.5 30t115.5 92.5t74 158.5t26 227q0 130 -26 225t-74 157t-115.5 92t-149.5 30q-81 0 -148 -30t-114.5 -92t-73.5 -157t-26 -225z" />
    <glyph glyph-name="IAcyrillic" unicode="&#x42f;" horiz-adv-x="1483" 
d="M1339 0h-297v580h-274q-70 0 -127.5 -4t-100.5 -26.5t-69.5 -72.5t-34.5 -141l-10 -139q-4 -48 -8.5 -80.5t-9.5 -54t-10 -36t-9 -26.5h-319q15 28 23.5 48t14 42t9 51t8.5 76l14 139q7 64 17.5 116.5t33 93.5t62.5 71t106 51q-29 10 -62.5 26t-70.5 54q-48 48 -76 117.5
t-28 152.5q0 52 11 99.5t31 89.5t47.5 77t59.5 62q46 39 100.5 60t113 31t120 11.5t121.5 1.5h614v-1470zM1042 1212h-346q-6 0 -24 -0.5t-40.5 -2t-45.5 -4.5t-39 -9q-20 -8 -41 -21.5t-38.5 -35.5t-28.5 -53t-11 -74q0 -48 13.5 -80.5t36 -54t51 -33t58 -16.5t58 -6
t51.5 -1h346v391z" />
    <glyph glyph-name="acyrillic" unicode="&#x430;" horiz-adv-x="1139" 
d="M1016 215q0 -49 5.5 -80.5t14.5 -50t20.5 -27t24.5 -12.5v-45h-313q-8 19 -17.5 50.5t-9.5 76.5q-33 -34 -64.5 -63t-70.5 -50.5t-90 -34t-123 -12.5q-73 0 -134.5 21.5t-106.5 63.5t-70 105t-25 146q0 67 21 124.5t59.5 101t94 72t124.5 38.5l277 41q15 2 32.5 6
t32.5 13.5t25 26t10 44.5q0 27 -8.5 49.5t-28.5 39t-53.5 25.5t-83.5 9q-57 0 -91.5 -11.5t-54.5 -32t-29 -48t-13 -58.5h-283q0 20 6.5 55.5t24 77.5t49 85t83 78.5t125.5 58.5t177 24q146 0 236.5 -29.5t141 -77t68 -106t17.5 -116.5v-578zM733 532q-26 -14 -52 -25.5
t-69 -19.5l-75 -14q-49 -9 -86 -21t-61.5 -31.5t-37 -47.5t-12.5 -70q0 -35 11 -60.5t30.5 -42t45.5 -24.5t56 -8q16 0 41 3.5t53 13.5t56 27.5t50 45.5t36 68.5t14 95.5v110z" />
    <glyph glyph-name="becyrillic" unicode="&#x431;" 
d="M1087 1487q1 -84 -29 -137.5t-79.5 -86t-114 -47t-132.5 -19.5q-47 -4 -97 -12.5t-98 -26t-91 -46t-77 -70.5t-56 -100t-27 -136q16 52 51 98.5t87.5 81t121.5 55t153 20.5q112 0 202 -37.5t153 -105.5t96.5 -164t33.5 -213q0 -130 -38.5 -236t-110 -181.5t-174.5 -117
t-232 -41.5q-188 0 -311 77t-189 251q-22 59 -34 125t-17.5 124t-6.5 101t-1 57q0 156 36 285.5t114.5 225.5t202 155t299.5 75q56 5 79.5 18.5t29.5 27.5h256zM367 545q0 -62 13.5 -122.5t44.5 -108t81 -76.5t123 -29q77 0 127.5 28.5t80.5 75t42 107t12 125.5
q0 64 -14 120t-44 97.5t-78 65t-116 23.5q-73 0 -124.5 -24.5t-84.5 -66.5t-48 -97.5t-15 -117.5z" />
    <glyph glyph-name="vecyrillic" unicode="&#x432;" horiz-adv-x="1221" 
d="M426 662h218q48 0 80 7.5t50.5 22t26 36t7.5 50.5q0 24 -7.5 44.5t-25.5 35t-48 23t-75 8.5h-226v-227zM143 1090h564q75 0 144.5 -13t122.5 -45.5t84.5 -88t31.5 -140.5q0 -49 -10.5 -85t-28.5 -61.5t-41.5 -43t-48.5 -29.5q82 -29 125 -92.5t43 -151.5
q0 -77 -26.5 -139.5t-75 -107t-118 -69t-155.5 -24.5h-611v1090zM426 201h218q61 0 98.5 13t58 33t27 44t6.5 45q0 40 -10.5 66.5t-33 42.5t-59 22t-87.5 6h-218v-272z" />
    <glyph glyph-name="gecyrillic" unicode="&#x433;" horiz-adv-x="909" 
d="M135 1090h733v-230h-450v-860h-283v1090z" />
    <glyph glyph-name="decyrillic" unicode="&#x434;" horiz-adv-x="1309" 
d="M41 229h113q40 75 66.5 157.5t42.5 166.5t23 164.5t10 151.5t2.5 128t0.5 93h852v-861h137v-491h-266v262h-715v-262h-266v491zM869 229v631h-324q0 -30 -0.5 -74t-4 -97.5t-10 -113.5t-19 -120t-30 -118t-43.5 -108h431z" />
    <glyph glyph-name="iecyrillic" unicode="&#x435;" horiz-adv-x="1139" 
d="M338 457q0 -15 3 -40t12 -54t26 -58.5t45.5 -53.5t70 -39t99.5 -15q30 0 59.5 8.5t54.5 25t43.5 40t26.5 53.5h293q0 -30 -13 -68.5t-39.5 -78t-66.5 -77.5t-95 -67.5t-124.5 -47.5t-154.5 -18q-109 0 -204.5 32.5t-167 103t-112.5 182.5t-41 272q0 111 29.5 213.5
t92 180.5t160 124.5t234.5 46.5q145 0 244 -47.5t159.5 -134.5t86.5 -210t26 -273h-747zM791 645q0 72 -21.5 120t-54 76.5t-71.5 40t-75 11.5q-35 0 -74 -11.5t-71.5 -40t-54 -76.5t-21.5 -120h443z" />
    <glyph glyph-name="zhecyrillic" unicode="&#x436;" horiz-adv-x="1708" 
d="M997 657h54l299 433h323l-366 -504l385 -586h-342l-299 463h-54v-463h-282v463h-62l-307 -463h-330l387 586l-362 504h324l297 -433h53v433h282v-433z" />
    <glyph glyph-name="zecyrillic" unicode="&#x437;" horiz-adv-x="1024" 
d="M72 788q1 90 36.5 153.5t96.5 103.5t144 58.5t179 18.5q108 0 186 -26t129 -69t75 -98.5t24 -113.5q0 -48 -14 -85.5t-38 -65t-55.5 -45.5t-65.5 -27v-4q57 -9 97 -33.5t65 -58.5t36.5 -74.5t11.5 -79.5q0 -102 -40 -173t-104.5 -116t-145 -65.5t-161.5 -20.5
q-106 0 -194.5 19.5t-152 64t-99.5 116t-37 175.5h270q0 -38 14 -70t39 -55t60 -36t78 -13q52 0 86.5 16.5t54.5 41.5t28.5 53.5t8.5 52.5q0 78 -42.5 109.5t-135.5 31.5h-130v189h109q95 0 134.5 33t39.5 96q0 37 -11.5 62t-32 40.5t-48.5 22t-61 6.5q-75 0 -121.5 -34.5
t-46.5 -99.5h-266z" />
    <glyph glyph-name="iicyrillic" unicode="&#x438;" 
d="M135 1090h283v-672h4l397 672h297v-1090h-282v657h-5l-385 -657h-309v1090z" />
    <glyph glyph-name="iishortcyrillic" unicode="&#x439;" 
d="M968 1546q0 -79 -26 -135t-71.5 -91.5t-108.5 -52t-137 -16.5q-75 0 -138 16.5t-109 52t-71.5 91.5t-25.5 135h205q1 -28 7 -52.5t21.5 -43t42 -29t68.5 -10.5q41 0 68.5 8.5t43.5 25.5t22 42t5 59h204zM135 1090h283v-672h4l397 672h297v-1090h-282v657h-5l-385 -657
h-309v1090z" />
    <glyph glyph-name="kacyrillic" unicode="&#x43a;" 
d="M143 1090h283v-414l408 414h376l-450 -453l469 -637h-369l-320 460l-114 -115v-345h-283v1090z" />
    <glyph glyph-name="elcyrillic" unicode="&#x43b;" horiz-adv-x="1336" 
d="M1174 0h-282v860h-334l-6 -203q-5 -171 -22 -300t-55.5 -215.5t-104 -130.5t-167.5 -44q-48 0 -84 5.5t-59 15.5v237q14 -6 35.5 -11t52.5 -5q32 0 57 19.5t43 71t28 142.5t13 235l8 413h877v-1090z" />
    <glyph glyph-name="emcyrillic" unicode="&#x43c;" horiz-adv-x="1479" 
d="M135 1090h426l184 -791h5l180 791h413v-1090h-266v877h-4l-205 -877h-258l-204 877h-5v-877h-266v1090z" />
    <glyph glyph-name="encyrillic" unicode="&#x43d;" 
d="M135 1090h283v-394h416v394h282v-1090h-282v467h-416v-467h-283v1090z" />
    <glyph glyph-name="ocyrillic" unicode="&#x43e;" horiz-adv-x="1253" 
d="M70 545q0 126 38.5 232t111 182.5t175.5 119.5t232 43q131 0 234.5 -43t175 -119.5t109.5 -182.5t38 -232t-38 -232t-109.5 -183t-175 -120t-234.5 -43q-129 0 -232 43t-175.5 120t-111 183t-38.5 232zM365 545q0 -62 13.5 -122.5t44.5 -108t81 -76.5t123 -29
q76 0 126.5 28.5t80.5 75t42.5 107t12.5 125.5q0 64 -12.5 125t-42.5 107.5t-80.5 75t-126.5 28.5q-73 0 -123 -29t-81 -76.5t-44.5 -108t-13.5 -122.5z" />
    <glyph glyph-name="pecyrillic" unicode="&#x43f;" 
d="M135 1090h981v-1090h-282v860h-416v-860h-283v1090z" />
    <glyph glyph-name="ercyrillic" unicode="&#x440;" 
d="M127 1090h270v-156h4q29 49 61 84.5t71 58.5t86.5 34t107.5 11q50 0 103 -12t103.5 -38.5t95.5 -69t79 -104.5t54 -144.5t20 -188.5q0 -132 -28.5 -242t-86 -189t-145 -123t-205.5 -44q-41 0 -83 8t-82 27t-75.5 51.5t-62.5 81.5h-4v-557h-283v1512zM643 868
q-68 0 -114.5 -29t-75 -75t-41.5 -104t-13 -115q0 -31 3.5 -67.5t13.5 -74t27.5 -72.5t44.5 -62t65 -43.5t90 -16.5t90 16.5t65 43.5t44.5 62t27.5 72.5t13.5 74t3.5 67.5q0 57 -13 115t-41.5 104t-75.5 75t-114 29z" />
    <glyph glyph-name="escyrillic" unicode="&#x441;" horiz-adv-x="1139" 
d="M774 705q-8 43 -22 75.5t-36.5 55t-55 34t-78.5 11.5q-71 0 -113.5 -33t-65.5 -83t-30.5 -109t-7.5 -111q0 -54 6 -113.5t28 -109t65 -81.5t118 -32q49 0 85 19.5t60 48.5t35.5 62t11.5 60h295q0 -27 -9.5 -70t-31.5 -91t-58.5 -96.5t-91 -87t-127.5 -63t-169 -24.5
q-125 0 -220.5 38t-160 111.5t-98 181.5t-33.5 247t36.5 246.5t103.5 181t161.5 111.5t210.5 38q50 0 103.5 -8t105.5 -27.5t99.5 -50.5t85 -77.5t62 -109t31.5 -144.5h-295z" />
    <glyph glyph-name="tecyrillic" unicode="&#x442;" horiz-adv-x="1024" 
d="M371 860h-330v230h942v-230h-330v-860h-282v860z" />
    <glyph glyph-name="ucyrillic" unicode="&#x443;" horiz-adv-x="1139" 
d="M735 18q-32 -94 -58 -163.5t-51.5 -120t-54 -83t-66.5 -51.5t-89 -26.5t-121 -7.5q-28 0 -52.5 1.5t-58.5 4.5v229q17 -2 42 -4t42 -2q45 0 76 17t49.5 40.5t26.5 48.5t8 42l-399 1147h317l234 -803h4l223 803h303z" />
    <glyph glyph-name="efcyrillic" unicode="&#x444;" horiz-adv-x="1704" 
d="M711 106h-4q-15 -26 -38 -51t-53.5 -44.5t-69 -31.5t-85.5 -12q-77 0 -147.5 37.5t-124.5 111t-86.5 182t-32.5 251.5q0 115 18.5 202.5t49.5 151t72 106t85.5 67.5t89 35.5t84.5 10.5q34 0 67 -6.5t64 -22.5t58 -43t49 -67h4v487h282v-487h4q22 40 49 67t58 43
t64.5 22.5t68.5 6.5q39 0 83.5 -10.5t88.5 -35.5t85 -67.5t72 -106t49.5 -151t18.5 -202.5q0 -143 -32.5 -251.5t-86.5 -182t-124.5 -111t-147.5 -37.5q-47 0 -85.5 12t-69 31.5t-53.5 44.5t-38 51h-4v-528h-282v528zM1352 537q0 66 -9.5 128t-32.5 110t-62.5 77t-100.5 29
q-42 0 -71.5 -14.5t-48 -41t-26.5 -63t-8 -80.5v-258q0 -49 7 -89t24.5 -68t48 -43t78.5 -15q43 0 74.5 15.5t54 41.5t36.5 59.5t22 70t11 73t3 68.5zM352 537q0 -48 7 -105t29 -106.5t61 -83t104 -33.5q48 0 78.5 15t48 43t24.5 68t7 89v258q0 44 -8 80.5t-26.5 63t-48 41
t-71.5 14.5q-61 0 -100.5 -29t-63 -77t-32.5 -110t-9 -128z" />
    <glyph glyph-name="khacyrillic" unicode="&#x445;" horiz-adv-x="1139" 
d="M47 1090h348l178 -318l183 318h338l-357 -535l371 -555h-354l-181 328l-196 -328h-346l370 555z" />
    <glyph glyph-name="tsecyrillic" unicode="&#x446;" 
d="M135 1090h283v-861h416v861h282v-861h133v-491h-262v262h-852v1090z" />
    <glyph glyph-name="checyrillic" unicode="&#x447;" horiz-adv-x="1139" 
d="M1004 0h-283v430q-18 -8 -49 -16.5t-68.5 -15.5t-78 -11t-77.5 -4q-93 0 -165 16.5t-121 53.5t-74 96.5t-25 146.5v394h283v-338q0 -47 11.5 -77t35.5 -48t60 -25t85 -7q73 0 116 13.5t67 30.5v451h283v-1090z" />
    <glyph glyph-name="shacyrillic" unicode="&#x448;" horiz-adv-x="1708" 
d="M135 1090h283v-861h295v861h282v-861h295v861h283v-1090h-1438v1090z" />
    <glyph glyph-name="shchacyrillic" unicode="&#x449;" horiz-adv-x="1706" 
d="M135 1090h283v-861h295v861h282v-861h295v861h283v-861h130v-491h-258v262h-1310v1090z" />
    <glyph glyph-name="hardsigncyrillic" unicode="&#x44a;" horiz-adv-x="1366" 
d="M41 1090h586v-379h262q101 0 180.5 -21t134.5 -65t84 -111.5t29 -159.5q0 -83 -24 -142t-61.5 -98.5t-83.5 -62t-90 -34t-81 -14.5t-57 -3h-576v860h-303v230zM627 213h213q33 0 65.5 5.5t58.5 21t42 43t16 71.5q0 43 -16.5 71t-44.5 44t-66 22.5t-80 6.5h-188v-285z" />
    <glyph glyph-name="yericyrillic" unicode="&#x44b;" horiz-adv-x="1646" 
d="M1228 1090h283v-1090h-283v1090zM135 1090h283v-379h257q101 0 180.5 -21t134.5 -65t84 -111.5t29 -159.5q0 -83 -24 -142t-61.5 -98.5t-83.5 -62t-90 -34t-81.5 -14.5t-57.5 -3h-570v1090zM418 213h207q33 0 65.5 5.5t59 21t42.5 43t16 71.5q0 43 -16.5 71t-45 44
t-66 22.5t-79.5 6.5h-183v-285z" />
    <glyph glyph-name="softsigncyrillic" unicode="&#x44c;" horiz-adv-x="1184" 
d="M133 1090h283v-379h289q101 0 180.5 -21t134.5 -65t84 -111.5t29 -159.5q0 -83 -24 -142t-61.5 -98.5t-83.5 -62t-90 -34t-81.5 -14.5t-57.5 -3h-602v1090zM416 213h239q33 0 65.5 5.5t59 21t42.5 43t16 71.5q0 43 -16.5 71t-45 44t-66 22.5t-79.5 6.5h-215v-285z" />
    <glyph glyph-name="ereversedcyrillic" unicode="&#x44d;" horiz-adv-x="1139" 
d="M504 633h270q-4 49 -17.5 94t-38.5 79t-62 54.5t-87 20.5q-46 0 -78.5 -11.5t-55 -34t-36.5 -55t-22 -75.5h-295q7 82 31.5 144.5t62 109t85 77.5t99.5 50.5t105.5 27.5t103.5 8q116 0 209 -38t157.5 -111.5t99 -181t34.5 -246.5t-33.5 -247t-98 -181.5t-160.5 -111.5
t-220 -38q-96 0 -169 24.5t-127.5 63t-91 87t-58.5 96.5t-31.5 90.5t-9.5 70.5h295q0 -27 11.5 -60t35.5 -62t60 -48.5t85 -19.5q50 0 88.5 18.5t65.5 50t42.5 74.5t20.5 92h-270v189z" />
    <glyph glyph-name="iucyrillic" unicode="&#x44e;" horiz-adv-x="1706" 
d="M1352 545q0 71 -12.5 132.5t-40 106.5t-71.5 71t-106 26t-106.5 -26t-72.5 -71t-41 -106.5t-13 -132.5q0 -72 13 -133.5t41 -106.5t72.5 -70.5t106.5 -25.5t106 25.5t71.5 70.5t40 106.5t12.5 133.5zM135 1090h283v-428h188q18 120 63 207t112 143.5t153.5 83t187.5 26.5
q136 0 235 -44.5t163.5 -122.5t95.5 -183t31 -225q0 -69 -12 -138.5t-38 -134t-67 -120.5t-99 -97.5t-135 -65.5t-174 -24q-99 0 -187 25t-156.5 81.5t-113.5 148.5t-59 227h-188v-449h-283v1090z" />
    <glyph glyph-name="iacyrillic" unicode="&#x44f;" 
d="M1118 0h-284v401h-185q-61 0 -104.5 -4.5t-71.5 -21t-42.5 -48.5t-16.5 -87l-4 -105q-2 -23 -5.5 -60t-19.5 -75h-299q13 22 21 42.5t12.5 40t7 39.5t4.5 42l14 131q5 44 12 76t23 55.5t44 40.5t75 31q-15 4 -33.5 11.5t-39 20t-41 32t-38.5 48.5q-13 19 -20.5 40.5
t-11.5 42t-5 38.5t-1 31q0 58 14 103.5t36 79.5t50 58t57 39q32 18 71 27.5t76 14t69 5.5t50 1h586v-1090zM834 877h-228q-36 0 -72 -2t-64.5 -15.5t-46 -42t-17.5 -80.5q0 -51 17.5 -78t45 -40t61.5 -15t68 -2h236v275z" />
    <glyph glyph-name="Iocyrillic" unicode="&#x401;" horiz-adv-x="1366" 
d="M168 1470h1079v-253h-784v-326h721v-254h-721v-371h819v-266h-1114v1470zM350 1839h266v-242h-266v242zM752 1839h266v-242h-266v242z" />
    <glyph glyph-name="iocyrillic" unicode="&#x451;" horiz-adv-x="1139" 
d="M338 457q0 -15 3 -40t12 -54t26 -58.5t45.5 -53.5t70 -39t99.5 -15q30 0 59.5 8.5t54.5 25t43.5 40t26.5 53.5h293q0 -30 -13 -68.5t-39.5 -78t-66.5 -77.5t-95 -67.5t-124.5 -47.5t-154.5 -18q-109 0 -204.5 32.5t-167 103t-112.5 182.5t-41 272q0 111 29.5 213.5
t92 180.5t160 124.5t234.5 46.5q145 0 244 -47.5t159.5 -134.5t86.5 -210t26 -273h-747zM791 645q0 72 -21.5 120t-54 76.5t-71.5 40t-75 11.5q-35 0 -74 -11.5t-71.5 -40t-54 -76.5t-21.5 -120h443zM236 1493h266v-242h-266v242zM637 1493h266v-242h-266v242z" />
    <glyph glyph-name="Gjecyrillic" unicode="&#x403;" horiz-adv-x="1184" 
d="M168 1470h989v-253h-682v-1217h-307v1470zM647 1892h318l-303 -295h-205z" />
    <glyph glyph-name="gjecyrillic" unicode="&#x453;" horiz-adv-x="909" 
d="M135 1090h733v-230h-450v-860h-283v1090zM475 1546h318l-304 -295h-204z" />
    <glyph glyph-name="Icyrillic" unicode="&#x406;" horiz-adv-x="569" 
d="M131 1470h307v-1470h-307v1470z" />
    <glyph glyph-name="icyrillic" unicode="&#x456;" horiz-adv-x="569" 
d="M143 1090h283v-1090h-283v1090zM143 1518h283v-267h-283v267z" />
    <glyph glyph-name="Jecyrillic" unicode="&#x408;" horiz-adv-x="1139" 
d="M688 1470h307v-1064q0 -92 -22.5 -161t-60.5 -118t-87 -81t-102 -50.5t-106.5 -25.5t-98.5 -7q-113 0 -192 25t-131 68t-82 101t-44.5 123.5t-18 136t-3.5 138.5h295q0 -75 2.5 -137.5t19 -107t52.5 -69t102 -24.5q64 0 98.5 21t50.5 53.5t18.5 73t2.5 79.5v1026z" />
    <glyph glyph-name="Ecyrillic" unicode="&#x404;" horiz-adv-x="1479" 
d="M852 614h-442q0 -87 25 -157t72 -120.5t115 -78.5t154 -29q68 0 118.5 21.5t86.5 56.5t59.5 79t38.5 89h307q-21 -107 -71 -200.5t-128.5 -162.5t-185.5 -109t-241 -40q-63 0 -136.5 13t-148 46t-144 89.5t-123 143.5t-86 207.5t-32.5 282.5q0 101 18.5 196.5t56 180.5
t94 155.5t131.5 121.5t168.5 79.5t205.5 28.5q132 0 239.5 -34t187.5 -97.5t130.5 -155t67.5 -206.5h-308q-10 34 -29.5 73.5t-54 73.5t-86 57t-123.5 23q-69 0 -123.5 -19t-96 -50t-71 -71.5t-48 -83t-27 -84.5t-8.5 -77h438v-242z" />
    <glyph glyph-name="ecyrillic" unicode="&#x454;" horiz-adv-x="1139" 
d="M635 444h-270q4 -49 20 -92t43 -74.5t65.5 -50t88.5 -18.5q49 0 85 19.5t60 48.5t35.5 62t11.5 60h295q0 -27 -9.5 -70t-31.5 -91t-58.5 -96.5t-91 -87t-127.5 -63t-169 -24.5q-125 0 -220.5 38t-160 111.5t-98 181.5t-33.5 247t36.5 246.5t103.5 181t161.5 111.5
t210.5 38q50 0 103.5 -8t105.5 -27.5t99.5 -50.5t85 -77.5t62 -109t31.5 -144.5h-295q-8 43 -22 75.5t-36.5 55t-55 34t-78.5 11.5q-50 0 -88.5 -20.5t-66 -54.5t-43 -79t-19.5 -94h270v-189z" />
    <glyph glyph-name="Yicyrillic" unicode="&#x407;" horiz-adv-x="569" 
d="M131 1470h307v-1470h-307v1470zM-49 1839h266v-242h-266v242zM352 1839h266v-242h-266v242z" />
    <glyph glyph-name="yicyrillic" unicode="&#x457;" horiz-adv-x="649" 
d="M183 1090h283v-1090h-283v1090zM41 1493h226v-242h-226v242zM382 1493h226v-242h-226v242z" />
    <glyph glyph-name="Ljecyrillic" unicode="&#x409;" horiz-adv-x="2048" 
d="M331 1470h941v-579h178q33 0 84.5 -2t110.5 -14.5t118 -39.5t107 -76.5t78 -126t30 -188.5q0 -111 -30 -187t-76.5 -125.5t-103 -76t-110 -39t-98 -14.5t-65.5 -2h-530v1217h-346l1 -222q1 -201 -8.5 -354.5t-30 -267t-52 -190.5t-74.5 -123.5t-98 -66.5t-121 -20
q-54 0 -95.5 6.5t-82.5 23.5l-1 281q14 -7 29.5 -11.5t30.5 -7t27.5 -3.5t19.5 -1q27 0 50.5 7.5t42 32.5t32.5 72t23.5 125t14 193t4.5 275v504zM1272 254h145q42 0 86.5 6t82 26t61.5 59.5t24 105.5q0 69 -23.5 108.5t-61.5 59.5t-85.5 25t-95.5 5h-133v-395z" />
    <glyph glyph-name="ljecyrillic" unicode="&#x459;" horiz-adv-x="1872" 
d="M297 1090h866v-379h232q101 0 180.5 -21t134.5 -65t84 -111.5t29 -159.5q0 -83 -24 -142t-61.5 -98.5t-83.5 -62t-90 -34t-81.5 -14.5t-57.5 -3h-544v860h-323l-6 -203q-5 -171 -22 -300t-55.5 -215.5t-104 -130.5t-167.5 -44q-48 0 -84 5.5t-59 15.5v237q14 -6 35.5 -11
t52.5 -5q32 0 57 19.5t43 71t28 142.5t13 235zM1163 213h183q33 0 65.5 5.5t58.5 21t42 43t16 71.5q0 43 -16.5 71t-44.5 44t-66 22.5t-80 6.5h-158v-285z" />
    <glyph glyph-name="Njecyrillic" unicode="&#x40a;" horiz-adv-x="2025" 
d="M1253 254h144q41 0 86 6t82.5 26t61.5 59.5t24 105.5q0 69 -24 108.5t-62 59.5t-85.5 25t-95.5 5h-131v-395zM143 1470h308v-579h495v579h307v-579h177q33 0 84.5 -2t110.5 -14.5t118 -39.5t107 -76.5t78 -126t30 -188.5q0 -111 -30 -187t-76.5 -125.5t-103 -76t-110 -39
t-98 -14.5t-65.5 -2h-529v649h-495v-649h-308v1470z" />
    <glyph glyph-name="njecyrillic" unicode="&#x45a;" horiz-adv-x="1806" 
d="M135 1090h283v-379h416v379h282v-379h213q101 0 180.5 -21t134.5 -65t84 -111.5t29 -159.5q0 -83 -24 -142t-61.5 -98.5t-83 -62t-90 -34t-81.5 -14.5t-57 -3h-526v498h-416v-498h-283v1090zM1116 213h164q33 0 65.5 5.5t58.5 21t42 43t16 71.5q0 43 -16.5 71t-44.5 44
t-66 22.5t-80 6.5h-139v-285z" />
    <glyph glyph-name="jecyrillic" unicode="&#x458;" horiz-adv-x="569" 
d="M143 1090h283v-1205q0 -100 -21 -162t-60 -97t-94 -47.5t-122 -12.5q-58 0 -125 6v223h68q34 0 52.5 22t18.5 79v1194zM143 1518h283v-267h-283v267z" />
    <glyph glyph-name="Dzecyrillic" unicode="&#x405;" horiz-adv-x="1366" 
d="M672 1507q48 0 109.5 -7.5t124.5 -26.5t123.5 -53t107.5 -87t75.5 -127.5t28.5 -175.5h-295q0 59 -23 101.5t-63.5 69.5t-95 39.5t-117.5 12.5q-46 0 -93 -9.5t-84.5 -30.5t-61 -55.5t-23.5 -84.5q0 -44 15.5 -70.5t39.5 -42.5t52 -23.5t53 -12.5l358 -88q38 -9 81.5 -22
t86 -32.5t82 -48.5t69.5 -71t48 -99t18 -133q0 -88 -32.5 -172t-105 -149.5t-190 -105.5t-286.5 -40q-119 0 -226.5 27t-190 86t-131 152t-48.5 225h295q0 -66 27 -111.5t71.5 -73t101.5 -39.5t117 -12q48 0 101 8t98 29.5t74.5 58t29.5 93.5q0 43 -21 72t-57.5 49t-85 33.5
t-102.5 25.5l-158 37q-59 14 -116.5 28.5t-109 35.5t-96 50.5t-76.5 72.5t-50.5 102t-18.5 139q0 124 48 211t127.5 141.5t182 79t212.5 24.5z" />
    <glyph glyph-name="Tshecyrillic" unicode="&#x40b;" horiz-adv-x="1636" 
d="M23 1470h1151v-253h-472v-326h330q103 0 187.5 -15.5t144.5 -60t92.5 -125.5t32.5 -211v-479h-307v457q0 53 -13.5 87.5t-39.5 55t-64 29t-88 8.5h-275v-637h-307v1217h-372v253z" />
    <glyph glyph-name="tshecyrillic" unicode="&#x45b;" 
d="M233 997h-192v230h192v243h283v-243h475v-230h-475v-268q12 12 32 29.5t52.5 34.5t77.5 29t106 12q88 0 149.5 -24.5t100.5 -65.5t56.5 -94.5t17.5 -112.5v-537h-283v467q0 12 -2 38t-15.5 51.5t-42 45t-81.5 19.5q-45 0 -76.5 -15.5t-52 -42t-30 -60t-9.5 -69.5v-434
h-283v997z" />
    <glyph glyph-name="Kjecyrillic" unicode="&#x40c;" horiz-adv-x="1479" 
d="M760 1892h317l-303 -295h-205zM178 1470h307v-598l562 598h397l-600 -602l635 -868h-389l-455 651l-150 -153v-498h-307v1470z" />
    <glyph glyph-name="kjecyrillic" unicode="&#x45c;" 
d="M647 1546h318l-303 -295h-205zM143 1090h283v-414l408 414h376l-450 -453l469 -637h-369l-320 460l-114 -115v-345h-283v1090z" />
    <glyph glyph-name="dzecyrillic" unicode="&#x455;" horiz-adv-x="1139" 
d="M752 760q-3 21 -10 46.5t-26 48.5t-55 38.5t-98 15.5q-9 0 -26 -0.5t-36.5 -3.5t-39.5 -9.5t-36.5 -18.5t-27 -30.5t-10.5 -45.5q0 -24 15 -41t54 -33t105 -33t168 -41q67 -16 129 -37t109.5 -55.5t75.5 -87.5t28 -133q0 -93 -30.5 -157t-78.5 -105.5t-107 -64
t-115.5 -33t-104 -12t-72.5 -1.5q-95 0 -180.5 18t-152 62t-109.5 117t-53 184h294q0 -27 7 -56.5t30.5 -54.5t67 -41t115.5 -16q32 0 66.5 4.5t63 17t46.5 34t18 55.5q0 30 -16 49t-54.5 34.5t-103.5 30.5t-162 37q-63 15 -123.5 37t-107.5 58t-76 89t-29 128q0 35 7.5 76
t27 82t52.5 79t84 67t122 46.5t166 17.5q43 0 93 -4.5t100.5 -18t97.5 -38t85 -65t63.5 -98.5t31.5 -138h-282z" />
    <glyph glyph-name="Djecyrillic" unicode="&#x402;" horiz-adv-x="1559" 
d="M1174 1219h-472v-345q50 9 85.5 15.5t65 10.5t56 5.5t58.5 1.5q134 0 232 -45.5t162 -124t95 -185t31 -228.5q0 -99 -15.5 -191t-51.5 -174t-95.5 -152.5t-146.5 -125.5q-56 -35 -110 -55t-103 -30.5t-91.5 -14.5t-74.5 -5v248q22 2 53.5 7t67 17.5t73 35t72.5 59.5
q33 36 55 79t35.5 90.5t19 97t5.5 97.5q0 20 -1.5 54t-9 72.5t-24 78t-47 71.5t-77.5 52t-116 20q-14 0 -66.5 -3t-136.5 -23v-629h-307v1219h-379v251h1158v-251z" />
    <glyph glyph-name="djecyrillic" unicode="&#x452;" 
d="M233 997h-192v230h192v243h283v-243h475v-230h-475v-268q15 13 37 31t53.5 34.5t74 28t97.5 11.5q54 0 97.5 -13.5t77.5 -34.5t57.5 -47t38.5 -51q17 -29 31 -62.5t24.5 -81.5t16 -114t5.5 -158q0 -38 -2 -90t-9.5 -111.5t-21.5 -123.5t-38 -127q-28 -75 -92 -136
t-166 -87q-45 -13 -79 -16t-65 -3v242q36 5 63 14t47 26.5t33 47.5t21 76.5t11 113t3 158.5q0 58 -2.5 119.5t-18 111t-49 81.5t-95.5 32q-42 0 -70.5 -13.5t-46 -37t-25.5 -54.5t-8 -65v-430h-283v997z" />
    <glyph glyph-name="Ushortcyrillic" unicode="&#x40e;" horiz-adv-x="1366" 
d="M238 299q29 -12 68.5 -26.5t84.5 -14.5q37 0 64.5 9.5t46 26t28 38.5t9.5 47q0 48 -17 90.5t-39 87.5l-434 913h344l334 -790l293 790h332l-469 -1085q-46 -108 -92 -187t-100 -131.5t-120.5 -78t-154.5 -25.5q-59 0 -104 14t-74 23v299zM724 1547q-192 0 -289 75.5
t-97 232.5h232q1 -31 9.5 -57t26.5 -45t47 -29.5t71 -10.5t71.5 10.5t48 29t27 44.5t7.5 58h232q0 -157 -97 -232.5t-289 -75.5z" />
    <glyph glyph-name="ushortcyrillic" unicode="&#x45e;" horiz-adv-x="1139" 
d="M735 18q-32 -94 -58 -163.5t-51.5 -120t-54 -83t-66.5 -51.5t-89 -26.5t-121 -7.5q-28 0 -52.5 1.5t-58.5 4.5v229q17 -2 42 -4t42 -2q45 0 76 17t49.5 40.5t26.5 48.5t8 42l-399 1147h317l234 -803h4l223 803h303zM918 1546q0 -79 -26 -135t-71.5 -91.5t-108.5 -52
t-137 -16.5q-75 0 -138 16.5t-109 52t-71.5 91.5t-25.5 135h205q1 -28 7 -52.5t21.5 -43t42 -29t68.5 -10.5q41 0 68.5 8.5t43.5 25.5t22 42t5 59h204z" />
    <glyph glyph-name="Dzhecyrillic" unicode="&#x40f;" horiz-adv-x="1479" 
d="M143 1470h308v-1204h577v1204h307v-1470h-463v-315h-266v315h-463v1470z" />
    <glyph glyph-name="dzhecyrillic" unicode="&#x45f;" 
d="M133 1090h283v-861h418v861h282v-1090h-350v-262h-283v262h-350v1090z" />
    <glyph glyph-name="Gheupturncyrillic" unicode="&#x490;" 
d="M168 1470h809v259h242v-512h-744v-1217h-307v1470z" />
    <glyph glyph-name="gheupturncyrillic" unicode="&#x491;" horiz-adv-x="909" 
d="M135 1090h516v249h213v-479h-446v-860h-283v1090z" />
    <glyph glyph-name="commaturnedabovecmb" unicode="&#x312;" horiz-adv-x="0" 
d="M-767 1137q0 153 72.5 238.5t207.5 112.5v-104q-103 -30 -137 -112q-19 -44 -15 -83h156v-263h-284v211z" />
    <glyph glyph-name="commaabovecmb" unicode="&#x313;" horiz-adv-x="0" 
d="M-762 1012q98 31 135 105q20 44 17 89h-157v263h285v-211q0 -151 -73.5 -238t-206.5 -113v105z" />
    <glyph glyph-name="commaaboverightcmb" unicode="&#x315;" horiz-adv-x="0" 
d="M-762 1012q98 31 135 105q20 44 17 89h-157v263h285v-211q0 -151 -73.5 -238t-206.5 -113v105z" />
    <glyph glyph-name="commareversedabovecmb" unicode="&#x314;" horiz-adv-x="0" 
d="M-767 1488h284v-263h-156q-4 -39 15 -83q34 -82 137 -112v-104q-135 27 -207.5 112.5t-72.5 238.5v211z" />
    <glyph glyph-name="dblgravecmb" unicode="&#x30f;" horiz-adv-x="0" 
d="M-624 1244h-196l-244 292h291zM-334 1536l149 -292h-196l-244 292h291z" />
    <glyph glyph-name="verticallineabovecmb" unicode="&#x30d;" horiz-adv-x="0" 
d="M-549 1458v-311h-152v311h152z" />
    <glyph glyph-name="dblverticallineabovecmb" unicode="&#x30e;" horiz-adv-x="0" 
d="M-714 1458v-311h-152v311h152zM-384 1458v-311h-152v311h152z" />
    <glyph glyph-name="candrabinducmb" unicode="&#x310;" horiz-adv-x="0" 
d="M-625 1238q-154 0 -243 72.5t-102 225.5h135q14 -92 96 -125q46 -19 114 -19t114 19q82 33 96 125h135q-13 -153 -102 -225.5t-243 -72.5zM-758 1795h260v-237h-260v237z" />
    <glyph glyph-name="gravebelowcmb" unicode="&#x316;" horiz-adv-x="0" 
d="M-370 -363h-206l-303 299h317z" />
    <glyph glyph-name="acutebelowcmb" unicode="&#x317;" horiz-adv-x="0" 
d="M-370 -64l-304 -299h-206l192 299h318z" />
    <glyph glyph-name="minusbelowcmb" unicode="&#x320;" horiz-adv-x="0" 
d="M-980 -147h711v-152h-711v152z" />
    <glyph glyph-name="dotbelowcmb" unicode="&#x323;" horiz-adv-x="0" 
d="M-755 -107h260v-237h-260v237z" />
    <glyph glyph-name="dieresisbelowcmb" unicode="&#x324;" horiz-adv-x="0" 
d="M-555 -107h261v-237h-261v237zM-955 -107h261v-237h-261v237z" />
    <glyph glyph-name="ringbelowcmb" unicode="&#x325;" horiz-adv-x="0" 
d="M-625 -275q49 0 83.5 34.5t34.5 83.5t-34.5 84t-83.5 35t-84 -35t-35 -84t35 -83.5t84 -34.5zM-625 61q90 0 154 -64t64 -154t-64 -154t-154 -64t-154 64t-64 154t64 154t154 64z" />
    <glyph glyph-name="verticallinebelowcmb" unicode="&#x329;" horiz-adv-x="0" 
d="M-549 -142v-311h-152v311h152z" />
    <glyph glyph-name="caronbelowcmb" unicode="&#x32c;" horiz-adv-x="0" 
d="M-752 -363l-235 299h232l131 -169l130 169h232l-234 -299h-256z" />
    <glyph glyph-name="circumflexbelowcmb" unicode="&#x32d;" horiz-adv-x="0" 
d="M-262 -363h-232l-130 168l-131 -168h-232l235 299h256z" />
    <glyph glyph-name="brevebelowcmb" unicode="&#x32e;" horiz-adv-x="0" 
d="M-625 -362q-154 0 -243 72.5t-102 225.5h135q14 -92 96 -125q46 -19 114 -19t114 19q82 33 96 125h135q-13 -153 -102 -225.5t-243 -72.5z" />
    <glyph glyph-name="breveinvertedbelowcmb" unicode="&#x32f;" horiz-adv-x="0" 
d="M-625 -64q154 0 243 -72.5t102 -225.5h-135q-14 92 -96 125q-46 19 -114 19t-114 -19q-82 -33 -96 -125h-135q13 153 102 225.5t243 72.5z" />
    <glyph glyph-name="tildebelowcmb" unicode="&#x330;" horiz-adv-x="0" 
d="M-656 -117l94 -35q42 -14 55 -18t29 -4q48 0 67.5 25.5t28.5 60.5h133q-18 -105 -71.5 -176t-156.5 -71q-31 0 -88 15q-33 8 -63 18l-81 27q-17 6 -33 8.5t-32 2.5q-38 0 -62 -22q-24 -23 -34 -63h-130q22 103 57 156q64 95 190 95q27 0 53 -6t44 -13z" />
    <glyph glyph-name="macronbelowcmb" unicode="&#x331;" horiz-adv-x="0" 
d="M-940 -147h631v-152h-631v152z" />
    <glyph glyph-name="lowlinecmb" unicode="&#x332;" horiz-adv-x="0" 
d="M-980 -147h711v-152h-711v152z" />
    <glyph glyph-name="tildeoverlaycmb" unicode="&#x334;" horiz-adv-x="0" 
d="M-656 683l94 -35q42 -14 55 -18t29 -4q48 0 67.5 25.5t28.5 60.5h133q-18 -105 -71.5 -176t-156.5 -71q-31 0 -88 15q-33 8 -63 18l-81 27q-17 6 -33 8.5t-32 2.5q-38 0 -62 -22q-24 -23 -34 -63h-130q22 103 57 156q64 95 190 95q27 0 53 -6t44 -13z" />
    <glyph glyph-name="strokeshortoverlaycmb" unicode="&#x335;" horiz-adv-x="0" 
d="M-980 653h711v-152h-711v152z" />
    <glyph glyph-name="strokelongoverlaycmb" unicode="&#x336;" horiz-adv-x="0" 
d="M-980 653h711v-152h-711v152z" />
    <glyph glyph-name="dbllowlinecmb" unicode="&#x333;" horiz-adv-x="0" 
d="M-980 -147h711v-152h-711v152zM-980 -447h711v-152h-711v152z" />
    <glyph glyph-name="tildeverticalcmb" unicode="&#x33e;" horiz-adv-x="0" 
d="M-726 1412q-7 18 -13 44t-6 53q0 126 95 190q53 35 156 57v-130q-40 -10 -63 -34q-22 -24 -22 -62q0 -16 2.5 -32t8.5 -33l27 -81q10 -30 18 -63q15 -57 15 -88q0 -103 -71 -156.5t-176 -71.5v133q35 9 60.5 28.5t25.5 67.5q0 16 -4 29t-18 55z" />
    <glyph glyph-name="dbloverlinecmb" unicode="&#x33f;" horiz-adv-x="0" 
d="M-980 1453h711v-152h-711v152zM-980 1153h711v-152h-711v152z" />
    <glyph glyph-name="koroniscmb" unicode="&#x343;" horiz-adv-x="0" 
d="M-762 1012q98 31 135 105q20 44 17 89h-157v263h285v-211q0 -151 -73.5 -238t-206.5 -113v105z" />
    <glyph glyph-name="perispomenigreekcmb" unicode="&#x342;" horiz-adv-x="0" 
d="M-625 1536q154 0 243 -72.5t102 -225.5h-135q-14 92 -96 125q-46 19 -114 19t-114 -19q-82 -33 -96 -125h-135q13 153 102 225.5t243 72.5z" />
    <glyph glyph-name="dialytikatonoscmb" unicode="&#x344;" horiz-adv-x="0" 
d="M-988 1456h184v-184h-184v184zM-446 1456h185v-184h-185v184zM-646 1546h245l-235 -276h-143z" />
    <glyph glyph-name="uni0348" unicode="&#x348;" horiz-adv-x="0" 
d="M-714 -142v-311h-152v311h152zM-384 -142v-311h-152v311h152z" />
    <glyph glyph-name="combininggraphemejoiner" unicode="&#x34f;" horiz-adv-x="0" 
 />
    <glyph glyph-name="jdotlessstroke" unicode="&#x25f;" horiz-adv-x="682" 
d="M28 -398v232q24 -3 80.5 -4.5t78 25t21.5 58.5v92h-187v201h187v879h284v-879h159v-201h-156v-70q0 -175 -59 -241q-62 -98 -299 -98q-27 0 -49 1.5t-60 4.5z" />
    <glyph glyph-name="hturned" unicode="&#x265;" 
d="M199 109q-45 61 -55 125.5t-10 210.5v640h291v-663q0 -88 30 -142q39 -76 148 -76q113 0 171.5 75.5t58.5 215.5v590h284v-1469h-284v521q-62 -95 -143.5 -132.5t-171.5 -37.5q-101 0 -183.5 35t-135.5 107z" />
    <glyph glyph-name="mturned" unicode="&#x26f;" horiz-adv-x="1821" 
d="M200 126q-46 57 -62 140q-10 55 -10 161l2 687h292v-694q0 -62 20 -102q38 -76 140 -76q118 0 163 98q23 52 23 125v649h287v-649q0 -97 20 -141q36 -79 141 -79q122 0 164 79q23 45 23 134v656h289v-1088h-277v159q-53 -85 -100 -121q-83 -64 -215 -64q-125 0 -202 55
q-62 51 -94 131q-56 -96 -139 -141q-88 -45 -196 -45q-72 0 -142 28t-127 98z" />
    <glyph glyph-name="rturned" unicode="&#x279;" horiz-adv-x="797" 
d="M129 2v292q27 -3 48 -4t34 -1q172 0 231 112q33 63 33 194v521h287v-1090h-272v190q-66 -109 -115 -149q-80 -67 -208 -67q-8 0 -13.5 0.5t-24.5 1.5z" />
    <glyph glyph-name="mlonglegturned" unicode="&#x270;" horiz-adv-x="1821" 
d="M200 126q-46 57 -62 140q-10 55 -10 161l2 687h292v-694q0 -62 20 -102q38 -76 140 -76q118 0 163 98q23 52 23 125v649h287v-649q0 -97 20 -141q36 -79 141 -79q122 0 164 79q23 45 23 134v656h289v-1498h-277v569q-53 -85 -100 -121q-83 -64 -215 -64q-125 0 -202 55
q-62 51 -94 131q-56 -96 -139 -141q-88 -45 -196 -45q-72 0 -142 28t-127 98z" />
    <glyph glyph-name="rlongleg" unicode="&#x27c;" horiz-adv-x="797" 
d="M763 1114v-292q-27 3 -48 4t-34 1q-172 0 -231 -112q-33 -63 -33 -194v-905h-287v1474h272v-190q66 109 115 149q80 67 208 67q8 0 13.5 -0.5t24.5 -1.5z" />
    <glyph glyph-name="rlonglegturned" unicode="&#x27a;" horiz-adv-x="797" 
d="M129 2v292q27 -3 48 -4t34 -1q172 0 231 112q33 63 33 194v879h287v-1448h-272v190q-66 -109 -115 -149q-80 -67 -208 -67q-8 0 -13.5 0.5t-24.5 1.5z" />
    <glyph glyph-name="eopen" unicode="&#x25b;" horiz-adv-x="1034" 
d="M532 885q-86 0 -142 -27t-56 -96v-19q4 -49 64.5 -76.5t123.5 -27.5h96v-188h-94q-71 0 -140 -38t-69 -98q0 -79 58.5 -111t138.5 -32q100 0 152.5 43t64.5 113h236q-7 -45 -13 -90q-30 -105 -128.5 -184t-299.5 -79q-180 0 -317 72t-137 205q0 102 44 178t111 115
q-69 35 -104 85t-35 140q0 33 9 103.5t137 145.5t288 75q203 0 293 -70t137 -244h-245q-25 58 -53.5 81.5t-119.5 23.5z" />
    <glyph glyph-name="eopenreversed" unicode="&#x25c;" horiz-adv-x="1034" 
d="M504 885q-91 0 -119.5 -23.5t-53.5 -81.5h-245q47 174 137 244t293 70q160 0 288 -75t137 -145.5t9 -103.5q0 -90 -35 -140t-104 -85q67 -39 111 -115t44 -178q0 -133 -137 -205t-317 -72q-201 0 -299.5 79t-128.5 184q-6 45 -13 90h236q12 -70 64.5 -113t152.5 -43
q80 0 138.5 32t58.5 111q0 60 -69 98t-140 38h-94v188h96q63 0 123.5 27.5t64.5 76.5v19q0 69 -56 96t-142 27z" />
    <glyph glyph-name="iotalatin" unicode="&#x269;" horiz-adv-x="569" 
d="M137 1075h287v-1075h-287v1075z" />
    <glyph glyph-name="esh" unicode="&#x283;" horiz-adv-x="779" 
d="M454 -247q-80 -185 -283 -185q-43 0 -100 11.5t-111 31.5l24 227q38 -21 62 -30t52 -9q73 0 98 80q16 52 22 215l38 920q10 248 58 355q77 177 285 177q62 0 142 -19q80 -20 70 -20l-21 -227q-36 17 -62.5 26t-58.5 9q-76 0 -104 -80q-18 -52 -24 -221l-36 -972
q-8 -189 -51 -289z" />
    <glyph glyph-name="tturned" unicode="&#x287;" horiz-adv-x="682" 
d="M632 485v-203h-152v-304h-282v304h-177v203h177v576q0 67 -17 83.5t-104 16.5q-13 0 -27.5 -0.5t-28.5 -1.5v213l135 5q202 7 276 -70q48 -49 48 -151v-671h152z" />
    <glyph glyph-name="tretroflexhook" unicode="&#x288;" horiz-adv-x="682" 
d="M21 877v203h152v304h282v-304h177v-203h-177v-1007q0 -67 17 -83.5t104 -16.5q13 0 27.5 0.5t28.5 1.5v-213l-135 -5q-202 -7 -276 70q-48 49 -48 151v1102h-152z" />
    <glyph glyph-name="vturned" unicode="&#x28c;" horiz-adv-x="1139" 
d="M331 0h-306l393 1090h301l391 -1090h-320l-227 804z" />
    <glyph glyph-name="wturned" unicode="&#x28d;" horiz-adv-x="1593" 
d="M935 0h-289l-166 785l-170 -785h-297l316 1090h293l171 -794l173 794h296l306 -1090h-306l-170 782z" />
    <glyph glyph-name="yturned" unicode="&#x28e;" horiz-adv-x="1139" 
d="M947 1299l-36 2q-42 2 -80 -3t-64 -23q-25 -17 -46.5 -71t-17.5 -66l400 -1138h-317l-238 804l-225 -804h-303l374 1072q108 310 171 384.5t252 74.5q38 0 61 -0.5t69 -3.5v-228z" />
    <glyph glyph-name="glottalstop" unicode="&#x294;" 
d="M322 1413q118 76 290 76q226 0 375.5 -108t149.5 -320q0 -130 -65 -219q-38 -54 -146 -138l-71 -55q-58 -45 -77 -105q-12 -38 -13 -544h-270q6 595 32 659.5t134 148.5l73 57q36 27 58 59q40 55 40 121q0 76 -44.5 138.5t-162.5 62.5q-116 0 -164.5 -77t-48.5 -160h-289
q12 285 199 404z" />
    <glyph glyph-name="glottalstopreversed" unicode="&#x295;" 
d="M938 1413q187 -119 199 -404h-289q0 83 -48.5 160t-164.5 77q-118 0 -162.5 -62.5t-44.5 -138.5q0 -66 40 -121q22 -32 58 -59l73 -57q108 -84 134 -148.5t32 -659.5h-270q-1 506 -13 544q-19 60 -77 105l-71 55q-108 84 -146 138q-65 89 -65 219q0 212 149.5 320
t375.5 108q172 0 290 -76z" />
    <glyph glyph-name="glottalstopinverted" unicode="&#x296;" 
d="M322 75q-187 119 -199 404h289q0 -83 48.5 -160t164.5 -77q118 0 162.5 62.5t44.5 138.5q0 66 -40 121q-22 32 -58 59l-73 57q-108 84 -134 148.5t-32 659.5h270q1 -506 13 -544q19 -60 77 -105l71 -55q108 -84 146 -138q65 -89 65 -219q0 -212 -149.5 -320t-375.5 -108
q-172 0 -290 76z" />
    <glyph glyph-name="kturned" unicode="&#x29e;" horiz-adv-x="1139" 
d="M1132 -385h-280v794l-355 -410h-353l381 417l-396 668h344l261 -466l118 123v343h280v-1469z" />
    <glyph glyph-name="ascript" unicode="&#x251;" horiz-adv-x="1212" 
d="M788 958v117h287v-1075h-295v131q-63 -80 -141 -118t-178 -38q-178 0 -290 178.5t-112 387.5q0 215 122 383t313 168q90 0 159.5 -32t134.5 -102zM575 868q-108 0 -168.5 -98t-60.5 -233q0 -136 59.5 -234t169.5 -98q101 0 156 98t55 234q0 135 -54 233t-157 98z" />
    <glyph glyph-name="ascriptturned" unicode="&#x252;" horiz-adv-x="1212" 
d="M346 108v-117h-287v1075h295v-131q63 80 141 118t178 38q178 0 290 -178.5t112 -387.5q0 -215 -122 -383t-313 -168q-90 0 -159.5 32t-134.5 102zM559 198q108 0 168.5 98t60.5 233q0 136 -59.5 234t-169.5 98q-101 0 -156 -98t-55 -234q0 -135 54 -233t157 -98z" />
    <glyph glyph-name="Oopen" unicode="&#x186;" horiz-adv-x="1479" 
d="M1195 140q-180 -182 -458 -182q-372 0 -544 244q-95 137 -102 275h308q30 -106 77 -160q84 -96 249 -96q168 0 265 135.5t97 383.5t-102.5 371.5t-260.5 123.5q-162 0 -247 -106q-47 -57 -78 -171h-305q40 241 204.5 392t421.5 151q318 0 500 -204q182 -205 182 -562
q0 -386 -207 -595z" />
    <glyph glyph-name="Dafrican" unicode="&#x189;" horiz-adv-x="1479" 
d="M668 256q125 0 179 16q89 25 148 109q54 77 74.5 182.5t20.5 187.5q0 304 -150 409q-84 58 -258 58h-227v-304h310v-256h-310v-402h213zM1304 312q-159 -312 -534 -312h-614v658h-138v256h138v558h616q171 0 291.5 -51.5t208.5 -173.5q67 -93 99 -212t32 -263
q0 -266 -99 -460z" />
    <glyph glyph-name="deltaturned" unicode="&#x18d;" horiz-adv-x="1182" 
d="M670 396l353 -222v-204h-861v229h451q-23 4 -162 116.5t-259 281.5t-120 352q0 229 139.5 372.5t360.5 143.5q244 0 384 -148.5t140 -392.5q0 -199 -115.5 -343t-310.5 -185zM572 600q111 0 175.5 100.5t64.5 235.5q0 131 -61.5 223.5t-178.5 92.5q-109 0 -167 -93.5
t-58 -224.5q0 -135 60.5 -234.5t164.5 -99.5z" />
    <glyph glyph-name="Ereversed" unicode="&#x18e;" horiz-adv-x="1366" 
d="M200 1474h1081v-1474h-1117v265h816v379h-716v256h716v313h-780v261z" />
    <glyph glyph-name="Tonetwo" unicode="&#x1a7;" horiz-adv-x="1366" 
d="M1295 455q0 -230 -165 -361.5t-453 -131.5q-282 0 -436.5 133.5t-154.5 335.5q0 197 132 301q85 67 252 107l254 61q147 35 192 61q70 39 70 118q0 86 -71 134t-190 48q-107 0 -179 -37q-108 -56 -116 -189h-296q8 235 172.5 358.5t397.5 123.5q279 0 423 -131t144 -329
q0 -217 -149 -319q-88 -61 -318 -113l-156 -35q-137 -30 -201 -69q-64 -40 -64 -113q0 -125 129 -171q68 -24 177 -24q182 0 257 91q41 50 55 151h294z" />
    <glyph glyph-name="tonetwo" unicode="&#x1a8;" horiz-adv-x="1139" 
d="M1062 348q0 -168 -122.5 -276.5t-379.5 -108.5q-252 0 -372.5 102.5t-120.5 264.5q0 123 84 205q85 81 255 121q255 56 297 79q42 22 42 71q0 39 -39.5 68t-132.5 29q-113 0 -160 -58q-25 -32 -31 -87h-285q19 200 147.5 281.5t332.5 81.5q215 0 333.5 -108.5
t118.5 -259.5q0 -128 -76 -196q-76 -69 -261 -115q-257 -61 -297 -86t-40 -73q0 -50 49.5 -75t133.5 -25q143 0 196 57q30 32 39 108h289z" />
    <glyph glyph-name="Esh" unicode="&#x1a9;" horiz-adv-x="1219" 
d="M936 733l-465 -467h680v-266h-1090v225l502 506l-502 508v225h1090v-266h-680z" />
    <glyph glyph-name="Uhorn" unicode="&#x1af;" horiz-adv-x="1880" 
d="M156 1474h313v-906q0 -152 36 -222q56 -124 244 -124q187 0 243 124q36 70 36 222v906h313v-261h6q69 -7 160 38l-87 150l258 149l154 -267l-223 -129q-59 -34 -132 -56q-69 -20 -136 -7v-523q0 -235 -73 -366q-136 -240 -519 -240t-520 240q-73 131 -73 366v906z" />
    <glyph glyph-name="uhorn" unicode="&#x1b0;" horiz-adv-x="1649" 
d="M417 1090v-657q0 -93 22 -140q39 -83 153 -83q146 0 200 118q28 64 28 169v593h289v-146q4 -1 8 -1q69 -7 160 38l-87 150l258 149l154 -267l-223 -129q-59 -34 -132 -56q-70 -20 -138 -7v-821h-277v154q-4 -5 -20 -30t-38 -44q-67 -60 -129.5 -82t-146.5 -22
q-242 0 -326 174q-47 96 -47 283v657h292z" />
    <glyph glyph-name="Upsilonafrican" unicode="&#x1b1;" horiz-adv-x="1587" 
d="M787 276q166 0 252 123t86 297q0 172 -47 294t-168 208v266h584v-246h-307q256 -203 256 -532q0 -289 -171 -487.5t-474 -198.5q-293 0 -474.5 199.5t-181.5 486.5q0 176 59.5 300t196.5 232h-307v246h584v-266q-121 -86 -168 -207t-47 -295q0 -176 81.5 -298t245.5 -122
z" />
    <glyph glyph-name="clickdental" unicode="&#x1c0;" horiz-adv-x="573" 
d="M428 1488v-1488h-263v1488h263z" />
    <glyph glyph-name="clicklateral" unicode="&#x1c1;" horiz-adv-x="1083" 
d="M428 1488v-1488h-263v1488h263zM928 1488v-1488h-263v1488h263z" />
    <glyph glyph-name="clickretroflex" unicode="&#x1c3;" horiz-adv-x="682" 
d="M225 1469h313v-374l-81 -688h-149l-83 688v374zM232 289h298v-289h-298v289z" />
    <glyph glyph-name="clickalveolar" unicode="&#x1c2;" horiz-adv-x="1172" 
d="M1110 1067v-263h-432v-204h432v-263h-432v-337h-263v337h-388v263h388v204h-388v263h388v421h263v-421h432z" />
    <glyph glyph-name="sigmalunatesymbolgreek" unicode="&#x3f2;" horiz-adv-x="1139" 
d="M784 699q-8 61 -41 110q-48 66 -149 66q-144 0 -197 -143q-28 -76 -28 -202q0 -120 28 -193q51 -136 192 -136q100 0 142 54t51 140h291q-10 -130 -94 -246q-134 -187 -397 -187t-387 156t-124 405q0 281 137 437t378 156q205 0 335.5 -92t154.5 -325h-292z" />
    <glyph glyph-name="ypogegrammeni" unicode="&#x37a;" horiz-adv-x="285" 
d="M69 -104h143v-538h-143v538z" />
    <glyph glyph-name="minute" unicode="&#x2032;" horiz-adv-x="682" 
d="M685 1472l-304 -598h-206l192 598h318z" />
    <glyph glyph-name="primereversed" unicode="&#x2035;" horiz-adv-x="682" 
d="M493 1472l192 -598h-206l-304 598h318z" />
    <glyph glyph-name="uni2031" unicode="&#x2031;" horiz-adv-x="2914" 
d="M208 1156q0 -52 37 -88.5t89 -36.5t88.5 36.5t36.5 88.5t-36.5 89t-88.5 37q-53 0 -89.5 -37t-36.5 -89zM995 1498h147l-834 -1536h-147zM663 1156q0 -136 -96 -232.5t-233 -96.5t-233.5 96.5t-96.5 232.5q0 137 97 233.5t233 96.5t232.5 -96.5t96.5 -233.5zM1595 284
q0 -52 36.5 -89t88.5 -37t89 37t37 89q0 53 -37 89t-89 36t-88.5 -36t-36.5 -89zM1720 613q137 0 233.5 -96.5t96.5 -232.5t-96.5 -233t-233.5 -97q-136 0 -232.5 97t-96.5 233q0 137 96.5 233t232.5 96zM1104 284q0 53 -37.5 89t-89.5 36t-88 -36t-36 -89q0 -52 36 -89
t88 -37t89.5 37t37.5 89zM978 -46q-136 0 -232.5 97t-96.5 233q0 137 96.5 233t232.5 96q137 0 233.5 -96.5t96.5 -232.5t-96.5 -233t-233.5 -97zM2355 284q0 -52 36.5 -89t88.5 -37t89 37t37 89q0 53 -37 89t-89 36t-88.5 -36t-36.5 -89zM2480 613q137 0 233.5 -96.5
t96.5 -232.5t-96.5 -233t-233.5 -97q-136 0 -232.5 97t-96.5 233q0 137 96.5 233t232.5 96z" />
    <glyph glyph-name="twodotleader" unicode="&#x2025;" horiz-adv-x="1381" 
d="M872 0v298h306v-298h-306zM189 0v298h306v-298h-306z" />
    <glyph glyph-name="onedotleader" unicode="&#x2024;" horiz-adv-x="677" 
d="M189 0v298h306v-298h-306z" />
    <glyph glyph-name="quotedblleftaltone.old" horiz-adv-x="1024" 
d="M430 907q-140 27 -209.5 117.5t-69.5 233.5v211h284v-263h-156q0 -47 14 -80q34 -83 137 -114v-105zM902 907q-137 26 -208.5 115t-71.5 236v211h285v-263h-157q-3 -43 16 -84q35 -78 136 -110v-105z" />
    <glyph glyph-name="quoteleftreversed.old" horiz-adv-x="569" 
d="M413 907q-133 26 -206.5 113t-73.5 238v211h285v-263h-157q-3 -45 17 -89q37 -74 135 -105v-105z" />
    <glyph glyph-name="hyphentwo" unicode="&#x2010;" horiz-adv-x="682" 
d="M47 706h574v-270h-574v270z" />
    <glyph glyph-name="reversedpilcrow" unicode="&#x204b;" horiz-adv-x="1139" 
d="M125 1303h-125v171h651q239 0 362 -144.5t123 -358.5q0 -218 -111.5 -347t-299.5 -129v-865h-202v1673h-196v-1673h-202v1673z" />
    <glyph glyph-name="second" unicode="&#x2033;" horiz-adv-x="1250" 
d="M685 1472l-304 -598h-206l192 598h318zM1195 1472l-304 -598h-206l192 598h318z" />
    <glyph glyph-name="secondreversed" unicode="&#x2036;" horiz-adv-x="1250" 
d="M1003 1472l192 -598h-206l-304 598h318zM493 1472l192 -598h-206l-304 598h318z" />
    <glyph glyph-name="primetriple" unicode="&#x2034;" horiz-adv-x="1764" 
d="M685 1472l-304 -598h-206l192 598h318zM1195 1472l-304 -598h-206l192 598h318zM1695 1472l-304 -598h-206l192 598h318z" />
    <glyph glyph-name="uni2037" unicode="&#x2037;" horiz-adv-x="1764" 
d="M1503 1472l192 -598h-206l-304 598h318zM993 1472l192 -598h-206l-304 598h318zM493 1472l192 -598h-206l-304 598h318z" />
    <glyph glyph-name="nonbreakinghyphen" unicode="&#x2011;" horiz-adv-x="682" 
d="M47 706h574v-270h-574v270z" />
    <glyph glyph-name="uni2027" unicode="&#x2027;" horiz-adv-x="677" 
d="M189 608v298h306v-298h-306z" />
    <glyph glyph-name="figuredash" unicode="&#x2012;" horiz-adv-x="682" 
d="M47 706h574v-270h-574v270z" />
    <glyph glyph-name="horizontalbar" unicode="&#x2015;" horiz-adv-x="2048" 
d="M241 682h1565v-218h-1565v218z" />
    <glyph glyph-name="uni2023" unicode="&#x2023;" horiz-adv-x="1364" 
d="M464 1054l606 -298v0l-606 -298v596z" />
    <glyph glyph-name="uni202F" unicode="&#x202f;" horiz-adv-x="0" 
 />
    <glyph glyph-name="uni2028" unicode="&#x2028;" horiz-adv-x="0" 
 />
    <glyph glyph-name="uni2029" unicode="&#x2029;" horiz-adv-x="0" 
 />
    <glyph glyph-name="uni202A" unicode="&#x202a;" horiz-adv-x="0" 
 />
    <glyph glyph-name="uni202B" unicode="&#x202b;" horiz-adv-x="0" 
 />
    <glyph glyph-name="afii61573" unicode="&#x202c;" horiz-adv-x="0" 
 />
    <glyph glyph-name="afii61574" unicode="&#x202d;" horiz-adv-x="0" 
 />
    <glyph glyph-name="afii61575" unicode="&#x202e;" horiz-adv-x="0" 
 />
    <glyph glyph-name="uni2000" unicode="&#x2000;" horiz-adv-x="569" 
 />
    <glyph glyph-name="uni2001" unicode="&#x2001;" horiz-adv-x="569" 
 />
    <glyph glyph-name="enspace" unicode="&#x2002;" horiz-adv-x="569" 
 />
    <glyph glyph-name="emspace" unicode="&#x2003;" horiz-adv-x="569" 
 />
    <glyph glyph-name="uni2004" unicode="&#x2004;" horiz-adv-x="569" 
 />
    <glyph glyph-name="uni2005" unicode="&#x2005;" horiz-adv-x="569" 
 />
    <glyph glyph-name="uni2006" unicode="&#x2006;" horiz-adv-x="569" 
 />
    <glyph glyph-name="uni2007" unicode="&#x2007;" horiz-adv-x="569" 
 />
    <glyph glyph-name="uni2008" unicode="&#x2008;" horiz-adv-x="569" 
 />
    <glyph glyph-name="zerowidthspace" unicode="&#x200b;" horiz-adv-x="0" 
 />
    <glyph glyph-name="zerowidthnonjoiner" unicode="&#x200c;" horiz-adv-x="0" 
 />
    <glyph glyph-name="zerowidthjoiner" unicode="&#x200d;" horiz-adv-x="0" 
 />
    <glyph glyph-name="lefttorightmark" unicode="&#x200e;" horiz-adv-x="0" 
 />
    <glyph glyph-name="righttoleftmark" unicode="&#x200f;" horiz-adv-x="0" 
 />
    <glyph glyph-name="uni2009" unicode="&#x2009;" horiz-adv-x="569" 
 />
    <glyph glyph-name="uni200A" unicode="&#x200a;" horiz-adv-x="569" 
 />
    <glyph glyph-name="dbllowline" unicode="&#x2017;" horiz-adv-x="682" 
d="M-10 -147h711v-152h-711v152zM-10 -447h711v-152h-711v152z" />
    <glyph glyph-name="dblverticalbar" unicode="&#x2016;" horiz-adv-x="1083" 
d="M428 1488v-1488h-263v1488h263zM928 1488v-1488h-263v1488h263z" />
    <glyph glyph-name="interrobang" unicode="&#x203d;" 
d="M322 1413q118 76 290 76q97 0 180 -20h6v-2q106 -26 189 -86q150 -108 150 -320q0 -130 -65 -219q-38 -54 -146 -138l-71 -55q-58 -45 -77 -105q-12 -38 -13 -118h-46l-2 -19h-149l-3 19h-70q6 169 32 233q3 9 8 18l-50 418v104q-14 -13 -25 -30q-48 -77 -48 -160h-289
q12 285 199 404zM488 289h302v-289h-302v289zM792 924q40 55 40 121t-34 123v-73l-23 -193q9 11 17 22z" />
    <glyph glyph-name="uni2043" unicode="&#x2043;" horiz-adv-x="682" 
d="M47 706h574v-270h-574v270z" />
    <glyph glyph-name="overline" unicode="&#x203e;" horiz-adv-x="682" 
d="M-10 1453h711v-152h-711v152z" />
    <glyph glyph-name="uni204D" unicode="&#x204d;" horiz-adv-x="1139" 
d="M5 1204h526q239 0 362 -144.5t123 -358.5q0 -218 -111.5 -347t-299.5 -124h-600v974zM207 415h196v618h-196v-618z" />
    <glyph glyph-name="uni204C" unicode="&#x204c;" horiz-adv-x="1139" 
d="M1011 230h-600q-188 -5 -299.5 124t-111.5 347q0 214 123 358.5t362 144.5h526v-974zM809 1033h-196v-618h196v618z" />
    <glyph glyph-name="angstrom" unicode="&#x212b;" horiz-adv-x="1479" 
d="M559 557h374l-184 580zM578 1474h348l522 -1474h-334l-95 303h-543l-102 -303h-322zM750 1474zM678 1712.5q35 -34.5 84 -34.5t83.5 34.5t34.5 83.5t-34.5 84t-83.5 35t-84 -35t-35 -84t35 -83.5zM608 1950q64 64 154 64t154 -64t64 -154t-64 -154t-154 -64t-154 64
t-64 154t64 154zM762 1472z" />
    <glyph glyph-name="Fturned" unicode="&#x2132;" 
d="M1201 0h-1045v259h739v339h-647v256h647v618h306v-1472z" />
    <glyph glyph-name="eturned" unicode="&#x1dd;" horiz-adv-x="1139" 
d="M787 428h-443q7 -113 68.5 -171.5t152.5 -58.5q99 0 153.5 62t68.5 168zM140 175q-64 97 -83 225q-11 75 -9 216h746q-6 164 -103 230q-59 41 -142 41q-88 0 -143 -50q-30 -27 -53 -75h-291q11 97 101 197q140 159 392 159q208 0 367 -134t159 -436q0 -283 -143.5 -434
t-372.5 -151q-136 0 -245 51t-180 161z" />
    <glyph glyph-name="Ohorn" unicode="&#x1a0;" horiz-adv-x="1938" 
d="M1291 131q-167 -172 -483 -172t-483 172q-224 211 -224 608q0 405 224 608q167 172 483 172t483 -172q64 -58 109 -133l7 -1q69 -7 160 38l-87 150l258 149l154 -267l-223 -129q-59 -34 -132 -56q-39 -11 -77 -12q54 -150 54 -347q0 -397 -223 -608zM1206 739
q0 248 -107.5 383.5t-290.5 135.5t-292 -135t-109 -384t109 -384t292 -135t290.5 135t107.5 384z" />
    <glyph glyph-name="ohorn" unicode="&#x1a1;" horiz-adv-x="1628" 
d="M623 -38q-281 0 -419 170.5t-138 410.5q0 236 138 409t419 173t419 -173q22 -28 41 -58q7 -1 14 -1q69 -7 160 38l-87 150l258 149l154 -267l-223 -129q-59 -34 -132 -56q-42 -12 -83 -12q36 -104 36 -223q0 -240 -138 -410.5t-419 -170.5zM881 543q0 164 -67 252.5
t-192 88.5t-192.5 -88.5t-67.5 -252.5t67.5 -253t192.5 -89t192 89t67 253z" />
    <glyph glyph-name="uni0357" unicode="&#x357;" horiz-adv-x="0" 
d="M-734 1325q49 0 83.5 34.5t34.5 83.5t-34.5 84t-83.5 35v99q90 0 154 -64t64 -154t-64 -154t-154 -66l2 102h-2z" />
    <glyph glyph-name="uni0351" unicode="&#x351;" horiz-adv-x="0" 
d="M-518 1325l2 -102q-90 2 -154 66t-64 154t64 154t154 64v-99q-49 0 -83.5 -35t-34.5 -84t34.5 -83.5t83.5 -34.5h-2z" />
    <glyph glyph-name="ringhalfleftbelowcmb" unicode="&#x31c;" horiz-adv-x="0" 
d="M-518 -275l2 -102q-90 2 -154 66t-64 154t64 154t154 64v-99q-49 0 -83.5 -35t-34.5 -84t34.5 -83.5t83.5 -34.5h-2z" />
    <glyph glyph-name="ringhalfrightbelowcmb" unicode="&#x339;" horiz-adv-x="0" 
d="M-734 -275q49 0 83.5 34.5t34.5 83.5t-34.5 84t-83.5 35v99q90 0 154 -64t64 -154t-64 -154t-154 -66l2 102h-2z" />
    <glyph glyph-name="uni0363" unicode="&#x363;" horiz-adv-x="0" 
d="M-543 1265q-13 -8 -27 -13.5t-38 -9.5l-32 -6q-45 -8 -64 -20q-33 -19 -33 -60q0 -37 20 -53t49 -16q46 0 85 27t40 98v53zM-629 1332q39 5 56 12q31 13 31 41q0 33 -23.5 46t-68.5 13q-50 0 -71 -25q-15 -19 -20 -50h-138q5 71 40 117q57 72 194 72q90 0 159 -35
q70 -36 70 -134v-250q0 -26 1 -63q1 -28 8 -38t21 -17v-21h-155q-6 17 -8.5 31.5t-4.5 32.5q-29 -32 -68 -54q-46 -27 -104 -27q-74 0 -122 42.5t-48 119.5q0 101 77 146q43 24 125 35z" />
    <glyph glyph-name="uni0364" unicode="&#x364;" horiz-adv-x="0" 
d="M-736 1327h221q-3 57 -34 86t-76 29q-50 0 -77 -31t-34 -84zM-413 1454q32 -49 42 -113q5 -37 4 -108h-373q3 -82 52 -115q29 -20 71 -20q44 0 71 25q15 13 27 37h145q-5 -48 -50 -98q-70 -80 -196 -80q-104 0 -183.5 67t-79.5 218q0 142 71.5 217.5t186.5 75.5
q68 0 122.5 -25.5t89.5 -80.5z" />
    <glyph glyph-name="uni0365" unicode="&#x365;" horiz-adv-x="0" 
d="M-553 1610h-144v132h144v-132zM-697 1545h144v-545h-144v545z" />
    <glyph glyph-name="uni0366" unicode="&#x366;" horiz-adv-x="0" 
d="M-495 1272q0 82 -33.5 126t-96.5 44q-62 0 -96 -44t-34 -126t34 -126.5t96 -44.5q63 0 96.5 44.5t33.5 126.5zM-624 981q-141 0 -210 85.5t-69 205.5q0 118 69 204.5t210 86.5q140 0 209 -86.5t69 -204.5q0 -120 -69 -205.5t-209 -85.5z" />
    <glyph glyph-name="uni0367" unicode="&#x367;" horiz-adv-x="0" 
d="M-725 1545v-328q0 -47 11 -70q19 -42 76 -42q73 0 100 59q14 32 14 85v296h145v-545h-139v77q-2 -2 -10 -14.5t-19 -22.5q-33 -30 -64.5 -41t-73.5 -11q-121 0 -163 87q-23 48 -23 142v328h146z" />
    <glyph glyph-name="uni0368" unicode="&#x368;" horiz-adv-x="0" 
d="M-520 1350q-4 30 -20 55q-24 33 -75 33q-72 0 -98 -72q-14 -38 -14 -101q0 -60 14 -96q25 -68 96 -68q50 0 71 27t25 70h146q-5 -65 -47 -123q-67 -94 -199 -94q-131 0 -193 78t-62 203q0 140 68.5 218t188.5 78q103 0 168 -46t77 -162h-146z" />
    <glyph glyph-name="uni0369" unicode="&#x369;" horiz-adv-x="0" 
d="M-504 1476v260h145v-736h-139v76q-30 -49 -69 -71t-97 -22q-96 0 -161 77.5t-65 198.5q0 139 64 219t172 80q49 0 87.5 -21.5t62.5 -60.5zM-500 1265q0 100 -50 143q-31 26 -72 26q-63 0 -92 -47.5t-29 -117.5q0 -75 29.5 -120.5t90.5 -45.5q60 0 91.5 45t31.5 117z" />
    <glyph glyph-name="uni036A" unicode="&#x36a;" horiz-adv-x="0" 
d="M-411 1488q22 -30 27 -62.5t5 -105.5v-320h-145v332q0 44 -15 71q-20 38 -74 38q-57 0 -86 -38t-29 -108v-295h-142v735h142v-261q31 48 71.5 66.5t85.5 18.5q51 0 92 -17.5t68 -53.5z" />
    <glyph glyph-name="uni036B" unicode="&#x36b;" horiz-adv-x="0" 
d="M-270 1494q23 -28 31 -70q5 -27 5 -80l-1 -344h-146v347q0 31 -10 51q-19 38 -70 38q-59 0 -81 -49q-12 -26 -12 -62v-325h-143v325q0 48 -10 70q-18 40 -71 40q-61 0 -82 -40q-11 -22 -11 -67v-328h-145v544h139v-79q26 42 50 60q41 32 107 32q63 0 101 -27
q31 -26 47 -66q28 48 70 71q44 22 98 22q36 0 71 -14t63 -49z" />
    <glyph glyph-name="uni036C" unicode="&#x36c;" horiz-adv-x="0" 
d="M-466 1557v-146q-14 2 -24.5 2.5t-16.5 0.5q-86 0 -116 -56q-16 -32 -16 -97v-261h-144v545h136v-95q33 55 58 75q40 33 104 33h6.5t12.5 -1z" />
    <glyph glyph-name="uni036D" unicode="&#x36d;" horiz-adv-x="0" 
d="M-777 1439v101h76v152h141v-152h88v-101h-88v-288q0 -34 8.5 -42t51.5 -8h14t14 1v-107l-67 -3q-101 -3 -138 36q-24 24 -24 75v336h-76z" />
    <glyph glyph-name="uni036E" unicode="&#x36e;" horiz-adv-x="0" 
d="M-506 1545h153l-197 -545h-150l-196 545h160l114 -402z" />
    <glyph glyph-name="uni036F" unicode="&#x36f;" horiz-adv-x="0" 
d="M-894 1000l186 276l-178 268h175l91 -158l89 158h169l-179 -265l186 -279h-177l-94 164l-95 -164h-173z" />
    <glyph glyph-name="uni0347" unicode="&#x347;" horiz-adv-x="0" 
d="M-940 -147h631v-152h-631v152zM-940 -447h631v-152h-631v152z" />
    <glyph glyph-name="solidusshortoverlaycmb" unicode="&#x337;" horiz-adv-x="0" 
d="M-458 1110h237l-573 -760h-235z" />
    <glyph glyph-name="plusbelowcmb" unicode="&#x31f;" horiz-adv-x="0" 
d="M-895 -360v131h205v205h131v-205h205v-131h-205v-206h-131v206h-205z" />
    <glyph glyph-name="downtackbelowcmb" unicode="&#x31e;" horiz-adv-x="0" 
d="M-895 -159v131h541v-131h-205v-407h-131v407h-205z" />
    <glyph glyph-name="uptackbelowcmb" unicode="&#x31d;" horiz-adv-x="0" 
d="M-690 -435v407h131v-407h205v-131h-541v131h205z" />
    <glyph glyph-name="lefttackbelowcmb" unicode="&#x318;" horiz-adv-x="0" 
d="M-487 -362h-407v131h407v205h131v-541h-131v205z" />
    <glyph glyph-name="righttackbelowcmb" unicode="&#x319;" horiz-adv-x="0" 
d="M-763 -567h-131v541h131v-205h407v-131h-407v-205z" />
    <glyph glyph-name="uni0352" unicode="&#x352;" horiz-adv-x="0" 
d="M-625 1796q154 0 243 -72.5t102 -225.5h-135q-14 92 -96 125q-46 19 -114 19t-114 -19q-82 -33 -96 -125h-135q13 153 102 225.5t243 72.5zM-758 1476h260v-237h-260v237z" />
    <glyph glyph-name="primemod" unicode="&#x2b9;" horiz-adv-x="682" 
d="M685 1472l-304 -598h-206l192 598h318z" />
    <glyph glyph-name="dblprimemod" unicode="&#x2ba;" horiz-adv-x="1250" 
d="M685 1472l-304 -598h-206l192 598h318zM1195 1472l-304 -598h-206l192 598h318z" />
    <glyph glyph-name="numeralsigngreek" unicode="&#x374;" horiz-adv-x="682" 
d="M685 1472l-304 -598h-206l192 598h318z" />
    <glyph glyph-name="numeralsignlowergreek" unicode="&#x375;" horiz-adv-x="682" 
d="M175 -526l304 598h206l-192 -598h-318z" />
    <glyph glyph-name="notequal.mirror" horiz-adv-x="1124" 
d="M17.9805 644h350.614l82.9092 -204h-433.523v-263h556.388l89.9014 -196h271.701l-86.9043 196h250.724v263h-369.593l-89.9014 204h459.494v263h-577.364l-87.9033 197h-272.7l87.9033 -197h-231.745v-263z" />
    <glyph glyph-name="notequal" unicode="&#x2260;" horiz-adv-x="1124" 
d="M1108 644h-351l-83 -204h434v-263h-557l-90 -196h-272l87 196h-251v263h370l90 204h-460v263h578l88 197h273l-88 -197h232v-263z" />
    <glyph glyph-name="partialdiff.mirror" horiz-adv-x="1105" 
d="M745.68 233.5q-62.4316 -56.5 -143.342 -56.5q-101.889 0 -174.809 79q-72.9189 79 -72.9189 211q0 97 49.9443 163.5q49.9453 66.5 154.83 66.5q109.879 0 179.303 -86t69.4238 -216q0 -105 -62.4316 -161.5zM962.441 92q122.365 133 122.365 323q0 221 -141.844 367.5
t-359.604 146.5q-79.9121 0 -157.826 -36q-90.9004 -48 -137.849 -118q-0.999023 30 -2.99707 57q-1.99707 27 -1.99707 44q0 165 58.9346 300q58.9355 135 178.804 135q31.9648 0 58.4355 -11.5t52.4424 -34.5l139.847 190q-53.9414 26 -105.884 43q-75.917 24 -148.837 24
q-205.773 0 -339.626 -166q-160.823 -199 -160.823 -584q0 -328 173.809 -565q182.799 -248 453.502 -248q196.783 0 319.148 133z" />
    <glyph glyph-name="partialdiff" unicode="&#x2202;" horiz-adv-x="1134" 
d="M375.5 233.5q62.5 -56.5 143.5 -56.5q102 0 175 79t73 211q0 97 -50 163.5t-155 66.5q-110 0 -179.5 -86t-69.5 -216q0 -105 62.5 -161.5zM158.5 92q-122.5 133 -122.5 323q0 221 142 367.5t360 146.5q80 0 158 -36q91 -48 138 -118q1 30 3 57t2 44q0 165 -59 300
t-179 135q-32 0 -58.5 -11.5t-52.5 -34.5l-140 190q54 26 106 43q76 24 149 24q206 0 340 -166q161 -199 161 -584q0 -328 -174 -565q-183 -248 -454 -248q-197 0 -319.5 133z" />
    <glyph glyph-name="summation.mirror" horiz-adv-x="1460" 
d="M136.857 1471v-270h716.257l-514.466 -606l524.455 -625h-745.226v-270h1199.75v220l-582.396 675l554.424 656v220h-1152.8z" />
    <glyph glyph-name="summation" unicode="&#x2211;" horiz-adv-x="1460" 
d="M1313 1471v-270h-717l515 -606l-525 -625h746v-270h-1201v220l583 675l-555 656v220h1154z" />
    <glyph glyph-name="integral.mirror" horiz-adv-x="561" 
d="M203.727 -247q79.8926 -185 282.619 -185q42.9424 0 99.8662 11.5q56.9229 11.5 110.851 31.5l-23.9678 227q-37.9482 -21 -61.917 -30q-23.9668 -9 -51.9297 -9q-72.9023 0 -97.8682 80q-15.9785 52 -21.9707 215l-37.9492 920q-9.98633 248 -57.9219 355
q-76.8965 177 -284.617 177q-61.917 0 -141.81 -19q-79.8926 -20 -69.9062 -20l20.9727 -227q35.9512 17 62.416 26q26.4639 9 58.4209 9q75.8984 0 103.86 -80q17.9756 -52 23.9678 -221l35.9521 -972q7.98926 -189 50.9316 -289z" />
    <glyph glyph-name="integral" unicode="&#x222b;" horiz-adv-x="561" 
d="M348 -247q-80 -185 -283 -185q-43 0 -100 11.5t-111 31.5l24 227q38 -21 62 -30t52 -9q73 0 98 80q16 52 22 215l38 920q10 248 58 355q77 177 285 177q62 0 142 -19q80 -20 70 -20l-21 -227q-36 17 -62.5 26t-58.5 9q-76 0 -104 -80q-18 -52 -24 -221l-36 -972
q-8 -189 -51 -289z" />
    <glyph glyph-name="radical.mirror" horiz-adv-x="1124" 
d="M642.49 -38l270.784 910l174.861 -107l77.9385 138l-388.691 222l-247.804 -919l-535.574 1699h-167.867l603.521 -1943h212.831z" />
    <glyph glyph-name="radical" unicode="&#x221a;" horiz-adv-x="1124" 
d="M481 -38l-271 910l-175 -107l-78 138l389 222l248 -919l536 1699h168l-604 -1943h-213z" />
    <glyph glyph-name="approxequal.mirror" horiz-adv-x="1124" 
d="M968.935 484q-61.9326 31 -150.834 32q-98.8916 0 -269.204 -77t-242.233 -77q-108.881 0 -205.774 69q-48.9453 36 -84.9062 81v-285q47.9473 -43 105.884 -73q87.9033 -45 175.807 -45q101.888 0 266.207 75.5t257.217 75.5q91.8994 0 148.837 -32.5t127.859 -114.5
v278q-66.9268 62 -128.858 93zM108.88 618q93.8975 -52 188.793 -52q98.8906 0 268.205 77q169.313 77 255.219 77q91.8994 0 150.335 -36t126.361 -113v277q-62.9316 56 -128.858 91q-65.9277 35 -150.834 35q-97.8926 0 -268.205 -77q-170.313 -77 -243.232 -77
q-85.9062 0 -159.325 40t-131.355 109v-284q35.9609 -36 92.8975 -67z" />
    <glyph glyph-name="approxequal" unicode="&#x2248;" horiz-adv-x="1124" 
d="M155 484q62 31 151 32q99 0 269.5 -77t242.5 -77q109 0 206 69q49 36 85 81v-285q-48 -43 -106 -73q-88 -45 -176 -45q-102 0 -266.5 75.5t-257.5 75.5q-92 0 -149 -32.5t-128 -114.5v278q67 62 129 93zM1016 618q-94 -52 -189 -52q-99 0 -268.5 77t-255.5 77
q-92 0 -150.5 -36t-126.5 -113v277q63 56 129 91t151 35q98 0 268.5 -77t243.5 -77q86 0 159.5 40t131.5 109v-284q-36 -36 -93 -67z" />
    <glyph glyph-name="centigrade" unicode="&#x2103;" horiz-adv-x="2298" 
d="M644.5 1364.5q95.5 -95.5 95.5 -227.5t-95.5 -227.5t-227.5 -95.5t-227.5 95.5t-95.5 227.5t95.5 227.5t227.5 95.5t227.5 -95.5zM303 1023q47 -47 114 -47t114 47t47 114t-47 114t-114 47t-114 -47t-47 -114t47 -114zM1118 1320q180 182 458 182q372 0 544 -244
q95 -137 102 -275h-308q-30 106 -77 160q-84 96 -249 96q-168 0 -265 -135.5t-97 -383.5t102.5 -371.5t260.5 -123.5q162 0 247 106q47 57 78 171h305q-40 -241 -204.5 -392t-421.5 -151q-318 0 -500 204q-182 205 -182 562q0 386 207 595zM1567 1519z" />
    <glyph glyph-name="fahrenheit" unicode="&#x2109;" horiz-adv-x="2070" 
d="M644.5 1364.5q95.5 -95.5 95.5 -227.5t-95.5 -227.5t-227.5 -95.5t-227.5 95.5t-95.5 227.5t95.5 227.5t227.5 95.5t227.5 -95.5zM303 1023q47 -47 114 -47t114 47t47 114t-47 114t-114 47t-114 -47t-47 -114t47 -114zM975 1472h1045v-259h-739v-339h647v-256h-647v-618
h-306v1472z" />
    <glyph glyph-name="kelvin" unicode="&#x212a;" horiz-adv-x="1479" 
d="M161 1474h303v-607l569 607h398l-604 -607l635 -867h-396l-455 644l-147 -151v-493h-303v1474z" />
    <glyph glyph-name="Oneroman" unicode="&#x2160;" horiz-adv-x="569" 
d="M438 0h-306v1474h306v-1474zM285 1503z" />
    <glyph glyph-name="Tworoman" unicode="&#x2161;" horiz-adv-x="1138" 
d="M438 0h-306v1474h306v-1474zM285 1503zM1007 0h-306v1474h306v-1474zM854 1503z" />
    <glyph glyph-name="Threeroman" unicode="&#x2162;" horiz-adv-x="1707" 
d="M438 0h-306v1474h306v-1474zM285 1503zM1007 0h-306v1474h306v-1474zM854 1503zM1576 0h-306v1474h306v-1474zM1423 1503z" />
    <glyph glyph-name="Fourroman" unicode="&#x2163;" horiz-adv-x="1935" 
d="M438 0h-306v1474h306v-1474zM285 1503zM1588 1474h320l-503 -1474h-291l-498 1474h329l320 -1119z" />
    <glyph glyph-name="Fiveroman" unicode="&#x2164;" horiz-adv-x="1366" 
d="M1019 1474h320l-503 -1474h-291l-498 1474h329l320 -1119z" />
    <glyph glyph-name="Sixroman" unicode="&#x2165;" horiz-adv-x="1935" 
d="M1019 1474h320l-503 -1474h-291l-498 1474h329l320 -1119zM1804 0h-306v1474h306v-1474zM1651 1503z" />
    <glyph glyph-name="Sevenroman" unicode="&#x2166;" horiz-adv-x="2504" 
d="M1019 1474h320l-503 -1474h-291l-498 1474h329l320 -1119zM1804 0h-306v1474h306v-1474zM1651 1503zM2373 0h-306v1474h306v-1474zM2220 1503z" />
    <glyph glyph-name="Eightroman" unicode="&#x2167;" horiz-adv-x="3073" 
d="M1019 1474h320l-503 -1474h-291l-498 1474h329l320 -1119zM1804 0h-306v1474h306v-1474zM1651 1503zM2373 0h-306v1474h306v-1474zM2220 1503zM2942 0h-306v1474h306v-1474zM2789 1503z" />
    <glyph glyph-name="Nineroman" unicode="&#x2168;" horiz-adv-x="1935" 
d="M438 0h-306v1474h306v-1474zM285 1503zM960 0h-358l474 751l-451 723h368l263 -479l270 479h356l-451 -711l479 -763h-374l-280 502z" />
    <glyph glyph-name="Tenroman" unicode="&#x2169;" horiz-adv-x="1366" 
d="M391 0h-358l474 751l-451 723h368l263 -479l270 479h356l-451 -711l479 -763h-374l-280 502z" />
    <glyph glyph-name="Elevenroman" unicode="&#x216a;" horiz-adv-x="1935" 
d="M391 0h-358l474 751l-451 723h368l263 -479l270 479h356l-451 -711l479 -763h-374l-280 502zM1804 0h-306v1474h306v-1474zM1651 1503z" />
    <glyph glyph-name="Twelveroman" unicode="&#x216b;" horiz-adv-x="2504" 
d="M391 0h-358l474 751l-451 723h368l263 -479l270 479h356l-451 -711l479 -763h-374l-280 502zM1804 0h-306v1474h306v-1474zM1651 1503zM2373 0h-306v1474h306v-1474zM2220 1503z" />
    <glyph glyph-name="uni216C" unicode="&#x216c;" 
d="M156 1474h308v-1209h730v-265h-1038v1474z" />
    <glyph glyph-name="uni216D" unicode="&#x216d;" horiz-adv-x="1479" 
d="M299 1320q180 182 458 182q372 0 544 -244q95 -137 102 -275h-308q-30 106 -77 160q-84 96 -249 96q-168 0 -265 -135.5t-97 -383.5t102.5 -371.5t260.5 -123.5q162 0 247 106q47 57 78 171h305q-40 -241 -204.5 -392t-421.5 -151q-318 0 -500 204q-182 205 -182 562
q0 386 207 595zM748 1519z" />
    <glyph glyph-name="uni216E" unicode="&#x216e;" horiz-adv-x="1479" 
d="M455 1218v-962h284q218 0 304 215q47 118 47 281q0 225 -70.5 345.5t-280.5 120.5h-284zM1019 1442q155 -51 251 -187q77 -110 105 -238t28 -244q0 -294 -118 -498q-160 -275 -494 -275h-635v1474h635q137 -2 228 -32z" />
    <glyph glyph-name="uni216F" unicode="&#x216f;" horiz-adv-x="1706" 
d="M1133 1474h443v-1474h-287v997q0 43 1 120.5t1 119.5l-279 -1237h-299l-277 1237q0 -42 1 -119.5t1 -120.5v-997h-287v1474h448l268 -1159z" />
    <glyph glyph-name="oneroman" unicode="&#x2170;" horiz-adv-x="569" 
d="M426 1220h-289v263h289v-263zM137 1090h289v-1090h-289v1090z" />
    <glyph glyph-name="tworoman" unicode="&#x2171;" horiz-adv-x="1138" 
d="M426 1220h-289v263h289v-263zM137 1090h289v-1090h-289v1090zM995 1220h-289v263h289v-263zM706 1090h289v-1090h-289v1090z" />
    <glyph glyph-name="threeroman" unicode="&#x2172;" horiz-adv-x="1707" 
d="M426 1220h-289v263h289v-263zM137 1090h289v-1090h-289v1090zM995 1220h-289v263h289v-263zM706 1090h289v-1090h-289v1090zM1564 1220h-289v263h289v-263zM1275 1090h289v-1090h-289v1090z" />
    <glyph glyph-name="fourroman" unicode="&#x2173;" horiz-adv-x="1708" 
d="M426 1220h-289v263h289v-263zM137 1090h289v-1090h-289v1090zM1374 1090h306l-393 -1090h-301l-391 1090h320l227 -804z" />
    <glyph glyph-name="fiveroman" unicode="&#x2174;" horiz-adv-x="1139" 
d="M805 1090h306l-393 -1090h-301l-391 1090h320l227 -804z" />
    <glyph glyph-name="sixroman" unicode="&#x2175;" horiz-adv-x="1708" 
d="M805 1090h306l-393 -1090h-301l-391 1090h320l227 -804zM1565 1220h-289v263h289v-263zM1276 1090h289v-1090h-289v1090z" />
    <glyph glyph-name="sevenroman" unicode="&#x2176;" horiz-adv-x="2277" 
d="M805 1090h306l-393 -1090h-301l-391 1090h320l227 -804zM1565 1220h-289v263h289v-263zM1276 1090h289v-1090h-289v1090zM2134 1220h-289v263h289v-263zM1845 1090h289v-1090h-289v1090z" />
    <glyph glyph-name="eightroman" unicode="&#x2177;" horiz-adv-x="2846" 
d="M805 1090h306l-393 -1090h-301l-391 1090h320l227 -804zM1565 1220h-289v263h289v-263zM1276 1090h289v-1090h-289v1090zM2134 1220h-289v263h289v-263zM1845 1090h289v-1090h-289v1090zM2703 1220h-289v263h289v-263zM2414 1090h289v-1090h-289v1090z" />
    <glyph glyph-name="nineroman" unicode="&#x2178;" horiz-adv-x="1708" 
d="M426 1220h-289v263h289v-263zM137 1090h289v-1090h-289v1090zM595 0l372 552l-356 536h349l182 -316l178 316h339l-358 -531l372 -557h-355l-188 327l-189 -327h-346z" />
    <glyph glyph-name="tenroman" unicode="&#x2179;" horiz-adv-x="1139" 
d="M26 0l372 552l-356 536h349l182 -316l178 316h339l-358 -531l372 -557h-355l-188 327l-189 -327h-346z" />
    <glyph glyph-name="elevenroman" unicode="&#x217a;" horiz-adv-x="1708" 
d="M26 0l372 552l-356 536h349l182 -316l178 316h339l-358 -531l372 -557h-355l-188 327l-189 -327h-346zM1565 1220h-289v263h289v-263zM1276 1090h289v-1090h-289v1090z" />
    <glyph glyph-name="twelveroman" unicode="&#x217b;" horiz-adv-x="2277" 
d="M26 0l372 552l-356 536h349l182 -316l178 316h339l-358 -531l372 -557h-355l-188 327l-189 -327h-346zM1565 1220h-289v263h289v-263zM1276 1090h289v-1090h-289v1090zM2134 1220h-289v263h289v-263zM1845 1090h289v-1090h-289v1090z" />
    <glyph glyph-name="uni217C" unicode="&#x217c;" horiz-adv-x="569" 
d="M424 0h-285v1474h285v-1474z" />
    <glyph glyph-name="uni217D" unicode="&#x217d;" horiz-adv-x="1139" 
d="M784 699q-8 61 -41 110q-48 66 -149 66q-144 0 -197 -143q-28 -76 -28 -202q0 -120 28 -193q51 -136 192 -136q100 0 142 54t51 140h291q-10 -130 -94 -246q-134 -187 -397 -187t-387 156t-124 405q0 281 137 437t378 156q205 0 335.5 -92t154.5 -325h-292zM591 1119z
" />
    <glyph glyph-name="uni217E" unicode="&#x217e;" 
d="M711 1072.5q77 -43.5 125 -120.5v520h289v-1472h-277v151q-61 -97 -139 -141t-194 -44q-191 0 -321.5 154.5t-130.5 396.5q0 279 128.5 439t343.5 160q99 0 176 -43.5zM781 296q63 90 63 233q0 200 -101 286q-62 52 -144 52q-125 0 -183.5 -94.5t-58.5 -234.5
q0 -151 59.5 -241.5t180.5 -90.5t184 90z" />
    <glyph glyph-name="thousandroman" unicode="&#x217f;" horiz-adv-x="1821" 
d="M1493 1086q70 -28 127 -98q46 -57 62 -140q10 -55 10 -161l-2 -687h-292v694q0 62 -20 102q-38 76 -140 76q-118 0 -163 -98q-23 -52 -23 -125v-649h-287v649q0 97 -20 141q-36 79 -141 79q-122 0 -164 -79q-23 -45 -23 -134v-656h-289v1088h277v-159q53 85 100 121
q83 64 215 64q125 0 202 -55q62 -51 94 -131q56 96 139 141q88 45 196 45q72 0 142 -28z" />
    <glyph glyph-name="DZcaron" unicode="&#x1c4;" horiz-adv-x="2519" 
d="M371 1218v-962h284q218 0 304 215q47 118 47 281q0 225 -70.5 345.5t-280.5 120.5h-284zM935 1442q155 -51 251 -187q77 -110 105 -238t28 -244q0 -294 -118 -498q-160 -275 -494 -275h-635v1474h635q137 -2 228 -32zM1336 260l761 953h-742v261h1126v-247l-771 -967h773
v-260h-1147v260zM1918 1474zM1769 1539l-235 299h232l131 -169l130 169h232l-234 -299h-256zM1897 1421z" />
    <glyph glyph-name="Dzcaron" unicode="&#x1c5;" horiz-adv-x="2319" 
d="M387 1218v-962h284q218 0 304 215q47 118 47 281q0 225 -70.5 345.5t-280.5 120.5h-284zM951 1442q155 -51 251 -187q77 -110 105 -238t28 -244q0 -294 -118 -498q-160 -275 -494 -275h-635v1474h635q137 -2 228 -32zM1376 858v232h884v-237l-553 -619h572v-234h-941v222
l559 636h-521zM1818 1119zM1661 1177l-235 299h232l131 -169l130 169h232l-234 -299h-256zM1789 1059z" />
    </font>
</defs>
</svg>
