<?xml version="1.0" standalone="no"?> 
<!DOCTYPE svg PUBLIC "-//W3C//DTD SVG 1.1//EN" "http://www.w3.org/Graphics/SVG/1.1/DTD/svg11.dtd" >
<svg xmlns="http://www.w3.org/2000/svg">
<defs>
  <font id="HbSpecialFont" horiz-adv-x="511.793">
    <font-face font-family="HbSpecialFont"
      units-per-em="511.793" ascent="511.793"
      descent="0" />
    <missing-glyph horiz-adv-x="0" />
    <glyph glyph-name="add_to_fav"
      unicode="&#xE001;"
      horiz-adv-x="541.5661229223518" d=" M445.6763528280805 33.7090155048371L393.176624348795 192.8587365418006L530.678936182087 291.256051103944A23.36142694120566 23.36142694120566 0 0 1 516.3954550359695 334.4873873728599H346.3902883279565L293.8588187794574 493.6053673406099A23.99624832547755 23.99624832547755 0 0 1 247.6438220044636 493.6053673406099L195.1440935251781 334.4873873728599H25.2024089555923C-13.4899544157795 334.4873873728599 2.3805801910178 294.3666758868763 10.9189278094747 291.2877921731577L148.3894985735532 192.8904776110142L95.9215111634809 33.7090155048371A23.29794480277847 23.29794480277847 0 0 1 133.2490085586682 7.0465173654176L270.7513203919603 105.443831927561L408.2853732944659 7.0465173654176C418.8234082733793 -2.9836605060767 458.563226928802 -7.9035262341866 445.6763528280805 33.7090155048371z" />
    <glyph glyph-name="android"
      unicode="&#xE002;"
      horiz-adv-x="429.90612000000004" d=" M399.1985400000001 327.54752A30.70758 30.70758 0 0 1 368.4909600000001 296.83994V174.00962A30.70758 30.70758 0 0 1 429.9061200000001 174.00962V296.83994A30.70758 30.70758 0 0 1 399.1985400000001 327.54752zM30.70758 327.54752A30.70758 30.70758 0 0 1 0 296.83994V174.00962A30.70758 30.70758 0 0 1 61.41516 174.00962V296.83994A30.70758 30.70758 0 0 1 30.70758 327.54752zM81.88688 143.30204A37.81126684 37.81126684 0 0 1 122.83032 102.3586H143.30204V40.94344C143.30204 24.054271 157.120451 0 174.00962 0S204.7172 24.054271 204.7172 40.94344V102.3586H225.18892V40.94344C225.18892 24.054271 239.007331 0 255.8965 0S286.60408 24.054271 286.60408 40.94344V102.3586H307.0758A37.81126684 37.81126684 0 0 1 348.01924 143.30204V307.0758H81.88688V143.30204zM270.00151508 465.95681892L288.79455404 505.77431432A4.319532920000001 4.319532920000001 0 0 1 287.2182316 511.30167872A3.5620792799999994 3.5620792799999994 0 0 1 282.2026602000001 509.56158252L263.12301716 469.12993552A122.31852699999999 122.31852699999999 0 0 1 166.76263112 469.12993552L147.68298808 509.56158252A3.5620792799999994 3.5620792799999994 0 0 1 142.66741668 511.30167872A4.319532920000001 4.319532920000001 0 0 1 141.09109424 505.77431432L159.8841332 465.95681892A147.10977992000002 147.10977992000002 0 0 1 82.0915972 348.01924H347.8145228000001A147.10977992000002 147.10977992000002 0 0 1 270.00151508 465.9568189199999zM163.77376 368.2862428000002A20.47172 20.47172 0 1 0 184.0407628 388.7579628000002A20.47172 20.47172 0 0 0 163.77376 368.2862428000002zM265.9890579600001 368.2862428000002A20.47172 20.47172 0 1 0 286.2560607600001 388.7579628000002A20.47172 20.47172 0 0 0 266.13236 368.2862428000002z" />
    <glyph glyph-name="a_z_sort"
      unicode="&#xE003;"
      horiz-adv-x="1599.3531249999999" d=" M1228.9173516 3.8384475L1598.5854355 3.8384475L1598.5854355 88.3354718000001L1350.0075754 88.3354718000001L1597.9712839 402.4740152L1597.9712839 482.7231576L1235.0588676 482.7231576L1235.0588676 397.9190575L1473.6567642 397.9190575L1228.9173516 88.3354718000001L1228.9173516 3.8384475z M654.1226333 204.7172000000001L866.3631904 204.0006898L719.8880338 87.6701409C675.0037877 45.5495770000001 749.1114141 -29.5816354 795.7357564 11.0547288L1047.8449882 214.4924463C1053.8329663 220.5316037 1079.9855886 256.8689067000001 1049.5339051 295.7651747L797.3734939999999 499.2540715C744.4029184999999 546.3390275 676.6927046 464.7592233 721.5769507 422.5874801L870.0481 307.7411309000001L654.1226333 307.0758C584.1093509 305.4380624000001 589.9949703999999 206.3549376 654.1226333 204.7172000000001z M226.8778369 373.1994556L287.3717695 184.8084523L164.7461667 184.8084523L226.8778369 373.1994556zM0.3582551 3.8384475L105.0199236 3.8384475L137.5187791 102.3074207000001L313.8314676 102.3074207000001L345.460275 3.8384475L453.960391 3.8384475L284.556908 482.7231576L171.2971171 482.7231576L0.3582551 3.8384475z" />
    <glyph glyph-name="basket_icon_line"
      unicode="&#xE004;"
      horiz-adv-x="511.793" d=" M509.3875729 333.45872915C509.3875729 333.45872915 486.20335 230.30685 486.20335 230.30685C480.34332015 197.2962015000001 432.18359885 179.1275500000001 409.4344 179.1275500000001C409.4344 179.1275500000001 374.1718623 179.1275500000001 374.1718623 179.1275500000001C422.05009745 177.25950555 460.33221385 138.05616175 460.33221385 89.5893646500001C460.33221385 39.919854 420.2332323 -0.28148615 370.71725955 -0.28148615C322.0201556 -0.28148615 282.6120946 38.66596115 281.3326121 87.2095272000001C280.0531296000001 38.66596115 240.6962479 -0.28148615 192.0759129 -0.28148615C142.61111945 -0.28148615 102.5633172 39.919854 102.5633172 89.5893646500001C102.5633172 138.05616175 140.7942543 177.25950555 188.5957205 179.1275500000001C188.5957205 179.1275500000001 180.0487774 179.1275500000001 180.0487774 179.1275500000001C157.76019225 179.7928809 141.79225065 199.8039872 137.18611365 213.6223982C137.18611365 213.6223982 63.974125 358.2551000000001 63.974125 358.2551000000001C63.974125 358.2551000000001 49.5927417 358.2551000000001 49.5927417 358.2551000000001C27.1762083 359.04837915 0.3582551 377.2426203 0.3582551 409.61352755C0.3582551 409.61352755 -0.43502405 461.04872405 -0.43502405 461.04872405C0.3582551 485.1285847 27.40651515 511.793 51.1793 511.793C51.1793 511.793 143.1485021 511.793 143.1485021 511.793C166.20477675 511.793 179.12755 495.74828945 192.45975765 478.50086535C192.45975765 478.50086535 221.99021375 434.8193328 221.99021375 434.8193328C221.99021375 434.8193328 449.48220225 434.84492245 449.48220225 434.84492245C491.03979385 434.84492245 524.587825 413.1704889 509.3875729 333.45872915zM371.049925 51.1793C392.2381552 51.1793 409.4344 68.3755448000001 409.4344 89.563775C409.4344 110.7520052 392.2381552 127.94825 371.049925 127.94825C349.8616948 127.94825 332.66545 110.7520052 332.66545 89.563775C332.66545 68.3755448000001 349.8616948 51.1793 371.049925 51.1793zM281.3326121 91.9692021000001C282.58650495 139.3100546000001 320.1777008000001 177.2850952000001 367.2370671500001 179.1275500000001C367.2370671500001 179.1275500000001 195.53051565 179.1275500000001 195.53051565 179.1275500000001C242.5387027 177.2850952000001 280.07871925 139.3100546000001 281.3326121 91.9692021000001zM153.5379 89.563775C153.5379 68.3755448000001 170.7341448 51.1793 191.922375 51.1793C213.1106052 51.1793 230.30685 68.3755448000001 230.30685 89.563775C230.30685 110.7520052 213.1106052 127.94825 191.922375 127.94825C170.7341448 127.94825 153.5379 110.7520052 153.5379 89.563775zM426.2212104 383.84475C426.2212104 383.84475 187.9303896 383.84475 187.9303896 383.84475C187.9303896 383.84475 159.29557125 435.6893809 159.29557125 435.6893809C151.77221415 448.9959989 142.5855298 460.9207758 126.4640503 460.9207758C126.4640503 460.9207758 94.50257745 461.20226195 73.77496095 460.6648793C61.41516 460.33221385 51.10253105 447.1023648000001 50.8210449 443.6989413500001C50.8210449 443.6989413500001 50.8210449 430.28996475 50.8210449 430.28996475C50.8210449 414.4499714 62.5411046 409.86942405 77.7413567 409.86942405C77.7413567 409.86942405 99.87640395 409.05055525 99.87640395 409.05055525C99.87640395 409.05055525 179.10196035 256.7921377500001 179.10196035 256.7921377500001C182.68451135 246.172433 196.9891257 230.818643 214.31331875 230.30685C214.31331875 230.30685 383.84475 230.30685 383.84475 230.30685C401.78309465 230.30685 425.88854495 239.23763785 434.28195015 255.9988586C434.28195015 255.9988586 451.8108604 358.2551000000001 451.8108604 358.2551000000001C451.8108604 373.3785831500001 442.2403313 383.84475 426.2212104 383.84475z" />
    <glyph glyph-name="basket_icon_solid_disabled"
      unicode="&#xE005;"
      horiz-adv-x="511.793" d=" M509.3875729 359.04837915C524.587825 438.7601389 491.03979385 434.84492245 449.48220225 434.84492245C449.48220225 434.84492245 221.99021375 434.8193328 221.99021375 434.8193328C221.99021375 434.8193328 192.45975765 478.50086535 192.45975765 478.50086535C179.12755 495.74828945 166.20477675 511.793 143.1485021 511.793C143.1485021 511.793 51.1793 511.793 51.1793 511.793C27.40651515 511.793 0.3582551 485.1285847 -0.43502405 461.04872405C-0.43502405 461.04872405 0.3582551 460.79282755 0.3582551 460.79282755C0.3582551 428.4219203 27.1762083 410.2276791500001 49.5927417 409.4344C49.5927417 409.4344 63.974125 409.4344 63.974125 409.4344C63.974125 409.4344 137.18611365 239.2120482000001 137.18611365 239.2120482000001C141.79225065 225.3936372 157.76019225 205.3825309 180.0487774 204.7172000000001C180.0487774 204.7172000000001 409.4344 204.7172000000001 409.4344 204.7172000000001C432.18359885 204.7172000000001 480.34332015 222.8858515000001 486.20335 255.8965C486.20335 255.8965 509.3875729 359.04837915 509.3875729 359.04837915zM128.1017879 63.9997146500001C128.1017879 28.53245975 156.68542695 -0.2047171999999 192.0247336 -0.2047171999999C227.3384506 -0.2047171999999 255.9476793 28.53245975 255.9476793 63.9997146500001C255.9476793 99.4669695500001 227.3384506 128.2041465 192.0247336 128.2041465C156.68542695 128.2041465 128.1017879 99.4669695500001 128.1017879 63.9997146500001zM306.79431385 63.9997146500001C306.79431385 28.53245975 335.4291322000001 -0.2047171999999 370.81961815 -0.2047171999999C406.18451445 -0.2047171999999 434.8193328 28.53245975 434.8193328 63.9997146500001C434.8193328 99.4669695500001 406.18451445 128.2041465 370.81961815 128.2041465C335.4291322000001 128.2041465 306.79431385 99.4669695500001 306.79431385 63.9997146500001z" />
    <glyph glyph-name="best_seller_down"
      unicode="&#xE006;"
      horiz-adv-x="731.1328571428571" d=" M79.6203681428612 512.5972461428569A81.22886042857144 81.22886042857144 0 0 1 9.8702935714326 476.040603285714A62.29251942857143 62.29251942857143 0 0 1 14.1108641428612 404.7551497142854L300.2031511428612 31.4387128571426A85.46943100000001 85.46943100000001 0 0 1 431.2221591428612 31.4387128571426L717.3875594285754 404.7551497142855A63.46233199999999 63.46233199999999 0 0 1 730.8404040000039 443.4320778571426A62.58497257142858 62.58497257142858 0 0 1 721.5550167142895 476.040603285714A81.00952057142858 81.00952057142858 0 0 1 651.8780554285753 512.5972461428569H79.6203681428611z" />
    <glyph glyph-name="best_seller_stand"
      unicode="&#xE007;"
      horiz-adv-x="511.79299999999995" d=" M255.8965 511.793H255.8965A255.8965 255.8965 0 0 0 511.7929999999999 255.8965000000001V255.8965000000001A255.8965 255.8965 0 0 0 255.8965 1e-13H255.8965A255.8965 255.8965 0 0 0 0 255.8965000000001V255.8965000000001A255.8965 255.8965 0 0 0 255.8965 511.793z" />
    <glyph glyph-name="best_seller_up"
      unicode="&#xE008;"
      horiz-adv-x="731.1328571428571" d=" M79.6203681428612 -0.8042461428568A81.22886042857144 81.22886042857144 0 0 0 9.8702935714326 35.7523967142861A62.219406142857146 62.219406142857146 0 0 0 14.1108641428612 107.0378502857146L300.2031511428612 480.2811738571432A85.39631771428571 85.39631771428571 0 0 0 431.2221591428612 480.2811738571432L717.3875594285754 107.0378502857146A63.46233199999999 63.46233199999999 0 0 0 730.8404040000039 68.3609221428575A62.58497257142858 62.58497257142858 0 0 0 721.5550167142895 35.7523967142861A81.00952057142858 81.00952057142858 0 0 0 651.8780554285753 -0.8042461428568H79.6203681428611z" />
    <glyph glyph-name="breadcrumb_arrow"
      unicode="&#xE009;"
      horiz-adv-x="367.85121875" d=" M63.974125 511.793L0 447.818875L229.92300525 255.8965L0 63.974125L63.974125 0L367.85121875 255.8965z" />
    <glyph glyph-name="checkbox_tick"
      unicode="&#xE00A;"
      horiz-adv-x="621.4629285714285" d=" M588.598506642857 327.2185102142858C631.1138822857142 369.7338858571429 631.1138822857142 438.6797142857143 588.598506642857 481.1950899285715C546.083131 523.7104655714286 477.1373025714285 523.7104655714286 434.6219269285714 481.1950899285715C434.6219269285714 481.1950899285715 220.6924529285714 267.3021725714287 220.6924529285714 267.3021725714287C220.6924529285714 267.3021725714287 190.2407694285714 297.7538560714286 190.2407694285714 297.7538560714286C146.6286945 341.3293743571429 75.9647038571429 341.3293743571429 32.3891855714286 297.7538560714286C-11.1863327142857 254.1783377857144 -11.1863327142857 183.5143471428572 32.3891855714286 139.9388288571429C32.3891855714286 139.9388288571429 137.5992037142857 34.6922540714286 137.5992037142857 34.6922540714286C181.2112786428572 -8.8832642142856 251.8752692857143 -8.8832642142856 295.4507875714286 34.6922540714286C301.5557469285714 40.7972134285715 588.598506642857 327.2185102142858 588.598506642857 327.2185102142858z M268.0698620714286 54.1403880714286C248.1830483571429 32.6085254285715 215.9035327142857 32.6085254285715 195.9801623571428 54.1403880714286C195.9801623571428 54.1403880714286 87.7359428571429 171.0119752857144 87.7359428571429 171.0119752857144C67.8491291428571 192.5072812857143 67.8491291428571 227.3823185714286 87.7359428571429 248.8776245714286C107.6593132142857 270.3729305714286 139.9388288571429 270.3729305714286 159.8256425714286 248.8776245714286C159.8256425714286 248.8776245714286 229.5391605 173.6074969285715 229.5391605 173.6074969285715C229.5391605 173.6074969285715 461.2717195714285 423.9108305714286 461.2717195714285 423.9108305714286C481.1950899285714 445.4061365714286 513.4746055714285 445.4061365714286 533.3614192857142 423.9108305714286C553.284789642857 402.4155245714286 553.284789642857 367.5404872857144 533.3614192857142 346.0817379285715C533.3614192857142 346.0817379285715 267.9236355 53.5554817857143 267.9236355 53.5554817857143C267.3752858571429 53.0071321428571 268.179532 54.250058 268.0698620714286 54.1403880714286z" />
    <glyph glyph-name="close_popup"
      unicode="&#xE00B;"
      horiz-adv-x="511.793" d=" M499.7232150833333 438.9477963333334L316.67191875 255.8965L498.35843375 74.209985A42.990612000000006 42.990612000000006 0 0 0 437.583015 13.43456625L255.8965 195.12108125L74.209985 13.43456625A42.990612000000006 42.990612000000006 0 0 0 13.3919168333333 74.209985L195.12108125 255.8965L12.0697849166667 438.9477963333334A42.990612000000006 42.990612000000006 0 0 0 72.8452036666667 499.7232150833333L255.8965 316.6719187500001L438.9477963333333 499.7232150833333A42.990612000000006 42.990612000000006 0 0 0 499.7232150833333 438.9477963333334z" />
    <glyph glyph-name="comment_bubble"
      unicode="&#xE00C;"
      horiz-adv-x="506.16890109890113" d=" M478.0484065934066 61.8650879120879C478.0484065934066 61.8650879120879 303.6422876208792 61.8650879120879 303.6422876208792 61.8650879120879C303.6422876208792 61.8650879120879 216.5278076923077 0 216.5278076923077 0C216.5278076923077 0 216.5278076923077 42.5209997417583 216.5278076923077 47.8048406593406C216.5278076923077 61.845403565934 206.334128434066 61.8650879120879 202.4675604395605 61.8650879120879C198.600992445055 61.8650879120879 28.1204945054945 61.8650879120879 28.1204945054945 61.8650879120879C12.5895453901099 61.8650879120879 0 74.4546333021978 0 89.9855824175824C0 89.9855824175824 0 483.6725054945055 0 483.6725054945055C0 499.2034546098901 12.5895453901099 511.793 28.1204945054945 511.793C28.1204945054945 511.793 478.0484065934066 511.793 478.0484065934066 511.793C493.5793557087912 511.793 506.1689010989011 499.2034546098901 506.1689010989011 483.6725054945055C506.1689010989011 483.6725054945055 506.1689010989011 89.9855824175824 506.1689010989011 89.9855824175824C506.1689010989011 74.4546333021978 493.5793557087912 61.8650879120879 478.0484065934066 61.8650879120879zM500.5448021978022 480.860456043956C500.5448021978022 494.8391538626374 489.2150549615385 506.1689010989011 475.2363571428572 506.1689010989011C475.2363571428572 506.1689010989011 30.932543956044 506.1689010989011 30.932543956044 506.1689010989011C16.9538461373626 506.1689010989011 5.6240989010989 494.8391538626374 5.6240989010989 480.860456043956C5.6240989010989 480.860456043956 5.6240989010989 92.7976318681319 5.6240989010989 92.7976318681319C5.6240989010989 78.8189340494506 16.9538461373626 67.4891868131868 30.932543956044 67.4891868131868C30.932543956044 67.4891868131868 198.688165978022 67.4891868131868 202.4675604395605 67.4891868131868C210.9037087912088 67.4891868131868 222.1519065934066 61.845403565934 222.1519065934066 50.6168901098901C222.1519065934066 36.1967005274726 222.1519065934066 11.2481978021978 222.1519065934066 11.2481978021978C222.1519065934066 11.2481978021978 300.8892912087913 67.4891868131868 300.8892912087913 67.4891868131868C300.8892912087913 67.4891868131868 475.2363571428572 67.4891868131868 475.2363571428572 67.4891868131868C489.2150549615385 67.4891868131868 500.5448021978022 78.8189340494506 500.5448021978022 92.7976318681319C500.5448021978022 92.7976318681319 500.5448021978022 480.860456043956 500.5448021978022 480.860456043956z" />
    <glyph glyph-name="compare"
      unicode="&#xE00D;"
      horiz-adv-x="511.793" d=" M25.58965 127.94825L208.32534065 128.1529672L109.75400885 43.98860835C87.3630651 23.0562746499999 124.34010935 -14.30461435 147.57551155 5.8856195L298.8359327 132.5543869999999A34.46925855 34.46925855 0 0 1 299.68039115 175.3658714499999L148.41997 299.6036221999999A26.920311799999997 26.920311799999997 0 0 1 110.5984673 261.50063335L210.16779545 178.9228327999999L25.58965 179.1275500000001A25.58965 25.58965 0 0 1 25.58965 127.94825zM486.20335 332.66545H303.46765935L402.03899115 250.7785700000001C424.4299348999999 229.97418455 387.45289065 192.9203713500001 364.21748845 212.9570673000001L212.9570673 338.62783845A30.5028628 30.5028628 0 0 0 212.11260885 378.7268200000001L363.3730300000001 504.39759115A26.843542850000002 26.843542850000002 0 0 0 401.1945327 466.57608845L301.6252045500009 383.84475H486.20335A25.58965 25.58965 0 0 0 486.20335 332.66545z" />
    <glyph glyph-name="down_arrow"
      unicode="&#xE00E;"
      horiz-adv-x="1023.5859999999999" d=" M1023.5859999999998 438.6797142857143L877.3594285714285 511.793L511.7929999999999 219.3398571428572L146.2265714285714 511.793L0 438.6797142857143L511.7929999999999 1e-13z" />
    <glyph glyph-name="down_arrow_gray"
      unicode="&#xE00F;"
      horiz-adv-x="1023.586" d=" M1023.074207 511.793C1023.074207 511.793 511.793 0.511793 511.793 0.511793C511.793 0.511793 0.511793 511.793 0.511793 511.793" />
    <glyph glyph-name="down_arrow_orange"
      unicode="&#xE010;"
      horiz-adv-x="476.61576113333336" d=" M307.0758 443.5539333333334L307.5534734666667 199.7016286L385.1071727333334 297.351733C422.8092570666667 335.0196978 501.6594986 244.0229024 470.337767 212.6670512666667L334.6785024666667 44.5942300666666C330.6523975333334 40.6022446666666 242.4534038666667 -54.6594924000001 144.0185502 43.4682854666666L8.3934052 211.5752262C-28.3533322 248.2878440666667 55.9219151333333 333.9278727333333 93.5898799333333 296.2257884L170.1541127333334 197.2450222L170.5976666666667 443.5539333333334C170.5976666666667 533.9365771333333 307.0758 535.3695975333334 307.0758 443.5539333333334z" />
    <glyph glyph-name="facebook"
      unicode="&#xE011;"
      horiz-adv-x="261.5830888888889" d=" M79.6122444444444 386.6880444444445V318.4489777777778H0V227.4635555555556H79.6122444444444V0H170.5976666666667V227.4635555555556H250.2099111111112V318.4489777777778H170.5976666666667V375.3148666666667C170.5976666666667 401.4731755555556 179.6962088888889 420.8075777777778 216.0903777777778 420.8075777777778H261.5830888888889V511.793H193.3440222222222C127.3795911111111 511.793 79.6122444444444 464.0256533333334 79.6122444444444 386.6880444444445z" />
    <glyph glyph-name="filter-active"
      unicode="&#xE012;"
      horiz-adv-x="621.5844834280811" d=" M601.8220164110263 392.3398660302475A72.73685777110371 72.73685777110371 0 0 1 601.8220164110263 491.5181727269473A64.30121212771282 64.30121212771282 0 0 1 507.5660278880188 491.5181727269473L204.5232350459437 172.6288091100868L113.4511995423505 268.4218784010878A64.33780928885551 64.33780928885551 0 0 1 19.1769124387715 268.4218784010878A72.79175351281776 72.79175351281776 0 0 1 19.1769124387715 169.2069745432452L160.7164331581394 20.2931258536245A64.30121212771282 64.30121212771282 0 0 1 254.972421681147 20.2931258536245C260.9194603668347 26.6793304730244 601.8220164110263 392.3398660302475 601.8220164110263 392.3398660302475z" />
    <glyph glyph-name="filter"
      unicode="&#xE013;"
      horiz-adv-x="504.4293712404487" d=" M504.4987086110659 19.7334156776676V0H421.2938638703734V109.7887926353438H501.8084186311168V90.3743288625156H443.7037020538665V67.0631048609982H497.0380075326504V47.9953279412562H443.7175695279901V19.7611506259145H504.498708611066zM295.54360851894 373.1182587655124V248.3109916544736S267.6561180566846 214.7378368016041 243.4573757112665 189.7486484311494C228.4527687096949 174.2448123611337 212.1307516663957 176.5606805397496 212.1307516663957 189.7486484311494C212.1446191405192 246.1060632688452 212.3387637782474 373.1182587655124 212.3387637782474 373.1182587655124S96.0599932531296 467.8885769251612 85.2710983850864 478.511062103723C64.1648027691974 499.3122732888961 73.6640225437598 511.793 96.5314873733268 511.793H411.7114392510703C434.9255909337236 511.793 442.7052439169783 497.9255258765513 422.9718282393107 478.511062103723C412.2106683195145 467.9163118734081 295.54360851894 373.1182587655124 295.54360851894 373.1182587655124zM78.08774678914 90.3465939142687H22.6178502953449V65.0939235354686H71.2372145721563V46.0261466157265H22.590115347098V0H-0.1941446377283V109.6362504199859H78.08774678914V90.3465939142687zM112.3542753481818 139.798006638487V122.1169771310898H92.9398115753536V139.798006638487H112.3542753481818zM113.8796975017612 0H91.1231724651818V109.7887926353438H113.8796975017612V0zM158.2556146967973 19.7334156776676H213.0737399067902V0H135.3604149189834V109.7887926353438H158.2556146967973V19.7334156776676zM208.1785215412128 109.7887926353438H297.0690306725194V90.3743288625156H264.2169844740693V0.027734948247H241.1276400585271V90.3465939142687H208.1785215412128V109.761057687097zM380.8701768005202 107.0152978106541A27.110911911342328 27.110911911342328 0 0 0 391.1459751259958 99.3465846203869A34.14172129193085 34.14172129193085 0 0 0 396.6929647753753 90.1108468541701A30.771925079932796 30.771925079932796 0 0 0 398.7314834715222 78.5731083834606A32.89364862082046 32.89364862082046 0 0 0 394.7792533463393 63.194079580556A22.06315133040698 22.06315133040698 0 0 0 381.7438276702974 52.5022570313769A20.50999422858072 20.50999422858072 0 0 0 392.5049875900937 43.8212182300981A36.055432720966785 36.055432720966785 0 0 0 395.66677169024 26.6532852652685V19.2757890315937A55.37282417493091 55.37282417493091 0 0 1 396.2769405516717 9.0693280767355A9.166400395599632 9.166400395599632 0 0 1 400.5065201593236 2.8150972470601V0.0416024223703H375.1290425134125Q374.0889819541539 3.6887481168372 373.63135530808 5.9214114507125A54.08314908145017 54.08314908145017 0 0 0 372.6606321194386 15.3790288029046L372.5080899040807 25.5854897577628A20.801211185173145 20.801211185173145 0 0 1 368.8748116837371 39.5916386224461A18.49921048068065 18.49921048068065 0 0 1 355.7977835853249 43.0862421015552H333.4156803500786V0.097072318864H310.991974692462V109.7887926353438H363.494231723839A47.82891825177478 47.82891825177478 0 0 0 380.8285743781499 106.9598279141603zM333.4572827724489 90.7764856120956V61.2803681515201H358.1413867121877A26.348200834552646 26.348200834552646 0 0 1 369.2353660109467 63.0692723134449A12.355919443992846 12.355919443992846 0 0 1 375.7392113748442 75.4390592315612A13.867474123448762 13.867474123448762 0 0 1 369.4433781227985 88.8489067089361A22.74265756245597 22.74265756245597 0 0 1 358.8347604183602 90.7903530862189H333.4156803500786z" />
    <glyph glyph-name="footer_bugun_teslimat"
      unicode="&#xE014;"
      horiz-adv-x="511.793" d=" M255.8965 514.351965C113.3621495 514.351965 -2.558965 398.4308505 -2.558965 255.8965S113.3621495 -2.5589650000001 255.8965 -2.5589650000001S514.3519650000001 113.3621495 514.3519650000001 255.8965S398.4308505 514.351965 255.8965 514.351965zM255.8965 7.676895C119.0430518 7.676895 7.676895 119.0430518 7.676895 255.8965S119.0430518 504.116105 255.8965 504.116105S504.116105 392.7499482 504.116105 255.8965S392.7499482 7.676895 255.8965 7.676895z M87.00481 281.48615C87.00481 276.36822 87.0559893 276.36822 92.12274 276.36822H225.18892C230.3068500000001 276.36822 230.0509535 281.5373293 230.3068500000001 286.60408C230.5627465 291.5172928 230.3068500000001 291.72201 225.18892 291.72201H87.00481C86.7489135 288.2929969 86.7489135 284.9151631 87.00481 281.48615z M50.9234035 312.19373C51.0257621 312.19373 51.0769414 312.19373 51.1793 312.19373H189.36341C194.48134 312.19373 195.5049260000001 317.4140186 194.48134 322.42959C193.6112919 326.7798305 194.48134 327.54752 189.36341 327.54752H51.1793C46.06137 327.54752 46.06137 322.42959 46.06137 317.31166C46.0101907 314.5479778 48.1597213 312.2449093 50.9234035 312.19373z M15.35379 245.66064C15.35379 245.66064 15.4049693 245.7118193 15.4049693 245.8653572C14.3813833 245.9165365 14.330204 245.9165365 15.35379 245.66064z M194.48134 255.8965C194.48134 261.01443 189.36341 261.01443 184.24548 261.01443H15.35379C15.1490728 259.3255131 15.6096865 247.4007362 15.4049693 245.8653572C16.3261967 245.7629986 18.0151136 245.66064 20.47172 245.66064H189.36341C194.48134 245.66064 194.48134 250.77857 194.48134 255.8965z M470.6448428 233.9917596L470.6448428 233.9917596C470.8495600000001 235.7830351 470.4913049 237.5743106 469.6724361 239.1608689C409.6391172 355.1331627 350.3223085 363.3218507000001 334.5590841000001 363.2706714C334.1496497000001 363.3218507000001 252.825742 363.37303 252.825742 363.37303C252.7745627 363.37303 252.7233834 363.37303 252.6722041 363.37303H120.5784308C115.4605008 363.37303 112.1338463 362.7588784 112.1338463 357.5897691S112.59446 348.01924 117.71239 348.01924H337.78338C338.295173 348.01924 382.1558331000001 346.8932954 435.0240500000001 266.13236H363.3730300000001C353.7001423000001 265.5182084 345.0508406 272.0179795 342.90131 281.48615V307.0758C342.90131 312.19373 342.90131 312.19373 337.78338 312.19373S328.4175681000001 310.4536338 327.54752 307.0758V281.48615C327.54752 267.155946 333.1260637000001 250.77857 358.2551000000001 250.77857H445.2599100000001C448.330668 245.4559228 452.3738327 236.2436488 455.4957700000001 230.30685V189.36341C456.0587423 184.2966593 452.425012 179.6905223 447.3070820000001 179.12755C446.6417511000001 179.0251914 445.9252409000001 179.0251914 445.2599100000001 179.12755L428.2683824000001 178.5645777C422.9969145000001 200.7763939 400.6827397000001 214.4924463 378.5221028000001 209.1697991C363.5265679000001 205.5872481 351.8065082000001 194.0207263 348.0192400000001 179.0763707000001H235.4247800000001C231.1257188 197.2450222 218.8426868 210.2957437000001 199.4969114000001 210.2957437000001C180.3558532 210.5004609000001 163.4666842 197.6032773000001 158.65583 179.0763707000001H148.41997C141.8690196 179.0763707000001 133.06618 182.710101 133.06618 189.3122307000001V209.7839507000001H148.41997C153.5379 209.7839507000001 158.65583 209.7839507000001 158.65583 214.9018807000001S158.65583 225.1377407000001 153.5379 225.1377407000001H76.76895C72.4698888 225.2912786000001 71.65102 225.1377407000001 71.65102 220.0198107000001S71.7021993 209.7839507000001 76.76895 209.7839507000001H117.71239L117.8659279 191.0523269C117.8659279 174.2143372000001 126.5664089 163.7225807 143.30204 163.7225807H158.65583C162.8013533 145.4003913 180.151136 127.8970707 199.59927 127.8970707S236.3971867 145.4003913 240.5427100000001 163.7225807H348.01924C352.1647633000001 145.4003913 368.9515737000001 127.8970707 388.4508870000001 127.8970707S425.7605967000001 145.4003913 429.9061200000001 163.7225807H445.2599100000001C461.9955411 163.7225807 470.8495600000001 173.6513649 470.8495600000001 190.4893546000001V231.9445876000001C470.8495600000001 232.6610978 470.7472014000001 233.3264287 470.6448428 233.9917596zM199.4969114 146.5263358999999C187.0603415 146.5263358999999 176.9780194 156.6086579999999 176.9780194 168.9940486C176.9780194 181.4306185 187.0603415 191.5129406 199.4457321 191.5129406C211.8311227 191.5129406 221.8622655 181.4817978 221.9646241 169.0964071999999C221.9646241 156.7110166 211.9334813 146.6286945 199.4969114 146.5263358999999zM408.9737863000001 159.9864918C405.3912353 151.8489831 397.3560852000001 146.5263359000001 388.450887 146.5263359000001H388.450887C375.9119585 146.4239773000001 365.7272778 156.5062994000001 365.6249192 168.9940486000001S375.6048827 191.7176578000001 388.0926319 191.8200164000001C400.6315604 191.9223750000001 410.8162411 181.8400529000001 410.9185997 169.3523037000001C410.969779 166.1280078 410.3044481000001 162.9548912 408.9737863000001 159.9864918z" />
    <glyph glyph-name="footer_kolay_iade"
      unicode="&#xE015;"
      horiz-adv-x="511.793" d=" M255.8965 511.793A255.8965 255.8965 0 1 0 0 255.8965A255.8965 255.8965 0 0 0 255.8965 511.793zM255.8965 506.67507A250.77857000000003 250.77857000000003 0 1 0 5.11793 255.8965A250.77857000000003 250.77857000000003 0 0 0 255.8965 506.67507z M170.10463941 229.20649505C173.497827 232.11347929 174.50094128 236.37159705 179.20943688 239.48329849C216.0175894400001 263.87023494 210.6284091500001 269.47948622 256.2496371700001 264.42297138C277.8882452100001 261.55693058 305.2691707100001 256.81260947 324.31810617 253.83909214C333.1107099100001 252.47772276 349.82586929 247.91764713 352.87103764 237.1136969C358.70035991 216.40143419 328.09002058 207.71630698 320.68437587 205.26481851A160.57505375000002 160.57505375000002 0 0 1 353.07575484 219.49266391C365.6044474799999 226.55540731 433.28907173 242.01155591 444.3233288099999 209.99378583C446.5035669899999 202.82868383 445.5721037299999 190.58147734 438.8829692199999 184.69073991C418.2628292499999 166.56303185 314.2920812999999 130.85011631 272.4427676899999 134.6425024399999C250.0467060099999 136.68967444 242.3442213599999 143.2150351899999 219.8560369399999 144.36656944C203.4786609399999 145.20079203 213.0338362499999 141.58753345 188.9898011099999 141.76154307C183.8360455999999 141.8024865099999 158.8503113399999 150.35454754 158.8503113399999 162.48404164V216.20695285C158.84519341 222.29217162 168.25194875 227.63529054 170.10463941 229.20649505zM188.97444732 221.84179378C191.88654949 223.85314027 190.898789 226.84712932 194.94707163 229.00689578C226.54005352 245.89606478 215.79240052 254.29970584 258.78813045 246.91965078C277.91383486 243.63905765 305.41247275 242.07297107 321.6670184300001 239.48841642C330.68992902 238.05539602 341.30451584 226.42745906 332.7319830900001 218.81197922C326.75935878 213.5200396 325.89954654 212.15867022 301.3027749600001 209.26192184C287.7812039000001 208.34581237 266.2347186000001 208.10015173 260.6920004100001 210.08590857C264.4536789600001 206.0478618 272.9340889700001 195.14155297 306.5128277 193.60105604C334.3901924100001 192.62353141 409.2552724500001 220.72608504 423.9642032700001 206.55453687C426.37986623 203.74991123 427.64399494 196.59504509 414.5267403500001 189.71142924C395.2270263200001 179.58304577 307.49035233 151.97693135 271.5778375200001 154.60754737C252.3600103700001 156.02009605 249.8624605300001 163.18008012 230.5678644300001 163.99894892C216.5242645100001 164.57727501 220.3320044300001 160.11444005 195.6431101100001 160.85142197C192.6235314100001 160.93842678 178.9842479600001 167.72991989 178.9842479600001 172.474241V212.82400112C178.99448382 217.04117544 187.38788902 220.75167469 188.97444732 221.84691171zM127.73329694 133.06618C118.28559816 134.69879967 95.60805033 137.55460461 86.65167283 141.1166838899999C75.6941847 145.49763197 66.53309 157.88302257 66.53309 162.97024499V239.43723712C66.53309 245.72717309 77.792536 257.49329416 86.04775709 256.1114530600001C95.71040893 254.49930511 128.41909956 248.51132701 137.90774178 245.4047435A19.872922190000004 19.872922190000004 0 0 0 148.53256446 228.33132902V148.59397962C148.53768239 142.10444438 134.70903553 131.86858438 127.73329694 133.06618zM128.0506086 216.00735358A15.52268169 15.52268169 0 0 1 118.06040924 229.97418455C108.89931454 233.69491966 105.99744823 232.64574401 96.63163633 234.16065129A6.2438746 6.2438746 0 0 1 87.03039965 227.747885V170.38100763C87.03039965 165.29890314 91.05821056 162.86276846 97.22531621 160.3549827599999C106.15098613 156.72125246 108.95561177 158.95778787 117.80451274 155.3547651499999C123.82831635 152.90839461 128.04037274 155.3547651499999 128.04037274 161.84941832V216.00735358zM107.11315697 173.69230834A10.52246408 10.52246408 0 1 0 117.74821551 183.81045595A10.420105480000002 10.420105480000002 0 0 0 107.11315697 173.69230834zM404.3164700000001 296.93206274C403.9735686900001 296.93206274 403.65625703 297.0241854800001 403.292884 297.03442134A50.78521939 50.78521939 0 0 1 367.6976808500001 355.89061634A40.87690691 40.87690691 0 1 0 404.3164700000001 296.93206274zM394.0806100000001 307.16792274A40.94344 40.94344 0 1 0 353.1371700000001 348.11136274A40.94344 40.94344 0 0 0 394.0806100000001 307.16792274z" />
    <glyph glyph-name="footer_mobil_cebinizde"
      unicode="&#xE016;"
      horiz-adv-x="511.793" d="" />
    <glyph glyph-name="footer_tek_tikla_alisveris"
      unicode="&#xE017;"
      horiz-adv-x="511.793" d=" M255.8965 511.793A255.8965 255.8965 0 1 0 0 255.8965A255.8965 255.8965 0 0 0 255.8965 511.793zM255.8965 506.67507A250.77857000000003 250.77857000000003 0 1 0 5.11793 255.8965A250.77857000000003 250.77857000000003 0 0 0 255.8965 506.67507z M258.42987535 92.12274A156.37323322 156.37323322 0 0 0 159.93019457 127.14985292A9.775246300000001 9.775246300000001 0 0 0 159.18809472 141.6438306799999L217.8191008 200.25948297A9.765010440000001 9.765010440000001 0 0 0 233.5720893400001 197.51115456L251.7407408400001 148.72192787L308.1608011600001 296.5328642L155.23193483 240.11280388L209.13909152 221.93903445A9.770128370000002 9.770128370000002 0 0 0 211.882302 206.18604591L153.12334767 147.43220951A9.765010440000001 9.765010440000001 0 0 0 138.71125679 148.07195076A156.09686500000004 156.09686500000004 0 1 0 258.42987535 92.12274M175.86742859 135.77356497C198.53985849 120.17411433 230.7674637000001 106.55018467 258.4298753500001 106.55018467C333.7197435800001 106.55018467 400.09929568 172.92973677 400.09929568 248.219605S333.7197435800001 389.89414326 258.42987535 389.89414326S116.76045502 323.51459116 116.76045502 248.219605C116.76045502 219.82021143 130.78870115 186.99380841 147.15584129 163.99383099L193.34004161 210.1780313100001L140.98873564 232.44614474A9.785482159999999 9.785482159999999 0 0 0 141.82807616 250.49196592L310.9193654300001 311.80988525A9.765010440000001 9.765010440000001 0 0 0 323.4531760000001 299.2914284700001L262.1045490900001 130.2001392A9.775246300000001 9.775246300000001 0 0 0 244.0740817 129.36079868L221.80596827 181.71210465z" />
    <glyph glyph-name="google-plus"
      unicode="&#xE018;"
      horiz-adv-x="475.73713307240706" d=" M321.4981467710373 511.793H194.301060665362C160.2482974559687 511.793 110.1707045009785 503.7805851272016 73.1132857142857 471.7309256360078C45.0698336594912 446.6921291585128 32.0496594911937 412.6393659491194 32.0496594911937 382.5928101761253C32.0496594911937 330.5121135029354 70.1086301369863 277.4298649706458 138.214156555773 277.4298649706458C144.2234677103718 277.4298649706458 151.2343307240705 278.4314168297456 159.2467455968689 278.4314168297456C156.2420900195695 270.4190019569472 153.2374344422701 263.4081389432486 153.2374344422701 252.3910684931507C153.2374344422701 231.3584794520548 163.2529530332681 219.3398571428572 172.2669197651663 207.3212348336595C143.221915851272 205.3181311154599 89.1381154598826 202.3134755381605 49.0760410958904 176.2731272015656C12.0186223091977 153.2374344422701 0 119.1846712328767 0 95.1474266144814C0 46.071385518591 45.0698336594912 -1e-13 138.214156555773 -1e-13C248.3848610567515 -1e-13 307.47642074364 63.0977671232876 307.47642074364 126.1955342465753C307.47642074364 172.2669197651663 281.436072407045 195.3026125244618 253.3926203522505 219.3398571428572L230.356927592955 238.3693424657534C223.3460645792564 244.3786536203522 213.3305459882583 252.3910684931507 213.3305459882583 267.4143463796477C213.3305459882583 282.4376242661448 223.3460645792564 291.451590998043 231.3584794520548 300.4655577299413C258.4003796477495 322.499698630137 285.4422798434443 345.5353913894325 285.4422798434443 395.6129843444227C285.4422798434443 446.6921291585127 254.3941722113503 472.7324774951076 239.3708943248533 485.7526516634051H279.4329686888454L321.4981467710373 511.793zM264.4096908023484 100.1551859099804C264.4096908023484 59.0915596868884 231.3584794520548 28.0434520547944 170.2638160469668 28.0434520547944C101.1567377690802 28.0434520547944 57.0884559686888 62.0962152641878 57.0884559686888 109.1691526418786C57.0884559686888 156.2420900195695 98.1520821917808 172.2669197651663 112.1738082191781 178.2762309197651C139.2157084148728 187.2901976516633 174.270023483366 189.293301369863 179.277782778865 189.293301369863C185.2870939334638 189.293301369863 189.293301369863 189.293301369863 194.301060665362 188.2917495107632C242.3755499021527 152.2358825831703 264.4096908023484 134.2079491193737 264.4096908023484 100.1551859099804zM212.3289941291585 315.4888356164384C202.3134755381605 304.4717651663405 184.285542074364 296.4593502935421 168.2607123287671 296.4593502935421C113.1753600782779 296.4593502935421 88.1365636007828 370.5741878669276 88.1365636007828 415.6440215264188C88.1365636007828 432.6704031311155 91.1412191780822 450.698336594912 102.15828962818 464.7200626223092C112.1738082191781 477.7402367906067 130.2017416829745 486.7542035225049 147.2281232876712 486.7542035225049C200.3103718199608 486.7542035225049 228.3538238747554 411.6378140900196 228.3538238747554 363.563324853229C228.3538238747554 351.5447025440314 227.3522720156556 330.5121135029354 212.3289941291585 315.4888356164384z M415.6440215264188 363.563324853229L385.5974657534247 363.563324853229L385.5974657534247 293.4546947162427L325.5043542074364 293.4546947162427L325.5043542074364 263.4081389432486L385.5974657534247 263.4081389432486L385.5974657534247 193.2995088062622L415.6440215264188 193.2995088062622L415.6440215264188 263.4081389432486L475.7371330724071 263.4081389432486L475.7371330724071 293.4546947162427L415.6440215264188 293.4546947162427z" />
    <glyph glyph-name="grid_view"
      unicode="&#xE019;"
      horiz-adv-x="511.793" d=" M162.8432272727273 0H69.7899545454546A69.78995454545455 69.78995454545455 0 0 0 0 69.7899545454546V162.8432272727273A69.78995454545455 69.78995454545455 0 0 0 69.7899545454546 232.6331818181818H162.8432272727273A69.78995454545455 69.78995454545455 0 0 0 232.6331818181818 162.8432272727273V69.7899545454546A69.78995454545455 69.78995454545455 0 0 0 162.8432272727273 0zM186.1065454545455 162.8432272727273A23.263318181818182 23.263318181818182 0 0 1 162.8432272727273 186.1065454545455H69.7899545454546A23.263318181818182 23.263318181818182 0 0 1 46.5266363636364 162.8432272727273V69.7899545454546A23.263318181818182 23.263318181818182 0 0 1 69.7899545454546 46.5266363636364H162.8432272727273A23.263318181818182 23.263318181818182 0 0 1 186.1065454545455 69.7899545454546V162.8432272727273zM162.8432272727273 279.1598181818182H69.7899545454546A69.78995454545455 69.78995454545455 0 0 0 0 348.9497727272727V442.0030454545455A69.78995454545455 69.78995454545455 0 0 0 69.7899545454546 511.793H162.8432272727273A69.78995454545455 69.78995454545455 0 0 0 232.6331818181818 442.0030454545455V348.9497727272727A69.78995454545455 69.78995454545455 0 0 0 162.8432272727273 279.1598181818182zM186.1065454545455 442.0030454545455A23.263318181818182 23.263318181818182 0 0 1 162.8432272727273 465.2663636363636H69.7899545454546A23.263318181818182 23.263318181818182 0 0 1 46.5266363636364 442.0030454545455V348.9497727272727A23.263318181818182 23.263318181818182 0 0 1 69.7899545454546 325.6864545454546H162.8432272727273A23.263318181818182 23.263318181818182 0 0 1 186.1065454545455 348.9497727272727V442.0030454545455zM442.0030454545455 0H348.9497727272727A69.78995454545455 69.78995454545455 0 0 0 279.1598181818182 69.7899545454546V162.8432272727273A69.78995454545455 69.78995454545455 0 0 0 348.9497727272727 232.6331818181818H442.0030454545455A69.78995454545455 69.78995454545455 0 0 0 511.793 162.8432272727273V69.7899545454546A69.78995454545455 69.78995454545455 0 0 0 442.0030454545455 0zM465.2663636363636 162.8432272727273A23.263318181818182 23.263318181818182 0 0 1 442.0030454545455 186.1065454545455H348.9497727272727A23.263318181818182 23.263318181818182 0 0 1 325.6864545454545 162.8432272727273V69.7899545454546A23.263318181818182 23.263318181818182 0 0 1 348.9497727272727 46.5266363636364H442.0030454545455A23.263318181818182 23.263318181818182 0 0 1 465.2663636363636 69.7899545454546V162.8432272727273zM442.0030454545455 279.1598181818182H348.9497727272727A69.78995454545455 69.78995454545455 0 0 0 279.1598181818182 348.9497727272727V442.0030454545455A69.78995454545455 69.78995454545455 0 0 0 348.9497727272727 511.793H442.0030454545455A69.78995454545455 69.78995454545455 0 0 0 511.793 442.0030454545455V348.9497727272727A69.78995454545455 69.78995454545455 0 0 0 442.0030454545455 279.1598181818182zM465.2663636363636 442.0030454545455A23.263318181818182 23.263318181818182 0 0 1 442.0030454545455 465.2663636363636H348.9497727272727A23.263318181818182 23.263318181818182 0 0 1 325.6864545454545 442.0030454545455V348.9497727272727A23.263318181818182 23.263318181818182 0 0 1 348.9497727272727 325.6864545454546H442.0030454545455A23.263318181818182 23.263318181818182 0 0 1 465.2663636363636 348.9497727272727V442.0030454545455z" />
    <glyph glyph-name="hamburger_menu"
      unicode="&#xE01A;"
      horiz-adv-x="722.5312941176471" d=" M45.1582058823529 511.793H677.3730882352942A45.158205882352945 45.158205882352945 0 0 0 677.3730882352942 421.4765882352941H45.1582058823529A45.158205882352945 45.158205882352945 0 0 0 45.1582058823529 511.793zM45.1582058823529 90.3164117647059H677.3730882352942A45.158205882352945 45.158205882352945 0 0 0 677.3730882352942 0H45.1582058823529A45.158205882352945 45.158205882352945 0 0 0 45.1582058823529 90.3164117647059z M141.4957117647059 211.9876711470588L113.8889952352941 331.2504928823529H67.7373088235294V179.5791320588235H97.2707754705882V282.1635230882353Q97.2707754705882 286.5890272647058 97.1654063235294 294.5669769705882T97.0600371764706 306.8650617058824L125.6602342352942 179.5791320588235H156.3979197058824L185.148644117647 306.8650617058824Q185.148644117647 302.5449266764706 185.0432749705882 294.5669769705883T184.9379058235294 282.1635230882354V179.5791320588235H214.4713724705882V331.250492882353H168.8615845294118zM355.9971897058824 331.2504928823529H244.757475882353V179.5791320588235H359.7001625882353V206.8396356764706H275.6908469117647V245.8412728235295H349.3739861764706V272.1835595882353H275.6908469117647V304.3964131176471H355.9520315V331.250492882353zM383.8447500000001 179.5791320588235H413.3782166470588V287.1911366764706L475.0944313529412 179.5791320588235H506.7051754705882V331.250492882353H477.2770779705883V225.4899747058823L417.0661367941177 331.2504928823529H383.8447500000001V179.5791320588235zM536.5396968235294 238.0289032058824A78.18390711764707 78.18390711764707 0 0 1 544.0660644705882 200.3970649705882Q558.1403719705883 175.6955263529411 597.4882220294118 175.6955263529411T650.8050104411765 200.3970649705881A78.27422352941177 78.27422352941177 0 0 1 658.3313780882353 238.0289032058823V331.250492882353H626.1185245588235V238.104166882353A52.68457352941177 52.68457352941177 0 0 0 622.4306044117648 215.2842201764706A30.812949147058823 30.812949147058823 0 0 0 572.5006814411765 215.2842201764706A52.68457352941177 52.68457352941177 0 0 0 568.8127612941178 238.1041668823529V331.250492882353H536.5999077647059V238.0289032058824z" />
    <glyph glyph-name="indent_icon"
      unicode="&#xE01B;"
      horiz-adv-x="332.66544999999996" d=" M304.516835 92.1227400000006L204.7171999999999 6e-13V102.3586H102.3586A102.3586 102.3586 0 0 0 0 204.7172000000001V460.6137A51.1793 51.1793 0 0 0 102.3586 460.6137V204.7172000000001H204.7172V307.2549275500001L304.516835 215.13218755A82.37308335 82.37308335 0 0 0 304.516835 92.1227400000006z" />
    <glyph glyph-name="info"
      unicode="&#xE01C;"
      horiz-adv-x="511.793" d=" M255.8965 0C114.5563331666667 0 0 114.5563331666667 0 255.8965C0 397.2366668333334 114.5563331666667 511.793 255.8965 511.793C397.2366668333334 511.793 511.793 397.2366668333334 511.793 255.8965C511.793 114.5563331666667 397.2366668333334 0 255.8965 0zM255.8965 454.9271111111111C145.9747367777778 454.9271111111111 56.8658888888889 365.8182632222222 56.8658888888889 255.8965C56.8658888888889 145.9747367777778 145.9747367777778 56.8658888888889 255.8965 56.8658888888889C365.8182632222223 56.8658888888889 454.9271111111111 145.9747367777778 454.9271111111111 255.8965C454.9271111111111 365.8182632222222 365.8182632222223 454.9271111111111 255.8965 454.9271111111111z M284.2441456111111 397.9474904444445C284.2441456111111 397.9474904444445 227.5488543888889 397.9474904444445 227.5488543888889 397.9474904444445C227.5488543888889 397.9474904444445 227.5488543888889 227.8331838333334 227.5488543888889 227.8331838333334C227.5488543888889 227.8331838333334 284.2441456111111 227.8331838333334 284.2441456111111 227.8331838333334C284.2441456111111 227.8331838333334 284.2441456111111 397.9474904444445 284.2441456111111 397.9474904444445zM216.8580672777778 139.3214277777778C219.1611357777778 134.1750648333333 222.2603267222222 129.7679584444445 226.1556401111111 126.1001086111111C230.0225205555556 122.4606917222222 234.5433587222223 119.5036655 239.6612887222222 117.3143287777778C244.8076516666667 115.0965591111111 250.1814781666667 114.0161072222222 255.8680670555556 114.0161072222222C267.5255742777778 114.0161072222222 277.5055377777778 118.224183 285.8363905000001 126.6687675C294.1388102777778 135.113352 298.2900201666667 145.1786143333333 298.2900201666667 156.9498533333334C298.2900201666667 168.6926593888889 294.0535114444445 178.5873240555556 285.5520610555556 186.6622802777778C277.0790436111111 194.7372365 267.1843789444445 198.7747146111111 255.8680670555556 198.7747146111111C244.1821268888889 198.7747146111111 234.1737304444445 194.5382058888889 225.8713106666667 186.1220543333333C217.5688908888889 177.6774698333334 213.417681 167.5837745555556 213.417681 155.8409685C213.417681 149.955349 214.5549987777778 144.4677907222222 216.8580672777778 139.3214277777778z" />
    <glyph glyph-name="info_icon"
      unicode="&#xE01D;"
      horiz-adv-x="511.793" d=" M255.8965 0C114.5563331666667 0 0 114.5563331666667 0 255.8965C0 397.2366668333334 114.5563331666667 511.793 255.8965 511.793C397.2366668333334 511.793 511.793 397.2366668333334 511.793 255.8965C511.793 114.5563331666667 397.2366668333334 0 255.8965 0zM255.8965 454.9271111111111C145.9747367777778 454.9271111111111 56.8658888888889 365.8182632222222 56.8658888888889 255.8965C56.8658888888889 145.9747367777778 145.9747367777778 56.8658888888889 255.8965 56.8658888888889C365.8182632222223 56.8658888888889 454.9271111111111 145.9747367777778 454.9271111111111 255.8965C454.9271111111111 365.8182632222222 365.8182632222223 454.9271111111111 255.8965 454.9271111111111zM255.8965 312.7623888888889C232.354022 312.7623888888889 213.2470833333333 331.8693275555555 213.2470833333333 355.4118055555556C213.2470833333333 378.9542835555556 232.354022 398.0612222222223 255.8965 398.0612222222223C279.438978 398.0612222222223 298.5459166666667 378.9542835555556 298.5459166666667 355.4118055555556C298.5459166666667 331.8693275555555 279.438978 312.7623888888889 255.8965 312.7623888888889zM284.2441456111111 114.1014060555556L227.5488543888889 114.1014060555556L227.5488543888889 284.2157126666667L284.2441456111111 284.2157126666667L284.2441456111111 114.1014060555556z" />
    <glyph glyph-name="instagram"
      unicode="&#xE01E;"
      horiz-adv-x="511.79299999999995" d=" M451.5820588235294 511.793H70.2460980392157C52.1828156862745 511.793 37.1300803921569 503.7648745098039 24.0843764705882 490.7191705882353C11.0386725490196 477.6734666666667 0 459.6101843137255 0 441.5469019607844V60.2109411764706C0 42.1476588235295 7.0246098039216 23.0808607843138 20.0703137254902 10.0351568627451S51.1793 1e-13 70.2460980392157 1e-13H451.5820588235294C469.6453411764705 1e-13 485.7015921568627 4.014062745098 498.7472960784314 16.0562509803922C511.7929999999999 29.1019549019608 511.7929999999999 42.1476588235295 511.7929999999999 60.2109411764706V441.5469019607844C511.7929999999999 459.6101843137255 511.7929999999999 477.6734666666667 498.7472960784314 490.7191705882353C485.7015921568627 503.7648745098039 469.6453411764705 511.793 451.5820588235294 511.793zM349.2234588235294 425.4906509803922C349.2234588235294 442.5504176470589 362.269162745098 455.5961215686275 379.3289294117647 455.5961215686275H421.4765882352941C438.5363549019608 455.5961215686275 451.5820588235294 442.5504176470589 451.5820588235294 425.4906509803922V379.3289294117648C451.5820588235294 362.2691627450981 438.5363549019608 349.2234588235295 421.4765882352941 349.2234588235295H395.3851803921569H379.3289294117647C362.269162745098 349.2234588235295 349.2234588235294 362.2691627450981 349.2234588235294 379.3289294117648V398.3957274509804V425.4906509803922zM360.262131372549 262.9211098039216C360.262131372549 205.7207156862746 314.1004098039216 158.5554784313725 255.8965 158.5554784313725C198.6961058823529 158.5554784313725 151.530868627451 204.7172 151.530868627451 262.9211098039216C151.530868627451 268.9422039215687 152.5343843137255 274.9632980392157 153.5379 280.9843921568628C162.5695411764706 330.1566607843138 204.7172 366.2832254901961 255.8965 366.2832254901961C307.0758 366.2832254901961 349.2234588235294 329.1531450980392 358.2551000000001 280.9843921568628C359.2586156862745 274.9632980392157 360.262131372549 268.9422039215687 360.262131372549 262.9211098039216zM61.2144568627451 60.2109411764706V280.9843921568628H93.3269588235294C92.3234431372549 274.9632980392157 92.3234431372549 268.9422039215687 92.3234431372549 262.9211098039216C92.3234431372549 172.6046980392158 165.5800882352941 98.344537254902 256.9000156862745 98.344537254902C347.2164274509804 98.344537254902 421.4765882352941 171.6011823529411 421.4765882352941 262.9211098039216C421.4765882352941 268.9422039215687 421.4765882352941 274.9632980392157 420.4730725490196 280.9843921568628H451.5820588235294V90.3164117647059V60.2109411764706H100.351568627451C94.3304745098039 60.2109411764706 66.2320352941176 60.2109411764706 61.2144568627451 60.2109411764706z" />
    <glyph glyph-name="ipad_icon"
      unicode="&#xE01F;"
      horiz-adv-x="351.8576875" d=" M319.870625 0C319.870625 0 31.9870625 0 31.9870625 0C21.12745478125 0 0 21.2713965624999 0 31.9870625C0 31.9870625 0 479.8059375 0 479.8059375C0 490.5216034375 21.12745478125 511.793 31.9870625 511.793C31.9870625 511.793 319.870625 511.793 319.870625 511.793C330.73023271875 511.793 351.8576875 490.5216034375 351.8576875 479.8059375C351.8576875 479.8059375 351.8576875 31.9870625 351.8576875 31.9870625C351.8576875 21.2713965624999 330.73023271875 0 319.870625 0zM175.72092784375 8.97237103125C183.797661125 8.97237103125 190.3550089375 15.43375765625 190.3550089375 23.41452975C190.3550089375 31.39530184375 183.797661125 37.85668846875 175.72092784375 37.85668846875C167.62820103125 37.85668846875 161.08684675 31.39530184375 161.08684675 23.41452975C161.08684675 15.43375765625 167.62820103125 8.97237103125 175.72092784375 8.97237103125zM176.0248049375 492.80867840625C173.32189815625 492.80867840625 171.130784375 490.6495516875 171.130784375 487.9946255C171.130784375 485.32370578125 173.32189815625 483.1645790625 176.0248049375 483.1645790625C178.72771171875 483.1645790625 180.9188255 485.32370578125 180.9188255 487.9946255C180.9188255 490.6495516875 178.72771171875 492.80867840625 176.0248049375 492.80867840625zM319.870625 447.818875C319.870625 456.64730425 312.705523 463.81240625 303.8770937500001 463.81240625C303.8770937500001 463.81240625 47.98059375 463.81240625 47.98059375 463.81240625C39.1521645 463.81240625 31.9870625 456.64730425 31.9870625 447.818875C31.9870625 447.818875 31.9870625 63.974125 31.9870625 63.974125C31.9870625 55.14569575 39.1521645 47.98059375 47.98059375 47.98059375C47.98059375 47.98059375 303.8770937500001 47.98059375 303.8770937500001 47.98059375C312.705523 47.98059375 319.870625 55.14569575 319.870625 63.974125C319.870625 63.974125 319.870625 447.818875 319.870625 447.818875z" />
    <glyph glyph-name="iphone_icon"
      unicode="&#xE020;"
      horiz-adv-x="325.6864545454545" d=" M279.1598181818182 0C279.1598181818182 0 46.5266363636364 0 46.5266363636364 0C20.8206697727273 0 0 20.8206697727273 0 46.5266363636364C0 46.5266363636364 0 465.2663636363636 0 465.2663636363636C0 490.9723302272727 20.8206697727273 511.793 46.5266363636364 511.793C46.5266363636364 511.793 279.1598181818182 511.793 279.1598181818182 511.793C304.8657847727273 511.793 325.6864545454545 490.9723302272727 325.6864545454545 465.2663636363636C325.6864545454545 465.2663636363636 325.6864545454545 46.5266363636364 325.6864545454545 46.5266363636364C325.6864545454545 20.8206697727273 304.8657847727273 0 279.1598181818182 0zM162.8432272727273 23.2633181818182C175.6845789090909 23.2633181818182 186.1065454545455 33.6852847272727 186.1065454545455 46.5266363636364C186.1065454545455 59.367988 175.6845789090909 69.7899545454546 162.8432272727273 69.7899545454546C150.0018756363637 69.7899545454546 139.5799090909091 59.367988 139.5799090909091 46.5266363636364C139.5799090909091 33.6852847272727 150.0018756363637 23.2633181818182 162.8432272727273 23.2633181818182zM209.3698636363637 465.2663636363636C209.3698636363637 465.2663636363636 116.3165909090909 465.2663636363636 116.3165909090909 465.2663636363636C116.3165909090909 465.2663636363636 116.3165909090909 442.0030454545455 116.3165909090909 442.0030454545455C116.3165909090909 442.0030454545455 209.3698636363637 442.0030454545455 209.3698636363637 442.0030454545455C209.3698636363637 442.0030454545455 209.3698636363637 465.2663636363636 209.3698636363637 465.2663636363636zM279.1598181818182 395.4764090909091C279.1598181818182 408.3177607272728 268.7378516363637 418.7397272727273 255.8965 418.7397272727273C255.8965 418.7397272727273 69.7899545454546 418.7397272727273 69.7899545454546 418.7397272727273C56.9486029090909 418.7397272727273 46.5266363636364 408.3177607272728 46.5266363636364 395.4764090909091C46.5266363636364 395.4764090909091 46.5266363636364 116.3165909090909 46.5266363636364 116.3165909090909C46.5266363636364 103.4752392727273 56.9486029090909 93.0532727272727 69.7899545454546 93.0532727272727C69.7899545454546 93.0532727272727 255.8965 93.0532727272727 255.8965 93.0532727272727C268.7378516363637 93.0532727272727 279.1598181818182 103.4752392727273 279.1598181818182 116.3165909090909C279.1598181818182 116.3165909090909 279.1598181818182 395.4764090909091 279.1598181818182 395.4764090909091z" />
    <glyph glyph-name="linkedin"
      unicode="&#xE021;"
      horiz-adv-x="515.2201852678572" d=" M1.1423950892857 354.1424776785714H115.3819040178572V0H1.1423950892857V354.1424776785715z M57.1197544642857 400.9806763392857C93.6763973214286 400.9806763392857 116.5242991071429 426.1133683035714 116.5242991071429 455.815640625C115.3819040178572 487.802703125 93.6763973214286 511.793 58.2621495535714 511.793C22.8479017857143 511.793 0 487.802703125 0 456.9580357142857C0 426.1133683035714 21.7055066964286 400.9806763392857 57.1197544642857 400.9806763392857z M384.9871450892858 365.5664285714286C325.5826004464287 365.5664285714286 291.3107477678572 331.2945758928571 276.4596116071429 308.4466741071429L275.3172165178572 308.4466741071429V354.1424776785714H172.5016584821429C171.3592633928572 322.1554151785714 172.5016584821429 284.4563772321428 172.5016584821429 239.90296875V0H286.7411674107144V205.6311160714286C286.7411674107144 215.912671875 286.7411674107144 227.3366227678572 290.1683526785715 234.1909933035714C298.1651183035715 254.7541049107143 316.4434397321429 275.3172165178572 346.1457120535715 275.3172165178572C386.1295401785715 275.3172165178572 400.9806763392858 244.4725491071429 400.9806763392858 197.6343504464286L400.9806763392858 -1.1423950892856H515.2201852678572V215.9126718750001C515.2201852678572 322.1554151785714 456.9580357142858 365.5664285714286 384.9871450892858 365.5664285714286z" />
    <glyph glyph-name="list_view"
      unicode="&#xE022;"
      horiz-adv-x="511.793" d=" M442.0030454545455 0H69.7899545454546A69.78995454545455 69.78995454545455 0 0 0 0 69.7899545454546V162.8432272727273A69.78995454545455 69.78995454545455 0 0 0 69.7899545454546 232.6331818181818H442.0030454545455A69.78995454545455 69.78995454545455 0 0 0 511.793 162.8432272727273V69.7899545454546A69.78995454545455 69.78995454545455 0 0 0 442.0030454545455 0zM465.2663636363636 162.8432272727273A23.263318181818182 23.263318181818182 0 0 1 442.0030454545455 186.1065454545455H69.7899545454546A23.263318181818182 23.263318181818182 0 0 1 46.5266363636364 162.8432272727273V69.7899545454546A23.263318181818182 23.263318181818182 0 0 1 69.7899545454546 46.5266363636364H442.0030454545455A23.263318181818182 23.263318181818182 0 0 1 465.2663636363636 69.7899545454546V162.8432272727273zM442.0030454545455 279.1598181818182H69.7899545454546A69.78995454545455 69.78995454545455 0 0 0 0 348.9497727272727V442.0030454545455A69.78995454545455 69.78995454545455 0 0 0 69.7899545454546 511.793H442.0030454545455A69.78995454545455 69.78995454545455 0 0 0 511.793 442.0030454545455V348.9497727272727A69.78995454545455 69.78995454545455 0 0 0 442.0030454545455 279.1598181818182zM465.2663636363636 442.0030454545455A23.263318181818182 23.263318181818182 0 0 1 442.0030454545455 465.2663636363636H69.7899545454546A23.263318181818182 23.263318181818182 0 0 1 46.5266363636364 442.0030454545455V348.9497727272727A23.263318181818182 23.263318181818182 0 0 1 69.7899545454546 325.6864545454546H442.0030454545455A23.263318181818182 23.263318181818182 0 0 1 465.2663636363636 348.9497727272727V442.0030454545455z" />
    <glyph glyph-name="menu_back_arrow"
      unicode="&#xE023;"
      horiz-adv-x="722.5312941176471" d=" M677.3730882352942 210.7382941176471H154.6819078823523L287.3266112941169 78.0785379705882A45.51947152941176 45.51947152941176 0 1 0 222.9611151764699 13.7130418529412L13.2464070588235 223.4428027058824A46.88927044117647 46.88927044117647 0 0 0 13.2464070588235 288.8318848235295L222.9611151764708 498.5465929411764A45.51947152941176 45.51947152941176 0 1 0 287.3266112941178 434.1810968235294L154.2152730882354 301.054705882353H677.3730882352942A45.158205882352945 45.158205882352945 0 0 0 677.3730882352942 210.7382941176471z" />
    <glyph glyph-name="mobile_search_icon"
      unicode="&#xE024;"
      horiz-adv-x="511.793" d=" M230.30685 51.1793C103.10069985 51.1793 0 154.27999985 0 281.48615C0 408.69230015 103.10069985 511.793 230.30685 511.793C357.51300015 511.793 460.6137 408.69230015 460.6137 281.48615C460.6137 154.27999985 357.51300015 51.1793 230.30685 51.1793zM230.30685 440.62818335C142.40640225 440.62818335 71.16481665 369.38659775 71.16481665 281.48615C71.16481665 193.58570225 142.40640225 122.3441166500001 230.30685 122.3441166500001C318.20729775 122.3441166500001 389.44888335 193.58570225 389.44888335 281.48615C389.44888335 369.38659775 318.20729775 440.62818335 230.30685 440.62818335z M495.6203411999999 15.78881405C475.58364525 -4.32465085 444.5433998 -5.7832609 426.323569 12.51333885L314.77828465 124.44246795C345.63940255 141.1013301 370.7940285 166.25595605 387.427301 197.1426636000001L498.87022675 85.3158931C517.1156471999999 67.01929335 515.65703715 35.90227895 495.6203411999999 15.78881405z" />
    <glyph glyph-name="next_arrow"
      unicode="&#xE025;"
      horiz-adv-x="279.1598181818182" d=" M279.4855046363612 251.1275197727276L38.1285784999976 512.0023698636368L0.1395799090885 473.1526285000004L205.3220462727249 255.5940768636368L0.6048462727249 38.1518418181822L36.3140396818158 0.1628432272731z" />
    <glyph glyph-name="no_result_icon"
      unicode="&#xE026;"
      horiz-adv-x="511.793" d=" M498.238482265625 13.554517734375C480.117811359375 -4.5661531718749 450.7296976875 -4.5661531718749 432.60902678125 13.554517734375C432.60902678125 13.554517734375 352.80130584375 93.362238671875 352.80130584375 93.362238671875C316.919818484375 69.787773609375 274.04915796875 55.977359375 227.9078203125 55.977359375C102.038729375 55.977359375 0 158.01608875 0 283.8851796875C0 409.754270625 102.038729375 511.793 227.9078203125 511.793C353.77691125 511.793 455.815640625 409.754270625 455.815640625 283.8851796875C455.815640625 237.74384203125 442.005226390625 194.873181515625 418.430761328125 158.99169415625C418.430761328125 158.99169415625 498.238482265625 79.18397321875 498.238482265625 79.18397321875C516.3591531718749 61.0633023125 516.3591531718749 31.675188640625 498.238482265625 13.554517734375zM227.9078203125 439.8221093750001C141.78265453125 439.8221093750001 71.970890625 370.01034546875 71.970890625 283.8851796875C71.970890625 197.76001390625 141.78265453125 127.94825 227.9078203125 127.94825C314.0329860937501 127.94825 383.84475 197.76001390625 383.84475 283.8851796875C383.84475 370.01034546875 314.0329860937501 439.8221093750001 227.9078203125 439.8221093750001z M227.9078203125 247.899734375C243.365568265625 247.899734375 255.8965 235.368802640625 255.8965 219.9110546875C255.8965 204.453306734375 243.365568265625 207.91590625 227.9078203125 207.91590625C212.450072359375 207.91590625 199.919140625 204.453306734375 199.919140625 219.9110546875C199.919140625 235.368802640625 212.450072359375 247.899734375 227.9078203125 247.899734375z M282.74963896875 311.873859375C282.74963896875 311.873859375 293.601249921875 301.01425165625 293.601249921875 301.01425165625C296.6000370312501 298.015464546875 296.6000370312501 293.1614278125 293.601249921875 290.162640703125C290.6024628125001 287.16385359375 285.748426078125 287.16385359375 282.74963896875 290.162640703125C282.74963896875 290.162640703125 271.89003125 301.01425165625 271.89003125 301.01425165625C271.89003125 301.01425165625 261.0304235312501 290.162640703125 261.0304235312501 290.162640703125C258.031636421875 287.16385359375 253.1775996875 287.16385359375 250.178812578125 290.162640703125C247.18002546875 293.1614278125 247.18002546875 298.015464546875 250.178812578125 301.01425165625C250.178812578125 301.01425165625 261.0304235312501 311.873859375 261.0304235312501 311.873859375C261.0304235312501 311.873859375 250.178812578125 322.7334670937501 250.178812578125 322.7334670937501C247.18002546875 325.732254203125 247.18002546875 330.5862909375 250.178812578125 333.585078046875C253.1775996875 336.58386515625 258.031636421875 336.58386515625 261.0304235312501 333.585078046875C261.0304235312501 333.585078046875 271.89003125 322.7334670937501 271.89003125 322.7334670937501C271.89003125 322.7334670937501 282.74963896875 333.585078046875 282.74963896875 333.585078046875C285.748426078125 336.58386515625 290.6024628125001 336.58386515625 293.601249921875 333.585078046875C296.6000370312501 330.5862909375 296.6000370312501 325.732254203125 293.601249921875 322.7334670937501C293.601249921875 322.7334670937501 282.74963896875 311.873859375 282.74963896875 311.873859375zM205.636828046875 290.162640703125C202.6380409375 287.16385359375 197.784004203125 287.16385359375 194.78521709375 290.162640703125C194.78521709375 290.162640703125 183.925609375 301.01425165625 183.925609375 301.01425165625C183.925609375 301.01425165625 173.06600165625 290.162640703125 173.06600165625 290.162640703125C170.067214546875 287.16385359375 165.2131778125 287.16385359375 162.214390703125 290.162640703125C159.21560359375 293.1614278125 159.21560359375 298.015464546875 162.214390703125 301.01425165625C162.214390703125 301.01425165625 173.06600165625 311.873859375 173.06600165625 311.873859375C173.06600165625 311.873859375 162.214390703125 322.7334670937501 162.214390703125 322.7334670937501C159.21560359375 325.732254203125 159.21560359375 330.5862909375 162.214390703125 333.585078046875C165.2131778125 336.58386515625 170.067214546875 336.58386515625 173.06600165625 333.585078046875C173.06600165625 333.585078046875 183.925609375 322.7334670937501 183.925609375 322.7334670937501C183.925609375 322.7334670937501 194.78521709375 333.585078046875 194.78521709375 333.585078046875C197.784004203125 336.58386515625 202.6380409375 336.58386515625 205.636828046875 333.585078046875C208.63561515625 330.5862909375 208.63561515625 325.732254203125 205.636828046875 322.7334670937501C205.636828046875 322.7334670937501 194.78521709375 311.873859375 194.78521709375 311.873859375C194.78521709375 311.873859375 205.636828046875 301.01425165625 205.636828046875 301.01425165625C208.63561515625 298.015464546875 208.63561515625 293.1614278125 205.636828046875 290.162640703125z" />
    <glyph glyph-name="occ_icon"
      unicode="&#xE027;"
      horiz-adv-x="511.793" d=" M255.8499733636364 -0.1861065454545C197.1333582727273 -0.1861065454545 -0.2326331818182 46.5266363636364 -0.2326331818182 255.8965C-0.2326331818182 397.1048413636364 114.6648953181818 511.9791065454546 255.8499733636364 511.9791065454546C397.0583147272728 511.9791065454546 511.9325799090909 397.1048413636364 511.9325799090909 255.8965C511.9325799090909 114.6881586363637 397.0583147272728 -0.1861065454545 255.8499733636364 -0.1861065454545M104.2894554090909 158.3534068636364C132.8335468181818 186.8974982727273 186.8742349545455 245.8234832272728 186.8742349545455 245.8234832272728L102.6842864545454 263.3407618181818C96.6823503636364 265.9229901363637 92.9834827727273 272.1808227272727 93.2859059090909 278.1827588181818C93.5883290454545 284.2079582272728 97.8455162727273 292.8619125909092 104.0800855454546 294.932347909091L326.6867772272728 347.8563967727273C332.5258700909091 349.9733587272728 339.0861258181818 348.5077696818182 343.5061562727273 344.1342658636364C347.902923409091 339.7142354090909 349.3685124545455 333.1539796818182 347.2282871818182 327.3148868181819L313.5895290909091 103.9172423181818C311.2166706363637 97.7059363636363 300.3992276818182 93.4720124545455 293.4202322272727 93.1695893181818C286.4412367727273 92.8439028636364 278.3921286818182 96.5660337727273 275.4144239545455 102.5214432272728L241.5895593181818 178.7786002272728C241.5895593181818 178.7786002272728 189.0377235454545 121.4577842272727 163.6109167727273 92.3088465454546C157.120451 84.8878480454546 200.6461193181818 46.5266363636364 255.8965 46.5266363636364C372.1433009545455 46.5266363636364 465.2663636363636 140.3941252272728 465.2663636363636 255.8965C465.2663636363636 372.1200376363637 372.1433009545455 465.2663636363636 255.8965 465.2663636363636C140.3941252272727 465.2663636363636 46.5266363636364 372.1200376363637 46.5266363636364 255.8965C46.5266363636364 175.8706854545455 96.217084 150.2577721363637 104.2894554090909 158.3534068636364z" />
    <glyph glyph-name="pinterest"
      unicode="&#xE028;"
      horiz-adv-x="383.59436203522506" d=" M203.3150273972603 511.793C68.1055264187867 511.793 0 411.6378140900196 0 328.5090097847358C0 278.4314168297456 19.0294853228963 233.3615831702544 58.0900078277887 216.3352015655577C65.1008708414873 213.3305459882583 70.1086301369863 216.3352015655577 72.1117338551859 223.3460645792563C73.1132857142857 228.3538238747554 76.1179412915851 241.3739980430529 78.1210450097847 247.3833091976516C80.1241487279843 254.3941722113503 79.1225968688845 257.3988277886497 74.1148375733855 263.4081389432486C63.0977671232877 277.4298649706458 55.0853522504892 295.4577984344422 55.0853522504892 321.4981467710372C55.0853522504892 395.6129843444227 109.1691526418787 462.7169589041096 195.3026125244618 462.7169589041096C271.420553816047 462.7169589041096 313.4857318982388 414.642469667319 313.4857318982388 349.5415988258317C313.4857318982388 264.4096908023484 277.4298649706458 193.2995088062622 223.3460645792564 193.2995088062622C193.2995088062623 193.2995088062622 171.2653679060666 218.3383052837573 178.2762309197652 250.387964774951C187.2901976516634 287.4453835616438 203.3150273972603 327.507457925636 203.3150273972603 354.5493581213307C203.3150273972603 378.586602739726 191.2964050880627 398.6176399217221 165.2560567514677 398.6176399217221C135.2095009784736 398.6176399217221 110.1707045009785 366.5679804305284 110.1707045009785 322.4996986301369C110.1707045009785 294.4562465753424 119.1846712328767 276.4283131115459 119.1846712328767 276.4283131115459S88.1365636007828 140.2172602739725 82.127252446184 116.1800156555772C71.1101819960861 69.1070782778864 80.1241487279843 10.0155185909979 81.1257005870842 4.0062074363992C81.1257005870842 1.0015518590998 86.1334598825832 -1e-13 88.1365636007828 2.0031037181996C91.1412191780822 6.0093111545987 127.1970861056752 52.0806966731898 139.2157084148728 98.1520821917808C142.2203639921722 111.1722563600782 159.2467455968689 179.277782778865 159.2467455968689 179.277782778865C169.2622641878669 160.2482974559687 198.3072681017612 142.2203639921722 228.3538238747554 142.2203639921722C319.4950430528376 142.2203639921722 381.5912583170254 228.3538238747554 381.5912583170254 343.5322876712329C383.5943620352251 430.6672994129159 312.484180039139 511.793 203.3150273972603 511.793z" />
    <glyph glyph-name="placeholder"
      unicode="&#xE029;"
      horiz-adv-x="511.46246702083334" d=" M474.5174098333333 172.282318625C439.310316375 150.5631031875 305.5724080625 68.0258195833334 273.8838914791667 48.5030491041667L274.321048 203.8535493125C341.2059956875 243.3895585625001 408.0696186666667 282.9255678125 474.943904 322.4402523541667L474.5174098333333 172.282318625zM240.4574111666667 203.9495105L240.0202546458333 47.72469725C236.1818071458334 49.9851163333333 100.5140127291667 130.0380714166667 36.5185630208333 167.804129875L36.9663818958333 325.7562445C104.8002791041667 285.1539998333334 172.6235139583334 244.5624175208333 240.4574111666667 203.9495105M257.4638660625 233.7081409791667C257.0160471875 233.9853621875 190.450970125 273.8199173541667 171.2693949791667 285.2926104375C235.8512741666667 326.7051940208334 300.4438157083333 368.1177776041667 365.0256948958334 409.5303611875001C388.4935364166667 395.2641313125 450.9216200625 357.3381375416667 458.6624891875001 352.6467017083334C391.5962814791667 312.9934065625 324.540736125 273.3507737708334 257.4638660625 233.7081409791667M332.3882287916667 429.3516775833334C267.7637001875 387.875119875 203.1285092291667 346.3985621666667 138.4826559166667 304.9220044583334C110.2594044375 321.8218358125 82.0468153125 338.7110048125 53.8235638333333 355.6214985208334C59.431962125 358.8841788958333 258.0502955416667 474.5387345416667 258.0502955416667 474.5387345416667C266.1430223541667 469.6127269166667 315.7229692291667 439.4915763958334 332.3882287916667 429.3516775833334zM508.6049561041667 253.4548208958334L508.8928396666667 353.9794959791667C508.9461514375 371.43376975 467.3523078333333 387.3953139375 456.0821994791667 394.2405453125C392.5025815833333 432.84892975 328.0486506458334 470.2844552291667 265.2687093125 510.2149715833334C261.0677417708333 512.8912224791667 255.4166940625 512.6566506875 251.2050641666667 510.2043092291667C187.8386933541667 473.3019014583334 124.4509978333334 436.3888313333333 61.0846270208333 399.4864235625C48.428412625 392.1080744791667 8.2846491875 378.0550916875 3.6998368958333 361.3578450625C-4.3609028541667 331.9937216875 2.9961215208333 291.018294625 2.9108226875 260.8864817500001L2.622939125 156.6939568333333C2.5696273541667 138.8558383125001 43.2251837916667 124.0564907291666 54.9111239583333 117.1792722916667C119.9088349583334 78.816122 250.9171806041667 1.5780284166667 251.41831125 1.343456625C255.00086225 -0.511793 259.4257392291667 -0.6610659583333 263.9785644583333 2.1324708333333C326.39598575 40.6555564375 388.8027446875 79.1679796875 451.2308283333334 117.7017276458333C463.81240625 125.4639214791667 503.2737790208333 140.4018796666667 507.8479289583333 157.1417757083334C515.567473375 185.3117154166667 508.5196572708333 224.5385163958334 508.6049561041667 253.4548208958334" />
    <glyph glyph-name="preorder"
      unicode="&#xE02A;"
      horiz-adv-x="491.32128" d=" M368.4909600000001 266.13236A122.83032 122.83032 0 1 0 491.32128 388.96268A122.83032 122.83032 0 0 0 368.4909600000001 266.13236zM368.4909600000001 470.84956A81.88688 81.88688 0 1 1 450.37784 388.96268A81.88688 81.88688 0 0 1 368.4909600000001 470.84956zM348.01924 450.37784H388.9626800000001V409.4344H429.9061200000001V368.49096H348.01924V450.37784zM399.3418420400001 227.97307392L388.9626800000001 204.7172A81.02706776000001 81.02706776000001 0 0 0 327.54752 163.77376H143.30204A60.67817808000001 60.67817808000001 0 0 0 81.88688 204.7172S48.0061834 311.8866542 40.94344 327.54752C33.8806966 327.54752 -0.45037784 327.30185936 0 348.01924V388.96268C0.63462332 408.22656852 21.92521212 409.4344 40.94344 409.4344H94.04708168A50.7698656 50.7698656 0 0 0 133.49608612 382.821164L157.120451 327.3837462400001L203.693614 327.3837462400001A182.48491208 182.48491208 0 0 1 399.3418420400001 227.97307392zM153.5379 102.3586A51.1793 51.1793 0 1 0 102.3586 51.1793A51.1793 51.1793 0 0 0 153.5379 102.3586zM296.83994 102.3586A51.1793 51.1793 0 1 0 245.66064 51.1793A51.1793 51.1793 0 0 0 296.83994 102.3586z" />
    <glyph glyph-name="previous_arrow"
      unicode="&#xE02B;"
      horiz-adv-x="279.1598181818182" d=" M-0.3256864545457 251.1275197727276L241.031239681818 512.0023698636368L279.020238272727 473.1526285000004L73.8145085909088 255.5940768636368L278.6712884999997 38.1518418181822L242.9620950909089 0.1628432272731z" />
    <glyph glyph-name="price_alarm"
      unicode="&#xE02C;"
      horiz-adv-x="462.0460427324707" d=" M256.6922459624838 460.4545508075033C314.7817012237938 440.8432632159695 377.3376015648511 397.4109351991173 377.3376015648511 334.2389734677501C377.3376015648511 250.8139935299428 391.0449674992477 198.3974369044036 436.3768181362224 152.4238556525228C471.6720019560639 132.3761912428528 475.2143549503461 49.7469572675293 410.707593539974 49.7469572675293H282.3614705587321C282.3614705587321 -17.2497189286789 179.6845721737386 -15.3501963085566 179.6845721737386 49.7469572675293H51.3384491924967C-7.7007673788745 49.7469572675293 -15.2475194101715 125.9588850937907 25.6692245962484 152.4238556525228C69.5122602066406 199.2445213160798 85.6068640284883 250.8396627545391 85.6068640284883 334.2389734677501C85.6068640284883 397.4109351991173 147.2130030594844 440.8432632159695 205.353796769987 460.4545508075033C200.5536517704883 524.1398970307953 258.3094071120471 534.2535715217173 256.6922459624838 460.4545508075033zM51.3384491924967 101.085406460026A97.38903811816634 97.38903811816634 0 0 0 77.0076737887451 139.5892433543986C117.2056795064701 194.3930378673889 128.3461229812419 209.4095342561942 128.3461229812419 306.4392032300131A102.67689838499349 102.67689838499349 0 0 0 333.6999197512289 306.4392032300131C333.6999197512289 209.4095342561942 347.0222473166818 187.1799857558431 385.6030918848431 139.5892433543986A95.84888464239141 95.84888464239141 0 0 0 410.707593539974 101.085406460026H51.3384491924967z" />
    <glyph glyph-name="review"
      unicode="&#xE02D;"
      horiz-adv-x="552.73644" d=" M409.4344000000001 225.18892A143.30204000000003 143.30204000000003 0 1 0 552.73644 368.49096A143.30204000000003 143.30204000000003 0 0 0 409.4344000000001 225.18892zM409.4344000000001 470.84956A102.3586 102.3586 0 1 1 511.793 368.49096A102.3586 102.3586 0 0 1 409.4344000000001 470.84956zM429.9061200000001 307.0758H388.9626800000001V348.01924H348.01924V388.96268H388.9626800000001V429.90612H429.9061200000001V388.96268H470.8495600000001V348.01924H429.9061200000001V307.0758zM409.4344000000001 184.24548A186.29265200000003 186.29265200000003 0 0 1 428.1455520800001 185.18717912A115.11248156 115.11248156 0 0 0 307.0758 81.88688H286.60408L184.24548 0V40.94344A39.34664584000001 39.34664584000001 0 0 1 143.30204 81.88688H122.83032A115.23531188 115.23531188 0 0 0 0 204.7172V245.66064A115.27625532000003 115.27625532000003 0 0 0 122.83032 368.49096H225.18892A184.24548000000004 184.24548000000004 0 0 1 409.4344000000001 184.24548z" />
    <glyph glyph-name="right_arrow_blue"
      unicode="&#xE02E;"
      horiz-adv-x="341.19533333333334" d=" M85.2988333333333 511.793L0 426.4941666666667L170.5976666666667 255.8965L0 85.2988333333333L85.2988333333333 0L341.1953333333334 255.8965L85.2988333333333 511.793z" />
    <glyph glyph-name="search_icon"
      unicode="&#xE02F;"
      horiz-adv-x="511.793" d=" M227.4635555555556 56.8658888888889C101.846807 56.8658888888889 0 158.7126958888889 0 284.3294444444445C0 409.946193 101.846807 511.793 227.4635555555556 511.793C353.0803041111111 511.793 454.9271111111111 409.946193 454.9271111111111 284.3294444444445C454.9271111111111 158.7126958888889 353.0803041111111 56.8658888888889 227.4635555555556 56.8658888888889zM227.4635555555556 426.4941666666667C148.9601959444445 426.4941666666667 85.2988333333333 362.8328040555556 85.2988333333333 284.3294444444445C85.2988333333333 205.8260848333334 148.9601959444445 142.1647222222222 227.4635555555556 142.1647222222222C305.9669151666667 142.1647222222222 369.6282777777778 205.8260848333334 369.6282777777778 284.3294444444445C369.6282777777778 362.8328040555556 305.9669151666667 426.4941666666667 227.4635555555556 426.4941666666667z M494.0792756111111 17.7137243888889C471.1054565 -5.2885276666667 433.8014333888889 -5.2885276666667 410.7991813333334 17.7137243888889C410.7991813333334 17.7137243888889 298.7449472777778 129.7679584444445 298.7449472777778 129.7679584444445C335.4803115 146.7708592222223 365.0221407777778 176.3126885 382.0250415555556 213.0480527222222C382.0250415555556 213.0480527222222 494.0792756111111 100.9938186666666 494.0792756111111 100.9938186666666C517.0815276666667 77.9915666111111 517.0815276666667 40.6875435 494.0792756111111 17.7137243888889z" />
    <glyph glyph-name="selectbox_arrow"
      unicode="&#xE030;"
      horiz-adv-x="731.1328571428571" d=" M79.6203681428571 512.5972461428571C50.4481671428571 512.5972461428571 23.6155912857143 498.486382 9.8702935714286 475.8943767142857C-3.8018908571429 453.3023714285714 -2.1933985714286 425.8848892857143 14.1108641428571 404.6089231428572L300.2031511428571 31.3655995714286C314.8989215714286 12.2099187142857 339.4649855714286 0.7311328571429 365.7126551428571 0.7311328571429C392.033438 0.7311328571429 416.5263887142857 12.2099187142857 431.2221591428571 31.3655995714286L717.3875594285713 404.6089231428572C726.3073802857142 416.2339355714286 730.840404 429.7598934285715 730.840404 443.2858512857143C730.840404 454.472184 727.769646 465.6585167142857 721.5550167142857 475.8943767142857C707.8097189999999 498.486382 681.0502564285713 512.5972461428571 651.8780554285714 512.5972461428571L79.6203681428571 512.5972461428571z" />
    <glyph glyph-name="seller_icon"
      unicode="&#xE031;"
      horiz-adv-x="486.66640080952385" d=" M477.7953221428572 84.1533918571428C461.7347703809525 74.1612428095237 390.1812347619048 123.9513903809524 374.364393952381 114.0810968095238C357.9626468571429 103.8696079047619 362.4956705714286 12.2586609047619 346.6300875714286 2.3639962380952C337.5884112380953 -3.2657267619048 325.987769904762 0.0731132857143 320.7723555238096 9.8459224761904L243.3210148571429 154.7564547619047L165.8453030952381 9.8459224761904C160.6298887142857 0.0731132857143 149.0536184761905 -3.2657267619048 139.9875710476191 2.3639962380952C124.1219880476191 12.2586609047619 128.6550117619048 103.8696079047619 112.2776357619048 114.0810968095238C96.460794952381 123.9513903809524 24.8828882380952 74.1612428095237 8.8223364761905 84.1533918571428C-0.243710952381 89.8074859523809 -3.338840047619 102.3098578095238 1.9253165238095 112.082667L106.0142642857143 306.8808312380953C111.2296786666667 316.6536404285714 122.83032 319.9924804761905 131.8963674285715 314.3627574761905C131.8963674285715 314.3627574761905 240.9813897142858 208.8846572857143 354.7456622857143 314.3627574761905C363.7873386190477 319.9924804761905 375.387979952381 316.6536404285714 380.6033943333334 306.8808312380953L484.7167131904762 112.082667C489.9564986666667 102.3098578095238 486.8613695714286 89.8074859523809 477.7953221428572 84.1533918571428zM209.0308838571429 217.6095093809524L143.4726376666667 258.4798360952381C136.6731020952381 262.7204066666667 121.1974566190476 257.7730743333333 117.5905345238096 250.9979098571428C66.3624923333333 165.552849952381 57.2477027142857 147.0064464761904 60.8058826190476 144.7643057142857C72.8452036666667 137.2580083809523 126.5103553809524 174.6188973809523 138.3790787619048 167.2100844285714C150.6621107619048 159.5575605238095 147.2745285238096 90.8554430476191 159.167623 83.4222589999999C162.9695138571429 81.0582627619048 206.0576102380953 167.5756508571428 215.976646 189.6558631428571C223.5804277142857 207.2030517142857 210.2006964285714 216.8783765238095 209.0308838571429 217.6095093809524zM366.7362411428572 250.9979098571428C363.1293190476191 257.7730743333333 347.6536735714286 262.7204066666667 340.8785090952382 258.4798360952381L275.2958918095238 217.6095093809524C268.5207273333334 213.3689388095238 264.7675786666667 196.4310276190476 268.3745007619048 189.6558631428571C287.4326972380953 147.7619504285714 321.3816329047619 81.0582627619048 325.1591526666668 83.4222589999999C337.0766182380953 90.8554430476191 333.664664904762 159.5575605238095 345.947696904762 167.2100844285714C357.8407913809524 174.6188973809523 411.5059430952382 137.2580083809523 423.5208930476191 144.7643057142857C427.1034440476191 147.0064464761904 409.3856578095238 178.7619835714286 366.7362411428572 250.9979098571428zM477.7953221428572 84.1533918571428C482.5720568095238 87.1266654761905 477.7953221428572 84.1533918571428 477.7953221428572 84.1533918571428zM8.8223364761905 84.1533918571428C8.8223364761905 84.1533918571428 4.0699729047619 87.1266654761905 8.8223364761905 84.1533918571428zM243.3210148571429 316.8242380952381C189.4121521904762 316.8242380952381 145.6904073333333 360.4972407619048 145.6904073333333 414.3329901428572C145.6904073333333 468.1931106190476 189.4121521904762 511.8661132857143 243.3210148571429 511.8661132857143C297.2298775238096 511.8661132857143 340.9272512857143 468.1931106190476 340.9272512857143 414.3329901428572C340.9272512857143 360.4972407619048 297.2298775238096 316.8242380952381 243.3210148571429 316.8242380952381z" />
    <glyph glyph-name="share"
      unicode="&#xE032;"
      horiz-adv-x="460.6137" d=" M409.4344 0H51.1793A51.1793 51.1793 0 0 0 0 51.1793V255.8965A51.1793 51.1793 0 0 0 51.1793 307.0758H127.94825V255.8965H76.76895A25.58965 25.58965 0 0 1 51.1793 230.30685V76.76895A25.58965 25.58965 0 0 1 76.76895 51.1793H383.84475A25.58965 25.58965 0 0 1 409.4344 76.76895V230.30685A25.58965 25.58965 0 0 1 383.84475 255.8965H332.66545V307.0758H409.4344A51.1793 51.1793 0 0 0 460.6137 255.8965V51.1793A51.1793 51.1793 0 0 0 409.4344 0zM204.7172 230.30685L204.4613035 413.1960785500001L146.1169015 339.9585002500001C125.1333885 317.5163772 87.516603 354.5701904 107.988323 377.8823615500001L209.5792335 503.93697745A31.219373 31.219373 0 0 0 250.266777 504.7814359L351.8576875000001 378.7012303500001A26.9714911 26.9714911 0 0 0 313.7291090000001 340.8029587000001L256.1523965 415.0129437000001L255.8965 230.30685A25.58965 25.58965 0 0 0 204.7172 230.30685z" />
    <glyph glyph-name="special_price_discount_icon"
      unicode="&#xE033;"
      horiz-adv-x="545.9125333333334" d=" M545.8784138000001 255.8965C545.8784138000001 250.4203149 543.2682695000001 245.2512056 538.8156704 241.9586706333334C538.8156704 241.9586706333334 460.6137000000001 204.7172 460.6137000000001 204.7172C460.6137000000001 204.7172 494.7332333333334 136.4781333333333 494.7332333333334 136.4781333333333C496.3539111666667 131.2407849666667 497.0363018333334 119.7425022333333 493.7437668666667 115.3240226666667C490.4682916666667 110.8884833333333 483.2520103666668 102.4609586 477.6734666666667 102.3586C477.6734666666667 102.3586 392.3746333333334 102.3586 392.3746333333334 102.3586C392.3746333333334 102.3586 368.6274381333334 11.7371194666666 368.6274381333334 11.7371194666666C366.8020431000001 6.5509504 362.6224002666667 2.5077856999999 357.3168128333334 0.8188687999999C355.5084775666667 0.2388367333333 353.6660227666668 -0.0341195333334 351.8235679666667 -0.0341195333334C348.2068974333334 -0.0341195333334 344.6414062000001 1.0406457666666 341.6218275 3.1219373C341.6218275 3.1219373 272.9562666666667 51.1793 272.9562666666667 51.1793C272.9562666666667 51.1793 204.2907058333333 3.1219373 204.2907058333333 3.1219373C199.7186883666667 -0.0170597666667 193.9183677 -0.8871078666667 188.6127802666667 0.8188687999999C183.3071928333334 2.5077856999999 179.1104902333334 6.5509504 177.2850952 11.7371194666666C177.2850952 11.7371194666666 153.5379 102.3586 153.5379 102.3586C153.5379 102.3586 68.2390666666667 102.3586 68.2390666666667 102.3586C62.6605229666667 102.4609586 55.4442416666667 110.8884833333333 52.1687664666667 115.3240226666667C48.8932912666667 119.7425022333333 49.5586221666667 131.2407849666667 51.1793 136.4781333333333C51.1793 136.4781333333333 85.2988333333333 204.7172 85.2988333333333 204.7172C85.2988333333333 204.7172 7.0968629333333 241.9586706333334 7.0968629333333 241.9586706333334C2.6613236 245.2512056 0 250.4203149 0 255.8965C0 261.3726851 2.6613236 266.5247346333333 7.0968629333333 269.8343293666667C7.0968629333333 269.8343293666667 85.2988333333333 307.0758 85.2988333333333 307.0758C85.2988333333333 307.0758 49.5415624 381.1151873333333 49.5415624 381.1151873333333C47.9038248 386.3525357 48.8932912666667 392.033438 52.1687664666667 396.4689773333334C55.4442416666667 400.9045166666667 62.6605229666667 409.3320414 68.2390666666667 409.4344C68.2390666666667 409.4344 153.5379 409.4344 153.5379 409.4344C153.5379 409.4344 177.2850952 500.0388207666667 177.2850952 500.0388207666667C179.1104902333334 505.2249898333333 183.2901330666667 509.2681545333334 188.6127802666667 510.9570714333333C193.9183677 512.6630481 199.7186883666667 511.8100597666667 204.2907058333333 508.6540029333333C204.2907058333333 508.6540029333333 272.9562666666667 460.6137 272.9562666666667 460.6137C272.9562666666667 460.6137 341.6218275 508.6540029333333 341.6218275 508.6540029333333C346.1938449666667 511.8100597666667 352.0112254000001 512.6630481 357.2997530666667 510.9570714333333C362.6053405 509.2681545333334 366.8020431000001 505.2249898333333 368.6274381333334 500.0388207666667C368.6274381333334 500.0388207666667 392.3746333333334 409.4344 392.3746333333334 409.4344C392.3746333333334 409.4344 477.6734666666667 409.4344 477.6734666666667 409.4344C483.2520103666668 409.3320414 490.4682916666667 400.8874569 493.7437668666667 396.4689773333334C497.0363018333334 392.033438 498.0087085333334 386.3525357 496.3709709333334 381.1151873333333C496.3709709333334 381.1151873333333 460.6137000000001 307.0758 460.6137000000001 307.0758C460.6137000000001 307.0758 538.8156704 269.8343293666667 538.8156704 269.8343293666667C543.2682695000001 266.5247346333333 545.8784138000001 261.3726851 545.8784138000001 255.8965zM358.2551000000001 238.8367333333333C358.2551000000001 238.8367333333333 324.1355666666667 238.8367333333333 324.1355666666667 238.8367333333333C324.1355666666667 238.8367333333333 324.1355666666667 341.1953333333334 324.1355666666667 341.1953333333334C324.1355666666667 352.1818230666667 311.8525346666667 358.2551 301.3948977000001 358.2551C301.3948977000001 358.2551 244.5176356333334 358.2551 244.5176356333334 358.2551C234.0599986666667 358.2551 221.7769666666667 352.1818230666667 221.7769666666667 341.1953333333334C221.7769666666667 341.1953333333334 221.7769666666667 238.8367333333333 221.7769666666667 238.8367333333333C221.7769666666667 238.8367333333333 187.6574333333334 238.8367333333333 187.6574333333334 238.8367333333333C180.1681957666667 231.1086590333333 184.1943007 219.9003923333334 191.6835382666667 212.1723180333334C191.6835382666667 212.1723180333334 259.4108119333334 142.1931551666667 259.4108119333334 142.1931551666667C266.9000495 134.4650808666667 279.0295436000001 134.4650808666667 286.5017214 142.1931551666667C286.5017214 142.1931551666667 354.2460548333334 212.1723180333334 354.2460548333334 212.1723180333334C361.7182326333334 219.9003923333334 365.7443375666668 231.1086590333333 358.2551000000001 238.8367333333333z" />
    <glyph glyph-name="table_sort_icon"
      unicode="&#xE034;"
      horiz-adv-x="307.07579999999996" d=" M273.6045378 306.7687242L31.9870625 306.7687242C19.6528512 306.7687242 8.3422259 312.3984472 2.558965 321.4571833C-3.2242959 330.4647401 -2.5077857 341.4171103 4.3502405 349.9640534L125.1333885 499.2540715C131.3260838 506.9309665 141.7154817 511.5371035 152.8213898 511.5371035C163.8761186 511.5371035 174.2655165 506.9309665 180.4582118 499.2540715L301.2413598 349.9640534C305.028628 345.3067371 306.9222621 339.8817313 306.9222621 334.5079048C306.9222621 330.0041264 305.6427796 325.5515273000001 303.0326353 321.4571833C297.2493744 312.3984472 285.9387491 306.7687242 273.6045378 306.7687242zM31.9870625 205.0242758000001L273.6045378 205.0242758000001C285.9387491 205.0242758000001 297.2493744 199.3945528000001 303.0326353 190.3358167C305.6427796 186.2414727 306.9222621 181.7888736 306.9222621 177.3362745C306.9222621 171.9112687 305.028628 166.4862629000001 301.2413598 161.8289466L180.4582118 12.5389285C174.2655165 4.9132128000001 163.8761186 0.2558965000001 152.8213898 0.2558965000001C141.7154817 0.2558965000001 131.3260838 4.9132128000001 125.1333885 12.5389285L4.3502405 161.8289466C-2.5077857 170.3758897 -3.2242959 181.2770806 2.558965 190.3358167C8.3422259 199.3945528000001 19.6528512 205.0242758000001 31.9870625 205.0242758000001z" />
    <glyph glyph-name="twitter"
      unicode="&#xE035;"
      horiz-adv-x="651.7705726495727" d=" M647.3962735042735 452.0109116809117C628.4409772079772 443.2623133903134 608.0275811965811 437.4299145299146 586.1560854700854 434.5137150997151C608.0275811965811 450.552811965812 625.5247777777778 473.8824074074074 634.2733760683759 498.6701025641026C634.2733760683759 500.1282022792023 634.2733760683759 501.586301994302 632.8152763532762 501.586301994302C631.3571766381765 503.0444017094017 629.8990769230768 503.0444017094017 628.4409772079771 501.586301994302C603.653282051282 487.0053048433049 575.9493874643873 476.7986068376068 546.7873931623931 470.966207977208C521.999698005698 497.2120028490028 487.0053048433048 511.793 450.5528119658119 511.793C376.1897264957265 511.793 314.9495384615385 453.4690113960114 314.9495384615385 380.5640256410257C314.9495384615385 371.8154273504274 316.4076381766382 363.0668290598291 317.8657378917379 354.3182307692308C212.8825584045584 361.6087293447294 116.6479772079772 409.72601994302 51.03349002849 487.0053048433048C51.03349002849 488.4634045584046 49.5753903133903 488.4634045584046 48.1172905982906 488.4634045584046C46.6591908831909 488.4634045584046 46.6591908831909 488.4634045584046 45.2010911680912 487.0053048433048C33.5362934472934 466.5919088319088 27.7038945868946 444.7204131054131 27.7038945868946 421.3908176638177C27.7038945868946 380.5640256410257 46.6591908831909 344.1115327635328 78.7373846153846 319.3238376068377C62.6982877492878 320.7819373219374 46.6591908831909 326.6143361823362 32.0781937321937 333.9048347578348C30.620094017094 333.9048347578348 29.1619943019943 333.9048347578348 29.1619943019943 333.9048347578348C27.7038945868946 333.9048347578348 27.7038945868946 332.4467350427351 27.7038945868946 330.9886353276354V329.5305356125357C27.7038945868946 271.206547008547 67.0725868945869 221.6311566951567 122.4803760683761 204.1339601139602C107.8993789173789 201.2177606837607 91.8602820512821 202.6758603988604 77.2792849002849 204.1339601139602C75.8211851851852 204.1339601139602 74.3630854700855 204.1339601139602 74.3630854700855 202.6758603988604C72.9049857549858 202.6758603988604 72.9049857549858 201.2177606837607 72.9049857549858 201.2177606837607C90.4021823361823 150.1842706552707 137.0613732193732 115.1898774928775 191.0110626780627 110.8155783475784C145.8099715099715 78.7373846153847 91.860282051282 61.2401880341881 34.9943931623932 61.2401880341881C24.7876951566952 61.2401880341881 14.5809971509972 61.2401880341881 4.3742991452991 62.6982877492878C2.9161994301994 62.6982877492878 1.4580997150997 62.6982877492878 1.4580997150997 61.2401880341881C1.4580997150997 59.7820883190884 1.4580997150997 58.3239886039887 2.9161994301994 58.3239886039887C64.1563874643875 20.4133960113961 135.6032735042735 1e-13 207.0501595441596 1e-13C444.7204131054131 1e-13 587.6141851851852 186.6367635327636 587.6141851851852 365.9830284900286C587.6141851851852 370.3573276353278 587.6141851851852 376.1897264957267 587.6141851851852 380.5640256410258C613.85998005698 398.0612222222224 635.7314757834758 421.3908176638178 653.2286723646724 446.178512820513C654.6867720797721 447.6366125356127 653.2286723646724 449.0947122507124 653.2286723646724 450.5528119658121C650.3124729344729 452.0109116809117 648.8543732193732 452.0109116809117 647.3962735042735 452.0109116809117z" />
    <glyph glyph-name="user_icon"
      unicode="&#xE036;"
      horiz-adv-x="511.793" d=" M511.793 93.8372465500001C511.793 48.03177305 471.0030978999999 0 426.50269655 0C426.50269655 0 85.29030345 0 85.29030345 0C40.7899021 0 0 48.03177305 0 93.8372465500001C0 194.7372365 66.3795521 248.6034497500001 154.5103067 270.09875575C122.1649891 283.5845013000001 102.02593455 308.73912725 102.3586 355.4146488500001C102.9727516 440.5002351 171.2459378 511.5371035 255.97326895 511.5371035C340.72618975 511.5371035 409.4344 440.5002351 409.4344 355.4146488500001C409.4344 308.7135376 388.27175945 283.9171667500001 355.5937764 270.55936945C444.56898945 249.3455496000001 511.793 195.4025674 511.793 93.8372465500001zM358.2551 371.0499250000001C358.2551 420.5147184500001 312.42403685 460.6137 255.8965 460.6137C199.36896315 460.6137 153.5379 420.5147184500001 153.5379 371.0499250000001C153.5379 321.5851315500001 199.36896315 281.48615 255.8965 281.48615C312.42403685 281.48615 358.2551 321.5851315500001 358.2551 371.0499250000001zM255.8965 230.30685C149.1876595 230.30685 51.1793 198.19183925 51.1793 110.87995345C51.1793 81.7589317500001 83.80610375 51.1793 119.42689655 51.1793C119.42689655 51.1793 392.36610345 51.1793 392.36610345 51.1793C427.9868962500001 51.1793 460.6137 81.7589317500001 460.6137 110.87995345C460.6137 198.19183925 362.6053405 230.30685 255.8965 230.30685z" />
    <glyph glyph-name="variant_warning_icon"
      unicode="&#xE037;"
      horiz-adv-x="511.793" d=" M255.8965 0C114.5563331666667 0 0 114.5563331666667 0 255.8965C0 397.2366668333334 114.5563331666667 511.793 255.8965 511.793C397.2366668333334 511.793 511.793 397.2366668333334 511.793 255.8965C511.793 114.5563331666667 397.2366668333334 0 255.8965 0zM255.8965 454.9271111111111C145.9747367777778 454.9271111111111 56.8658888888889 365.8182632222222 56.8658888888889 255.8965C56.8658888888889 145.9747367777778 145.9747367777778 56.8658888888889 255.8965 56.8658888888889C365.8182632222223 56.8658888888889 454.9271111111111 145.9747367777778 454.9271111111111 255.8965C454.9271111111111 365.8182632222222 365.8182632222223 454.9271111111111 255.8965 454.9271111111111z M142.1647222222222 255.8965C142.1647222222222 193.0841735621886 193.0841735621886 142.1647222222222 255.8965 142.1647222222222C318.7088264378114 142.1647222222222 369.6282777777778 193.0841735621886 369.6282777777778 255.8965C369.6282777777778 318.7088264378114 318.7088264378114 369.6282777777778 255.8965 369.6282777777778C193.0841735621886 369.6282777777778 142.1647222222222 318.7088264378114 142.1647222222222 255.8965z" />
    </font>
</defs>
</svg>
