<svg xmlns="http://www.w3.org/2000/svg" xmlns:xlink="http://www.w3.org/1999/xlink" preserveAspectRatio="xMidYMid" width="31.25" height="10" viewBox="0 0 31.25 10">
  <defs>
    <style>
      .cls-1 {
        fill: #bfbfbf;
        fill-rule: evenodd;
      }
    </style>
  </defs>
  <g>
    <path d="M24.012,9.925 L31.235,9.925 L31.235,8.274 L26.378,8.274 L31.223,2.136 L31.223,0.568 L24.132,0.568 L24.132,2.225 L28.794,2.225 L24.012,8.274 L24.012,9.925 Z" class="cls-1"/>
    <path d="M12.781,6.000 L16.928,6.014 L14.066,8.287 C13.189,9.110 14.637,10.578 15.548,9.784 L20.474,5.809 C20.591,5.691 21.102,4.981 20.507,4.221 L15.580,0.245 C14.545,-0.675 13.222,0.919 14.099,1.743 L17.000,3.987 L12.781,4.000 C11.413,4.032 11.528,5.968 12.781,6.000 Z" class="cls-1"/>
    <path d="M4.433,2.708 L5.615,6.389 L3.219,6.389 L4.433,2.708 ZM0.007,9.925 L2.052,9.925 L2.687,8.001 L6.132,8.001 L6.750,9.925 L8.870,9.925 L5.560,0.568 L3.347,0.568 L0.007,9.925 Z" class="cls-1"/>
  </g>
</svg>
