<svg xmlns="http://www.w3.org/2000/svg" xmlns:xlink="http://www.w3.org/1999/xlink" preserveAspectRatio="xMidYMid" width="20" height="20" viewBox="0 0 20 20">
  <defs>
    <style>

      .cls-2 {
        fill: #919191;
      }
    </style>
  </defs>
  <path d="M19.906,6.969 C19.906,6.969 19.000,11.000 19.000,11.000 C18.771,12.290 16.889,13.000 16.000,13.000 C16.000,13.000 14.622,13.000 14.622,13.000 C16.493,13.073 17.989,14.605 17.989,16.499 C17.989,18.440 16.422,20.011 14.487,20.011 C12.584,20.011 11.044,18.489 10.994,16.592 C10.944,18.489 9.406,20.011 7.506,20.011 C5.573,20.011 4.008,18.440 4.008,16.499 C4.008,14.605 5.502,13.073 7.370,13.000 C7.370,13.000 7.036,13.000 7.036,13.000 C6.165,12.974 5.541,12.192 5.361,11.652 C5.361,11.652 2.500,6.000 2.500,6.000 C2.500,6.000 1.938,6.000 1.938,6.000 C1.062,5.969 0.014,5.258 0.014,3.993 C0.014,3.993 -0.017,1.983 -0.017,1.983 C0.014,1.042 1.071,-0.000 2.000,-0.000 C2.000,-0.000 5.594,-0.000 5.594,-0.000 C6.495,-0.000 7.000,0.627 7.521,1.301 C7.521,1.301 8.675,3.008 8.675,3.008 C8.675,3.008 17.565,3.007 17.565,3.007 C19.189,3.007 20.500,3.854 19.906,6.969 ZM14.500,18.000 C15.328,18.000 16.000,17.328 16.000,16.500 C16.000,15.672 15.328,15.000 14.500,15.000 C13.672,15.000 13.000,15.672 13.000,16.500 C13.000,17.328 13.672,18.000 14.500,18.000 ZM10.994,16.406 C11.043,14.556 12.512,13.072 14.351,13.000 C14.351,13.000 7.641,13.000 7.641,13.000 C9.478,13.072 10.945,14.556 10.994,16.406 ZM6.000,16.500 C6.000,17.328 6.672,18.000 7.500,18.000 C8.328,18.000 9.000,17.328 9.000,16.500 C9.000,15.672 8.328,15.000 7.500,15.000 C6.672,15.000 6.000,15.672 6.000,16.500 ZM16.656,5.000 C16.656,5.000 7.344,5.000 7.344,5.000 C7.344,5.000 6.225,2.974 6.225,2.974 C5.931,2.454 5.572,1.988 4.942,1.988 C4.942,1.988 3.693,1.977 2.883,1.998 C2.400,2.011 1.997,2.528 1.986,2.661 C1.986,2.661 1.986,3.185 1.986,3.185 C1.986,3.804 2.444,3.983 3.038,3.983 C3.038,3.983 3.903,4.015 3.903,4.015 C3.903,4.015 6.999,9.965 6.999,9.965 C7.139,10.380 7.698,10.980 8.375,11.000 C8.375,11.000 15.000,11.000 15.000,11.000 C15.701,11.000 16.643,10.651 16.971,9.996 C16.971,9.996 17.656,6.000 17.656,6.000 C17.656,5.409 17.282,5.000 16.656,5.000 Z" id="path-1" class="cls-2" fill-rule="evenodd"/>
</svg>
