<svg xmlns="http://www.w3.org/2000/svg" xmlns:xlink="http://www.w3.org/1999/xlink" preserveAspectRatio="xMidYMid" width="20" height="20" viewBox="0 0 20 20">
  <defs>
    <style>

      .cls-2 {
        fill: #bfbfbf;
      }
    </style>
  </defs>
  <path d="M19.906,5.969 C20.500,2.854 19.189,3.007 17.565,3.007 C17.565,3.007 8.675,3.008 8.675,3.008 C8.675,3.008 7.521,1.301 7.521,1.301 C7.000,0.627 6.495,0.000 5.594,0.000 C5.594,0.000 2.000,0.000 2.000,0.000 C1.071,0.000 0.014,1.042 -0.017,1.983 C-0.017,1.983 0.014,1.993 0.014,1.993 C0.014,3.258 1.062,3.969 1.938,4.000 C1.938,4.000 2.500,4.000 2.500,4.000 C2.500,4.000 5.361,10.652 5.361,10.652 C5.541,11.192 6.165,11.974 7.036,12.000 C7.036,12.000 16.000,12.000 16.000,12.000 C16.889,12.000 18.771,11.290 19.000,10.000 C19.000,10.000 19.906,5.969 19.906,5.969 ZM5.006,17.499 C5.006,18.885 6.123,20.008 7.504,20.008 C8.884,20.008 10.002,18.885 10.002,17.499 C10.002,16.113 8.884,14.990 7.504,14.990 C6.123,14.990 5.006,16.113 5.006,17.499 ZM11.989,17.499 C11.989,18.885 13.108,20.008 14.491,20.008 C15.873,20.008 16.992,18.885 16.992,17.499 C16.992,16.113 15.873,14.990 14.491,14.990 C13.108,14.990 11.989,16.113 11.989,17.499 Z" id="path-1" class="cls-2" fill-rule="evenodd"/>
</svg>
