<svg xmlns="http://www.w3.org/2000/svg" xmlns:xlink="http://www.w3.org/1999/xlink" preserveAspectRatio="xMidYMid" width="180" height="182" viewBox="0 0 180 182">
  <defs>
    <style>

      .cls-2 {
        fill: #bfbfbf;
      }
    </style>
  </defs>
  <path d="M170.000,160.000 C170.000,160.000 107.979,160.000 107.979,160.000 C107.979,160.000 77.000,182.000 77.000,182.000 C77.000,182.000 77.000,166.879 77.000,165.000 C77.000,160.007 73.375,160.000 72.000,160.000 C70.625,160.000 10.000,160.000 10.000,160.000 C4.477,160.000 -0.000,155.523 -0.000,150.000 C-0.000,150.000 -0.000,10.000 -0.000,10.000 C-0.000,4.477 4.477,-0.000 10.000,-0.000 C10.000,-0.000 170.000,-0.000 170.000,-0.000 C175.523,-0.000 180.000,4.477 180.000,10.000 C180.000,10.000 180.000,150.000 180.000,150.000 C180.000,155.523 175.523,160.000 170.000,160.000 ZM178.000,11.000 C178.000,6.029 173.971,2.000 169.000,2.000 C169.000,2.000 11.000,2.000 11.000,2.000 C6.029,2.000 2.000,6.029 2.000,11.000 C2.000,11.000 2.000,149.000 2.000,149.000 C2.000,153.971 6.029,158.000 11.000,158.000 C11.000,158.000 70.656,158.000 72.000,158.000 C75.000,158.000 79.000,160.007 79.000,164.000 C79.000,169.128 79.000,178.000 79.000,178.000 C79.000,178.000 107.000,158.000 107.000,158.000 C107.000,158.000 169.000,158.000 169.000,158.000 C173.971,158.000 178.000,153.971 178.000,149.000 C178.000,149.000 178.000,11.000 178.000,11.000 Z" id="path-1" class="cls-2" fill-rule="evenodd"/>
</svg>
