<svg xmlns="http://www.w3.org/2000/svg" width="36.375" height="36.906" viewBox="0 0 36.375 36.906">
  <defs>
    <style>
      .cls-1 {
        fill: #fff;
        fill-rule: evenodd;
      }
    </style>
  </defs>
  <path id="Shape_1_copy" data-name="Shape 1 copy" class="cls-1" d="M37.068,35.483v1.423h-6V28.989h5.806v1.4h-4.19v1.681h3.846v1.375H32.685v2.036h4.383ZM22,10v9s-2.011,2.421-3.756,4.223c-1.082,1.118-2.259.951-2.259,0C15.986,19.159,16,10,16,10S7.615,3.166,6.837,2.4C5.315,0.9,6,0,7.649,0H30.377c1.674,0,2.235,1,.812,2.4C30.413,3.164,22,10,22,10ZM6.319,30.391h-4v1.821H5.825v1.375H2.317v3.319H0.674V29H6.319v1.391ZM8.79,26.825V28.1h-1.4V26.825h1.4ZM8.9,36.906H7.259V28.989H8.9v7.917Zm3.2-1.423h3.953v1.423H10.449V28.989H12.1v6.494ZM15.7,28.989H22.11v1.4H19.741v6.515H18.076V30.391H15.7v-1.4Zm12.453,0.2a1.955,1.955,0,0,1,.741.553,2.462,2.462,0,0,1,.4.666,2.219,2.219,0,0,1,.147.832,2.372,2.372,0,0,1-.285,1.109,1.591,1.591,0,0,1-.94.771,1.479,1.479,0,0,1,.776.626,2.6,2.6,0,0,1,.228,1.238v0.532a3.993,3.993,0,0,0,.044.736,0.661,0.661,0,0,0,.305.451v0.2H27.739q-0.075-.263-0.108-0.424a3.9,3.9,0,0,1-.07-0.682l-0.011-.736a1.5,1.5,0,0,0-.262-1.01,1.334,1.334,0,0,0-.943-0.252H24.731v3.1H23.114V28.989H26.9A3.449,3.449,0,0,1,28.15,29.193Zm-3.419,1.171v2.127h1.78a1.9,1.9,0,0,0,.8-0.129,0.891,0.891,0,0,0,.469-0.892,1,1,0,0,0-.454-0.967,1.64,1.64,0,0,0-.765-0.14H24.731Z" transform="translate(-0.688)"/>
</svg>
