<?xml version="1.0" encoding="utf-8"?>
<!-- Generator: Adobe Illustrator 20.1.0, SVG Export Plug-In . SVG Version: 6.00 Build 0)  -->
<svg version="1.1" id="Layer_1" xmlns="http://www.w3.org/2000/svg" xmlns:xlink="http://www.w3.org/1999/xlink" x="0px" y="0px"
	 width="500px" height="500px" viewBox="0 0 500 500" style="enable-background:new 0 0 500 500;" xml:space="preserve">
<style type="text/css">
	.st0{fill:#919191;}
</style>
<g>
	<path class="st0" d="M250,500C112.15,500,0,387.85,0,250S112.15,0,250,0s250,112.15,250,250S387.85,500,250,500z M4.95,250
		c0,135.12,109.93,245.05,245.05,245.05c135.12,0,245.05-109.93,245.05-245.05c0,135.12-109.93,245.05-245.05,245.05
		C114.88,495.05,4.95,385.12,4.95,250z M250,9.9C117.61,9.9,9.9,117.61,9.9,250S117.61,490.1,250,490.1S490.1,382.39,490.1,250
		S382.39,9.9,250,9.9z"/>
	<path class="st0" d="M106.26,309.16c-5.62-0.06-10.23,4.44-10.29,10.06c-0.06,5.62,4.44,10.23,10.06,10.29
		c5.54,0.12,10.13-4.25,10.29-9.79c0-0.09,0.01-0.18,0.01-0.27C116.39,313.83,111.88,309.22,106.26,309.16z"/>
	<g>
		<circle class="st0" cx="344" cy="200.41" r="39.6"/>
		<path class="st0" d="M392.52,210.21c0.35,0.01,0.66,0.1,0.99,0.1c15.07,0.02,28.84-8.54,35.5-22.05
			c9.66-19.58,1.61-43.29-17.97-52.95c-19.58-9.66-43.29-1.61-52.95,17.97C382.62,160.41,397.6,185.16,392.52,210.21z"/>
		<path class="st0" d="M135.82,260.15c-9.18-3-40.82-8.8-50.16-10.36c-7.99-1.34-18.88,10.04-18.88,16.13v73.97
			c0,4.92,8.86,16.9,19.46,21.14c8.66,3.45,30.6,6.21,39.74,7.79c6.75,1.16,20.12-8.74,20.12-15.02v-77.13
			C145.91,269.7,141.98,263.39,135.82,260.15z M126.27,288.58v52.39c0,6.28-4.07,8.65-9.9,6.28c-8.56-3.49-11.27-1.32-19.91-4.84
			c-5.97-2.43-9.86-4.78-9.86-9.7v-55.49c-0.32-1.58,0.01-3.22,0.91-4.55c1.86-2.77,5.61-3.51,8.38-1.65
			c9.06,1.47,11.87,0.45,20.73,4.05C122.26,277.22,126.07,282.55,126.27,288.58L126.27,288.58z"/>
		<path class="st0" d="M439.44,299.65c-10.67-30.97-76.14-16.02-88.26-9.19c-6.24,3.61-12.75,6.72-19.42,9.43
			c10.62-4.63,23.05-12.86,19.22-26.47c-2.95-10.45-19.11-14.86-27.62-16.18c-18.43-2.88-44.91-7.47-65.84-10.24
			c-44.13-4.89-38.92,0.53-74.52,24.12c-4.55,3.01-5.52,7.13-8.81,9.94c-1.79,1.52-10.89,6.69-10.89,12.57v51.97
			c0,11.73,24.17,20,29.15,20.04c23.26,0.17,14.01-3.33,29.86-2.52c21.75,1.11,29.2,7.43,50.87,9.41
			c40.48,3.67,141.05-30.88,161-48.41C440.65,318.42,441.55,306.58,439.44,299.65z M410.49,320.98
			c-18.67,9.8-103.53,36.5-138.27,33.96c-18.59-1.37-21.01-8.29-39.67-9.08c-13.58-0.56-9.9,3.76-33.78,3.04
			c-2.92-0.08-16.11-6.65-16.11-11.24v-39.03c0.01-4.08,8.13-7.67,9.66-8.73v0c2.82-1.95,1.86-4.84,5.78-6.93
			c30.56-16.34,20.16-24.47,61.75-17.33c18.5,3.17,45.1,4.69,60.82,7.19c8.73,1.39,18.99,12.63,10.7,20
			c-5.78,5.12-6.61,6.44-30.4,9.24c-13.08,0.89-33.92,1.12-39.28-0.8c3.64,3.91,11.84,14.46,44.32,15.95
			c26.97,0.95,99.38-26.24,113.61-12.53C421.96,307.4,423.18,314.32,410.49,320.98z"/>
	</g>
</g>
</svg>
