<svg xmlns="http://www.w3.org/2000/svg" width="100" height="100" viewBox="0 0 100 100">
  <defs>
    <style>
      .cls-1 {
        fill: #949494;
        fill-rule: evenodd;
      }
    </style>
  </defs>
  <path id="tablet" class="cls-1" d="M50,100a50,50,0,1,1,50-50A50,50,0,0,1,50,100ZM50,1A49,49,0,1,0,99,50,49,49,0,0,0,50,1ZM63.508,82H38.49a9.511,9.511,0,0,1-9.458-8.873c-0.053-.678,0-1.046-0.033-1.7V31c0-.007.216-1.715,0.261-2.291A9.423,9.423,0,0,1,38.49,21H63.51A9.519,9.519,0,0,1,73,30.529V72.471A9.52,9.52,0,0,1,63.508,82ZM63,24H39c-3.3,0-5.134.963-6,4H69C68.134,24.963,66.3,24,63,24Zm7,7H32V71H70V31ZM32,74c1.766,3.111,3.325,5,7,5H64c3.731-.841,4.636-1.874,6-5H32Zm19.047,4a1.505,1.505,0,1,1,1.5-1.505A1.5,1.5,0,0,1,51.047,78Z"/>
</svg>
