<?xml version="1.0" encoding="utf-8"?>
<!-- Generator: Adobe Illustrator 20.1.0, SVG Export Plug-In . SVG Version: 6.00 Build 0)  -->
<svg version="1.1" id="Layer_1" xmlns="http://www.w3.org/2000/svg" xmlns:xlink="http://www.w3.org/1999/xlink" x="0px" y="0px"
	 width="500px" height="500px" viewBox="0 0 500 500" style="enable-background:new 0 0 500 500;" xml:space="preserve">
<style type="text/css">
	.st0{fill:#919191;}
</style>
<g>
	<path class="st0" d="M250,0C112.15,0,0,112.15,0,250s112.15,250,250,250s250-112.15,250-250S387.85,0,250,0z M250,9.9
		c132.39,0,240.1,107.71,240.1,240.1S382.39,490.1,250,490.1S9.9,382.39,9.9,250S117.61,9.9,250,9.9z"/>
	<path class="st0" d="M137.23,354.93c3.69,3.68,9.67,3.68,13.36-0.02l56.84-56.83c0.77-0.77,1.41-1.67,1.87-2.66
		c2.22-4.72,0.2-10.35-4.53-12.58l-52.14-17.58l147.93-54.57l-54.57,142.98l-17.57-47.19c-0.47-0.99-1.1-1.9-1.88-2.67
		c-3.69-3.68-9.67-3.68-13.36,0.02l-56.71,56.7c-0.23,0.23-0.44,0.47-0.65,0.72c-3.3,4.05-2.68,10.01,1.37,13.3
		c26.93,21.89,60.57,33.85,95.28,33.88c35.42,0,69.72-12.45,96.89-35.17c63.97-53.5,72.45-148.73,18.95-212.69
		S219.56,88.11,155.6,141.61c-63.96,53.5-72.45,148.73-18.95,212.69C136.83,354.52,137.03,354.73,137.23,354.93z M252.45,120.39
		c72.83,0,137.03,64.21,137.03,137.04s-64.21,137.03-137.03,137.03c-26.76,0-57.93-13.18-79.86-28.27l44.44-44.44l21.54,50.64
		c1.07,2.26,2.98,4,5.33,4.85c4.91,1.78,10.33-0.76,12.11-5.67l59.34-163.56c0.77-2.1,0.76-4.4,0-6.49
		c-1.8-4.9-7.22-7.41-12.12-5.62l-163.56,59.31c-2.35,0.85-4.26,2.6-5.33,4.85c-2.23,4.73-0.21,10.37,4.52,12.6l50.64,21.54
		l-44.67,44.67c-15.83-22.25-29.4-54-29.4-81.47C115.42,184.59,179.62,120.39,252.45,120.39z"/>
</g>
</svg>
