<?xml version="1.0" encoding="utf-8"?>
<!-- Generator: Adobe Illustrator 20.1.0, SVG Export Plug-In . SVG Version: 6.00 Build 0)  -->
<svg version="1.1" id="Layer_1" xmlns="http://www.w3.org/2000/svg" xmlns:xlink="http://www.w3.org/1999/xlink" x="0px" y="0px"
	 width="100px" height="100px" viewBox="0 0 100 100" style="enable-background:new 0 0 100 100;" xml:space="preserve">
<style type="text/css">
	.st0{fill:#949494;stroke:#949494;stroke-miterlimit:10;}
	.st1{fill:#949494;}
</style>
<path id="tablet" class="st0" d="M50,100C22.39,100,0,77.61,0,50S22.39,0,50,0s50,22.39,50,50S77.61,100,50,100z M50,1
	C22.94,1,1,22.94,1,50s21.94,49,49,49s49-21.94,49-49S77.06,1,50,1z"/>
<g>
	<path class="st1" d="M62.51,19.5H37.49c-4.53,0.02-8.41,3.25-9.23,7.71C28.22,27.78,28,29.49,28,29.5v40.43
		c0.03,0.65-0.02,1.02,0.03,1.7c0.33,4.98,4.47,8.86,9.46,8.87h25.02c5.25-0.02,9.5-4.28,9.49-9.53V29.03
		C72.01,23.78,67.76,19.52,62.51,19.5z M38,22.5h24c3.3,0,5.13,0.96,6,4H32C32.87,23.46,34.7,22.5,38,22.5z M63,77.5H38
		c-3.67,0-5.23-1.89-7-5h38C67.64,75.63,66.73,76.66,63,77.5z M69,69.5H31v-40h38V69.5z"/>
	<path class="st1" d="M50.05,76.5C50.05,76.5,50.05,76.5,50.05,76.5c0.83,0,1.5-0.68,1.5-1.51c0,0,0,0,0-0.01
		c0-0.83-0.68-1.5-1.51-1.5s-1.5,0.68-1.5,1.51S49.22,76.5,50.05,76.5z"/>
</g>
</svg>
