<?xml version="1.0" encoding="utf-8"?>
<!-- Generator: Adobe Illustrator 20.1.0, SVG Export Plug-In . SVG Version: 6.00 Build 0)  -->
<svg version="1.1" id="Layer_1" xmlns="http://www.w3.org/2000/svg" xmlns:xlink="http://www.w3.org/1999/xlink" x="0px" y="0px"
	 width="100px" height="100px" viewBox="0 0 100 100" style="enable-background:new 0 0 100 100;" xml:space="preserve">
<style type="text/css">
	.st0{fill:#919191;}
</style>
<g>
	<path class="st0" d="M50-0.5C22.15-0.5-0.5,22.15-0.5,50s22.65,50.5,50.5,50.5s50.5-22.65,50.5-50.5S77.85-0.5,50-0.5z M50,98.5
		C23.26,98.5,1.5,76.74,1.5,50S23.26,1.5,50,1.5S98.5,23.26,98.5,50S76.74,98.5,50,98.5z"/>
	<path class="st0" d="M17,45c0,1,0.01,1,1,1h26c1,0,0.95-1.01,1-2c0.05-0.96,0-1-1-1H17C16.95,43.67,16.95,44.33,17,45z"/>
	<path class="st0" d="M9.95,39c0.02,0,0.03,0,0.05,0h27c1,0,1.2-1.02,1-2c-0.17-0.85,0-1-1-1H10c-1,0-1,1-1,2
		C8.99,38.54,9.41,38.99,9.95,39z"/>
	<path class="st0" d="M3,52c0,0,0.01-0.01,0.01-0.04C2.81,51.95,2.8,51.95,3,52z"/>
	<path class="st0" d="M38,50c0-1-1-1-2-1H3c-0.04,0.33,0.05,2.66,0.01,2.96C3.19,51.98,3.52,52,4,52h33C38,52,38,51,38,50z"/>
	<path class="st0" d="M91.96,54.28L91.96,54.28c0.04-0.35-0.03-0.7-0.19-1.01c-11.73-22.66-23.32-24.26-26.4-24.25
		C65.29,29.01,49.4,29,49.4,29c-0.01,0-0.02,0-0.03,0H23.56c-1,0-1.65,0.12-1.65,1.13S22,32,23,32h43c0.1,0,8.67,0.22,19,16H71
		c-1.89,0.12-3.58-1.15-4-3v-5c0-1,0-1-1-1s-1.83,0.34-2,1v5c0,2.8,1.09,6,6,6h17c0.6,1.04,1.39,2.84,2,4v8
		c0.11,0.99-0.6,1.89-1.6,2c-0.13,0.02-0.27,0.02-0.4,0l-3.32,0.11c-1.03-4.34-5.39-7.02-9.72-5.98c-2.93,0.7-5.22,2.96-5.96,5.88
		H46c-0.84-3.55-3.24-6.1-7.02-6.1c-3.74-0.04-7.04,2.48-7.98,6.1h-2c-1.28,0-3-0.71-3-2v-4h3c1,0,2,0,2-1s0-2-1-2H15
		c-0.84-0.03-1,0-1,1s0.01,2,1,2h8l0.03,3.66c0,3.29,1.7,5.34,4.97,5.34h3c0.81,3.58,4.2,7,8,7s7.19-3.42,8-7h21
		c0.81,3.58,4.09,7,7.9,7s7.29-3.42,8.1-7h3c3.27,0,5-1.94,5-5.23v-8.1C92,54.54,91.98,54.41,91.96,54.28z M38.98,71.37
		c-2.43,0-4.4-1.97-4.4-4.39c0-2.43,1.97-4.4,4.39-4.4c2.42,0,4.38,1.96,4.4,4.38C43.37,69.38,41.41,71.35,38.98,71.37z
		 M79.91,68.74c-0.7,1.59-2.27,2.63-4.01,2.63h0c-2.45,0.02-4.44-1.95-4.46-4.39s1.95-4.44,4.39-4.46c2.45-0.02,4.44,1.95,4.46,4.39
		C80.3,67.54,80.17,68.16,79.91,68.74z"/>
</g>
</svg>
