<?xml version="1.0" encoding="utf-8"?>
<!-- Generator: Adobe Illustrator 18.0.0, SVG Export Plug-In . SVG Version: 6.00 Build 0)  -->
<!DOCTYPE svg PUBLIC "-//W3C//DTD SVG 1.1//EN" "http://www.w3.org/Graphics/SVG/1.1/DTD/svg11.dtd">
<svg version="1.1" id="Layer_1" xmlns="http://www.w3.org/2000/svg" xmlns:xlink="http://www.w3.org/1999/xlink" x="0px" y="0px"
	 viewBox="0 0 47.5 51.1" enable-background="new 0 0 47.5 51.1" xml:space="preserve">
<g>
	<path fill="#010101" d="M32.1,0H19.4C16,0,11,0.8,7.3,4c-2.8,2.5-4.1,5.9-4.1,8.9c0,5.2,3.8,10.5,10.6,10.5c0.6,0,1.3-0.1,2.1-0.1
		c-0.3,0.8-0.6,1.5-0.6,2.6c0,2.1,1,3.3,1.9,4.5c-2.9,0.2-8.3,0.5-12.3,3.1C1.2,35.8,0,39.2,0,41.6c0,4.9,4.5,9.5,13.8,9.5
		c11,0,16.9-6.3,16.9-12.6c0-4.6-2.6-6.9-5.4-9.3L23,27.3c-0.7-0.6-1.7-1.4-1.7-2.9c0-1.5,1-2.4,1.8-3.3c2.7-2.2,5.4-4.5,5.4-9.5
		c0-5.1-3.1-7.7-4.6-9h4L32.1,0z M26.4,41.1c0,4.1-3.3,7.2-9.4,7.2c-6.9,0-11.3-3.4-11.3-8.1c0-4.7,4.1-6.3,5.5-6.9
		c2.7-0.9,6.2-1.1,6.7-1.1c0.6,0,1,0,1.5,0.1C24.2,35.9,26.4,37.7,26.4,41.1z M21.2,19.6c-1,1.1-2.8,1.9-4.4,1.9
		c-5.5,0-8-7.4-8-11.9c0-1.7,0.3-3.5,1.4-4.9c1-1.3,2.8-2.2,4.5-2.2c5.3,0,8.1,7.5,8.1,12.3C22.8,16,22.7,18.1,21.2,19.6z"/>
	<polygon fill="#010101" points="41.5,14.8 38.5,14.8 38.5,21.8 32.5,21.8 32.5,24.8 38.5,24.8 38.5,31.8 41.5,31.8 41.5,24.8 
		47.5,24.8 47.5,21.8 41.5,21.8 	"/>
</g>
<g>
</g>
<g>
</g>
<g>
</g>
<g>
</g>
<g>
</g>
<g>
</g>
<g>
</g>
<g>
</g>
<g>
</g>
<g>
</g>
<g>
</g>
<g>
</g>
<g>
</g>
<g>
</g>
<g>
</g>
</svg>
