<svg xmlns="http://www.w3.org/2000/svg" xmlns:xlink="http://www.w3.org/1999/xlink" preserveAspectRatio="xMidYMid" width="18" height="18" viewBox="0 0 18 18">
  <defs>
    <style>
      .cls-1 {
        fill: #f28b00;
        fill-rule: evenodd;
      }
    </style>
  </defs>
  <path d="M9.000,18.000 C4.029,18.000 -0.000,13.971 -0.000,9.000 C-0.000,4.029 4.029,-0.000 9.000,-0.000 C13.971,-0.000 18.000,4.029 18.000,9.000 C18.000,13.971 13.971,18.000 9.000,18.000 ZM9.000,2.000 C5.134,2.000 2.000,5.134 2.000,9.000 C2.000,12.866 5.134,16.000 9.000,16.000 C12.866,16.000 16.000,12.866 16.000,9.000 C16.000,5.134 12.866,2.000 9.000,2.000 ZM9.000,7.000 C8.172,7.000 7.500,6.328 7.500,5.500 C7.500,4.672 8.172,4.000 9.000,4.000 C9.828,4.000 10.500,4.672 10.500,5.500 C10.500,6.328 9.828,7.000 9.000,7.000 ZM9.997,13.987 L8.003,13.987 L8.003,8.004 L9.997,8.004 L9.997,13.987 Z" class="cls-1"/>
</svg>
