<?xml version="1.0" encoding="utf-8"?>
<!-- Generator: Adobe Illustrator 18.0.0, SVG Export Plug-In . SVG Version: 6.00 Build 0)  -->
<!DOCTYPE svg PUBLIC "-//W3C//DTD SVG 1.1//EN" "http://www.w3.org/Graphics/SVG/1.1/DTD/svg11.dtd">
<svg version="1.1" id="Layer_1" xmlns="http://www.w3.org/2000/svg" xmlns:xlink="http://www.w3.org/1999/xlink" x="0px" y="0px"
	 viewBox="0 0 51 51" enable-background="new 0 0 51 51" xml:space="preserve">
<g>
	<path fill="#010101" d="M45,0H7C5.2,0,3.7,0.8,2.4,2.1C1.1,3.4,0,5.2,0,7v38c0,1.8,0.7,3.7,2,5s3.1,1,5,1h38c1.8,0,3.4-0.4,4.7-1.6
		C51,48.1,51,46.8,51,45V7c0-1.8,0-3.6-1.3-4.9C48.4,0.8,46.8,0,45,0z M34.8,8.6c0-1.7,1.3-3,3-3H42c1.7,0,3,1.3,3,3v4.6
		c0,1.7-1.3,3-3,3h-2.6h-1.6c-1.7,0-3-1.3-3-3v-1.9V8.6z M35.9,24.8c0,5.7-4.6,10.4-10.4,10.4c-5.7,0-10.4-4.6-10.4-10.4
		c0-0.6,0.1-1.2,0.2-1.8c0.9-4.9,5.1-8.5,10.2-8.5c5.1,0,9.3,3.7,10.2,8.5C35.8,23.6,35.9,24.2,35.9,24.8z M6.1,45V23h3.2
		c-0.1,0.6-0.1,1.2-0.1,1.8c0,9,7.3,16.4,16.4,16.4c9,0,16.4-7.3,16.4-16.4c0-0.6,0-1.2-0.1-1.8H45v19v3H10C9.4,45,6.6,45,6.1,45z"
		/>
</g>
<g>
</g>
<g>
</g>
<g>
</g>
<g>
</g>
<g>
</g>
<g>
</g>
<g>
</g>
<g>
</g>
<g>
</g>
<g>
</g>
<g>
</g>
<g>
</g>
<g>
</g>
<g>
</g>
<g>
</g>
</svg>
