<svg xmlns="http://www.w3.org/2000/svg" xmlns:xlink="http://www.w3.org/1999/xlink" preserveAspectRatio="xMidYMid" width="22" height="32" viewBox="0 0 22 32">
  <defs>
    <style>

      .cls-2 {
        fill: #919191;
      }
    </style>
  </defs>
  <path d="M20.000,32.000 C20.000,32.000 2.000,32.000 2.000,32.000 C1.321,32.000 -0.000,30.670 -0.000,30.000 C-0.000,30.000 -0.000,2.000 -0.000,2.000 C-0.000,1.330 1.321,0.000 2.000,0.000 C2.000,0.000 20.000,0.000 20.000,0.000 C20.679,0.000 22.000,1.330 22.000,2.000 C22.000,2.000 22.000,30.000 22.000,30.000 C22.000,30.670 20.679,32.000 20.000,32.000 ZM10.987,31.439 C11.492,31.439 11.902,31.035 11.902,30.536 C11.902,30.037 11.492,29.633 10.987,29.633 C10.481,29.633 10.072,30.037 10.072,30.536 C10.072,31.035 10.481,31.439 10.987,31.439 ZM11.006,1.187 C10.837,1.187 10.700,1.322 10.700,1.488 C10.700,1.655 10.837,1.790 11.006,1.790 C11.175,1.790 11.312,1.655 11.312,1.488 C11.312,1.322 11.175,1.187 11.006,1.187 ZM20.000,4.000 C20.000,3.448 19.552,3.000 19.000,3.000 C19.000,3.000 3.000,3.000 3.000,3.000 C2.448,3.000 2.000,3.448 2.000,4.000 C2.000,4.000 2.000,28.000 2.000,28.000 C2.000,28.552 2.448,29.000 3.000,29.000 C3.000,29.000 19.000,29.000 19.000,29.000 C19.552,29.000 20.000,28.552 20.000,28.000 C20.000,28.000 20.000,4.000 20.000,4.000 Z" id="path-1" class="cls-2" fill-rule="evenodd"/>
</svg>
