<svg xmlns="http://www.w3.org/2000/svg" xmlns:xlink="http://www.w3.org/1999/xlink" preserveAspectRatio="xMidYMid" width="14" height="22" viewBox="0 0 14 22">
  <defs>
    <style>

      .cls-2 {
        fill: #919191;
      }
    </style>
  </defs>
  <path d="M12.000,22.000 C12.000,22.000 2.000,22.000 2.000,22.000 C0.895,22.000 -0.000,21.105 -0.000,20.000 C-0.000,20.000 -0.000,2.000 -0.000,2.000 C-0.000,0.895 0.895,-0.000 2.000,-0.000 C2.000,-0.000 12.000,-0.000 12.000,-0.000 C13.105,-0.000 14.000,0.895 14.000,2.000 C14.000,2.000 14.000,20.000 14.000,20.000 C14.000,21.105 13.105,22.000 12.000,22.000 ZM7.000,21.000 C7.552,21.000 8.000,20.552 8.000,20.000 C8.000,19.448 7.552,19.000 7.000,19.000 C6.448,19.000 6.000,19.448 6.000,20.000 C6.000,20.552 6.448,21.000 7.000,21.000 ZM9.000,2.000 C9.000,2.000 5.000,2.000 5.000,2.000 C5.000,2.000 5.000,3.000 5.000,3.000 C5.000,3.000 9.000,3.000 9.000,3.000 C9.000,3.000 9.000,2.000 9.000,2.000 ZM12.000,5.000 C12.000,4.448 11.552,4.000 11.000,4.000 C11.000,4.000 3.000,4.000 3.000,4.000 C2.448,4.000 2.000,4.448 2.000,5.000 C2.000,5.000 2.000,17.000 2.000,17.000 C2.000,17.552 2.448,18.000 3.000,18.000 C3.000,18.000 11.000,18.000 11.000,18.000 C11.552,18.000 12.000,17.552 12.000,17.000 C12.000,17.000 12.000,5.000 12.000,5.000 Z" id="path-1" class="cls-2" fill-rule="evenodd"/>
</svg>
