<svg xmlns="http://www.w3.org/2000/svg" xmlns:xlink="http://www.w3.org/1999/xlink" preserveAspectRatio="xMidYMid" width="20" height="20" viewBox="0 0 20 20">
  <defs>
    <style>
      .cls-1 {
        fill: #919191;
        fill-rule: evenodd;
      }
    </style>
  </defs>
  <g>
    <path d="M9.000,18.000 C4.029,18.000 -0.000,13.971 -0.000,9.000 C-0.000,4.029 4.029,-0.000 9.000,-0.000 C13.971,-0.000 18.000,4.029 18.000,9.000 C18.000,13.971 13.971,18.000 9.000,18.000 ZM9.000,2.781 C5.565,2.781 2.781,5.565 2.781,9.000 C2.781,12.435 5.565,15.219 9.000,15.219 C12.435,15.219 15.219,12.435 15.219,9.000 C15.219,5.565 12.435,2.781 9.000,2.781 Z" class="cls-1"/>
    <path d="M19.368,19.383 C18.585,20.169 17.372,20.226 16.660,19.511 L12.301,15.137 C13.507,14.486 14.490,13.503 15.140,12.296 L19.495,16.666 C20.208,17.381 20.151,18.597 19.368,19.383 Z" class="cls-1"/>
  </g>
</svg>
