<svg xmlns="http://www.w3.org/2000/svg" xmlns:xlink="http://www.w3.org/1999/xlink" preserveAspectRatio="xMidYMid" width="64" height="64" viewBox="0 0 64 64">
  <defs>
    <style>

      .cls-3 {
        fill: #f28b00;
      }

      .cls-4 {
        fill: #fd8624;
      }
    </style>
  </defs>
  <g id="no_result_iconsvg">
    <path d="M62.305,62.305 C60.039,64.571 56.364,64.571 54.098,62.305 C54.098,62.305 44.118,52.325 44.118,52.325 C39.631,55.273 34.270,57.000 28.500,57.000 C12.760,57.000 -0.000,44.240 -0.000,28.500 C-0.000,12.760 12.760,0.000 28.500,0.000 C44.240,0.000 57.000,12.760 57.000,28.500 C57.000,34.270 55.273,39.631 52.325,44.118 C52.325,44.118 62.305,54.098 62.305,54.098 C64.571,56.364 64.571,60.039 62.305,62.305 ZM28.500,9.000 C17.730,9.000 9.000,17.730 9.000,28.500 C9.000,39.270 17.730,48.000 28.500,48.000 C39.270,48.000 48.000,39.270 48.000,28.500 C48.000,17.730 39.270,9.000 28.500,9.000 Z" id="path-1" class="cls-3" fill-rule="evenodd"/>
    <path d="M28.500,33.000 C30.433,33.000 32.000,34.567 32.000,36.500 C32.000,38.433 30.433,38.000 28.500,38.000 C26.567,38.000 25.000,38.433 25.000,36.500 C25.000,34.567 26.567,33.000 28.500,33.000 Z" id="path-2" class="cls-4" fill-rule="evenodd"/>
    <path d="M35.358,25.000 C35.358,25.000 36.715,26.358 36.715,26.358 C37.090,26.733 37.090,27.340 36.715,27.715 C36.340,28.090 35.733,28.090 35.358,27.715 C35.358,27.715 34.000,26.358 34.000,26.358 C34.000,26.358 32.642,27.715 32.642,27.715 C32.267,28.090 31.660,28.090 31.285,27.715 C30.910,27.340 30.910,26.733 31.285,26.358 C31.285,26.358 32.642,25.000 32.642,25.000 C32.642,25.000 31.285,23.642 31.285,23.642 C30.910,23.267 30.910,22.660 31.285,22.285 C31.660,21.910 32.267,21.910 32.642,22.285 C32.642,22.285 34.000,23.642 34.000,23.642 C34.000,23.642 35.358,22.285 35.358,22.285 C35.733,21.910 36.340,21.910 36.715,22.285 C37.090,22.660 37.090,23.267 36.715,23.642 C36.715,23.642 35.358,25.000 35.358,25.000 ZM25.715,27.715 C25.340,28.090 24.733,28.090 24.358,27.715 C24.358,27.715 23.000,26.358 23.000,26.358 C23.000,26.358 21.642,27.715 21.642,27.715 C21.267,28.090 20.660,28.090 20.285,27.715 C19.910,27.340 19.910,26.733 20.285,26.358 C20.285,26.358 21.642,25.000 21.642,25.000 C21.642,25.000 20.285,23.642 20.285,23.642 C19.910,23.267 19.910,22.660 20.285,22.285 C20.660,21.910 21.267,21.910 21.642,22.285 C21.642,22.285 23.000,23.642 23.000,23.642 C23.000,23.642 24.358,22.285 24.358,22.285 C24.733,21.910 25.340,21.910 25.715,22.285 C26.090,22.660 26.090,23.267 25.715,23.642 C25.715,23.642 24.358,25.000 24.358,25.000 C24.358,25.000 25.715,26.358 25.715,26.358 C26.090,26.733 26.090,27.340 25.715,27.715 Z" id="path-3" class="cls-4" fill-rule="evenodd"/>
  </g>
</svg>
