<svg xmlns="http://www.w3.org/2000/svg" xmlns:xlink="http://www.w3.org/1999/xlink" preserveAspectRatio="xMidYMid" width="22" height="22" viewBox="0 0 22 22">
  <defs>
    <style>
      .cls-1 {
        fill: #fff;
        fill-rule: evenodd;
      }
    </style>
  </defs>
  <path d="M10.998,22.008 C8.474,22.008 -0.010,20.000 -0.010,11.000 C-0.010,4.930 4.929,-0.008 10.998,-0.008 C17.068,-0.008 22.006,4.930 22.006,11.000 C22.006,17.070 17.068,22.008 10.998,22.008 M4.483,15.193 C5.710,13.966 8.033,11.433 8.033,11.433 L4.414,10.680 C4.156,10.569 3.997,10.300 4.010,10.042 C4.023,9.783 4.206,9.411 4.474,9.322 L14.043,7.047 C14.294,6.956 14.576,7.019 14.766,7.207 C14.955,7.397 15.018,7.679 14.926,7.930 L13.480,17.533 C13.378,17.800 12.913,17.982 12.613,17.995 C12.313,18.009 11.967,17.849 11.839,17.593 L10.385,14.315 C10.385,14.315 8.126,16.779 7.033,18.032 C6.754,18.351 8.625,20.000 11.000,20.000 C15.997,20.000 20.000,15.965 20.000,11.000 C20.000,6.004 15.997,2.000 11.000,2.000 C6.035,2.000 2.000,6.004 2.000,11.000 C2.000,14.440 4.136,15.541 4.483,15.193 Z" class="cls-1"/>
</svg>
