<?xml version="1.0" encoding="utf-8"?>
<!-- Generator: Adobe Illustrator 18.0.0, SVG Export Plug-In . SVG Version: 6.00 Build 0)  -->
<!DOCTYPE svg PUBLIC "-//W3C//DTD SVG 1.1//EN" "http://www.w3.org/Graphics/SVG/1.1/DTD/svg11.dtd">
<svg version="1.1" id="Layer_1" xmlns="http://www.w3.org/2000/svg" xmlns:xlink="http://www.w3.org/1999/xlink" x="0px" y="0px"
	 viewBox="0 0 38.3 51.1" enable-background="new 0 0 38.3 51.1" xml:space="preserve">
<path fill="#010101" d="M20.3,0C6.8,0,0,10,0,18.3c0,5,1.9,9.5,5.8,11.2c0.7,0.3,1.2,0,1.4-0.7c0.1-0.5,0.4-1.8,0.6-2.4
	c0.2-0.7,0.1-1-0.4-1.6c-1.1-1.4-1.9-3.2-1.9-5.8c0-7.4,5.4-14.1,14-14.1c7.6,0,11.8,4.8,11.8,11.3c0,8.5-3.6,15.6-9,15.6
	c-3,0-5.2-2.5-4.5-5.7c0.9-3.7,2.5-7.7,2.5-10.4c0-2.4-1.2-4.4-3.8-4.4c-3,0-5.5,3.2-5.5,7.6c0,2.8,0.9,4.6,0.9,4.6
	s-3.1,13.6-3.7,16c-1.1,4.7-0.2,10.6-0.1,11.2c0,0.3,0.5,0.4,0.7,0.2c0.3-0.4,3.9-5,5.1-9.6c0.3-1.3,2-8.1,2-8.1
	c1,1.9,3.9,3.7,6.9,3.7c9.1,0,15.3-8.6,15.3-20.1C38.3,8.1,31.2,0,20.3,0z"/>
<g>
</g>
<g>
</g>
<g>
</g>
<g>
</g>
<g>
</g>
<g>
</g>
<g>
</g>
<g>
</g>
<g>
</g>
<g>
</g>
<g>
</g>
<g>
</g>
<g>
</g>
<g>
</g>
<g>
</g>
</svg>
