<svg xmlns="http://www.w3.org/2000/svg" width="24" height="25" viewBox="0 0 24 25">
  <defs>
    <style>
      .cls-1 {
        fill: #fff;
        fill-rule: evenodd;
      }
    </style>
  </defs>
  <path class="cls-1" d="M18,12a6,6,0,1,1,6-6A6,6,0,0,1,18,12ZM18,2a4,4,0,1,0,4,4A4,4,0,0,0,18,2ZM17,3h2V5h2V7H17V3Zm2.507,10.864L19,15a3.958,3.958,0,0,1-3,2H7a2.964,2.964,0,0,1-3-2S2.345,9.765,2,9C1.655,9-.022,9.012,0,8V6c0.031-.941,1.071-1,2-1H4.594A2.48,2.48,0,0,1,6.521,6.3L7.675,9.008l2.275,0A8.914,8.914,0,0,0,19.507,13.864ZM7.5,20A2.5,2.5,0,1,1,5,22.5,2.5,2.5,0,0,1,7.5,20Zm7,0A2.5,2.5,0,1,1,12,22.5,2.5,2.5,0,0,1,14.5,20Z"/>
</svg>
