<svg xmlns="http://www.w3.org/2000/svg" width="18" height="19.938" viewBox="0 0 18 19.938">
  <defs>
    <style>
      .cls-1 {
        fill: #bfbfbf;
        fill-rule: evenodd;
      }
    </style>
  </defs>
  <path id="bell_icon" data-name="bell icon" class="cls-1" d="M979,639c2.263,0.764,4.7,2.456,4.7,4.917,0,3.25.534,5.292,2.3,7.083,1.375,0.781,1.513,4-1,4h-5c0,2.61-4,2.536-4,0h-5c-2.3,0-2.594-2.969-1-4,1.708-1.824,2.335-3.834,2.335-7.083,0-2.461,2.4-4.153,4.665-4.917C976.813,636.519,979.063,636.125,979,639Zm-8,14a3.794,3.794,0,0,1,1-1.5c1.566-2.135,2-2.72,2-6.5a4,4,0,0,1,8,0c0,3.78.519,4.646,2.022,6.5A3.734,3.734,0,0,1,985,653H971Z" transform="translate(-969 -637)"/>
</svg>
