<svg xmlns="http://www.w3.org/2000/svg" xmlns:xlink="http://www.w3.org/1999/xlink" preserveAspectRatio="xMidYMid" width="18" height="18" viewBox="0 0 18 18">
  <defs>
    <style>

      .cls-3 {
        fill: #bfbfbf;
      }
    </style>
  </defs>
  <g id="group-1">
    <path d="M8.000,16.000 C3.582,16.000 -0.000,12.418 -0.000,8.000 C-0.000,3.582 3.582,-0.000 8.000,-0.000 C12.418,-0.000 16.000,3.582 16.000,8.000 C16.000,12.418 12.418,16.000 8.000,16.000 ZM8.000,3.000 C5.239,3.000 3.000,5.239 3.000,8.000 C3.000,10.761 5.239,13.000 8.000,13.000 C10.761,13.000 13.000,10.761 13.000,8.000 C13.000,5.239 10.761,3.000 8.000,3.000 Z" id="path-1" class="cls-3" fill-rule="evenodd"/>
    <path d="M17.377,17.377 C16.569,18.186 15.257,18.186 14.448,17.377 C14.448,17.377 10.507,13.436 10.507,13.436 C11.799,12.838 12.838,11.799 13.436,10.507 C13.436,10.507 17.377,14.448 17.377,14.448 C18.186,15.257 18.186,16.569 17.377,17.377 Z" id="path-2" class="cls-3" fill-rule="evenodd"/>
  </g>
</svg>
