<svg xmlns="http://www.w3.org/2000/svg" xmlns:xlink="http://www.w3.org/1999/xlink" preserveAspectRatio="xMidYMid" width="19.969" height="21" viewBox="0 0 19.969 21">
  <defs>
    <style>
      .cls-1 {
        fill: #919191;
        fill-rule: evenodd;
      }
    </style>
  </defs>
  <path d="M19.605,17.547 C18.946,17.957 16.010,15.914 15.361,16.319 C14.688,16.738 14.874,20.497 14.223,20.903 C13.852,21.134 13.376,20.997 13.162,20.596 L9.984,14.650 L6.805,20.596 C6.591,20.997 6.116,21.134 5.744,20.903 C5.093,20.497 5.279,16.738 4.607,16.319 C3.958,15.914 1.021,17.957 0.362,17.547 C-0.010,17.315 -0.137,16.802 0.079,16.401 L4.350,8.408 C4.564,8.007 5.040,7.870 5.412,8.101 C5.412,8.101 9.888,12.429 14.556,8.101 C14.927,7.870 15.403,8.007 15.617,8.408 L19.889,16.401 C20.104,16.802 19.977,17.315 19.605,17.547 ZM8.577,12.071 L5.887,10.394 C5.608,10.220 4.973,10.423 4.825,10.701 C2.723,14.207 2.349,14.968 2.495,15.060 C2.989,15.368 5.191,13.835 5.678,14.139 C6.182,14.453 6.043,17.272 6.531,17.577 C6.687,17.674 8.455,14.124 8.862,13.218 C9.174,12.498 8.625,12.101 8.577,12.071 ZM15.048,10.701 C14.900,10.423 14.265,10.220 13.987,10.394 L11.296,12.071 C11.018,12.245 10.864,12.940 11.012,13.218 C11.794,14.937 13.187,17.674 13.342,17.577 C13.831,17.272 13.691,14.453 14.195,14.139 C14.683,13.835 16.885,15.368 17.378,15.060 C17.525,14.968 16.798,13.665 15.048,10.701 ZM19.605,17.547 C19.801,17.425 19.605,17.547 19.605,17.547 ZM0.362,17.547 C0.362,17.547 0.167,17.425 0.362,17.547 ZM9.984,8.000 C7.772,8.000 5.978,6.208 5.978,3.999 C5.978,1.789 7.772,-0.003 9.984,-0.003 C12.196,-0.003 13.989,1.789 13.989,3.999 C13.989,6.208 12.196,8.000 9.984,8.000 Z" class="cls-1"/>
</svg>
