<svg xmlns="http://www.w3.org/2000/svg" xmlns:xlink="http://www.w3.org/1999/xlink" preserveAspectRatio="xMidYMid" width="32" height="30" viewBox="0 0 32 30">
  <defs>
    <style>

      .cls-2 {
        fill: #ffffff;
      }
    </style>
  </defs>
  <path d="M31.998,15.000 C31.998,15.321 31.845,15.624 31.584,15.817 C31.584,15.817 27.000,18.000 27.000,18.000 C27.000,18.000 29.000,22.000 29.000,22.000 C29.095,22.307 29.135,22.981 28.942,23.240 C28.750,23.500 28.327,23.994 28.000,24.000 C28.000,24.000 23.000,24.000 23.000,24.000 C23.000,24.000 21.608,29.312 21.608,29.312 C21.501,29.616 21.256,29.853 20.945,29.952 C20.839,29.986 20.731,30.002 20.623,30.002 C20.411,30.002 20.202,29.939 20.025,29.817 C20.025,29.817 16.000,27.000 16.000,27.000 C16.000,27.000 11.975,29.817 11.975,29.817 C11.707,30.001 11.367,30.052 11.056,29.952 C10.745,29.853 10.499,29.616 10.392,29.312 C10.392,29.312 9.000,24.000 9.000,24.000 C9.000,24.000 4.000,24.000 4.000,24.000 C3.673,23.994 3.250,23.500 3.058,23.240 C2.866,22.981 2.905,22.307 3.000,22.000 C3.000,22.000 5.000,18.000 5.000,18.000 C5.000,18.000 0.416,15.817 0.416,15.817 C0.156,15.624 -0.000,15.321 -0.000,15.000 C-0.000,14.679 0.156,14.377 0.416,14.183 C0.416,14.183 5.000,12.000 5.000,12.000 C5.000,12.000 2.904,7.660 2.904,7.660 C2.808,7.353 2.866,7.020 3.058,6.760 C3.250,6.500 3.673,6.006 4.000,6.000 C4.000,6.000 9.000,6.000 9.000,6.000 C9.000,6.000 10.392,0.689 10.392,0.689 C10.499,0.385 10.744,0.148 11.056,0.049 C11.367,-0.051 11.707,-0.001 11.975,0.184 C11.975,0.184 16.000,3.000 16.000,3.000 C16.000,3.000 20.025,0.184 20.025,0.184 C20.293,-0.001 20.634,-0.051 20.944,0.049 C21.255,0.148 21.501,0.385 21.608,0.689 C21.608,0.689 23.000,6.000 23.000,6.000 C23.000,6.000 28.000,6.000 28.000,6.000 C28.327,6.006 28.750,6.501 28.942,6.760 C29.135,7.020 29.192,7.353 29.096,7.660 C29.096,7.660 27.000,12.000 27.000,12.000 C27.000,12.000 31.584,14.183 31.584,14.183 C31.845,14.377 31.998,14.679 31.998,15.000 ZM21.000,16.000 C21.000,16.000 19.000,16.000 19.000,16.000 C19.000,16.000 19.000,10.000 19.000,10.000 C19.000,9.356 18.280,9.000 17.667,9.000 C17.667,9.000 14.333,9.000 14.333,9.000 C13.720,9.000 13.000,9.356 13.000,10.000 C13.000,10.000 13.000,16.000 13.000,16.000 C13.000,16.000 11.000,16.000 11.000,16.000 C10.561,16.453 10.797,17.110 11.236,17.563 C11.236,17.563 15.206,21.665 15.206,21.665 C15.645,22.118 16.356,22.118 16.794,21.665 C16.794,21.665 20.765,17.563 20.765,17.563 C21.203,17.110 21.439,16.453 21.000,16.000 Z" id="path-1" class="cls-2" fill-rule="evenodd"/>
</svg>
