<svg xmlns="http://www.w3.org/2000/svg" xmlns:xlink="http://www.w3.org/1999/xlink" preserveAspectRatio="xMidYMid" width="6" height="10" viewBox="0 0 6 10">
  <defs>
    <style>
      .cls-1 {
        fill: #484848;
        fill-rule: evenodd;
      }
    </style>
  </defs>
  <path d="M5.346,4.006 L0.625,4.006 C0.384,4.006 0.163,3.896 0.050,3.719 C-0.063,3.543 -0.049,3.329 0.085,3.162 L2.445,0.245 C2.566,0.095 2.769,0.005 2.986,0.005 C3.202,0.005 3.405,0.095 3.526,0.245 L5.886,3.162 C5.960,3.253 5.997,3.359 5.997,3.464 C5.997,3.552 5.972,3.639 5.921,3.719 C5.808,3.896 5.587,4.006 5.346,4.006 ZM0.625,5.994 L5.346,5.994 C5.587,5.994 5.808,6.104 5.921,6.281 C5.972,6.361 5.997,6.448 5.997,6.535 C5.997,6.641 5.960,6.747 5.886,6.838 L3.526,9.755 C3.405,9.904 3.202,9.995 2.986,9.995 C2.769,9.995 2.566,9.904 2.445,9.755 L0.085,6.838 C-0.049,6.671 -0.063,6.458 0.050,6.281 C0.163,6.104 0.384,5.994 0.625,5.994 Z" class="cls-1"/>
</svg>
