<svg xmlns="http://www.w3.org/2000/svg" xmlns:xlink="http://www.w3.org/1999/xlink" preserveAspectRatio="xMidYMid" width="20" height="20" viewBox="0 0 20 20">
  <defs>
    <style>

      .cls-2 {
        fill: #919191;
      }
    </style>
  </defs>
  <path d="M20.000,16.333 C20.000,18.123 18.406,20.000 16.667,20.000 C16.667,20.000 3.333,20.000 3.333,20.000 C1.594,20.000 -0.000,18.123 -0.000,16.333 C-0.000,12.390 2.594,10.285 6.038,9.445 C4.774,8.918 3.987,7.935 4.000,6.111 C4.024,2.786 6.692,0.010 10.003,0.010 C13.315,0.010 16.000,2.786 16.000,6.111 C16.000,7.936 15.173,8.905 13.896,9.427 C17.373,10.256 20.000,12.364 20.000,16.333 ZM14.000,5.500 C14.000,3.567 12.209,2.000 10.000,2.000 C7.791,2.000 6.000,3.567 6.000,5.500 C6.000,7.433 7.791,9.000 10.000,9.000 C12.209,9.000 14.000,7.433 14.000,5.500 ZM10.000,11.000 C5.830,11.000 2.000,12.255 2.000,15.667 C2.000,16.805 3.275,18.000 4.667,18.000 C4.667,18.000 15.333,18.000 15.333,18.000 C16.725,18.000 18.000,16.805 18.000,15.667 C18.000,12.255 14.170,11.000 10.000,11.000 Z" id="path-1" class="cls-2" fill-rule="evenodd"/>
</svg>
