<svg xmlns="http://www.w3.org/2000/svg" width="21" height="25" viewBox="0 0 21 25">
  <defs>
    <style>
      .cls-1 {
        fill: #919191;
        fill-rule: evenodd;
      }
    </style>
  </defs>
  <path id="android" class="cls-1" d="M57.5,183a1.5,1.5,0,0,0-1.5,1.5v6a1.5,1.5,0,0,0,3,0v-6A1.5,1.5,0,0,0,57.5,183Zm-18,0a1.5,1.5,0,0,0-1.5,1.5v6a1.5,1.5,0,0,0,3,0v-6A1.5,1.5,0,0,0,39.5,183Zm2.5,9a1.847,1.847,0,0,0,2,2h1v3c0,0.825.675,2,1.5,2s1.5-1.175,1.5-2v-3h1v3c0,0.825.675,2,1.5,2s1.5-1.175,1.5-2v-3h1a1.847,1.847,0,0,0,2-2v-8H42v8Zm9.189-15.761,0.918-1.945a0.211,0.211,0,0,0-.077-0.27,0.174,0.174,0,0,0-.245.085l-0.932,1.975a5.975,5.975,0,0,0-4.707,0l-0.932-1.975a0.174,0.174,0,0,0-.245-0.085,0.211,0.211,0,0,0-.077.27l0.918,1.945A7.186,7.186,0,0,0,42.01,182H54.99A7.186,7.186,0,0,0,51.189,176.239ZM46,181.01a1,1,0,1,1,.99-1A1,1,0,0,1,46,181.01Zm4.993,0a1,1,0,1,1,.99-1A1,1,0,0,1,51,181.01Z" transform="translate(-38 -174)"/>
</svg>
