<svg xmlns="http://www.w3.org/2000/svg" xmlns:xlink="http://www.w3.org/1999/xlink" preserveAspectRatio="xMidYMid" width="17" height="14" viewBox="0 0 17 14">
  <defs>
    <style>

      .cls-3 {
        fill: #ffffff;
      }

      .cls-4 {
        fill: #f28b00;
      }
    </style>
  </defs>
  <g id="checkbox_ticksvg">
    <path d="M16.101,5.049 C17.264,3.886 17.264,2.000 16.101,0.837 C14.938,-0.326 13.052,-0.326 11.889,0.837 C11.889,0.837 6.037,6.688 6.037,6.688 C6.037,6.688 5.204,5.855 5.204,5.855 C4.011,4.663 2.078,4.663 0.886,5.855 C-0.306,7.047 -0.306,8.980 0.886,10.172 C0.886,10.172 3.764,13.051 3.764,13.051 C4.957,14.243 6.890,14.243 8.082,13.051 C8.249,12.884 16.101,5.049 16.101,5.049 Z" id="path-1" class="cls-3" fill-rule="evenodd"/>
    <path d="M7.333,12.519 C6.789,13.108 5.906,13.108 5.361,12.519 C5.361,12.519 2.400,9.322 2.400,9.322 C1.856,8.734 1.856,7.780 2.400,7.192 C2.945,6.604 3.828,6.604 4.372,7.192 C4.372,7.192 6.279,9.251 6.279,9.251 C6.279,9.251 12.618,2.404 12.618,2.404 C13.163,1.816 14.046,1.816 14.590,2.404 C15.135,2.992 15.135,3.946 14.590,4.533 C14.590,4.533 7.329,12.535 7.329,12.535 C7.314,12.550 7.336,12.516 7.333,12.519 Z" id="path-2" class="cls-4" fill-rule="evenodd"/>
  </g>
</svg>
