<svg xmlns="http://www.w3.org/2000/svg" width="20" height="20" viewBox="0 0 20 20">
  <defs>
    <style>
      .cls-1 {
        fill: #bfbfbf;
        fill-rule: evenodd;
      }
    </style>
  </defs>
  <path id="compare" class="cls-1" d="M846,652l7.141-.008-3.852,3.289c-0.875.818,0.57,2.278,1.478,1.489l5.911-4.95a1.347,1.347,0,0,0,.033-1.673l-5.911-4.855a1.052,1.052,0,0,0-1.478,1.489l3.891,3.227L846,650A1,1,0,0,0,846,652Zm18-8h-7.141l3.852,3.2c0.875,0.813-.57,2.261-1.478,1.478l-5.911-4.911a1.192,1.192,0,0,1-.033-1.567l5.911-4.911a1.049,1.049,0,0,1,1.478,1.478L856.787,642H864A1,1,0,0,1,864,644Z" transform="translate(-845 -637)"/>
</svg>
