<svg xmlns="http://www.w3.org/2000/svg" width="100" height="100" viewBox="0 0 100 100">
  <defs>
    <style>
      .cls-1 {
        fill: #919191;
        fill-rule: evenodd;
      }
    </style>
  </defs>
  <path class="cls-1" d="M50,0A50,50,0,1,1,0,50,50,50,0,0,1,50,0Zm0,1A49,49,0,1,1,1,50,49,49,0,0,1,50,1Z"/>
  <path id="truck" class="cls-1" d="M91.957,54.286a1.8,1.8,0,0,0-.193-1.011c-11.73-22.658-23.325-24.26-26.4-24.254C65.295,29.011,49.4,29,49.4,29a0.126,0.126,0,0,1-.031,0H23.559c-1,0-1.646.125-1.646,1.128S22,32,23,32H66c0.1,0,8.666.22,19,16H71a3.857,3.857,0,0,1-4-3V40c0-1,0-1-1-1s-1.829.339-2,1v5c0,2.8,1.088,6,6,6H87c0.6,1.038,1.394,2.843,2,4h0v8a1.809,1.809,0,0,1-2,2l-3.319.106A8.073,8.073,0,0,0,68,65H46c-0.835-3.549-3.239-6.1-7.02-6.1A8.159,8.159,0,0,0,31,65H29c-1.281,0-3-.712-3-2V59h3c1,0,2,0,2-1s0-2-1-2H15c-0.837-.025-1,0-1,1s0.007,2,1,2h8l0.025,3.659c0,3.29,1.7,5.341,4.975,5.341h3c0.812,3.582,4.2,7,8,7s7.19-3.418,8-7H68c0.808,3.582,4.09,7,7.9,7s7.294-3.42,8.1-7h3c3.273,0,5-1.939,5-5.23v-8.1a1.849,1.849,0,0,0-.043-0.386M38.98,71.371a4.395,4.395,0,1,1,4.394-4.415,4.424,4.424,0,0,1-4.394,4.415m36.916,0a4.429,4.429,0,1,1,4.014-2.633A4.391,4.391,0,0,1,75.9,71.371M10,39H37c1,0,1.2-1.016,1-2-0.173-.854,0-1-1-1H10c-1,0-1,1-1,2A0.976,0.976,0,0,0,10,39ZM38,50c0-1-1-1-2-1H3c-0.044.352,0.068,3.018,0,3-0.384-.1,0,0,1,0H37c1,0,1-1,1-2M17,45c0,1,.007,1,1,1H44c1,0,.947-1.007,1-2,0.051-.958,0-1-1-1H17A13.122,13.122,0,0,0,17,45Z"/>
</svg>
