<svg xmlns="http://www.w3.org/2000/svg" width="100" height="100" viewBox="0 0 100 100">
  <defs>
    <style>
      .cls-1 {
        fill: #919191;
        fill-rule: evenodd;
      }
    </style>
  </defs>
  <path class="cls-1" d="M50,0A50,50,0,1,1,0,50,50,50,0,0,1,50,0Zm0,1A49,49,0,1,1,1,50,49,49,0,0,1,50,1Z"/>
  <path class="cls-1" d="M33.237,55.215c0.663-.568.859-1.4,1.779-2.008,7.192-4.765,6.139-5.861,15.053-4.873,4.228,0.56,9.578,1.487,13.3,2.068,1.718,0.266,4.984,1.157,5.579,3.268,1.139,4.047-4.842,5.744-6.289,6.223a31.375,31.375,0,0,0,6.329-2.78c2.448-1.38,15.673-4.4,17.829,1.856,0.426,1.4.244,3.793-1.063,4.944-4.029,3.542-24.344,10.52-32.521,9.779-4.376-.4-5.881-1.675-10.275-1.9-3.2-.163-1.333.543-6.031,0.509-1.007-.008-5.889-1.679-5.889-4.049V57.755C31.037,56.566,32.875,55.522,33.237,55.215Zm3.687,1.439c0.569-.393.376-0.978,1.167-1.4,6.173-3.3,4.073-4.942,12.474-3.5,3.737,0.641,9.11.947,12.286,1.452,1.763,0.28,3.837,2.552,2.162,4.04-1.167,1.034-1.335,1.3-6.141,1.866-2.642.179-6.852,0.227-7.935-.161,0.735,0.789,2.392,2.92,8.953,3.221,5.447,0.191,20.075-5.3,22.949-2.531,0.472,0.548.719,1.946-1.844,3.291-3.771,1.979-20.914,7.373-27.931,6.859-3.755-.276-4.243-1.675-8.013-1.835-2.744-.113-2,0.759-6.824.615-0.59-.017-3.255-1.344-3.255-2.271V58.416C34.974,57.592,36.614,56.867,36.924,56.653ZM24.958,74c-1.846-.319-6.277-0.877-8.027-1.573C14.79,71.571,13,69.151,13,68.157V53.216c0-1.229,2.2-3.528,3.813-3.258,1.888,0.315,8.279,1.485,10.133,2.092a3.883,3.883,0,0,1,2.076,3.336V70.966C29.023,72.234,26.321,74.234,24.958,74ZM25.02,57.794a3.033,3.033,0,0,0-1.952-2.729c-1.79-.727-2.357-0.522-4.187-0.818A1.22,1.22,0,0,0,17.005,55.5V66.709c0,0.993.787,1.469,1.992,1.959,1.744,0.71,2.292.273,4.021,0.977,1.177,0.478,2,0,2-1.269V57.794Zm-4.091,8.268a2.056,2.056,0,1,1,2.078-1.977A2.036,2.036,0,0,1,20.929,66.062ZM79,41.982c-0.067,0-.129-0.018-0.2-0.02a9.923,9.923,0,0,0-6.955-11.5A7.987,7.987,0,1,1,79,41.982Zm-2-2a8,8,0,1,1-8-8A8,8,0,0,1,77,39.982Z"/>
</svg>
