<svg xmlns="http://www.w3.org/2000/svg" width="100" height="100" viewBox="0 0 100 100">
  <defs>
    <style>
      .cls-1 {
        fill: #919191;
        fill-rule: evenodd;
      }
    </style>
  </defs>
  <path class="cls-1" d="M50,0A50,50,0,1,1,0,50,50,50,0,0,1,50,0Zm0,1A49,49,0,1,1,1,50,49,49,0,0,1,50,1Z"/>
  <path id="cursor" class="cls-1" d="M50.495,82a30.554,30.554,0,0,1-19.246-6.844,1.91,1.91,0,0,1-.145-2.832L42.56,60.871a1.908,1.908,0,0,1,3.078.537l3.55,9.533L60.212,42.06,30.331,53.084l10.533,3.551a1.909,1.909,0,0,1,.536,3.078L29.919,71.193a1.908,1.908,0,0,1-2.816-.125A30.5,30.5,0,1,1,50.495,82M34.363,73.471c4.43,3.048,10.727,5.71,16.132,5.71,14.711,0,27.681-12.97,27.681-27.681S65.206,23.818,50.495,23.818,22.814,36.788,22.814,51.5c0,5.549,2.741,11.963,5.939,16.457l9.024-9.024L27.548,54.582a1.912,1.912,0,0,1,.164-3.526L60.751,39.075A1.908,1.908,0,0,1,63.2,41.521L51.213,74.56a1.91,1.91,0,0,1-3.523.164L43.339,64.495Z"/>
</svg>
