<svg xmlns="http://www.w3.org/2000/svg" width="22" height="22" viewBox="0 0 22 22">
  <defs>
    <style>
      .cls-1 {
        fill: #919191;
        fill-rule: evenodd;
      }
    </style>
  </defs>
  <path class="cls-1" d="M7,22H3a3,3,0,0,1-3-3V15a3,3,0,0,1,3-3H7a3,3,0,0,1,3,3v4A3,3,0,0,1,7,22Zm1-7a1,1,0,0,0-1-1H3a1,1,0,0,0-1,1v4a1,1,0,0,0,1,1H7a1,1,0,0,0,1-1V15ZM7,10H3A3,3,0,0,1,0,7V3A3,3,0,0,1,3,0H7a3,3,0,0,1,3,3V7A3,3,0,0,1,7,10ZM8,3A1,1,0,0,0,7,2H3A1,1,0,0,0,2,3V7A1,1,0,0,0,3,8H7A1,1,0,0,0,8,7V3ZM19,22H15a3,3,0,0,1-3-3V15a3,3,0,0,1,3-3h4a3,3,0,0,1,3,3v4A3,3,0,0,1,19,22Zm1-7a1,1,0,0,0-1-1H15a1,1,0,0,0-1,1v4a1,1,0,0,0,1,1h4a1,1,0,0,0,1-1V15Zm-1-5H15a3,3,0,0,1-3-3V3a3,3,0,0,1,3-3h4a3,3,0,0,1,3,3V7A3,3,0,0,1,19,10Zm1-7a1,1,0,0,0-1-1H15a1,1,0,0,0-1,1V7a1,1,0,0,0,1,1h4a1,1,0,0,0,1-1V3Z"/>
</svg>
