<svg xmlns="http://www.w3.org/2000/svg" xmlns:xlink="http://www.w3.org/1999/xlink" preserveAspectRatio="xMidYMid" width="24" height="17" viewBox="0 0 24 17">
  <defs>
    <style>

      .cls-2 {
        fill: #919191;
      }
    </style>
  </defs>
  <path d="M22.500,10.000 C22.500,10.000 1.500,10.000 1.500,10.000 C0.672,10.000 -0.000,9.328 -0.000,8.500 C-0.000,7.672 0.672,7.000 1.500,7.000 C1.500,7.000 22.500,7.000 22.500,7.000 C23.328,7.000 24.000,7.672 24.000,8.500 C24.000,9.328 23.328,10.000 22.500,10.000 ZM22.500,3.000 C22.500,3.000 1.500,3.000 1.500,3.000 C0.672,3.000 -0.000,2.328 -0.000,1.500 C-0.000,0.672 0.672,-0.000 1.500,-0.000 C1.500,-0.000 22.500,-0.000 22.500,-0.000 C23.328,-0.000 24.000,0.672 24.000,1.500 C24.000,2.328 23.328,3.000 22.500,3.000 ZM1.500,14.000 C1.500,14.000 22.500,14.000 22.500,14.000 C23.328,14.000 24.000,14.672 24.000,15.500 C24.000,16.328 23.328,17.000 22.500,17.000 C22.500,17.000 1.500,17.000 1.500,17.000 C0.672,17.000 -0.000,16.328 -0.000,15.500 C-0.000,14.672 0.672,14.000 1.500,14.000 Z" id="path-1" class="cls-2" fill-rule="evenodd"/>
</svg>
