<svg xmlns="http://www.w3.org/2000/svg" xmlns:xlink="http://www.w3.org/1999/xlink" preserveAspectRatio="xMidYMid" width="18" height="18" viewBox="0 0 18 18">
  <defs>
    <style>

      .cls-3 {
        fill: #f28b00;
      }
    </style>
  </defs>
  <g id="unprocurable_warning_iconsvg">
    <path d="M9.000,18.000 C4.029,18.000 -0.000,13.971 -0.000,9.000 C-0.000,4.029 4.029,-0.000 9.000,-0.000 C13.971,-0.000 18.000,4.029 18.000,9.000 C18.000,13.971 13.971,18.000 9.000,18.000 ZM9.000,2.000 C5.134,2.000 2.000,5.134 2.000,9.000 C2.000,12.866 5.134,16.000 9.000,16.000 C12.866,16.000 16.000,12.866 16.000,9.000 C16.000,5.134 12.866,2.000 9.000,2.000 Z" id="path-1" class="cls-3" fill-rule="evenodd"/>
    <path d="M9.997,4.004 C9.997,4.004 8.003,4.004 8.003,4.004 C8.003,4.004 8.003,9.987 8.003,9.987 C8.003,9.987 9.997,9.987 9.997,9.987 C9.997,9.987 9.997,4.004 9.997,4.004 ZM7.627,13.100 C7.708,13.281 7.817,13.436 7.954,13.565 C8.090,13.693 8.249,13.797 8.429,13.874 C8.610,13.952 8.799,13.990 8.999,13.990 C9.409,13.990 9.760,13.842 10.053,13.545 C10.345,13.248 10.491,12.894 10.491,12.480 C10.491,12.067 10.342,11.719 10.043,11.435 C9.745,11.151 9.397,11.009 8.999,11.009 C8.588,11.009 8.236,11.158 7.944,11.454 C7.652,11.751 7.506,12.106 7.506,12.519 C7.506,12.726 7.546,12.919 7.627,13.100 Z" id="path-2" class="cls-3" fill-rule="evenodd"/>
  </g>
</svg>
