<?xml version="1.0" encoding="utf-8"?>
<!-- Generator: Adobe Illustrator 18.0.0, SVG Export Plug-In . SVG Version: 6.00 Build 0)  -->
<!DOCTYPE svg PUBLIC "-//W3C//DTD SVG 1.1//EN" "http://www.w3.org/Graphics/SVG/1.1/DTD/svg11.dtd">
<svg version="1.1" id="Layer_1" xmlns="http://www.w3.org/2000/svg" xmlns:xlink="http://www.w3.org/1999/xlink" x="0px" y="0px"
	 viewBox="0 0 45.1 44.8" enable-background="new 0 0 45.1 44.8" xml:space="preserve">
<g>
	<rect x="0.1" y="13.8" fill="#010101" width="10" height="31"/>
	<path fill="#010101" d="M5,9.7c3.2,0,5.2-2.2,5.2-4.8C10.1,2.1,8.2,0,5.1,0C2,0,0,2.1,0,4.8C0,7.5,1.9,9.7,5,9.7z"/>
	<path fill="#010101" d="M33.7,12.8c-5.2,0-8.2,3-9.5,5l-0.1,0v-4h-9c-0.1,2.8,0,6.1,0,10v21h10v-18c0-0.9,0-1.9,0.3-2.5
		c0.7-1.8,2.3-3.6,4.9-3.6c3.5,0,4.8,2.7,4.8,6.8l0,17.4h10v-19C45.1,16.6,40,12.8,33.7,12.8z"/>
</g>
<g>
</g>
<g>
</g>
<g>
</g>
<g>
</g>
<g>
</g>
<g>
</g>
<g>
</g>
<g>
</g>
<g>
</g>
<g>
</g>
<g>
</g>
<g>
</g>
<g>
</g>
<g>
</g>
<g>
</g>
</svg>
