<svg xmlns="http://www.w3.org/2000/svg" xmlns:xlink="http://www.w3.org/1999/xlink" preserveAspectRatio="xMidYMid" width="47.969" height="48" viewBox="0 0 47.969 48">
  <defs>
    <style>
      .cls-1 {
        fill: #ddd;
        fill-rule: evenodd;
      }
    </style>
  </defs>
  <path d="M44.504,31.842 C41.202,33.879 28.659,41.620 25.687,43.451 L25.728,28.881 C32.001,25.173 38.272,21.465 44.544,17.759 L44.504,31.842 ZM22.552,28.872 L22.511,43.524 C22.151,43.312 9.427,35.804 3.425,32.262 L3.467,17.448 C9.829,21.256 16.190,25.063 22.552,28.872 M24.147,26.081 C24.105,26.055 17.862,22.319 16.063,21.243 C22.120,17.359 28.178,13.475 34.235,9.591 C36.436,10.929 42.291,14.486 43.017,14.926 C36.727,18.645 30.438,22.363 24.147,26.081 M31.174,7.732 C25.113,11.622 19.051,15.512 12.988,19.402 C10.341,17.817 7.695,16.233 5.048,14.647 C5.574,14.341 24.202,3.494 24.202,3.494 C24.961,3.956 29.611,6.781 31.174,7.732 ZM47.701,24.229 L47.728,14.801 C47.733,13.164 43.832,11.667 42.775,11.025 C36.812,7.404 30.767,3.893 24.879,0.148 C24.485,-0.103 23.955,-0.081 23.560,0.149 C17.617,3.610 11.672,7.072 5.729,10.533 C4.542,11.225 0.777,12.543 0.347,14.109 C-0.409,16.863 0.281,20.706 0.273,23.532 L0.246,33.304 C0.241,34.977 4.054,36.365 5.150,37.010 C11.246,40.608 23.533,47.852 23.580,47.874 C23.916,48.048 24.331,48.062 24.758,47.800 C30.612,44.187 36.465,40.575 42.320,36.961 C43.500,36.233 47.201,34.832 47.630,33.262 C48.354,30.620 47.693,26.941 47.701,24.229 " class="cls-1"/>
</svg>
