<svg xmlns="http://www.w3.org/2000/svg" width="18" height="20" viewBox="0 0 18 20">
  <defs>
    <style>
      .cls-1 {
        fill: #bfbfbf;
        fill-rule: evenodd;
      }
    </style>
  </defs>
  <path id="share_icon" data-name="share icon" class="cls-1" d="M1115,657h-14a2,2,0,0,1-2-2v-8a2,2,0,0,1,2-2h3v2h-2a1,1,0,0,0-1,1v6a1,1,0,0,0,1,1h12a1,1,0,0,0,1-1v-6a1,1,0,0,0-1-1h-2v-2h3a2,2,0,0,1,2,2v8A2,2,0,0,1,1115,657Zm-8-9-0.01-7.147-2.28,2.862c-0.82.877-2.29-.571-1.49-1.482l3.97-4.926a1.22,1.22,0,0,1,1.59-.033l3.97,4.927a1.054,1.054,0,0,1-1.49,1.481l-2.25-2.9L1109,648A1,1,0,0,1,1107,648Z" transform="translate(-1099 -637)"/>
</svg>
