<?xml version="1.0" encoding="utf-8"?>
<!-- Generator: Adobe Illustrator 18.0.0, SVG Export Plug-In . SVG Version: 6.00 Build 0)  -->
<!DOCTYPE svg PUBLIC "-//W3C//DTD SVG 1.1//EN" "http://www.w3.org/Graphics/SVG/1.1/DTD/svg11.dtd">
<svg version="1.1" id="Layer_1" xmlns="http://www.w3.org/2000/svg" xmlns:xlink="http://www.w3.org/1999/xlink" x="0px" y="0px"
	 viewBox="0 0 44.7 35.1" enable-background="new 0 0 44.7 35.1" xml:space="preserve">
<path fill="#010101" d="M44.4,4.1c-1.3,0.6-2.7,1-4.2,1.2c1.5-1.1,2.7-2.7,3.3-4.4c0-0.1,0-0.2-0.1-0.2c-0.1-0.1-0.2-0.1-0.3,0
	c-1.7,1-3.6,1.7-5.6,2.1C35.8,1,33.4,0,30.9,0c-5.1,0-9.3,4-9.3,9c0,0.6,0.1,1.2,0.2,1.8C14.6,10.3,8,7,3.5,1.7
	c0-0.1-0.1-0.1-0.2-0.1c-0.1,0-0.1,0-0.2,0.1C2.3,3.1,1.9,4.6,1.9,6.2c0,2.8,1.3,5.3,3.5,7c-1.1-0.1-2.2-0.5-3.2-1
	c-0.1,0-0.2,0-0.2,0c-0.1,0-0.1,0.1-0.1,0.2v0.1c0,4,2.7,7.4,6.5,8.6c-1,0.2-2.1,0.1-3.1,0c-0.1,0-0.2,0-0.2,0.1
	C5,21.2,5,21.3,5,21.3c1.2,3.5,4.4,5.9,8.1,6.2c-3.1,2.2-6.8,3.4-10.7,3.4c-0.7,0-1.4,0-2.1-0.1c-0.1,0-0.2,0-0.2,0.1
	c0,0.1,0,0.2,0.1,0.2c4.2,2.6,9.1,4,14,4c16.3,0,26.1-12.8,26.1-25.1c0-0.3,0-0.7,0-1c1.8-1.2,3.3-2.8,4.5-4.5c0.1-0.1,0-0.2,0-0.3
	C44.6,4.1,44.5,4.1,44.4,4.1z"/>
<g>
</g>
<g>
</g>
<g>
</g>
<g>
</g>
<g>
</g>
<g>
</g>
<g>
</g>
<g>
</g>
<g>
</g>
<g>
</g>
<g>
</g>
<g>
</g>
<g>
</g>
<g>
</g>
<g>
</g>
</svg>
