<?xml version="1.0" encoding="utf-8"?>
<!-- Generator: Adobe Illustrator 18.0.0, SVG Export Plug-In . SVG Version: 6.00 Build 0)  -->
<!DOCTYPE svg PUBLIC "-//W3C//DTD SVG 1.1//EN" "http://www.w3.org/Graphics/SVG/1.1/DTD/svg11.dtd">
<svg version="1.1" id="Layer_1" xmlns="http://www.w3.org/2000/svg" xmlns:xlink="http://www.w3.org/1999/xlink" x="0px" y="0px"
	 viewBox="0 0 42 47.9" enable-background="new 0 0 42 47.9" xml:space="preserve">
<g>
	<path fill="#010101" d="M35,21H7c-3.7,0-7,3.6-7,7v14c0,3.4,3.4,5.9,7.1,5.9H35c3.7,0,7-2.5,7-5.9l-0.2-14.4
		C41.8,24.2,38.7,21,35,21z M6,43l0.1-14.7l-2.9,0v-2.2l9.2,0v2.2H9L9,43H6z M19.3,43.3l-2.3,0l0-1.6c-0.6,1.3-3.1,2.3-4.4,1.4
		c-0.7-0.5-0.7-1.3-0.7-2c0-0.4,0-1.3,0-2.5l0-7.9h2.9l0,8c0,1.1-0.1,1.7,0,1.9c0.4,1.2,1.5,0.6,1.7-0.1c0.1-0.2,0-0.8,0-1.9v-7.9
		h2.9V43.3z M23.7,42.1l-0.2,1.1l-2.4,0l0-17l2.9,0l0,4.9c2.7-2,4.6-0.5,4.6,2l0,6.6C28.6,42.9,26.7,44.8,23.7,42.1z M30.3,38.9
		v-3.9c0-1.2,0.1-2.1,0.4-2.8c0.2-0.7,0.7-1.2,1.2-1.6c1.7-1.2,5.2-0.8,5.6,1.5c0.1,0.8,0.1,2.1,0.1,3.4v1.8h-5v1.6v1.3v0.1
		c0,0.6,0.5,1.1,1.2,1.1h0.4c0.6,0,1.2-0.5,1.2-1.1v-1.2c0-0.1,0-0.2,0-0.3l2.2,0C38.6,44.5,30.3,45.4,30.3,38.9z"/>
	<path fill="#010101" d="M26.2,5.2v8.9c0,1.1,0,1.9,0.1,2.3c0,0.4,0.1,0.7,0.3,1.1c0.1,0.3,0.4,0.6,0.7,0.8c0.3,0.2,0.7,0.3,1.2,0.3
		c0.4,0,0.8-0.1,1.1-0.3c0.3-0.2,0.6-0.6,0.8-1l-0.1,1.1h3.2V5.2h-2.5v10.2c0,0.6-0.5,1-1.1,1c-0.6,0-1.1-0.5-1.1-1V5.2H26.2z"/>
	<path fill="#010101" d="M35.5,33.5c0-0.7-0.6-1.2-1.3-1.2H34c-0.7,0-1.3,0.6-1.3,1.2l0,1.5h2.7L35.5,33.5z"/>
	<path fill="#010101" d="M25.2,31.8c-0.7,0-1.3,0.4-1.3,1v7.4c0,0.5,0.6,1,1.3,1c0.7,0,1.3-0.4,1.3-1v-7.4
		C26.4,32.2,25.9,31.8,25.2,31.8z"/>
	<path fill="#010101" d="M16.9,16.1c0.1,0.6,0.3,1.1,0.6,1.5c0.3,0.4,0.7,0.7,1.2,0.9c0.5,0.2,1.1,0.3,1.9,0.3
		c0.7,0,1.2-0.1,1.7-0.4c0.5-0.2,0.9-0.6,1.2-1.1c0.3-0.5,0.5-1,0.6-1.6c0.1-0.6,0.2-1.5,0.2-2.7V9.7c0-1-0.1-1.7-0.2-2.2
		c-0.1-0.5-0.3-0.9-0.6-1.4c-0.3-0.4-0.7-0.8-1.2-1.1c-0.5-0.3-1.2-0.4-1.9-0.4c-0.9,0-1.6,0.2-2.2,0.6c-0.6,0.4-1,1-1.2,1.7
		c-0.2,0.7-0.3,1.7-0.3,3v3.5C16.8,14.6,16.8,15.5,16.9,16.1z M19.3,8.2c0-0.7,0.6-1.4,1.3-1.4c0.7,0,1.3,0.6,1.3,1.4v7
		c0,0.7-0.6,1.4-1.3,1.4c-0.7,0-1.3-0.6-1.3-1.4V8.2z"/>
	<polygon fill="#010101" points="10.4,18.8 13.4,18.8 13.4,8.7 17,0 13.7,0 11.8,6.4 9.8,0 6.6,0 10.4,8.7 	"/>
</g>
<g>
</g>
<g>
</g>
<g>
</g>
<g>
</g>
<g>
</g>
<g>
</g>
<g>
</g>
<g>
</g>
<g>
</g>
<g>
</g>
<g>
</g>
<g>
</g>
<g>
</g>
<g>
</g>
<g>
</g>
</svg>
