<svg xmlns="http://www.w3.org/2000/svg" width="135.36" height="39.99" viewBox="0 0 135.36 39.99"><defs><style>.cls-1{fill:#b2b2b2;}.cls-2{fill:#fff;}</style></defs><title>Asset 2</title><g id="Layer_2" data-name="Layer 2"><g id="Layer_3" data-name="Layer 3"><path class="cls-1" d="M135.36,36a4,4,0,0,1-4,4H4a4,4,0,0,1-4-4V4A4,4,0,0,1,4,0H131.34a4,4,0,0,1,4,4V36Z"/><path class="cls-2" d="M28.33,19.78a6.07,6.07,0,0,1,2.89-5.09A6.21,6.21,0,0,0,26.33,12c-2.06-.22-4.06,1.23-5.1,1.23s-2.68-1.21-4.43-1.18a6.52,6.52,0,0,0-5.48,3.35C8.94,19.55,10.71,25.58,13,28.9c1.14,1.63,2.46,3.44,4.2,3.38s2.34-1.08,4.39-1.08,2.63,1.08,4.4,1S29,30.6,30,29a13.43,13.43,0,0,0,1.86-3.79A5.87,5.87,0,0,1,28.33,19.78Z"/><path class="cls-2" d="M25,9.86a6,6,0,0,0,1.37-4.28,6.08,6.08,0,0,0-3.93,2A5.68,5.68,0,0,0,21,11.73,5,5,0,0,0,25,9.86Z"/><path class="cls-2" d="M49.8,18.84H48.15L47.25,16H44.11l-.86,2.84H41.64l3.11-9.66h1.92Zm-2.82-4-.82-2.52q-.13-.39-.49-1.82h0q-.14.62-.46,1.82l-.8,2.52Z"/><path class="cls-2" d="M57.66,15.27a4,4,0,0,1-1,2.81,2.81,2.81,0,0,1-2.14.92,2.14,2.14,0,0,1-2-1h0v3.67H51V14.17q0-1.12-.06-2.29h1.36L52.4,13h0a2.76,2.76,0,0,1,4.41-.27A3.83,3.83,0,0,1,57.66,15.27Zm-1.58.06a2.87,2.87,0,0,0-.46-1.68A1.59,1.59,0,0,0,54.28,13a1.6,1.6,0,0,0-1,.38,1.77,1.77,0,0,0-.61,1,2.06,2.06,0,0,0-.07.47V16A1.86,1.86,0,0,0,53,17.26a1.55,1.55,0,0,0,1.21.52,1.58,1.58,0,0,0,1.36-.67A3,3,0,0,0,56.08,15.33Z"/><path class="cls-2" d="M65.75,15.27a4,4,0,0,1-1,2.81,2.81,2.81,0,0,1-2.14.92,2.14,2.14,0,0,1-2-1h0v3.67H59.09V14.17q0-1.12-.06-2.29H60.4l.09,1.1h0a2.76,2.76,0,0,1,4.41-.27A3.83,3.83,0,0,1,65.75,15.27Zm-1.58.06a2.87,2.87,0,0,0-.46-1.68A1.59,1.59,0,0,0,62.36,13a1.6,1.6,0,0,0-1,.38,1.77,1.77,0,0,0-.61,1,2.06,2.06,0,0,0-.07.47V16a1.86,1.86,0,0,0,.47,1.28,1.55,1.55,0,0,0,1.21.52,1.58,1.58,0,0,0,1.36-.67A3,3,0,0,0,64.17,15.33Z"/><path class="cls-2" d="M76.22,16.13a2.58,2.58,0,0,1-.86,2,3.81,3.81,0,0,1-2.63.85,4.61,4.61,0,0,1-2.51-.6l.36-1.29a4.23,4.23,0,0,0,2.24.62,2.11,2.11,0,0,0,1.36-.4,1.29,1.29,0,0,0,.49-1.06,1.34,1.34,0,0,0-.4-1,3.76,3.76,0,0,0-1.33-.75q-2.54-.95-2.54-2.77a2.45,2.45,0,0,1,.89-2A3.52,3.52,0,0,1,73.65,9a4.7,4.7,0,0,1,2.19.46l-.39,1.26a3.81,3.81,0,0,0-1.85-.44,1.88,1.88,0,0,0-1.28.4,1.15,1.15,0,0,0-.39.87,1.18,1.18,0,0,0,.44.95,5,5,0,0,0,1.4.75,4.75,4.75,0,0,1,1.84,1.18A2.47,2.47,0,0,1,76.22,16.13Z"/><path class="cls-2" d="M81.23,13H79.53v3.38q0,1.29.9,1.29a2.8,2.8,0,0,0,.69-.07l0,1.18A3.52,3.52,0,0,1,80,19a1.85,1.85,0,0,1-1.43-.56A2.74,2.74,0,0,1,78,16.55V13H77V11.87h1V10.6l1.52-.46v1.73h1.71Z"/><path class="cls-2" d="M88.86,15.3a3.83,3.83,0,0,1-.92,2.64A3.28,3.28,0,0,1,85.39,19a3.11,3.11,0,0,1-2.45-1A3.71,3.71,0,0,1,82,15.42,3.79,3.79,0,0,1,83,12.76a3.25,3.25,0,0,1,2.53-1,3.18,3.18,0,0,1,2.47,1A3.67,3.67,0,0,1,88.86,15.3Zm-1.61.05a3.15,3.15,0,0,0-.42-1.65,1.53,1.53,0,0,0-1.39-.83A1.55,1.55,0,0,0,84,13.7a3.2,3.2,0,0,0-.42,1.68A3.15,3.15,0,0,0,84,17a1.58,1.58,0,0,0,2.8,0A3.15,3.15,0,0,0,87.26,15.35Z"/><path class="cls-2" d="M94,13.24a2.68,2.68,0,0,0-.49,0,1.46,1.46,0,0,0-1.26.62,2.31,2.31,0,0,0-.39,1.38v3.66H90.34V14.07q0-1.2-.06-2.19h1.35l.06,1.33h0a2.38,2.38,0,0,1,.77-1.11,1.88,1.88,0,0,1,1.12-.37,2.39,2.39,0,0,1,.39,0Z"/><path class="cls-2" d="M100.85,15a3.61,3.61,0,0,1-.06.7H96.15a2,2,0,0,0,.67,1.58,2.3,2.3,0,0,0,1.52.49,5.13,5.13,0,0,0,1.88-.33l.24,1.07a5.83,5.83,0,0,1-2.34.43,3.38,3.38,0,0,1-2.55-1,3.52,3.52,0,0,1-.93-2.56,4,4,0,0,1,.86-2.62A3,3,0,0,1,98,11.72a2.59,2.59,0,0,1,2.28,1.12A3.75,3.75,0,0,1,100.85,15Zm-1.48-.4a2.11,2.11,0,0,0-.3-1.19,1.35,1.35,0,0,0-1.23-.64,1.47,1.47,0,0,0-1.23.63,2.3,2.3,0,0,0-.46,1.2Z"/><path class="cls-2" d="M103.89,8.92a14.58,14.58,0,0,1-1.46,3.56l-1,.1a18.16,18.16,0,0,0,.9-3.51Z"/><path class="cls-2" d="M110.2,18.84h-1.38l-.07-1.12h0A2.32,2.32,0,0,1,106.47,19a2.62,2.62,0,0,1-2.09-1,3.85,3.85,0,0,1-.83-2.57,4,4,0,0,1,.9-2.74,2.78,2.78,0,0,1,2.15-1,2.09,2.09,0,0,1,2,.95h0v-4h1.55V17Q110.14,18,110.2,18.84Zm-1.61-2.94V14.74a2.26,2.26,0,0,0,0-.49,1.76,1.76,0,0,0-.56-.94,1.52,1.52,0,0,0-1-.38,1.59,1.59,0,0,0-1.36.69,2.94,2.94,0,0,0-.5,1.76,2.76,2.76,0,0,0,.48,1.68,1.59,1.59,0,0,0,1.35.69,1.49,1.49,0,0,0,1.22-.57A1.92,1.92,0,0,0,108.59,15.9Z"/><path class="cls-2" d="M117.31,18.84h-1.39l-.12-.8h0a2.39,2.39,0,0,1-2,1,2.1,2.1,0,0,1-1.59-.63,2,2,0,0,1-.55-1.42A2.17,2.17,0,0,1,112.66,15a5.56,5.56,0,0,1,3-.66v-.13q0-1.38-1.44-1.38a3.23,3.23,0,0,0-1.82.52l-.32-1a4.46,4.46,0,0,1,2.39-.6q2.73,0,2.73,2.88v2.57A10.84,10.84,0,0,0,117.31,18.84Zm-1.61-2.39V15.37q-2.57,0-2.57,1.41a1.05,1.05,0,0,0,.3.82,1.08,1.08,0,0,0,.76.27,1.56,1.56,0,0,0,.95-.32,1.32,1.32,0,0,0,.53-.82A1.11,1.11,0,0,0,115.7,16.45Z"/><path class="cls-2" d="M125.17,18.84h-1.55v-4q0-1.85-1.41-1.85a1.4,1.4,0,0,0-1.12.51,1.79,1.79,0,0,0-.43,1.2v4.13h-1.55v-5c0-.61,0-1.28-.06-2h1.36l.07,1.09h0a2.24,2.24,0,0,1,.8-.84,2.62,2.62,0,0,1,1.41-.39,2.22,2.22,0,0,1,1.62.63,3.06,3.06,0,0,1,.8,2.31v4.17Z"/><path class="cls-2" d="M44,23.41a.57.57,0,0,1-.16.41.53.53,0,0,1-.4.16.52.52,0,0,1-.39-.17.59.59,0,0,1,0-.8.54.54,0,0,1,.4-.17.52.52,0,0,1,.4.17A.58.58,0,0,1,44,23.41Zm0,7.86h-1.1V24.42H44v6.84Z"/><path class="cls-2" d="M50.3,31.26h-1.1V28.44q0-1.31-1-1.31a1,1,0,0,0-.79.36,1.27,1.27,0,0,0-.3.85v2.93H46V27.74q0-.65,0-1.41h1l.05.77h0a1.57,1.57,0,0,1,.57-.59,1.85,1.85,0,0,1,1-.28,1.58,1.58,0,0,1,1.15.45,2.17,2.17,0,0,1,.57,1.63Z"/><path class="cls-2" d="M56.62,31.26h-1l-.05-.79h0a1.64,1.64,0,0,1-1.58.9,1.86,1.86,0,0,1-1.48-.7,2.73,2.73,0,0,1-.59-1.82,2.87,2.87,0,0,1,.64-1.94,2,2,0,0,1,1.52-.69,1.48,1.48,0,0,1,1.39.67h0V24.07h1.1v5.87Q56.58,30.66,56.62,31.26Zm-1.14-2.08v-.82a1.61,1.61,0,0,0,0-.35,1.25,1.25,0,0,0-.4-.66,1.07,1.07,0,0,0-.73-.27,1.13,1.13,0,0,0-1,.49A2.08,2.08,0,0,0,53,28.82,2,2,0,0,0,53.34,30a1.13,1.13,0,0,0,1,.49,1.06,1.06,0,0,0,.87-.41A1.36,1.36,0,0,0,55.48,29.18Z"/><path class="cls-2" d="M59.75,24.86a.63.63,0,0,1-.19.48.69.69,0,0,1-.5.18.63.63,0,0,1-.46-.19.64.64,0,0,1-.19-.47.62.62,0,0,1,.19-.47.72.72,0,0,1,1,0A.62.62,0,0,1,59.75,24.86Zm-.12,6.41h-1.1V26.33h1.1Z"/><path class="cls-2" d="M64.18,27.3a1.82,1.82,0,0,0-.35,0,1,1,0,0,0-.89.44,1.65,1.65,0,0,0-.27,1v2.59h-1.1V27.89q0-.85,0-1.55h1l0,.94h0a1.67,1.67,0,0,1,.55-.78,1.33,1.33,0,0,1,.79-.26l.27,0v1Z"/><path class="cls-2" d="M66.8,24.86a.63.63,0,0,1-.19.48.69.69,0,0,1-.5.18.63.63,0,0,1-.46-.19.64.64,0,0,1-.19-.47.62.62,0,0,1,.19-.47.72.72,0,0,1,1,0A.62.62,0,0,1,66.8,24.86Zm-.12,6.41h-1.1V26.33h1.1Z"/><path class="cls-2" d="M72.91,31.26h-1.1V28.44q0-1.31-1-1.31a1,1,0,0,0-.79.36,1.27,1.27,0,0,0-.3.85v2.93h-1.1V27.74q0-.65,0-1.41h1l.05.77h0a1.56,1.56,0,0,1,.57-.59,1.84,1.84,0,0,1,1-.28,1.58,1.58,0,0,1,1.15.45,2.17,2.17,0,0,1,.57,1.63Z"/></g></g></svg>