<?xml version="1.0" encoding="utf-8"?>
<!-- Generator: Adobe Illustrator 20.1.0, SVG Export Plug-In . SVG Version: 6.00 Build 0)  -->
<svg version="1.1" id="Layer_1" xmlns="http://www.w3.org/2000/svg" xmlns:xlink="http://www.w3.org/1999/xlink" x="0px" y="0px"
	 width="151.6px" height="30.8px" viewBox="0 0 151.6 30.8" style="enable-background:new 0 0 151.6 30.8;" xml:space="preserve">
<style type="text/css">
	.st0{fill:#F6931E;}
	.st1{fill:#494849;}
</style>
<title>hepsiburada_blog_logo</title>
<g>
	<path class="st0" d="M7.6,13.4c0.5,0.2,1,0.6,1.3,1.1c0.3,0.3,0.4,0.8,0.5,1.2c0.1,0.7,0.1,1.3,0.1,2v6.2H6.7v-6.4
		c0-0.5-0.1-0.9-0.3-1.4c-0.3-0.5-0.8-0.8-1.4-0.8c-0.6,0-1.2,0.2-1.7,0.7c-0.4,0.6-0.6,1.3-0.6,2.1v5.7H0v-14h2.8v5
		c0.3-0.5,0.8-1,1.4-1.3c0.5-0.2,1.1-0.4,1.7-0.4C6.4,13.1,7,13.2,7.6,13.4z"/>
	<path class="st0" d="M18.1,13.6c0.7,0.3,1.4,0.9,1.8,1.6c0.4,0.6,0.7,1.4,0.9,2.2c0.1,0.7,0.1,1.4,0.1,2.1h-7.7
		c0.1,1.1,0.4,1.8,1.1,2.2c0.5,0.3,1,0.4,1.5,0.4c0.5,0,1.1-0.1,1.5-0.5c0.2-0.2,0.4-0.4,0.6-0.7h2.8c-0.1,0.7-0.5,1.4-1,1.9
		c-1,1-2.4,1.6-3.9,1.5c-1.3,0-2.6-0.4-3.7-1.3c-1.1-0.9-1.6-2.3-1.6-4.2c0-1.8,0.5-3.2,1.5-4.2c1-1,2.4-1.5,3.8-1.5
		C16.5,13,17.3,13.2,18.1,13.6z M14,15.9c-0.4,0.4-0.7,1-0.8,1.6h4.7c0-0.6-0.3-1.2-0.8-1.7c-0.4-0.4-1-0.6-1.6-0.6
		C15,15.3,14.4,15.5,14,15.9z"/>
	<path class="st0" d="M30.8,14.5c0.9,0.9,1.3,2.2,1.3,4c0,1.9-0.4,3.3-1.3,4.2c-0.8,0.9-2,1.5-3.2,1.5c-0.7,0-1.5-0.2-2.1-0.6
		c-0.3-0.3-0.7-0.6-0.9-1v5.5h-2.7V13.3h2.6v1.6c0.3-0.4,0.6-0.8,1-1.1c0.6-0.5,1.4-0.7,2.2-0.7C28.8,13.1,30,13.6,30.8,14.5z
		 M28.7,16.4c-0.4-0.6-1.1-1-1.8-1c-0.9-0.1-1.8,0.5-2.1,1.4c-0.2,0.6-0.3,1.3-0.3,1.9c0,1.2,0.4,2.1,1,2.6c0.4,0.3,0.9,0.5,1.4,0.5
		c0.7,0,1.4-0.3,1.8-0.9c0.4-0.7,0.6-1.5,0.6-2.4C29.2,17.8,29,17,28.7,16.4z"/>
	<path class="st0" d="M35.8,20.4c0,0.4,0.1,0.7,0.4,1.1c0.4,0.4,1,0.6,1.9,0.6c0.4,0,0.9-0.1,1.3-0.3c0.4-0.2,0.6-0.6,0.4-1
		c-0.1-0.2-0.2-0.3-0.3-0.4c-0.9-0.4-1.9-0.6-2.9-0.8c-0.9-0.2-1.8-0.5-2.5-1.1c-0.5-0.5-0.8-1.2-0.8-1.9c0-1,0.4-1.9,1.2-2.5
		c0.9-0.8,2-1.1,3.2-1.1c1.1-0.1,2.2,0.2,3.2,0.8c0.8,0.5,1.3,1.4,1.4,2.7h-2.8c0-0.3-0.1-0.6-0.3-0.9c-0.4-0.4-1-0.6-1.6-0.6
		c-0.4,0-0.9,0.1-1.3,0.3c-0.2,0.1-0.4,0.4-0.4,0.7c0,0.3,0.2,0.6,0.4,0.7c0.9,0.3,1.9,0.6,2.9,0.8c0.9,0.2,1.7,0.6,2.5,1.2
		c0.5,0.5,0.8,1.2,0.8,2c0,1-0.4,1.9-1.2,2.6c-0.8,0.7-2,1-3.6,1s-2.9-0.4-3.7-1.1c-0.8-0.7-1.2-1.6-1.2-2.7L35.8,20.4L35.8,20.4z"
		/>
	<path class="st0" d="M46.7,12.2h-2.8V9.7h2.8V12.2z M43.9,13.3h2.8v10.5h-2.8V13.3z"/>
	<path class="st0" d="M57.3,14.6c0.8,1.1,1.2,2.5,1.2,3.9c0,1.4-0.4,2.8-1.2,4.1c-0.7,1-1.9,1.6-3.2,1.6c-0.7,0-1.5-0.1-2.1-0.5
		c-0.4-0.3-0.7-0.6-1-1.1v1.3h-2.8V9.7H51v5c0.3-0.4,0.7-0.8,1.2-1.1c0.6-0.3,1.2-0.5,1.9-0.5C55.3,13.1,56.5,13.6,57.3,14.6z
		 M55,21c0.4-0.7,0.6-1.5,0.6-2.3c0-0.6-0.1-1.3-0.3-1.9c-0.3-0.9-1.1-1.4-2.1-1.4c-0.9-0.1-1.8,0.5-2.1,1.4
		c-0.2,0.6-0.3,1.2-0.3,1.9c0,0.8,0.2,1.5,0.6,2.2c0.4,0.6,1.1,0.9,1.8,0.9C54,21.8,54.6,21.5,55,21z"/>
	<path class="st0" d="M62.4,13.3v6.3c0,0.5,0,0.9,0.2,1.4c0.3,0.5,0.8,0.9,1.5,0.8c0.8,0.1,1.6-0.4,1.9-1.2c0.2-0.5,0.3-1.1,0.3-1.6
		v-5.7H69v10.5h-2.7v-1.5c-0.1,0.1-0.1,0.2-0.2,0.3c-0.1,0.2-0.2,0.3-0.4,0.4c-0.4,0.3-0.8,0.6-1.3,0.8C64.1,24,63.6,24,63.1,24
		c-1.6,0-2.6-0.6-3.1-1.7c-0.3-0.9-0.5-1.8-0.5-2.7v-6.4H62.4z"/>
	<path class="st0" d="M76.2,13.1h0.3v2.9c-0.2,0-0.3-0.1-0.5-0.1h-0.4c-1.1,0-1.9,0.4-2.2,1.1c-0.2,0.6-0.3,1.2-0.3,1.9v5h-2.8V13.3
		H73v1.8c0.3-0.5,0.7-1,1.1-1.5c0.6-0.5,1.3-0.7,2-0.7C76.1,13.1,76.2,13.1,76.2,13.1z"/>
	<path class="st0" d="M82,17.4c0.4,0,0.7-0.1,1.1-0.3c0.4-0.1,0.6-0.4,0.6-0.8c0-0.4-0.1-0.7-0.5-0.9c-0.4-0.2-0.9-0.3-1.3-0.3
		c-0.5-0.1-1,0.1-1.4,0.5c-0.2,0.3-0.3,0.6-0.4,1h-2.7c0-0.8,0.3-1.6,0.8-2.3c0.7-0.9,2-1.4,3.8-1.4c1.1,0,2.1,0.2,3.1,0.7
		c0.9,0.5,1.4,1.3,1.4,2.6v6c0,0.3,0,0.5,0.2,0.8c0.1,0.2,0.2,0.3,0.4,0.3v0.4h-3c-0.1-0.2-0.1-0.4-0.2-0.6
		c-0.1-0.2-0.1-0.4-0.1-0.7c-0.4,0.4-0.8,0.8-1.3,1.1c-0.6,0.3-1.3,0.5-2,0.5c-0.9,0-1.7-0.2-2.4-0.8c-1.3-1.3-1.3-3.4,0-4.7
		c0.2-0.2,0.3-0.3,0.5-0.4c0.7-0.4,1.6-0.6,2.4-0.7L82,17.4z M83.6,18.7c-0.2,0.1-0.4,0.2-0.6,0.3c-0.2,0.1-0.5,0.2-0.8,0.2
		l-0.6,0.1c-0.4,0.1-0.8,0.2-1.3,0.4c-0.4,0.2-0.7,0.7-0.7,1.2c0,0.4,0.1,0.7,0.4,1c0.3,0.2,0.6,0.3,1,0.3c0.6,0,1.2-0.2,1.7-0.5
		c0.5-0.4,0.8-1,0.8-1.9V18.7z"/>
	<path class="st0" d="M93.8,13.5c0.5,0.3,0.9,0.7,1.2,1.2v-5h2.8v14.1h-2.7v-1.5c-0.3,0.5-0.8,1-1.4,1.4c-0.6,0.3-1.2,0.4-1.9,0.4
		c-1.2,0-2.4-0.6-3.1-1.5c-0.9-1.1-1.3-2.4-1.3-3.8c0-1.8,0.4-3.2,1.3-4.2c0.8-1,2-1.6,3.3-1.6C92.7,13,93.3,13.2,93.8,13.5z
		 M94.5,20.9c0.4-0.7,0.6-1.5,0.6-2.3c0-1.3-0.3-2.2-1-2.8c-0.4-0.3-0.9-0.5-1.4-0.5c-0.7-0.1-1.4,0.3-1.8,0.9
		c-0.4,0.7-0.6,1.5-0.6,2.3c0,0.8,0.2,1.6,0.6,2.3c0.4,0.6,1.1,0.9,1.8,0.9C93.4,21.8,94.1,21.5,94.5,20.9z"/>
	<path class="st0" d="M103.7,17.4c0.4,0,0.7-0.1,1.1-0.3c0.4-0.1,0.6-0.4,0.6-0.8c0-0.4-0.1-0.7-0.5-0.9c-0.4-0.2-0.9-0.3-1.4-0.3
		c-0.5-0.1-1,0.1-1.4,0.5c-0.2,0.3-0.3,0.6-0.4,1h-2.7c0-0.8,0.3-1.6,0.8-2.3c0.7-0.9,2-1.4,3.8-1.4c1.1,0,2.1,0.2,3.1,0.7
		c0.9,0.5,1.4,1.3,1.4,2.6v6c0,0.3,0,0.5,0.2,0.8c0.1,0.2,0.2,0.3,0.4,0.3v0.4h-3c-0.1-0.2-0.1-0.4-0.2-0.6
		c-0.1-0.2-0.1-0.4-0.1-0.7c-0.4,0.4-0.8,0.8-1.3,1.1c-0.6,0.3-1.3,0.5-2,0.5c-0.9,0-1.7-0.2-2.4-0.8c-1.3-1.3-1.3-3.4,0-4.7
		c0.2-0.2,0.3-0.3,0.5-0.4c0.7-0.4,1.6-0.6,2.4-0.7L103.7,17.4z M105.4,18.7c-0.2,0.1-0.4,0.2-0.6,0.3c-0.2,0.1-0.5,0.2-0.8,0.2
		l-0.6,0.1c-0.4,0.1-0.8,0.2-1.3,0.4c-0.4,0.2-0.7,0.7-0.7,1.2c0,0.4,0.1,0.7,0.4,1c0.3,0.2,0.6,0.3,1,0.3c0.6,0,1.2-0.2,1.7-0.5
		c0.5-0.4,0.8-1,0.8-1.9V18.7z"/>
	<path class="st1" d="M120.5,13c-1,1-2.2,1.8-3.5,2.5c-1.3,0.7-2.3,1-2.9,1c-1.4,0-2.2-0.6-2.2-1.8c0-0.7,0.3-1.3,0.7-1.9
		c0.5-0.7,1.2-1.3,2.1-1.6c-0.4,0.5-0.8,1-1.1,1.5c-0.3,0.4-0.4,0.9-0.4,1.4c0,0.6,0.3,1.1,0.8,1.1c0.8-0.1,1.6-0.4,2.3-0.8
		c1.1-0.5,2.1-1.2,3-1.9c1-0.9,1.5-1.7,1.5-2.4c0-0.9-0.7-1.5-1.9-1.9c-0.8-0.3-1.5-0.4-2.4-0.5c-0.4,0-0.7,0-1.1,0.1
		C115.2,7.5,115,7,115,6.6c1.1-0.5,2.1-1.1,3-1.8c1.8-1.3,2.6-2.3,2.6-3c0-0.4-0.8-0.7-2.3-0.7c-1.4,0-2.8,0.2-4.1,0.5
		c-1.9,0.3-3.7,0.9-5.5,1.8c-1.8,1-2.7,2-2.7,3.3c0,0.6,0.5,1.1,1.6,1.5c-0.2,0.1-0.4,0.2-0.6,0.2c-0.5,0-1.1-0.2-1.5-0.5
		c-0.5-0.3-0.8-0.8-0.9-1.4c0-0.2,0.1-0.5,0.2-0.7c0.1-0.3,0.3-0.6,0.5-0.9c2.1-2.9,6.3-4.5,12.7-4.9c0.7,0,1.4,0,2.1,0.3
		c1.2,0.3,1.7,0.9,1.7,1.6s-0.6,1.6-1.6,2.6c-0.5,0.5-1.4,1.2-2.8,2.3c0.6,0.2,1.1,0.4,1.7,0.6c0.7,0.2,1.4,0.6,2.1,1
		c0.6,0.4,1,1,1,1.8C122.2,10.8,121.6,11.9,120.5,13z M114.3,6.5c-0.5,1.1-0.9,2.1-1.4,3.1c-0.3,0.6-0.6,1.4-0.9,2.4
		c0,0.4-0.1,0.8-0.2,1.2c-0.1,0.2-0.3,0.4-0.6,0.4c-0.3,0-0.4-0.4-0.5-1c0-0.6,0.6-2.4,1.9-5.5s1.9-4.8,1.9-4.9h0.6
		c0.2,0.1,0.4,0.3,0.5,0.6C115.6,3.2,115.1,4.5,114.3,6.5z"/>
	<path class="st1" d="M128,3.1c-0.5,1.1-0.8,1.9-1,2.5c-1.5,4.2-2.3,7.6-2.4,10.3c-0.1,0.1-0.3,0.1-0.4,0.1c-0.5,0-0.8-0.4-0.8-1.2
		c0-1.5,0.4-3.6,1.2-6.2c0.6-1.9,1.3-3.8,2.1-5.7c0.2-0.3,0.3-0.7,0.4-1c0.3-0.6,0.5-0.9,0.7-0.9c0.3,0,0.9,0.4,0.9,0.8
		C128.4,2.2,128.3,2.7,128,3.1z"/>
	<path class="st1" d="M132.5,12.4c-0.3,0.8-0.8,1.6-1.4,2.3c-0.7,0.9-1.3,1.3-1.9,1.3c-0.5,0-1-0.3-1.3-0.8c-0.3-0.5-0.5-1-0.5-1.6
		c0-0.8,0.2-1.5,0.6-2.2c0.2-0.5,0.5-1,0.8-1.5c0.5-0.6,0.8-1,1.1-1.1c0-0.1,0-0.2,0.1-0.3c0-0.2,0.2-0.3,0.4-0.3
		c0.3,0.1,0.5,0.2,0.7,0.4c0.3,0.3,0.5,0.5,0.5,0.6c0,0.1,0,0.2-0.1,0.3c-0.2,0-0.4,0-0.6-0.1c-0.2,0-0.4,0.3-0.8,0.7
		c-0.3,0.3-0.5,0.7-0.7,1.1c-0.5,0.9-0.8,2-0.9,3.1c0,0.1,0,0.3,0.1,0.4c0.1,0.2,0.2,0.3,0.3,0.3c0.4,0,0.9-0.4,1.4-1.2
		c0.3-0.4,0.6-0.8,0.8-1.3c0.5-1.1,0.9-2.2,1-3.4c0-0.4-0.1-0.9-0.3-1.3c-0.3-0.4-0.8-0.5-1.3-0.5c-0.1-0.1-0.1-0.2,0-0.3
		c0.1-0.1,0.2-0.1,0.4-0.2c0.7,0,1.3,0.3,1.7,0.9c0.3,0.4,0.5,1,0.5,1.6C133.1,10.5,132.9,11.5,132.5,12.4z"/>
	<path class="st1" d="M139.4,12.6c-0.5,0.7-1,1.4-1.7,2.1c-0.8,0.8-1.5,1.3-2,1.3c-0.5,0-0.9-0.3-1.2-0.7c-0.2-0.3-0.4-0.7-0.4-1.2
		c0.1-0.8,0.4-1.6,0.9-2.3c0.5-0.9,1.2-1.8,2-2.6c0.9-0.9,1.7-1.3,2.4-1.3c0.2,0,0.3,0.1,0.5,0.2c0.2,0,0.3,0.1,0.5,0.2
		c0.1,0,0.1,0,0.1-0.1l0.5-1.2c0.2-0.5,0.4-0.8,0.5-0.8c0.2,0,0.3,0.1,0.5,0.3c0.3,0.2,0.3,0.3,0.3,0.4c-1,3.7-1.9,7.2-2.8,10.3
		c0.6-0.1,1.3-0.1,1.9-0.1c1.9,0,3.7,0.2,5.6,0.5c3.3,0.5,4.9,1,4.9,1.6c0,0.2-0.2,0.4-0.5,0.5c-0.2,0.1-0.4,0.1-0.6,0.1
		c-0.3,0-0.5-0.1-0.8-0.2c-0.4-0.1-0.7-0.3-1.1-0.5c-0.8-0.2-1.6-0.4-2.4-0.5c-0.3-0.1-1.1-0.2-2.6-0.3c-0.7-0.1-1.4-0.2-2.1-0.2
		c-0.9,0-1.8,0.1-2.8,0.3c-0.6,2.2-1.3,4.5-2.2,6.6c-1.1,2.3-2.3,3.9-3.9,4.8c-0.9,0.6-2.1,1-3.2,1c-1.9-0.1-3.2-1-3.8-2.6
		c-0.1-0.3-0.2-0.6-0.3-0.9c-0.1-0.2-0.1-0.5-0.1-0.7c0-0.4-0.1-0.7-0.1-0.8c0.1-1.4,0.7-2.8,1.7-3.8c1-1.1,2.3-2,3.7-2.7
		c2.3-1,4.7-1.7,7.2-2.1l1.2-4.9L139.4,12.6z M136.7,18.7c-0.9,0.2-1.8,0.4-2.7,0.7c-1.1,0.3-2.2,0.8-3.2,1.4
		c-1.5,0.8-2.7,2.1-3.5,3.6c-0.2,0.5-0.3,1.1-0.4,1.7c-0.1,0.8,0.1,1.7,0.5,2.4c0.4,0.8,1.3,1.3,2.3,1.2c2.1-0.1,4.1-1.2,5.2-3.1
		c1-1.5,2-4.1,3-8C137.5,18.6,137.1,18.7,136.7,18.7L136.7,18.7z M139.6,9c-0.8,0-1.7,0.7-2.7,2c-1,1.3-1.5,2.4-1.5,3.2
		c0,0.2,0,0.4,0.2,0.6c0.5,0.1,1.3-0.6,2.4-2s1.9-2.7,2-3.7C139.9,9.1,139.7,9,139.6,9L139.6,9z"/>
</g>
</svg>
