<svg xmlns="http://www.w3.org/2000/svg" width="135" height="40" viewBox="0 0 135 40"><defs><style>.cls-1{fill:#b2b2b2;}.cls-2,.cls-3,.cls-4{fill:#fff;}.cls-3,.cls-4{stroke:#fff;stroke-miterlimit:10;}.cls-3{stroke-width:0.2px;}.cls-4{stroke-width:0.25px;}</style></defs><title>Asset 1</title><g id="Layer_2" data-name="Layer 2"><g id="Layer_3" data-name="Layer 3"><rect class="cls-1" width="135" height="40" rx="5" ry="5"/><path class="cls-2" d="M64.72,12.79a3.72,3.72,0,1,0,3.73,3.72A3.66,3.66,0,0,0,64.72,12.79Zm0,6a2.15,2.15,0,0,1-2.1-2.25,2.1,2.1,0,1,1,4.2,0A2.15,2.15,0,0,1,64.72,18.76Zm-8.14-6a3.72,3.72,0,1,0,3.73,3.72A3.66,3.66,0,0,0,56.58,12.79Zm0,6a2.15,2.15,0,0,1-2.1-2.25,2.1,2.1,0,1,1,4.2,0A2.15,2.15,0,0,1,56.58,18.76ZM46.9,13.93v1.58h3.77a3.29,3.29,0,0,1-.86,2,3.86,3.86,0,0,1-2.91,1.15,4.2,4.2,0,0,1,0-8.39,4,4,0,0,1,2.84,1.13l1.11-1.11a5.5,5.5,0,0,0-4-1.59A5.85,5.85,0,0,0,41,14.45a5.85,5.85,0,0,0,5.86,5.77,5.28,5.28,0,0,0,4-1.62,5.21,5.21,0,0,0,1.37-3.69,5.14,5.14,0,0,0-.08-1Zm39.6,1.23a3.46,3.46,0,0,0-3.18-2.37,3.53,3.53,0,0,0-3.51,3.72,3.64,3.64,0,0,0,3.69,3.72,3.7,3.7,0,0,0,3.1-1.65l-1.27-.84a2.12,2.12,0,0,1-1.83,1,1.89,1.89,0,0,1-1.8-1.13l5-2.06ZM81.43,16.4a2,2,0,0,1,1.94-2.17,1.44,1.44,0,0,1,1.38.79Zm-4,3.61H79V9.07H77.39Zm-2.68-6.38h-.06a2.58,2.58,0,0,0-2-.83,3.72,3.72,0,0,0,0,7.44,2.53,2.53,0,0,0,2-.84h.06v.54c0,1.42-.76,2.18-2,2.18a2.06,2.06,0,0,1-1.87-1.32l-1.42.59a3.54,3.54,0,0,0,3.3,2.2c1.92,0,3.53-1.13,3.53-3.87V13H74.72Zm-1.87,5.14a2.13,2.13,0,0,1-2.07-2.24,2.15,2.15,0,0,1,2.07-2.27,2.1,2.1,0,0,1,2,2.27A2.08,2.08,0,0,1,72.84,18.76ZM94.16,9.07H90.25V20h1.63V15.86h2.28a3.46,3.46,0,0,0,3.58-3.39A3.46,3.46,0,0,0,94.16,9.07Zm0,5.27H91.88V10.59H94.2a1.87,1.87,0,1,1,0,3.75Zm10.08-1.57a3.06,3.06,0,0,0-2.91,1.67l1.45.6a1.55,1.55,0,0,1,1.49-.8A1.57,1.57,0,0,1,106,15.65v.11a3.61,3.61,0,0,0-1.7-.42c-1.56,0-3.15.86-3.15,2.46a2.52,2.52,0,0,0,2.71,2.4A2.3,2.3,0,0,0,106,19.14H106V20h1.57V15.79C107.59,13.85,106.15,12.77,104.28,12.77Zm-.2,6c-.53,0-1.28-.27-1.28-.93,0-.84.93-1.17,1.73-1.17A2.91,2.91,0,0,1,106,17,2,2,0,0,1,104.08,18.76ZM113.33,13l-1.87,4.74h-.06L109.46,13h-1.76l2.91,6.62L109,23.31h1.7L115.14,13ZM98.64,20h1.63V9.07H98.64Z"/><path class="cls-3" d="M41.82,28.85H41.1V26.93h.71Z"/><path class="cls-3" d="M43.09,33V26.93h1.86a3,3,0,0,1,2.24.85,3.29,3.29,0,0,1,0,4.39,3,3,0,0,1-2.24.85Zm.78-.75h1.08a2.28,2.28,0,0,0,1.67-.6,2.3,2.3,0,0,0-1.67-4H43.87Z"/><path class="cls-3" d="M52.67,27.68H49.9v1.93h2.5v.73H49.9v1.93h2.77V33H49.12V26.93h3.55Z"/><path class="cls-3" d="M53.79,33V26.93h1l3,4.73h0l0-1.17V26.93h.78V33h-.82l-3.09-5h0l0,1.17V33Z"/><polygon class="cls-4" points="68.76 30.49 68.79 31.67 68.76 31.67 65.8 26.93 64.85 26.93 64.85 33.02 65.63 33.02 65.63 29.23 65.6 28.05 65.63 28.05 68.72 33.02 69.54 33.02 69.54 26.93 68.76 26.93 68.76 30.49"/><polygon class="cls-4" points="90.8 26.93 90.8 30.49 90.83 31.67 90.8 31.67 87.84 26.93 86.89 26.93 86.89 33.02 87.67 33.02 87.67 29.23 87.64 28.05 87.67 28.05 90.77 33.02 91.58 33.02 91.58 26.93 90.8 26.93"/><rect class="cls-4" x="62.56" y="26.98" width="0.81" height="5.99"/><path class="cls-4" d="M63.33,25.56a.53.53,0,0,0-.17-.11.48.48,0,0,0-.2,0,.46.46,0,0,0-.19,0,.53.53,0,0,0-.16.11.56.56,0,0,0-.11.16.5.5,0,0,0,0,.2.49.49,0,0,0,0,.19.53.53,0,0,0,.11.16.56.56,0,0,0,.16.11.46.46,0,0,0,.19,0,.48.48,0,0,0,.2,0,.55.55,0,0,0,.17-.11.53.53,0,0,0,.11-.16.46.46,0,0,0,0-.19.47.47,0,0,0,0-.2A.55.55,0,0,0,63.33,25.56Z"/><path class="cls-4" d="M75.25,27.8a2.68,2.68,0,0,0-.93-.61A3.26,3.26,0,0,0,73.11,27H70.87v6h2.24a3.26,3.26,0,0,0,1.21-.22,2.64,2.64,0,0,0,1.54-1.55,3.62,3.62,0,0,0,0-2.45A2.74,2.74,0,0,0,75.25,27.8ZM75.08,31a2.07,2.07,0,0,1-.43.73,1.83,1.83,0,0,1-.67.46,2.32,2.32,0,0,1-.88.16H71.68V27.63h1.43a2.34,2.34,0,0,1,.88.16,1.82,1.82,0,0,1,.67.46,2.09,2.09,0,0,1,.43.74,3.31,3.31,0,0,1,0,2Z"/><rect class="cls-4" x="77.23" y="26.98" width="0.81" height="5.99"/><path class="cls-4" d="M78,25.56a.53.53,0,0,0-.17-.11.48.48,0,0,0-.2,0,.46.46,0,0,0-.19,0,.53.53,0,0,0-.16.11.56.56,0,0,0-.11.16.5.5,0,0,0,0,.2.49.49,0,0,0,0,.19.53.53,0,0,0,.11.16.56.56,0,0,0,.16.11.46.46,0,0,0,.19,0,.48.48,0,0,0,.2,0,.55.55,0,0,0,.17-.11.53.53,0,0,0,.11-.16.46.46,0,0,0,0-.19.47.47,0,0,0,0-.2A.55.55,0,0,0,78,25.56Z"/><path class="cls-4" d="M82,30.34a2.27,2.27,0,0,0,.62-.23,1.74,1.74,0,0,0,.46-.37,1.54,1.54,0,0,0,.29-.5,1.72,1.72,0,0,0,.1-.59,1.77,1.77,0,0,0-.13-.69,1.33,1.33,0,0,0-.4-.52,1.88,1.88,0,0,0-.68-.33,3.7,3.7,0,0,0-1-.12H79.57v6h.81v-2.5H81a.55.55,0,0,1,.25,0,.46.46,0,0,1,.15.14L83,32.8a.35.35,0,0,0,.33.17H84l-1.75-2.38A.8.8,0,0,0,82,30.34Zm-.75-.46h-.85V27.62h.89a1.71,1.71,0,0,1,1.05.27,1,1,0,0,1,.35.81,1.22,1.22,0,0,1-.09.48,1,1,0,0,1-.27.37,1.27,1.27,0,0,1-.45.24A2.06,2.06,0,0,1,81.24,29.88Z"/><path class="cls-4" d="M85.59,25.56a.53.53,0,0,0-.17-.11.48.48,0,0,0-.2,0,.46.46,0,0,0-.19,0,.53.53,0,0,0-.16.11.56.56,0,0,0-.11.16.5.5,0,0,0,0,.2.49.49,0,0,0,0,.19.53.53,0,0,0,.11.16.56.56,0,0,0,.16.11.46.46,0,0,0,.19,0,.48.48,0,0,0,.2,0,.55.55,0,0,0,.17-.11.53.53,0,0,0,.11-.16.46.46,0,0,0,0-.19.47.47,0,0,0,0-.2A.55.55,0,0,0,85.59,25.56Z"/><rect class="cls-4" x="84.82" y="26.98" width="0.81" height="5.99"/><path class="cls-2" d="M11.71,32.45a3,3,0,0,0,2-.43l12.59-7-3.66-3.78Z"/><path class="cls-2" d="M10.47,8.69a3.34,3.34,0,0,0-.5,1.89V29.74a3.38,3.38,0,0,0,.47,1.85l11.1-11.46Z"/><path class="cls-2" d="M26.23,15.29l-12.56-7a3,3,0,0,0-1.91-.43L22.59,19Z"/><path class="cls-2" d="M27.61,24.23l3.63-2c2-1.13,2-3,0-4.12l-3.65-2-4,4.08Z"/></g></g></svg>