<svg xmlns="http://www.w3.org/2000/svg" xmlns:xlink="http://www.w3.org/1999/xlink" preserveAspectRatio="xMidYMid" width="192" height="36" viewBox="0 0 192 36">
  <defs>
    <style>

      .cls-3 {
        fill: #5c5e5f;
      }

      .cls-4 {
        fill: #f5921d;
      }
    </style>
  </defs>
  <g id="logo">
    <path d="M188.340,18.840 C188.340,18.840 188.340,9.197 188.340,9.197 C188.340,8.300 187.732,7.807 186.511,7.722 C185.641,7.672 184.955,7.957 184.448,8.577 C184.049,9.074 183.850,9.637 183.850,10.256 C183.850,10.256 183.850,18.840 183.850,18.840 C183.850,18.840 180.190,18.840 180.190,18.840 C180.190,18.840 180.190,9.197 180.190,9.197 C179.985,8.229 179.312,7.743 178.183,7.722 C177.505,7.706 176.928,7.905 176.460,8.318 C175.953,8.784 175.703,9.430 175.703,10.256 C175.703,10.256 175.703,18.840 175.703,18.840 C175.703,18.840 172.049,18.840 172.049,18.840 C172.049,18.840 172.049,4.826 172.049,4.826 C172.049,4.826 175.703,4.826 175.703,4.826 C175.703,4.826 175.703,6.920 175.703,6.920 C176.295,6.111 176.834,5.533 177.321,5.188 C177.913,4.757 178.599,4.539 179.385,4.539 C179.611,4.539 179.842,4.557 180.090,4.592 C180.908,4.698 181.560,4.923 182.045,5.268 C182.341,5.474 182.804,5.929 183.432,6.638 C183.918,5.962 184.389,5.474 184.840,5.162 C185.502,4.731 186.329,4.517 187.322,4.517 C187.653,4.517 188.008,4.539 188.392,4.592 C190.793,4.904 191.997,6.414 191.997,9.120 C191.997,9.120 191.997,18.840 191.997,18.840 C191.997,18.840 188.340,18.840 188.340,18.840 ZM163.896,19.434 C161.893,19.434 160.265,18.864 159.013,17.727 C157.620,16.469 156.922,14.565 156.922,12.015 C156.922,9.465 157.620,7.558 159.013,6.301 C160.265,5.162 161.893,4.592 163.896,4.592 C165.898,4.592 167.524,5.162 168.777,6.301 C170.170,7.558 170.866,9.465 170.866,12.015 C170.866,14.565 170.170,16.469 168.777,17.727 C167.524,18.864 165.898,19.434 163.896,19.434 ZM166.506,9.274 C165.916,8.222 165.042,7.695 163.896,7.695 C162.746,7.695 161.876,8.222 161.284,9.274 C160.831,10.066 160.606,10.981 160.606,12.015 C160.606,13.049 160.831,13.960 161.284,14.756 C161.876,15.805 162.746,16.331 163.896,16.331 C165.042,16.331 165.916,15.805 166.506,14.756 C166.960,13.960 167.183,13.049 167.183,12.015 C167.183,10.981 166.960,10.066 166.506,9.274 ZM148.900,15.971 C149.265,16.263 149.789,16.419 150.469,16.435 C151.807,16.488 152.688,15.661 153.104,13.952 C153.104,13.952 156.605,13.952 156.605,13.952 C156.620,14.785 156.316,15.669 155.689,16.617 C155.256,17.273 154.810,17.787 154.356,18.168 C153.748,18.669 153.096,19.011 152.399,19.201 C151.913,19.324 151.180,19.399 150.208,19.434 C148.240,19.505 146.682,18.867 145.536,17.519 C144.662,16.523 144.139,15.341 143.965,13.980 C143.878,13.344 143.836,12.703 143.836,12.067 C143.836,10.654 144.042,9.482 144.462,8.550 C145.210,6.877 146.115,5.767 147.178,5.214 C147.802,4.889 148.877,4.679 150.390,4.592 C151.902,4.506 153.149,4.766 154.121,5.369 C154.853,5.819 155.463,6.576 155.950,7.647 C156.387,8.577 156.605,9.377 156.605,10.050 C156.605,10.050 153.104,10.050 153.104,10.050 C152.863,9.067 152.486,8.411 151.983,8.086 C151.686,7.897 151.163,7.783 150.414,7.751 C149.164,7.681 148.318,8.370 147.883,9.817 C147.672,10.490 147.569,11.290 147.569,12.221 C147.569,12.842 147.638,13.402 147.776,13.903 C148.039,14.902 148.414,15.591 148.900,15.971 ZM138.869,15.064 C138.869,15.064 142.785,15.064 142.785,15.064 C142.785,15.064 142.785,18.840 142.785,18.840 C142.785,18.840 138.869,18.840 138.869,18.840 C138.869,18.840 138.869,15.064 138.869,15.064 Z" id="path-1" class="cls-3" fill-rule="evenodd"/>
    <path d="M133.980,18.840 C133.684,18.460 133.554,17.996 133.587,17.446 C132.159,18.788 130.688,19.459 129.176,19.459 C128.950,19.459 128.732,19.451 128.524,19.434 C125.980,19.160 124.762,17.720 124.870,15.116 C124.970,12.616 126.337,11.143 128.965,10.694 C130.306,10.645 131.535,10.428 132.649,10.050 C133.292,9.826 133.595,9.299 133.562,8.472 C133.548,8.092 133.353,7.792 132.988,7.569 C132.554,7.289 131.943,7.169 131.160,7.206 C129.625,7.275 128.826,8.032 128.758,9.482 C128.758,9.482 125.312,9.482 125.312,9.482 C125.346,6.223 127.296,4.592 131.160,4.592 C132.535,4.592 133.650,4.766 134.504,5.113 C136.189,5.800 137.035,7.111 137.035,9.042 C137.035,9.042 137.035,16.696 137.035,16.696 C137.035,17.316 137.305,17.864 137.844,18.350 C137.844,18.350 137.844,18.840 137.844,18.840 C137.844,18.840 133.980,18.840 133.980,18.840 ZM133.562,12.246 C133.127,12.506 132.554,12.688 131.841,12.790 C131.283,12.858 130.723,12.929 130.165,12.997 C129.679,13.084 129.281,13.290 128.965,13.617 C128.652,13.944 128.498,14.335 128.498,14.785 C128.498,15.176 128.610,15.531 128.838,15.841 C129.134,16.274 129.625,16.488 130.325,16.488 C130.533,16.488 130.759,16.469 131.005,16.435 C132.709,16.160 133.562,15.029 133.562,13.048 C133.562,13.048 133.562,12.246 133.562,12.246 ZM120.268,17.446 C119.361,18.703 118.151,19.364 116.635,19.434 C115.364,19.485 114.328,19.253 113.531,18.734 C112.745,18.219 112.077,17.373 111.519,16.201 C110.875,14.822 110.516,13.523 110.448,12.297 C110.362,10.851 110.666,9.343 111.363,7.776 C112.250,5.775 113.870,4.713 116.217,4.592 C118.185,4.490 119.536,5.206 120.268,6.739 C120.268,6.739 120.268,-0.008 120.268,-0.008 C120.268,-0.008 123.922,-0.008 123.922,-0.008 C123.922,-0.008 123.922,18.916 123.922,18.916 C123.922,18.916 120.268,18.916 120.268,18.916 C120.268,18.916 120.268,17.446 120.268,17.446 ZM119.639,9.299 C119.100,8.247 118.289,7.722 117.212,7.722 C116.114,7.722 115.297,8.247 114.757,9.299 C114.338,10.107 114.131,11.024 114.131,12.040 C114.131,13.060 114.338,13.971 114.757,14.785 C115.297,15.835 116.114,16.359 117.212,16.359 C118.289,16.359 119.100,15.835 119.639,14.785 C120.057,13.971 120.268,13.060 120.268,12.040 C120.268,11.024 120.057,10.107 119.639,9.299 ZM106.083,17.446 C104.655,18.788 103.183,19.459 101.667,19.459 C101.439,19.459 101.224,19.451 101.017,19.434 C98.474,19.160 97.256,17.720 97.362,15.116 C97.468,12.616 98.832,11.143 101.461,10.694 C102.800,10.645 104.027,10.428 105.142,10.050 C105.784,9.826 106.090,9.299 106.056,8.472 C106.040,8.092 105.845,7.792 105.483,7.569 C105.046,7.289 104.436,7.169 103.654,7.206 C102.121,7.275 101.318,8.032 101.254,9.482 C101.254,9.482 97.806,9.482 97.806,9.482 C97.841,6.223 99.790,4.592 103.654,4.592 C105.028,4.592 106.143,4.766 106.996,5.113 C108.684,5.800 109.528,7.111 109.528,9.042 C109.528,9.042 109.528,16.696 109.528,16.696 C109.528,17.316 109.799,17.864 110.338,18.350 C110.338,18.350 110.338,18.840 110.338,18.840 C110.338,18.840 106.474,18.840 106.474,18.840 C106.177,18.460 106.048,17.996 106.083,17.446 ZM106.056,12.246 C105.619,12.506 105.046,12.688 104.336,12.790 C103.776,12.858 103.218,12.929 102.660,12.997 C102.174,13.084 101.772,13.290 101.461,13.617 C101.148,13.944 100.991,14.335 100.991,14.785 C100.991,15.176 101.104,15.531 101.330,15.841 C101.624,16.274 102.121,16.488 102.817,16.488 C103.026,16.488 103.255,16.469 103.497,16.435 C105.203,16.160 106.056,15.029 106.056,13.048 C106.056,13.048 106.056,12.246 106.056,12.246 ZM93.284,10.953 C93.284,10.953 93.284,18.840 93.284,18.840 C93.284,18.840 89.624,18.840 89.624,18.840 C89.624,18.840 89.624,4.826 89.624,4.826 C89.624,4.826 93.284,4.826 93.284,4.826 C93.284,4.826 93.284,7.542 93.284,7.542 C93.579,6.698 94.160,5.962 95.031,5.343 C95.779,4.808 96.487,4.539 97.149,4.539 C97.303,4.539 97.469,4.557 97.641,4.592 C97.641,4.592 97.641,8.291 97.641,8.291 C97.121,8.238 96.704,8.214 96.388,8.214 C94.577,8.214 93.543,9.126 93.284,10.953 ZM83.980,17.107 C83.144,18.452 81.979,19.228 80.482,19.434 C78.952,19.416 77.793,19.182 77.009,18.734 C75.685,17.978 75.024,16.589 75.024,14.576 C75.024,14.576 75.024,4.826 75.024,4.826 C75.024,4.826 78.679,4.826 78.679,4.826 C78.679,4.826 78.679,13.512 78.679,13.512 C78.679,14.427 78.783,15.056 78.996,15.401 C79.359,16.038 80.135,16.314 81.318,16.227 C82.972,16.106 83.861,15.322 83.980,13.875 C83.980,13.875 83.980,4.826 83.980,4.826 C83.980,4.826 87.636,4.826 87.636,4.826 C87.636,4.826 87.636,18.840 87.636,18.840 C87.636,18.840 83.980,18.840 83.980,18.840 C83.980,18.840 83.980,17.107 83.980,17.107 ZM70.947,18.734 C70.161,19.252 69.134,19.485 67.864,19.434 C66.350,19.366 65.139,18.703 64.234,17.446 C64.234,17.446 64.234,18.840 64.234,18.840 C64.234,18.840 60.581,18.840 60.581,18.840 C60.581,18.840 60.581,-0.008 60.581,-0.008 C60.581,-0.008 64.234,-0.008 64.234,-0.008 C64.234,-0.008 64.234,6.739 64.234,6.739 C64.966,5.206 66.316,4.490 68.284,4.592 C70.650,4.713 72.269,5.775 73.141,7.775 C73.766,9.188 74.079,10.542 74.079,11.833 C74.079,13.211 73.714,14.668 72.983,16.201 C72.427,17.377 71.747,18.219 70.947,18.734 ZM69.741,9.323 C69.203,8.274 68.399,7.751 67.318,7.751 C66.219,7.751 65.402,8.274 64.863,9.323 C64.444,10.135 64.234,11.048 64.234,12.067 C64.234,13.084 64.444,13.998 64.863,14.806 C65.402,15.858 66.219,16.383 67.318,16.383 C68.399,16.383 69.203,15.858 69.741,14.806 C70.161,13.998 70.370,13.084 70.370,12.067 C70.370,11.048 70.161,10.135 69.741,9.323 ZM55.014,4.826 C55.014,4.826 58.668,4.826 58.668,4.826 C58.668,4.826 58.668,18.840 58.668,18.840 C58.668,18.840 55.014,18.840 55.014,18.840 C55.014,18.840 55.014,4.826 55.014,4.826 ZM55.014,-0.008 C55.014,-0.008 58.668,-0.008 58.668,-0.008 C58.668,-0.008 58.668,3.223 58.668,3.223 C58.668,3.223 55.014,3.223 55.014,3.223 C55.014,3.223 55.014,-0.008 55.014,-0.008 ZM51.168,11.085 C51.864,11.272 52.465,11.662 52.972,12.246 C53.527,12.902 53.804,13.643 53.804,14.471 C53.804,15.350 53.596,16.168 53.180,16.927 C52.641,17.911 51.830,18.590 50.748,18.968 C49.740,19.315 48.558,19.466 47.199,19.434 C45.858,19.399 44.823,19.218 44.093,18.892 C42.073,18.013 41.040,16.627 40.985,14.731 C40.985,14.731 44.587,14.731 44.587,14.731 C44.815,15.471 45.203,15.989 45.762,16.280 C46.144,16.469 46.817,16.617 47.773,16.719 C48.507,16.806 49.070,16.694 49.473,16.383 C49.818,16.106 49.994,15.753 49.994,15.322 C49.994,14.651 49.689,14.229 49.079,14.058 C49.079,14.058 44.537,12.763 44.537,12.763 C42.552,12.196 41.541,11.058 41.507,9.350 C41.472,7.798 42.046,6.576 43.231,5.679 C44.118,5.008 45.363,4.647 46.964,4.592 C48.722,4.539 50.186,4.889 51.351,5.628 C52.743,6.525 53.439,7.766 53.439,9.350 C53.439,9.350 49.915,9.350 49.915,9.350 C49.899,8.849 49.818,8.487 49.678,8.263 C49.505,7.974 49.134,7.739 48.558,7.569 C48.069,7.411 47.618,7.334 47.199,7.334 C46.643,7.334 46.111,7.473 45.609,7.751 C45.223,7.954 45.034,8.282 45.034,8.730 C45.034,9.197 45.320,9.509 45.895,9.660 C45.895,9.660 51.168,11.085 51.168,11.085 ZM37.064,19.095 C36.487,19.324 35.715,19.434 34.738,19.434 C33.869,19.434 33.128,19.247 32.518,18.864 C32.135,18.624 31.605,18.132 30.926,17.392 C30.926,17.392 30.926,24.502 30.926,24.502 C30.926,24.502 27.270,24.502 27.270,24.502 C27.270,24.502 27.270,4.826 27.270,4.826 C27.270,4.826 30.926,4.826 30.926,4.826 C30.926,4.826 30.926,6.946 30.926,6.946 C31.710,6.017 32.179,5.491 32.334,5.369 C32.927,4.904 33.713,4.647 34.688,4.592 C36.149,4.506 37.470,5.068 38.654,6.274 C40.049,7.706 40.746,9.710 40.746,12.297 C40.746,14.711 40.100,16.573 38.812,17.882 C38.238,18.470 37.653,18.872 37.064,19.095 ZM36.437,9.377 C35.896,8.326 35.088,7.798 34.006,7.798 C32.908,7.798 32.092,8.326 31.552,9.377 C31.135,10.186 30.926,11.098 30.926,12.118 C30.926,13.135 31.135,14.046 31.552,14.855 C32.092,15.910 32.908,16.435 34.006,16.435 C35.088,16.435 35.896,15.910 36.437,14.855 C36.855,14.046 37.064,13.135 37.064,12.118 C37.064,11.098 36.855,10.186 36.437,9.377 ZM17.004,12.972 C16.900,13.935 17.046,14.688 17.449,15.221 C18.074,16.084 18.899,16.513 19.930,16.513 C20.487,16.513 21.044,16.367 21.599,16.073 C22.175,15.764 22.523,15.367 22.646,14.884 C22.646,14.884 26.249,14.884 26.249,14.884 C25.953,16.177 25.108,17.273 23.715,18.168 C22.426,19.011 21.123,19.434 19.796,19.434 C18.438,19.434 17.214,19.081 16.116,18.375 C14.829,17.550 13.984,16.435 13.583,15.039 C13.462,14.625 13.375,14.057 13.323,13.333 C13.234,12.316 13.278,11.317 13.452,10.335 C14.096,6.508 16.219,4.592 19.824,4.592 C22.243,4.592 24.038,5.515 25.203,7.360 C26.021,8.651 26.429,10.177 26.429,11.939 C26.429,12.210 26.421,12.555 26.403,12.972 C26.403,12.972 17.004,12.972 17.004,12.972 ZM20.059,7.619 C19.032,7.569 18.240,7.877 17.681,8.550 C17.214,9.101 16.987,9.763 17.004,10.542 C17.004,10.542 22.617,10.542 22.617,10.542 C22.617,8.677 21.764,7.706 20.059,7.619 ZM8.722,9.971 C8.722,8.487 7.964,7.751 6.449,7.751 C5.734,7.751 5.116,7.974 4.597,8.417 C3.969,8.954 3.654,9.703 3.654,10.669 C3.654,10.669 3.654,18.840 3.654,18.840 C3.654,18.840 -0.000,18.840 -0.000,18.840 C-0.000,18.840 -0.000,-0.008 -0.000,-0.008 C-0.000,-0.008 3.394,-0.008 3.394,-0.008 C3.394,-0.008 3.394,6.638 3.394,6.638 C4.317,5.274 5.770,4.592 7.756,4.592 C8.991,4.592 10.027,4.889 10.861,5.474 C11.872,6.198 12.376,7.240 12.376,8.601 C12.376,8.601 12.376,18.840 12.376,18.840 C12.376,18.840 8.722,18.840 8.722,18.840 C8.722,18.840 8.722,9.971 8.722,9.971 Z" id="path-2" class="cls-4" fill-rule="evenodd"/>
    <path d="M190.766,33.012 C190.766,33.012 190.766,28.029 190.766,28.029 C190.766,27.118 190.186,26.548 189.245,26.548 C187.752,26.548 187.028,27.531 187.028,28.854 C187.028,28.854 187.028,33.012 187.028,33.012 C187.028,33.012 185.798,33.012 185.798,33.012 C185.798,33.012 185.798,25.651 185.798,25.651 C185.798,25.651 186.956,25.651 186.956,25.651 C186.956,25.651 186.956,26.818 186.956,26.818 C186.956,26.818 186.985,26.818 186.985,26.818 C187.507,25.907 188.332,25.480 189.418,25.480 C191.389,25.480 191.997,26.590 191.997,28.172 C191.997,28.172 191.997,33.012 191.997,33.012 C191.997,33.012 190.766,33.012 190.766,33.012 ZM183.104,25.651 C183.104,25.651 184.336,25.651 184.336,25.651 C184.336,25.651 184.336,33.012 184.336,33.012 C184.336,33.012 183.104,33.012 183.104,33.012 C183.104,33.012 183.104,25.651 183.104,25.651 ZM183.104,22.846 C183.104,22.846 184.336,22.846 184.336,22.846 C184.336,22.846 184.336,24.327 184.336,24.327 C184.336,24.327 183.104,24.327 183.104,24.327 C183.104,24.327 183.104,22.846 183.104,22.846 ZM182.122,30.862 C182.122,32.629 180.456,33.184 178.935,33.184 C177.255,33.184 175.835,32.513 175.763,30.691 C175.763,30.691 176.995,30.691 176.995,30.691 C177.037,31.774 178.009,32.115 179.008,32.115 C179.775,32.115 180.818,31.945 180.818,31.019 C180.818,29.126 175.922,30.406 175.922,27.574 C175.922,26.093 177.400,25.480 178.718,25.480 C180.399,25.480 181.672,25.992 181.788,27.786 C181.788,27.786 180.558,27.786 180.558,27.786 C180.486,26.847 179.616,26.548 178.820,26.548 C178.081,26.548 177.226,26.747 177.226,27.488 C177.226,28.342 178.530,28.513 179.673,28.770 C180.905,29.040 182.122,29.452 182.122,30.862 ZM173.548,22.846 C173.548,22.846 174.779,22.846 174.779,22.846 C174.779,22.846 174.779,33.012 174.779,33.012 C174.779,33.012 173.548,33.012 173.548,33.012 C173.548,33.012 173.548,22.846 173.548,22.846 ZM167.047,29.696 C167.003,30.976 167.742,32.115 169.378,32.115 C170.407,32.115 171.103,31.645 171.320,30.678 C171.320,30.678 172.537,30.678 172.537,30.678 C172.204,32.315 171.031,33.184 169.335,33.184 C166.945,33.184 165.815,31.546 165.743,29.310 C165.743,27.089 167.221,25.480 169.263,25.480 C171.914,25.480 172.725,27.915 172.653,29.696 C172.653,29.696 167.047,29.696 167.047,29.696 ZM169.190,26.548 C167.915,26.548 167.119,27.488 167.047,28.627 C167.047,28.627 171.349,28.627 171.349,28.627 C171.277,27.473 170.422,26.548 169.190,26.548 ZM161.382,36.003 C159.978,36.003 158.355,35.434 158.283,33.839 C158.283,33.839 159.513,33.839 159.513,33.839 C159.557,34.708 160.658,35.035 161.456,35.035 C163.063,35.035 163.700,33.896 163.700,32.243 C163.700,32.243 163.700,31.760 163.700,31.760 C163.700,31.760 163.671,31.760 163.671,31.760 C163.251,32.657 162.295,33.098 161.340,33.098 C159.108,33.098 157.993,31.375 157.993,29.368 C157.993,27.630 158.848,25.480 161.456,25.480 C162.396,25.480 163.237,25.893 163.686,26.704 C163.686,26.704 163.700,26.704 163.700,26.704 C163.700,26.704 163.700,25.651 163.700,25.651 C163.700,25.651 164.860,25.651 164.860,25.651 C164.860,25.651 164.860,32.386 164.860,32.386 C164.860,34.792 163.758,36.003 161.382,36.003 ZM161.513,26.548 C159.934,26.548 159.297,27.816 159.297,29.225 C159.297,30.549 159.790,32.030 161.412,32.030 C163.034,32.030 163.643,30.564 163.643,29.182 C163.643,27.887 163.063,26.548 161.513,26.548 ZM153.133,33.184 C152.496,33.184 152.090,32.841 152.090,32.044 C151.410,32.841 150.497,33.184 149.454,33.184 C148.092,33.184 146.977,32.600 146.977,31.119 C146.977,29.452 148.237,29.083 149.511,28.854 C150.859,28.584 152.032,28.698 152.032,27.773 C152.032,26.704 151.133,26.548 150.366,26.548 C149.323,26.548 148.556,26.861 148.497,27.943 C148.497,27.943 147.267,27.943 147.267,27.943 C147.339,26.121 148.758,25.480 150.438,25.480 C151.785,25.480 153.249,25.780 153.249,27.502 C153.249,27.502 153.249,31.291 153.249,31.291 C153.249,31.859 153.249,32.115 153.641,32.115 C153.756,32.115 153.887,32.088 154.016,32.044 C154.016,32.044 154.016,32.984 154.016,32.984 C153.800,33.113 153.495,33.184 153.133,33.184 ZM152.018,29.210 C151.061,29.909 148.281,29.225 148.281,31.034 C148.281,31.831 148.976,32.115 149.729,32.115 C151.351,32.115 152.018,31.133 152.018,30.449 C152.018,30.449 152.018,29.210 152.018,29.210 ZM144.749,28.029 C144.749,27.118 144.169,26.548 143.227,26.548 C141.736,26.548 141.011,27.531 141.011,28.854 C141.011,28.854 141.011,33.012 141.011,33.012 C141.011,33.012 139.780,33.012 139.780,33.012 C139.780,33.012 139.780,25.651 139.780,25.651 C139.780,25.651 140.939,25.651 140.939,25.651 C140.939,25.651 140.939,26.818 140.939,26.818 C140.939,26.818 140.968,26.818 140.968,26.818 C141.489,25.907 142.315,25.480 143.401,25.480 C145.371,25.480 145.979,26.590 145.979,28.172 C145.979,28.172 145.979,33.012 145.979,33.012 C145.979,33.012 144.749,33.012 144.749,33.012 C144.749,33.012 144.749,28.029 144.749,28.029 ZM137.086,25.651 C137.086,25.651 138.318,25.651 138.318,25.651 C138.318,25.651 138.318,33.012 138.318,33.012 C138.318,33.012 137.086,33.012 137.086,33.012 C137.086,33.012 137.086,25.651 137.086,25.651 ZM132.136,36.003 C130.730,36.003 129.108,35.434 129.036,33.839 C129.036,33.839 130.267,33.839 130.267,33.839 C130.311,34.708 131.412,35.035 132.208,35.035 C133.816,35.035 134.454,33.896 134.454,32.243 C134.454,32.243 134.454,31.760 134.454,31.760 C134.454,31.760 134.424,31.760 134.424,31.760 C134.005,32.657 133.048,33.098 132.093,33.098 C129.862,33.098 128.746,31.375 128.746,29.368 C128.746,27.630 129.601,25.480 132.208,25.480 C133.150,25.480 133.990,25.893 134.439,26.704 C134.439,26.704 134.454,26.704 134.454,26.704 C134.454,26.704 134.454,25.651 134.454,25.651 C134.454,25.651 135.612,25.651 135.612,25.651 C135.612,25.651 135.612,32.386 135.612,32.386 C135.612,34.792 134.511,36.003 132.136,36.003 ZM132.267,26.548 C130.688,26.548 130.050,27.816 130.050,29.225 C130.050,30.549 130.542,32.030 132.165,32.030 C133.787,32.030 134.395,30.564 134.395,29.182 C134.395,27.887 133.816,26.548 132.267,26.548 ZM132.339,24.597 C131.006,24.597 130.296,23.900 130.108,22.633 C130.108,22.633 130.832,22.633 130.832,22.633 C131.064,23.416 131.600,23.814 132.455,23.814 C133.281,23.814 133.599,23.358 133.889,22.633 C133.889,22.633 134.627,22.633 134.627,22.633 C134.410,23.842 133.613,24.597 132.339,24.597 ZM127.575,33.184 C126.938,33.184 126.533,32.841 126.533,32.044 C125.852,32.841 124.939,33.184 123.896,33.184 C122.535,33.184 121.419,32.600 121.419,31.119 C121.419,29.452 122.680,29.083 123.955,28.854 C125.301,28.584 126.476,28.698 126.476,27.773 C126.476,26.704 125.577,26.548 124.810,26.548 C123.766,26.548 122.998,26.861 122.941,27.943 C122.941,27.943 121.709,27.943 121.709,27.943 C121.781,26.121 123.201,25.480 124.882,25.480 C126.229,25.480 127.692,25.780 127.692,27.502 C127.692,27.502 127.692,31.291 127.692,31.291 C127.692,31.859 127.692,32.115 128.083,32.115 C128.199,32.115 128.329,32.088 128.460,32.044 C128.460,32.044 128.460,32.984 128.460,32.984 C128.242,33.113 127.937,33.184 127.575,33.184 ZM126.461,29.210 C125.504,29.909 122.723,29.225 122.723,31.034 C122.723,31.831 123.419,32.115 124.171,32.115 C125.794,32.115 126.461,31.133 126.461,30.449 C126.461,30.449 126.461,29.210 126.461,29.210 ZM116.283,35.961 C115.993,35.961 115.703,35.932 115.428,35.833 C115.428,35.833 115.428,34.721 115.428,34.721 C115.661,34.792 115.906,34.892 116.152,34.892 C116.660,34.892 116.935,34.665 117.166,34.223 C117.166,34.223 117.674,32.970 117.674,32.970 C117.674,32.970 114.704,25.651 114.704,25.651 C114.704,25.651 116.095,25.651 116.095,25.651 C116.095,25.651 118.282,31.675 118.282,31.675 C118.282,31.675 118.311,31.675 118.311,31.675 C118.311,31.675 120.411,25.651 120.411,25.651 C120.411,25.651 121.715,25.651 121.715,25.651 C121.715,25.651 118.456,33.995 118.456,33.995 C117.876,35.419 117.384,35.961 116.283,35.961 ZM114.965,32.115 C115.081,32.115 115.212,32.088 115.342,32.044 C115.342,32.044 115.342,32.984 115.342,32.984 C115.125,33.113 114.821,33.184 114.459,33.184 C113.821,33.184 113.415,32.841 113.415,32.044 C112.735,32.841 111.823,33.184 110.779,33.184 C109.418,33.184 108.302,32.600 108.302,31.119 C108.302,29.452 109.562,29.083 110.837,28.854 C112.185,28.584 113.358,28.698 113.358,27.773 C113.358,26.704 112.460,26.548 111.692,26.548 C110.649,26.548 109.880,26.861 109.823,27.943 C109.823,27.943 108.591,27.943 108.591,27.943 C108.664,26.121 110.085,25.480 111.764,25.480 C113.112,25.480 114.575,25.780 114.575,27.502 C114.575,27.502 114.575,31.291 114.575,31.291 C114.575,31.859 114.575,32.115 114.965,32.115 ZM113.343,29.210 C112.388,29.909 109.606,29.225 109.606,31.034 C109.606,31.831 110.301,32.115 111.055,32.115 C112.677,32.115 113.343,31.133 113.343,30.449 C113.343,30.449 113.343,29.210 113.343,29.210 ZM97.922,35.961 C97.632,35.961 97.342,35.932 97.067,35.833 C97.067,35.833 97.067,34.721 97.067,34.721 C97.299,34.792 97.545,34.892 97.791,34.892 C98.298,34.892 98.573,34.665 98.805,34.223 C98.805,34.223 99.312,32.970 99.312,32.970 C99.312,32.970 96.343,25.651 96.343,25.651 C96.343,25.651 97.733,25.651 97.733,25.651 C97.733,25.651 99.920,31.675 99.920,31.675 C99.920,31.675 99.950,31.675 99.950,31.675 C99.950,31.675 102.050,25.651 102.050,25.651 C102.050,25.651 103.354,25.651 103.354,25.651 C103.354,25.651 100.095,33.995 100.095,33.995 C99.515,35.419 99.022,35.961 97.922,35.961 ZM96.516,29.696 C96.516,29.696 90.910,29.696 90.910,29.696 C90.867,30.976 91.606,32.115 93.243,32.115 C94.271,32.115 94.966,31.645 95.184,30.678 C95.184,30.678 96.401,30.678 96.401,30.678 C96.067,32.315 94.894,33.184 93.199,33.184 C90.809,33.184 89.679,31.546 89.607,29.310 C89.607,27.089 91.084,25.480 93.127,25.480 C95.778,25.480 96.589,27.915 96.516,29.696 ZM93.054,26.548 C91.780,26.548 90.983,27.488 90.910,28.627 C90.910,28.627 95.213,28.627 95.213,28.627 C95.140,27.473 94.286,26.548 93.054,26.548 ZM89.102,30.862 C89.102,32.629 87.436,33.184 85.915,33.184 C84.235,33.184 82.815,32.513 82.743,30.691 C82.743,30.691 83.974,30.691 83.974,30.691 C84.018,31.774 84.988,32.115 85.988,32.115 C86.756,32.115 87.799,31.945 87.799,31.019 C87.799,29.126 82.903,30.406 82.903,27.574 C82.903,26.093 84.380,25.480 85.698,25.480 C87.378,25.480 88.653,25.992 88.769,27.786 C88.769,27.786 87.538,27.786 87.538,27.786 C87.465,26.847 86.596,26.548 85.800,26.548 C85.061,26.548 84.206,26.747 84.206,27.488 C84.206,28.342 85.510,28.513 86.654,28.770 C87.885,29.040 89.102,29.452 89.102,30.862 ZM76.459,29.737 C76.459,29.737 76.459,33.012 76.459,33.012 C76.459,33.012 75.228,33.012 75.228,33.012 C75.228,33.012 75.228,25.651 75.228,25.651 C75.228,25.651 76.387,25.651 76.387,25.651 C76.387,25.651 76.387,27.203 76.387,27.203 C76.387,27.203 76.416,27.203 76.416,27.203 C77.010,26.007 77.835,25.437 79.168,25.480 C79.168,25.480 79.168,26.762 79.168,26.762 C77.184,26.762 76.459,27.857 76.459,29.737 ZM68.843,29.696 C68.800,30.976 69.538,32.115 71.175,32.115 C72.203,32.115 72.899,31.645 73.116,30.678 C73.116,30.678 74.333,30.678 74.333,30.678 C74.000,32.315 72.827,33.184 71.132,33.184 C68.742,33.184 67.612,31.546 67.539,29.310 C67.539,27.089 69.017,25.480 71.059,25.480 C73.710,25.480 74.521,27.915 74.449,29.696 C74.449,29.696 68.843,29.696 68.843,29.696 ZM70.987,26.548 C69.712,26.548 68.915,27.488 68.843,28.627 C68.843,28.627 73.145,28.627 73.145,28.627 C73.073,27.473 72.218,26.548 70.987,26.548 ZM65.571,28.029 C65.571,27.118 64.991,26.548 64.050,26.548 C62.558,26.548 61.834,27.531 61.834,28.854 C61.834,28.854 61.834,33.012 61.834,33.012 C61.834,33.012 60.602,33.012 60.602,33.012 C60.602,33.012 60.602,22.846 60.602,22.846 C60.602,22.846 61.834,22.846 61.834,22.846 C61.834,22.846 61.834,26.734 61.834,26.734 C61.834,26.734 61.863,26.734 61.863,26.734 C62.254,25.836 63.340,25.480 64.224,25.480 C66.194,25.480 66.802,26.590 66.802,28.172 C66.802,28.172 66.802,33.012 66.802,33.012 C66.802,33.012 65.571,33.012 65.571,33.012 C65.571,33.012 65.571,28.029 65.571,28.029 ZM86.741,34.821 C86.741,35.634 86.162,36.003 85.307,36.003 C85.307,36.003 85.307,35.505 85.307,35.505 C85.901,35.349 85.886,35.149 85.886,34.978 C85.886,34.978 85.133,34.978 85.133,34.978 C85.133,34.978 85.133,33.724 85.133,33.724 C85.133,33.724 86.741,33.724 86.741,33.724 C86.741,33.724 86.741,34.821 86.741,34.821 Z" id="path-3" class="cls-4" fill-rule="evenodd"/>
  </g>
</svg>
