<svg xmlns="http://www.w3.org/2000/svg" xmlns:xlink="http://www.w3.org/1999/xlink" preserveAspectRatio="xMidYMid" width="170" height="22" viewBox="0 0 170 22">
  <defs>
    <style>

      .cls-3 {
        fill: #5c5e5f;
      }

      .cls-4 {
        fill: #f5921d;
      }
    </style>
  </defs>
  <g id="logo_mobilesvg">
    <path d="M166.760,16.917 C166.760,16.917 166.760,8.259 166.760,8.259 C166.760,7.453 166.221,7.010 165.140,6.934 C164.370,6.889 163.763,7.145 163.313,7.701 C162.960,8.148 162.784,8.654 162.784,9.209 C162.784,9.209 162.784,16.917 162.784,16.917 C162.784,16.917 159.544,16.917 159.544,16.917 C159.544,16.917 159.544,8.259 159.544,8.259 C159.362,7.389 158.766,6.953 157.766,6.934 C157.166,6.919 156.655,7.098 156.240,7.469 C155.792,7.888 155.570,8.468 155.570,9.209 C155.570,9.209 155.570,16.917 155.570,16.917 C155.570,16.917 152.335,16.917 152.335,16.917 C152.335,16.917 152.335,4.334 152.335,4.334 C152.335,4.334 155.570,4.334 155.570,4.334 C155.570,4.334 155.570,6.214 155.570,6.214 C156.095,5.487 156.572,4.968 157.003,4.658 C157.527,4.271 158.135,4.075 158.830,4.075 C159.030,4.075 159.235,4.092 159.454,4.123 C160.179,4.218 160.756,4.420 161.186,4.730 C161.448,4.915 161.857,5.324 162.414,5.960 C162.844,5.354 163.261,4.915 163.660,4.635 C164.247,4.248 164.978,4.056 165.858,4.056 C166.151,4.056 166.466,4.075 166.805,4.123 C168.931,4.403 169.998,5.760 169.998,8.189 C169.998,8.189 169.998,16.917 169.998,16.917 C169.998,16.917 166.760,16.917 166.760,16.917 ZM145.116,17.451 C143.342,17.451 141.901,16.939 140.792,15.918 C139.560,14.788 138.941,13.079 138.941,10.789 C138.941,8.499 139.560,6.787 140.792,5.658 C141.901,4.635 143.342,4.123 145.116,4.123 C146.889,4.123 148.329,4.635 149.438,5.658 C150.672,6.787 151.287,8.499 151.287,10.789 C151.287,13.079 150.672,14.788 149.438,15.918 C148.329,16.939 146.889,17.451 145.116,17.451 ZM147.428,8.327 C146.905,7.383 146.131,6.910 145.116,6.910 C144.098,6.910 143.328,7.383 142.804,8.327 C142.402,9.039 142.204,9.860 142.204,10.789 C142.204,11.718 142.402,12.536 142.804,13.251 C143.328,14.193 144.098,14.665 145.116,14.665 C146.131,14.665 146.905,14.193 147.428,13.251 C147.829,12.536 148.027,11.718 148.027,10.789 C148.027,9.860 147.829,9.039 147.428,8.327 ZM131.839,14.342 C132.162,14.603 132.626,14.744 133.228,14.758 C134.413,14.805 135.192,14.063 135.561,12.529 C135.561,12.529 138.661,12.529 138.661,12.529 C138.674,13.276 138.405,14.070 137.850,14.922 C137.466,15.511 137.071,15.972 136.670,16.314 C136.131,16.764 135.554,17.071 134.937,17.242 C134.507,17.352 133.857,17.420 132.997,17.451 C131.254,17.514 129.874,16.941 128.860,15.732 C128.086,14.837 127.623,13.776 127.469,12.554 C127.392,11.982 127.354,11.406 127.354,10.836 C127.354,9.567 127.538,8.515 127.909,7.677 C128.572,6.176 129.373,5.178 130.314,4.682 C130.866,4.390 131.818,4.202 133.158,4.123 C134.497,4.047 135.601,4.280 136.461,4.822 C137.110,5.225 137.649,5.905 138.081,6.866 C138.468,7.701 138.661,8.420 138.661,9.024 C138.661,9.024 135.561,9.024 135.561,9.024 C135.348,8.142 135.014,7.552 134.568,7.260 C134.305,7.091 133.843,6.989 133.179,6.960 C132.072,6.898 131.323,7.516 130.938,8.815 C130.752,9.419 130.660,10.138 130.660,10.974 C130.660,11.531 130.721,12.035 130.843,12.484 C131.076,13.382 131.408,14.000 131.839,14.342 ZM122.957,13.527 C122.957,13.527 126.424,13.527 126.424,13.527 C126.424,13.527 126.424,16.917 126.424,16.917 C126.424,16.917 122.957,16.917 122.957,16.917 C122.957,16.917 122.957,13.527 122.957,13.527 Z" id="path-1" class="cls-3" fill-rule="evenodd"/>
    <path d="M118.628,16.917 C118.366,16.576 118.251,16.159 118.280,15.665 C117.016,16.871 115.713,17.474 114.375,17.474 C114.174,17.474 113.982,17.466 113.797,17.451 C111.545,17.204 110.466,15.912 110.562,13.574 C110.651,11.328 111.861,10.006 114.188,9.603 C115.375,9.559 116.463,9.364 117.450,9.024 C118.019,8.823 118.287,8.350 118.258,7.608 C118.245,7.266 118.073,6.997 117.750,6.797 C117.366,6.546 116.824,6.437 116.131,6.471 C114.772,6.532 114.065,7.212 114.004,8.515 C114.004,8.515 110.953,8.515 110.953,8.515 C110.983,5.588 112.710,4.123 116.131,4.123 C117.349,4.123 118.336,4.280 119.092,4.591 C120.584,5.208 121.333,6.386 121.333,8.119 C121.333,8.119 121.333,14.993 121.333,14.993 C121.333,15.549 121.572,16.041 122.050,16.478 C122.050,16.478 122.050,16.917 122.050,16.917 C122.050,16.917 118.628,16.917 118.628,16.917 ZM118.258,10.997 C117.873,11.230 117.366,11.393 116.734,11.485 C116.240,11.546 115.745,11.610 115.251,11.671 C114.820,11.749 114.467,11.934 114.188,12.227 C113.911,12.521 113.774,12.872 113.774,13.276 C113.774,13.628 113.873,13.946 114.076,14.225 C114.337,14.613 114.772,14.805 115.392,14.805 C115.576,14.805 115.776,14.788 115.994,14.758 C117.503,14.511 118.258,13.496 118.258,11.716 C118.258,11.716 118.258,10.997 118.258,10.997 ZM106.487,15.665 C105.685,16.795 104.613,17.388 103.271,17.451 C102.145,17.496 101.228,17.289 100.522,16.822 C99.827,16.360 99.235,15.601 98.741,14.548 C98.171,13.309 97.853,12.143 97.793,11.042 C97.717,9.744 97.985,8.390 98.602,6.983 C99.388,5.186 100.822,4.232 102.901,4.123 C104.643,4.032 105.839,4.675 106.487,6.052 C106.487,6.052 106.487,-0.007 106.487,-0.007 C106.487,-0.007 109.723,-0.007 109.723,-0.007 C109.723,-0.007 109.723,16.986 109.723,16.986 C109.723,16.986 106.487,16.986 106.487,16.986 C106.487,16.986 106.487,15.665 106.487,15.665 ZM105.930,8.350 C105.453,7.406 104.735,6.934 103.782,6.934 C102.809,6.934 102.086,7.406 101.608,8.350 C101.237,9.076 101.053,9.899 101.053,10.812 C101.053,11.727 101.237,12.545 101.608,13.276 C102.086,14.219 102.809,14.690 103.782,14.690 C104.735,14.690 105.453,14.219 105.930,13.276 C106.300,12.545 106.487,11.727 106.487,10.812 C106.487,9.899 106.300,9.076 105.930,8.350 ZM93.928,15.665 C92.664,16.871 91.360,17.474 90.017,17.474 C89.816,17.474 89.626,17.466 89.442,17.451 C87.191,17.204 86.112,15.912 86.206,13.574 C86.300,11.328 87.507,10.006 89.835,9.603 C91.021,9.559 92.107,9.364 93.094,9.024 C93.663,8.823 93.934,8.350 93.904,7.608 C93.889,7.266 93.717,6.997 93.396,6.797 C93.009,6.546 92.469,6.437 91.777,6.471 C90.420,6.532 89.709,7.212 89.652,8.515 C89.652,8.515 86.599,8.515 86.599,8.515 C86.630,5.588 88.356,4.123 91.777,4.123 C92.994,4.123 93.981,4.280 94.736,4.591 C96.231,5.208 96.978,6.386 96.978,8.119 C96.978,8.119 96.978,14.993 96.978,14.993 C96.978,15.549 97.218,16.041 97.695,16.478 C97.695,16.478 97.695,16.917 97.695,16.917 C97.695,16.917 94.274,16.917 94.274,16.917 C94.011,16.576 93.896,16.159 93.928,15.665 ZM93.904,10.997 C93.517,11.230 93.009,11.393 92.380,11.485 C91.885,11.546 91.391,11.610 90.897,11.671 C90.467,11.749 90.111,11.934 89.835,12.227 C89.558,12.521 89.419,12.872 89.419,13.276 C89.419,13.628 89.519,13.946 89.720,14.225 C89.980,14.613 90.420,14.805 91.036,14.805 C91.221,14.805 91.424,14.788 91.638,14.758 C93.148,14.511 93.904,13.496 93.904,11.716 C93.904,11.716 93.904,10.997 93.904,10.997 ZM82.595,9.835 C82.595,9.835 82.595,16.917 82.595,16.917 C82.595,16.917 79.355,16.917 79.355,16.917 C79.355,16.917 79.355,4.334 79.355,4.334 C79.355,4.334 82.595,4.334 82.595,4.334 C82.595,4.334 82.595,6.773 82.595,6.773 C82.857,6.015 83.371,5.354 84.142,4.797 C84.805,4.317 85.431,4.075 86.017,4.075 C86.153,4.075 86.301,4.092 86.453,4.123 C86.453,4.123 86.453,7.445 86.453,7.445 C85.992,7.397 85.623,7.376 85.344,7.376 C83.740,7.376 82.824,8.195 82.595,9.835 ZM74.357,15.362 C73.617,16.569 72.586,17.266 71.260,17.451 C69.906,17.435 68.879,17.225 68.185,16.822 C67.013,16.144 66.428,14.897 66.428,13.088 C66.428,13.088 66.428,4.334 66.428,4.334 C66.428,4.334 69.664,4.334 69.664,4.334 C69.664,4.334 69.664,12.133 69.664,12.133 C69.664,12.955 69.756,13.520 69.944,13.830 C70.266,14.402 70.953,14.649 72.000,14.571 C73.465,14.463 74.252,13.759 74.357,12.459 C74.357,12.459 74.357,4.334 74.357,4.334 C74.357,4.334 77.594,4.334 77.594,4.334 C77.594,4.334 77.594,16.917 77.594,16.917 C77.594,16.917 74.357,16.917 74.357,16.917 C74.357,16.917 74.357,15.362 74.357,15.362 ZM62.817,16.822 C62.121,17.287 61.212,17.496 60.088,17.451 C58.747,17.390 57.675,16.795 56.874,15.665 C56.874,15.665 56.874,16.917 56.874,16.917 C56.874,16.917 53.639,16.917 53.639,16.917 C53.639,16.917 53.639,-0.007 53.639,-0.007 C53.639,-0.007 56.874,-0.007 56.874,-0.007 C56.874,-0.007 56.874,6.052 56.874,6.052 C57.522,4.675 58.718,4.032 60.460,4.123 C62.555,4.232 63.989,5.186 64.760,6.982 C65.314,8.250 65.591,9.466 65.591,10.626 C65.591,11.863 65.267,13.171 64.620,14.548 C64.128,15.604 63.526,16.360 62.817,16.822 ZM61.750,8.372 C61.274,7.430 60.561,6.960 59.604,6.960 C58.631,6.960 57.908,7.430 57.430,8.372 C57.060,9.101 56.874,9.920 56.874,10.836 C56.874,11.749 57.060,12.569 57.430,13.295 C57.908,14.239 58.631,14.712 59.604,14.712 C60.561,14.712 61.274,14.239 61.750,13.295 C62.121,12.569 62.307,11.749 62.307,10.836 C62.307,9.920 62.121,9.101 61.750,8.372 ZM48.710,4.334 C48.710,4.334 51.946,4.334 51.946,4.334 C51.946,4.334 51.946,16.917 51.946,16.917 C51.946,16.917 48.710,16.917 48.710,16.917 C48.710,16.917 48.710,4.334 48.710,4.334 ZM48.710,-0.007 C48.710,-0.007 51.946,-0.007 51.946,-0.007 C51.946,-0.007 51.946,2.894 51.946,2.894 C51.946,2.894 48.710,2.894 48.710,2.894 C48.710,2.894 48.710,-0.007 48.710,-0.007 ZM45.305,9.954 C45.921,10.122 46.453,10.472 46.902,10.997 C47.393,11.585 47.639,12.251 47.639,12.995 C47.639,13.784 47.455,14.518 47.086,15.199 C46.609,16.084 45.892,16.693 44.933,17.033 C44.041,17.344 42.994,17.480 41.791,17.451 C40.604,17.420 39.687,17.257 39.041,16.964 C37.252,16.175 36.337,14.930 36.288,13.228 C36.288,13.228 39.478,13.228 39.478,13.228 C39.680,13.892 40.023,14.357 40.518,14.619 C40.856,14.788 41.452,14.922 42.299,15.013 C42.949,15.091 43.447,14.990 43.804,14.712 C44.110,14.463 44.265,14.146 44.265,13.759 C44.265,13.156 43.995,12.777 43.455,12.623 C43.455,12.623 39.434,11.461 39.434,11.461 C37.676,10.951 36.781,9.930 36.751,8.396 C36.720,7.002 37.228,5.905 38.278,5.099 C39.063,4.497 40.165,4.173 41.583,4.123 C43.139,4.075 44.435,4.390 45.467,5.053 C46.700,5.860 47.316,6.973 47.316,8.396 C47.316,8.396 44.196,8.396 44.196,8.396 C44.182,7.946 44.110,7.621 43.986,7.420 C43.832,7.161 43.504,6.949 42.994,6.797 C42.561,6.655 42.162,6.585 41.791,6.585 C41.298,6.585 40.827,6.710 40.383,6.960 C40.041,7.143 39.874,7.437 39.874,7.840 C39.874,8.259 40.127,8.539 40.636,8.675 C40.636,8.675 45.305,9.954 45.305,9.954 ZM32.817,17.147 C32.307,17.352 31.623,17.451 30.758,17.451 C29.988,17.451 29.332,17.283 28.792,16.939 C28.453,16.724 27.984,16.282 27.382,15.617 C27.382,15.617 27.382,22.002 27.382,22.002 C27.382,22.002 24.146,22.002 24.146,22.002 C24.146,22.002 24.146,4.334 24.146,4.334 C24.146,4.334 27.382,4.334 27.382,4.334 C27.382,4.334 27.382,6.237 27.382,6.237 C28.076,5.403 28.492,4.931 28.629,4.822 C29.154,4.403 29.850,4.173 30.714,4.123 C32.007,4.047 33.176,4.551 34.225,5.634 C35.460,6.919 36.078,8.719 36.078,11.042 C36.078,13.210 35.505,14.882 34.365,16.057 C33.857,16.586 33.339,16.946 32.817,17.147 ZM32.262,8.420 C31.783,7.477 31.068,7.002 30.109,7.002 C29.137,7.002 28.415,7.477 27.937,8.420 C27.568,9.147 27.382,9.966 27.382,10.881 C27.382,11.794 27.568,12.613 27.937,13.340 C28.415,14.286 29.137,14.758 30.109,14.758 C31.068,14.758 31.783,14.286 32.262,13.340 C32.632,12.613 32.817,11.794 32.817,10.881 C32.817,9.966 32.632,9.147 32.262,8.420 ZM15.055,11.648 C14.963,12.513 15.093,13.189 15.450,13.668 C16.003,14.442 16.734,14.828 17.646,14.828 C18.140,14.828 18.632,14.697 19.125,14.433 C19.634,14.155 19.942,13.798 20.051,13.365 C20.051,13.365 23.242,13.365 23.242,13.365 C22.979,14.527 22.231,15.511 20.997,16.314 C19.856,17.071 18.702,17.451 17.528,17.451 C16.326,17.451 15.242,17.134 14.269,16.500 C13.130,15.759 12.382,14.758 12.026,13.504 C11.920,13.133 11.842,12.622 11.797,11.972 C11.718,11.059 11.756,10.162 11.911,9.280 C12.481,5.844 14.360,4.123 17.552,4.123 C19.694,4.123 21.283,4.952 22.315,6.609 C23.039,7.769 23.401,9.138 23.401,10.720 C23.401,10.964 23.394,11.274 23.377,11.648 C23.377,11.648 15.055,11.648 15.055,11.648 ZM17.760,6.841 C16.851,6.797 16.150,7.073 15.655,7.677 C15.242,8.172 15.041,8.767 15.055,9.466 C15.055,9.466 20.026,9.466 20.026,9.466 C20.026,7.791 19.271,6.919 17.760,6.841 ZM7.723,8.953 C7.723,7.621 7.052,6.960 5.710,6.960 C5.077,6.960 4.530,7.161 4.070,7.558 C3.514,8.040 3.236,8.713 3.236,9.580 C3.236,9.580 3.236,16.917 3.236,16.917 C3.236,16.917 -0.000,16.917 -0.000,16.917 C-0.000,16.917 -0.000,-0.007 -0.000,-0.007 C-0.000,-0.007 3.005,-0.007 3.005,-0.007 C3.005,-0.007 3.005,5.960 3.005,5.960 C3.822,4.736 5.109,4.123 6.867,4.123 C7.961,4.123 8.878,4.390 9.616,4.915 C10.512,5.565 10.958,6.501 10.958,7.723 C10.958,7.723 10.958,16.917 10.958,16.917 C10.958,16.917 7.723,16.917 7.723,16.917 C7.723,16.917 7.723,8.953 7.723,8.953 Z" id="path-2" class="cls-4" fill-rule="evenodd"/>
  </g>
</svg>
