<svg id="tip" xmlns="http://www.w3.org/2000/svg" width="24" height="24" viewBox="0 0 24 24">
  <defs>
    <style>
      .cls-1 {
        fill: #ddd;
      }

      .cls-2 {
        fill: #484848;
        fill-rule: evenodd;
      }
    </style>
  </defs>
  <circle id="Ellipse_3_copy_2" data-name="Ellipse 3 copy 2" class="cls-1" cx="12" cy="12" r="12"/>
  <path id="_" data-name="?" class="cls-2" d="M11.1,17H13V15.166H11.1V17ZM8.781,10.6h1.834a1.883,1.883,0,0,1,.307-1.016,1.133,1.133,0,0,1,1.042-.489,1.181,1.181,0,0,1,1.029.4,1.484,1.484,0,0,1,.282.879,1.28,1.28,0,0,1-.253.768,1.617,1.617,0,0,1-.367.374l-0.462.362a2.615,2.615,0,0,0-.848.943,4.991,4.991,0,0,0-.2,1.482h1.72a2.813,2.813,0,0,1,.082-0.749,1.363,1.363,0,0,1,.488-0.667l0.449-.349a4.735,4.735,0,0,0,.924-0.876,2.3,2.3,0,0,0,.412-1.39,2.345,2.345,0,0,0-.949-2.031,3.966,3.966,0,0,0-2.383-.686,3.331,3.331,0,0,0-1.841.482A2.962,2.962,0,0,0,8.781,10.6h0Z"/>
</svg>
