<?xml version="1.0" standalone="no"?>
<!DOCTYPE svg PUBLIC "-//W3C//DTD SVG 1.1//EN" "http://www.w3.org/Graphics/SVG/1.1/DTD/svg11.dtd" >
<!--
2016-2-7: Created with FontForge (http://fontforge.org)
-->
<svg xmlns="http://www.w3.org/2000/svg" xmlns:xlink="http://www.w3.org/1999/xlink" version="1.1">
<metadata>
Created by FontForge 20150827 at Sun Feb 07 16:46:42 2016
 By vtagal

</metadata>
<defs>
<font id="hb-special-font" horiz-adv-x="512" >
  <font-face 
    font-family="hb-special-font"
    font-weight="400"
    font-stretch="normal"
    units-per-em="512"
    panose-1="2 0 5 9 0 0 0 0 0 0"
    ascent="448"
    descent="-64"
    bbox="-1.33312 -65.1426 654.141 449.062"
    underline-thickness="25.6"
    underline-position="-51.2"
    unicode-range="U+F101-F134"
  />
    <missing-glyph />
    <glyph glyph-name="uniF101" unicode="&#xf101;" 
d="M393.413 285.389v27.0498l78.3477 99.1074h-76.3818v27.1484h116.179v-25.6904l-79.3809 -100.565h79.5771v-27.0498h-118.341zM209.404 349.696c-20.5293 0.524414 -22.4141 32.2432 0 32.7676l69.124 0.212891l-47.5303 36.7656
c-14.3691 13.501 7.30762 39.6172 24.2646 24.5439l80.7236 -65.1436c9.74902 -12.4512 1.37695 -24.084 -0.540039 -26.0176l-80.708 -65.126c-14.9258 -13.0088 -38.6494 11.043 -24.2812 24.5264l46.8916 37.2412zM72.6299 403.632l-19.8896 -60.3096h39.2559z
M0.114258 285.389l54.7227 153.306h36.2578l54.2314 -153.306h-34.7344l-10.125 31.5225h-56.4434l-10.4033 -31.5225h-33.5059z" />
    <glyph glyph-name="uniF102" unicode="&#xf102;" 
d="M421.345 -3.9834c12.1836 -39.3408 -25.3867 -34.6895 -35.3496 -25.207l-130.025 93.0254l-129.995 -93.0254c-3.54395 -3.46387 -10.4414 -6.27539 -15.3965 -6.27539c-12.1592 0 -22.0264 9.86816 -22.0264 22.0264c0 2.74219 0.955078 6.97852 2.13281 9.45605
l49.6035 150.491l-129.965 93.0254c-8.07227 2.91016 -23.0771 40.8408 13.5029 40.8408h160.664l49.6338 150.432c2.56055 9.14551 12.3477 16.5693 21.8457 16.5693s19.2852 -7.42383 21.8467 -16.5693l49.6631 -150.432h160.724
c0.563477 0.0527344 1.47852 0.0947266 2.04395 0.0947266c12.1914 0 22.0859 -9.89453 22.0859 -22.0859c0 -6.86133 -4.76074 -15.3193 -10.626 -18.8799l-129.995 -93.0254z" />
    <glyph glyph-name="uniF103" unicode="&#xf103;" 
d="M399.36 263.68c16.957 0 30.7197 -13.7627 30.7197 -30.7197v-122.88c0 -16.957 -13.7627 -30.7197 -30.7197 -30.7197c-16.958 0 -30.7207 13.7627 -30.7207 30.7197v122.88c0 16.957 13.7627 30.7197 30.7207 30.7197zM30.7197 263.68
c16.958 0 30.7207 -13.7627 30.7207 -30.7197v-122.88c0 -16.957 -13.7627 -30.7197 -30.7207 -30.7197c-16.957 0 -30.7197 13.7627 -30.7197 30.7197v122.88c0 16.957 13.7627 30.7197 30.7197 30.7197zM81.9199 79.3604v163.84h266.24v-163.84
c0.078125 -0.902344 0.141602 -2.37012 0.141602 -3.27539c0 -20.8809 -16.9463 -37.8271 -37.8262 -37.8271c-0.90625 0 -2.37305 0.0634766 -3.27539 0.142578h-20.4805v-61.4404c0 -16.8955 -13.8232 -40.96 -30.7197 -40.96s-30.7197 24.0645 -30.7197 40.96v61.4404
h-20.4805v-61.4404c0 -16.8955 -13.8242 -40.96 -30.7197 -40.96c-16.8965 0 -30.7197 24.0645 -30.7197 40.96v61.4404h-20.4805c-0.902344 -0.0791016 -2.37012 -0.142578 -3.27539 -0.142578c-20.8799 0 -37.8262 16.9463 -37.8262 37.8271
c0 0.905273 0.0634766 2.37305 0.141602 3.27539zM270.11 402.146c39.3145 -20.8008 74.1885 -73.6582 77.8447 -117.985h-265.83c3.65234 44.3223 38.5176 97.1797 77.8242 117.985l-18.8008 39.833c-0.238281 0.492188 -0.430664 1.33398 -0.430664 1.88086
c0 1.31152 0.899414 2.94629 2.00781 3.64941c0.445312 0.24707 1.21973 0.447266 1.72949 0.447266c1.30957 0 2.78223 -0.980469 3.28809 -2.18848l19.0869 -40.4482c12.7432 5.46094 34.3359 9.89258 48.1992 9.89258c13.8643 0 35.457 -4.43164 48.2002 -9.89258
l19.0869 40.4482c0.505859 1.20801 1.97852 2.18848 3.28809 2.18848c0.509766 0 1.28418 -0.200195 1.72949 -0.447266c1.1084 -0.703125 2.00781 -2.33789 2.00781 -3.64941c0 -0.546875 -0.192383 -1.38867 -0.430664 -1.88086zM163.84 304.436
c11.1924 0.111328 20.2754 9.28613 20.2754 20.4785v0.000976562c-0.000976562 11.3047 -9.17578 20.4795 -20.4805 20.4795s-20.4795 -9.17578 -20.4795 -20.4805s9.1748 -20.4795 20.4795 -20.4795c0.0566406 0 0.148438 0 0.205078 0.000976562zM266.097 304.436
h0.143555c11.1123 0.188477 20.1318 9.3623 20.1318 20.4766v0.00292969c-0.000976562 11.3047 -9.17578 20.4795 -20.4805 20.4795s-20.4795 -9.17578 -20.4795 -20.4805s9.1748 -20.4795 20.4795 -20.4795c0.0566406 0 0.148438 0 0.205078 0.000976562z" />
    <glyph glyph-name="uniF104" unicode="&#xf104;" 
d="M509.594 269.594l-23.1934 -103.193c-5.8623 -33.0244 -54.042 -51.2002 -76.8008 -51.2002h-35.2764c47.8975 -1.86914 86.1953 -41.0879 86.1953 -89.5742c0 -49.6904 -40.1152 -89.9072 -89.6514 -89.9072c-48.7168 0 -88.1406 38.9629 -89.4209 87.5264
c-1.28027 -48.5635 -40.6523 -87.5264 -89.293 -87.5264c-49.4844 0 -89.5488 40.2168 -89.5488 89.9072c0 48.4863 38.2471 87.7051 86.0674 89.5742h-8.5498c-22.2979 0.665039 -38.2725 20.6846 -42.8809 34.5088l-73.2412 144.691h-14.3867
c-22.4258 0.792969 -49.2549 18.9951 -49.2549 51.3789l-0.793945 51.4561c0.793945 24.0898 27.8535 50.7646 51.6357 50.7646h92.0059c23.0664 0 35.9941 -16.0508 49.332 -33.3057l29.542 -43.6992l227.584 0.0253906c41.5742 0 75.1357 -21.6826 59.9297 -101.427z
M371.2 -12.7998c21.1963 0 38.3994 17.2031 38.3994 38.3994c0 21.1973 -17.2031 38.4004 -38.3994 38.4004c-21.1973 0 -38.4004 -17.2031 -38.4004 -38.4004c0 -21.1963 17.2031 -38.3994 38.4004 -38.3994zM281.446 28.0068
c1.25488 47.3594 38.8613 85.3496 85.9395 87.1934h-171.776c47.0273 -1.84375 84.583 -39.834 85.8369 -87.1934zM153.6 25.5996c0 -21.1963 17.2031 -38.3994 38.4004 -38.3994s38.4004 17.2031 38.4004 38.3994c0 21.1973 -17.2031 38.4004 -38.4004 38.4004
s-38.4004 -17.2031 -38.4004 -38.4004zM426.394 320h-238.387l-28.6465 51.8652c-7.52637 13.3125 -16.7168 25.2422 -32.8447 25.2422c0 0 -31.9746 0.28125 -52.7109 -0.255859c-12.3643 -0.333008 -22.6816 -13.5684 -22.9629 -16.9736v-13.4141
c0 -15.8467 11.7246 -20.4287 26.9307 -20.4287l22.1445 -0.819336l79.2578 -152.319c3.58398 -10.624 17.8936 -25.9844 35.2256 -26.4961h169.6c17.9453 0 42.0605 8.93359 50.458 25.7021l17.5352 102.298c0 15.1289 -9.57422 25.5996 -25.5996 25.5996z" />
    <glyph glyph-name="uniF105" unicode="&#xf105;" 
d="M509.594 295.193l-23.1934 -103.193c-5.8623 -33.0244 -54.042 -51.2002 -76.8008 -51.2002h-229.478c-22.2979 0.666016 -38.2725 20.6846 -42.8809 34.5088l-73.2412 170.291h-14.3867c-22.4258 0.793945 -49.2549 18.9951 -49.2549 51.3799l-0.793945 0.255859
c0.793945 24.0898 27.8535 50.7646 51.6357 50.7646h92.0059c23.0664 0 35.9941 -16.0508 49.332 -33.3057l29.542 -43.6992l227.584 0.0253906c41.5742 0 75.1357 3.91699 59.9297 -75.8271zM128.153 0.0253906c0 35.4814 28.5957 64.2305 63.9492 64.2305
c35.3281 0 63.9482 -28.749 63.9482 -64.2305s-28.6201 -64.2305 -63.9482 -64.2305c-35.3535 0 -63.9492 28.749 -63.9492 64.2305zM306.918 0.0253906c0 35.4814 28.6465 64.2305 64.0518 64.2305c35.3789 0 64.0254 -28.749 64.0254 -64.2305
s-28.6465 -64.2305 -64.0254 -64.2305c-35.4053 0 -64.0518 28.749 -64.0518 64.2305z" />
    <glyph glyph-name="uniF106" unicode="&#xf106;" 
d="M55.7568 448.563h400.742c0.375 0.00878906 0.982422 0.015625 1.35742 0.015625c16.9102 0 38.1621 -11.4756 47.4365 -25.6162c3.56836 -5.79688 6.48145 -16.0273 6.50195 -22.835c-0.0517578 -8.36133 -4.27246 -20.4951 -9.4209 -27.085l-200.396 -261.427
c-9.90332 -11.8184 -30.4561 -21.4102 -45.875 -21.4102c-15.4199 0 -35.9717 9.5918 -45.875 21.4102l-200.346 261.427c-5.20312 6.56934 -9.42578 18.7031 -9.42578 27.083c0 6.80664 2.89258 17.0381 6.45605 22.8369c9.30371 14.1396 30.5928 25.6162 47.5186 25.6162
c0.366211 0 0.959961 -0.0078125 1.32617 -0.015625z" />
    <glyph glyph-name="uniF107" unicode="&#xf107;" 
d="M0 192c0 256 0 256 256 256v0c256 0 256 0 256 -256v0c0 -256 0 -256 -256 -256v0c-256 0 -256 0 -256 256v0z" />
    <glyph glyph-name="uniF108" unicode="&#xf108;" 
d="M55.7568 89.0371c-0.366211 -0.00878906 -0.959961 -0.015625 -1.32617 -0.015625c-16.9258 0 -38.2148 11.4756 -47.5186 25.6152c-3.56934 5.79883 -6.4668 16.0312 -6.4668 22.8408c0 8.38184 4.22754 20.5127 9.43652 27.0791l200.346 261.376
c9.89551 11.834 30.4482 21.4395 45.875 21.4395s35.9785 -9.60547 45.875 -21.4395l200.396 -261.376c5.14844 -6.58887 9.36914 -18.7227 9.4209 -27.085c-0.0205078 -6.80762 -2.93359 -17.0371 -6.50195 -22.835c-9.27441 -14.1396 -30.5264 -25.6162 -47.4365 -25.6162
c-0.375 0 -0.982422 0.0078125 -1.35742 0.0166016h-400.742z" />
    <glyph glyph-name="uniF109" unicode="&#xf109;" 
d="M484.924 295.936c0 0 -236.483 -235.972 -241.513 -241.001c-35.9004 -35.9004 -94.1182 -35.9004 -130.048 0l-86.6787 86.709c-35.9004 35.9004 -35.9004 94.1172 0 130.018c35.8994 35.9004 94.1172 35.9004 130.048 0l25.0879 -25.0879l176.248 176.219
c35.0273 35.0264 91.8291 35.0264 126.855 0c35.0273 -35.0273 35.0273 -91.8291 0 -126.856zM220.853 70.957c-16.3838 -17.7393 -42.9775 -17.7393 -59.3916 0l-89.1787 96.2861c-16.3838 17.709 -16.3838 46.4414 0 64.1504c16.4141 17.71 43.0078 17.71 59.3926 0
l57.4336 -62.0117l190.916 206.216c16.4141 17.709 43.0078 17.709 59.3916 0c16.415 -17.71 16.415 -46.4414 0 -64.1211l-218.684 -241.001c-0.452148 -0.452148 0.210938 0.572266 0.120117 0.481445z" />
    <glyph glyph-name="uniF10A" unicode="&#xf10a;" 
d="M499.926 375.125l-183.126 -183.125l181.76 -181.76c6.50391 -6.86719 11.7812 -20.1162 11.7812 -29.5732c0 -23.7402 -19.2676 -43.0078 -43.0078 -43.0078c-9.45703 0 -22.7061 5.27734 -29.5732 11.7812l-181.76 181.76l-181.76 -181.76
c-6.93652 -6.85645 -20.4814 -12.4209 -30.2334 -12.4209c-23.7412 0 -43.0088 19.2676 -43.0088 43.0088c0 9.74219 5.55469 23.2773 12.3994 30.2119l181.803 181.76l-183.126 183.125c-6.50293 6.86719 -11.7803 20.1162 -11.7803 29.5732
c0 23.7402 19.2676 43.0078 43.0078 43.0078c9.45703 0 22.7061 -5.27734 29.5732 -11.7803l183.125 -183.126l183.125 183.126c6.86719 6.50293 20.1162 11.7803 29.5732 11.7803c23.7402 0 43.0078 -19.2676 43.0078 -43.0078
c0 -9.45703 -5.27734 -22.7061 -11.7803 -29.5732z" />
    <glyph glyph-name="uniF10B" unicode="&#xf10b;" 
d="M478.242 -2.11035h-174.478l-87.1494 -61.8896v47.8242c0 14.0459 -10.1973 14.0654 -14.0654 14.0654h-174.418c-15.5371 0 -28.1318 12.5947 -28.1318 28.1328v393.846c0 15.5371 12.5947 28.1318 28.1318 28.1318h450.11c15.5371 0 28.1318 -12.5947 28.1318 -28.1318
v-393.846c0 -15.5381 -12.5947 -28.1328 -28.1318 -28.1328zM500.747 417.055c0 13.9844 -11.334 25.3193 -25.3184 25.3193h-444.483c-13.9844 0 -25.3193 -11.335 -25.3193 -25.3193v-388.22c0 -13.9844 11.335 -25.3184 25.3193 -25.3184h171.604
c8.43945 0 19.6924 -5.64648 19.6924 -16.8789v-39.3848l78.7686 56.2637h174.418c13.9844 0 25.3184 11.334 25.3184 25.3184v388.22z" />
    <glyph glyph-name="uniF10C" unicode="&#xf10c;" 
d="M25.5996 64c-14.1309 0 -25.5996 11.4688 -25.5996 25.5996c0 14.1318 11.4688 25.6006 25.5996 25.6006l184.653 -0.205078l-99.6094 82.6113c-3.62695 4.18945 -6.57031 12.0859 -6.57031 17.627c0 14.8662 12.0645 26.9316 26.9307 26.9316
c5.47852 0 13.3076 -2.88477 17.4766 -6.44043l151.321 -124.288c3.88672 -5.10742 7.04102 -14.4629 7.04102 -20.8809c0 -6.83984 -3.5332 -16.6719 -7.88574 -21.9473l-151.322 -126.721c-23.2441 -20.1982 -60.2363 17.1777 -37.8359 38.1191l98.6104 84.1982z
M486.4 268.8h-182.81l98.6104 -81.9199c22.4004 -20.8125 -14.5918 -57.8818 -37.8359 -37.8369l-151.322 125.722c-4.3877 4.82031 -7.94922 14.0234 -7.94922 20.542c0 6.11426 3.18262 14.8828 7.10449 19.5732l151.321 125.722
c4.13672 3.47852 11.8799 6.30078 17.2842 6.30078c14.8232 0 26.8535 -12.0303 26.8535 -26.8545c0 -5.4043 -2.82227 -13.1465 -6.30078 -17.2832l-99.6094 -82.7646h184.653c14.1309 0 25.5996 -11.4688 25.5996 -25.5996
c0 -14.1318 -11.4688 -25.6006 -25.5996 -25.6006z" />
    <glyph glyph-name="uniF10D" unicode="&#xf10d;" 
d="M512 411.429l-256 -219.429l-256 219.429l73.1426 36.5713l182.857 -146.286l182.857 146.286z" />
    <glyph glyph-name="uniF10E" unicode="&#xf10e;" 
d="M511.744 448l-255.744 -255.744l-255.744 255.744z" />
    <glyph glyph-name="uniF10F" unicode="&#xf10f;" 
d="M307.2 379.733l0.477539 -243.951l77.585 97.6895c37.7178 37.6836 116.6 -53.3496 85.2656 -84.7188l-135.715 -168.141c-4.02734 -3.99316 -92.2617 -99.2939 -190.736 -1.12598l-135.681 168.175c-36.7617 36.7275 47.5479 122.401 85.2314 84.6846l76.5947 -99.0205
l0.444336 246.408c0 90.4189 136.533 91.8525 136.533 0z" />
    <glyph glyph-name="uniF110" unicode="&#xf110;" 
d="M79.6445 322.845c0 77.3682 47.7861 125.155 113.777 125.155h68.2666v-91.0225h-45.5107c-36.4092 0 -45.5107 -19.3418 -45.5107 -45.5107v-56.8887h79.6445v-91.0225h-79.6445v-227.556h-91.0225v227.556h-79.6445v91.0225h79.6445v68.2666z" />
    <glyph glyph-name="uniF111" unicode="&#xf111;" 
d="M495.722 349.606c0 0 -280.802 -301.195 -285.7 -306.456c-8.67578 -9.34668 -26.0674 -16.9316 -38.8193 -16.9316c-12.7529 0 -30.1445 7.58496 -38.8193 16.9316l-116.587 122.661c-8.87598 9.53125 -16.0791 27.8369 -16.0791 40.8613
s7.20312 31.3311 16.0791 40.8623c8.67969 9.34277 26.0742 16.9258 38.8271 16.9258s30.1475 -7.58301 38.8271 -16.9258l75.0156 -78.9053l249.617 262.67c8.67578 9.34668 26.0664 16.9326 38.8193 16.9326s30.1436 -7.58594 38.8193 -16.9326
c8.87695 -9.52637 16.082 -27.8252 16.082 -40.8467s-7.20508 -31.3203 -16.082 -40.8467z" />
    <glyph glyph-name="uniF112" unicode="&#xf112;" 
d="M504.703 -44.2588v-19.7412h-83.2393v109.833h80.5479v-19.4219h-58.1289v-23.3213h53.3564v-19.0752h-53.3418v-28.2451h60.8057v-0.0283203zM295.663 309.27v-124.858s-27.8984 -33.5869 -52.1074 -58.5859c-15.0107 -15.5098 -31.3389 -13.1934 -31.3389 0
c0.0136719 56.3809 0.208008 183.444 0.208008 183.444s-116.326 94.8086 -127.119 105.436c-21.1152 20.8096 -11.6123 33.2949 11.2646 33.2949h315.308c23.2236 0 31.0068 -13.873 11.2646 -33.2949c-10.7656 -10.5996 -127.479 -105.436 -127.479 -105.436z
M78.1191 26.3828h-55.4922v-25.2627h48.6387v-19.0752h-48.666v-46.0449h-22.7939v109.681h78.3135v-19.2979zM112.399 75.8545v-17.6885h-19.4219v17.6885h19.4219zM113.926 -64h-22.7656v109.833h22.7656v-109.833zM158.319 -44.2588h54.8408v-19.7412h-77.7451v109.833
h22.9043v-90.0918zM208.263 45.833h88.9268v-19.4219h-32.8652v-90.3838h-23.0986v90.3555h-32.9629v19.4229v0.0273438zM381.024 43.0586c3.35254 -1.42676 7.95801 -4.86426 10.2793 -7.67188c1.93945 -2.30566 4.42578 -6.44434 5.5498 -9.23926
c1.12793 -2.93945 2.04395 -7.88086 2.04395 -11.0293c0 -0.141602 -0.00195312 -0.37207 -0.00488281 -0.513672c-0.0351562 -4.51758 -1.80664 -11.4102 -3.9541 -15.3848c-2.37793 -4.44043 -8.2207 -9.23242 -13.04 -10.6963
c3.8291 -1.33301 8.65234 -5.22363 10.7656 -8.68457c1.78418 -3.92578 3.23242 -10.6133 3.23242 -14.9258c0 -0.621094 -0.03125 -1.62891 -0.0693359 -2.24902v-7.38086c-0.0166016 -0.5 -0.0302734 -1.3125 -0.0302734 -1.81348
c0 -2.33105 0.287109 -6.09277 0.640625 -8.39648c0.386719 -2.25488 2.2832 -5.05762 4.23145 -6.25684v-2.77441h-25.3877c-0.69401 2.43229 -1.19368 4.3929 -1.49902 5.88184c-0.498047 2.58789 -0.933594 6.82617 -0.970703 9.46094l-0.152344 10.2109
c0.0585938 0.580078 0.106445 1.52441 0.106445 2.10742c0 3.61035 -1.67578 8.94336 -3.74121 11.9043c-2.70508 1.99609 -7.62695 3.61523 -10.9883 3.61523c-0.580078 0 -1.51855 -0.0537109 -2.09473 -0.119141h-22.3906v-43.0068h-22.4326v109.736h52.5234
c0.301758 0.00683594 0.791992 0.0126953 1.09473 0.0126953c4.62109 0 11.8994 -1.27344 16.2461 -2.84277zM333.592 26.8135v-29.5088h24.6943c0.399414 -0.0214844 1.04883 -0.0390625 1.44922 -0.0390625c2.75977 0 7.08203 0.819336 9.64941 1.8291
c3.6377 1.91992 6.59082 6.81738 6.59082 10.9316c0 0.399414 -0.0380859 1.0459 -0.0839844 1.44336c0.0585938 0.473633 0.107422 1.24609 0.107422 1.72266c0 4.19629 -2.87012 9.43457 -6.40625 11.6924c-2.44629 1.09375 -6.60547 1.98145 -9.28516 1.98145
c-0.367188 0 -0.961914 -0.0175781 -1.32812 -0.0390625h-25.4287z" />
    <glyph glyph-name="uniF113" unicode="&#xf113;" 
d="M256 448c141.312 0 256 -114.688 256 -256s-114.688 -256 -256 -256s-256 114.688 -256 256s114.688 256 256 256zM256 442.88c-138.485 0 -250.88 -112.395 -250.88 -250.88s112.395 -250.88 250.88 -250.88s250.88 112.395 250.88 250.88
s-112.395 250.88 -250.88 250.88zM470.82 170.056c0.0253906 0.256836 0.046875 0.673828 0.046875 0.932617c0 1.24023 -0.463867 3.1416 -1.03516 4.24414c-60.0576 116.009 -119.425 124.211 -135.168 124.18c-0.353516 0.0517578 -81.7363 0.107422 -81.7363 0.107422
c-0.0214844 -0.00195312 -0.0566406 -0.00488281 -0.0791016 -0.00488281s-0.0576172 0.00292969 -0.0791016 0.00488281h-132.147c-5.12012 0 -8.42773 -0.639648 -8.42773 -5.77441c0 -5.13574 0.445312 -9.58496 5.56543 -9.58496h220.16
c0.511719 0 44.3701 -1.12695 97.2803 -81.9199h-71.6807c-0.334961 -0.0205078 -0.880859 -0.0380859 -1.2168 -0.0380859c-8.71387 0 -17.3428 6.89844 -19.2627 15.3975v25.6006c0 5.12012 0 5.12012 -5.12012 5.12012s-9.36426 -1.73633 -10.2402 -5.12012v-25.6006
c0 -14.3359 5.57129 -30.7197 30.7207 -30.7197h87.04c3.07129 -5.31445 7.13672 -14.5557 10.2393 -20.4795v0v-40.96c0.0322266 -0.285156 0.0585938 -0.75 0.0585938 -1.03613c0 -5.11328 -4.14941 -9.2627 -9.2627 -9.2627
c-0.286133 0 -0.750977 0.0263672 -1.03516 0.0585938l-16.9941 -0.542969c-4.17383 17.5322 -22.1875 31.7607 -40.21 31.7607c-17.7725 0 -35.7266 -13.9854 -40.0762 -31.2178h-112.641c-4.27441 18.1709 -16.583 31.2314 -35.9424 31.2314
c-0.119141 0.00195312 -0.314453 0.00292969 -0.43457 0.00292969c-17.8174 0 -35.9268 -13.9932 -40.4229 -31.2344h-10.2393c-6.55957 0 -15.3604 3.64551 -15.3604 10.2402v20.4795h15.3604c5.11914 0 10.2393 0 10.2393 5.12012s0 10.2402 -5.12012 10.2402h-76.7998
c-4.28516 0.12793 -5.12012 0 -5.12012 -5.12012s0.0361328 -10.2402 5.12012 -10.2402h40.96l0.12793 -18.7344c0 -16.8447 8.7041 -27.3457 25.4727 -27.3457h15.3594c4.15723 -18.3398 21.5039 -35.8398 40.96 -35.8398s36.8135 17.5 40.96 35.8398h107.521
c4.13672 -18.3398 20.9404 -35.8398 40.4482 -35.8398c19.5068 0 37.3447 17.5107 41.4717 35.8398h15.3604c16.7578 0 25.5996 9.92773 25.5996 26.7773v41.4727c-0.00292969 0.551758 -0.101562 1.4375 -0.219727 1.97656zM199.577 82.5801h-0.00488281
c-12.4209 0 -22.502 10.0811 -22.502 22.5029c0 12.4209 10.0811 22.502 22.502 22.502c12.3652 0 22.4463 -10.0352 22.5029 -22.3994c-0.0253906 -12.3945 -10.1045 -22.5215 -22.498 -22.6055zM388.588 82.5801h-0.177734c-12.5166 0 -22.6758 10.1592 -22.6758 22.6758
c0 12.5176 10.1592 22.6768 22.6758 22.6768c12.5176 0 22.6768 -10.1592 22.6768 -22.6768c0 -2.65137 -0.87207 -6.77051 -1.94727 -9.19434c-3.24023 -7.41602 -12.4385 -13.4561 -20.5312 -13.4814zM51.2002 248.32
c-0.0341797 -0.000976562 -0.0898438 -0.00195312 -0.125 -0.00195312c-2.75781 0 -4.99707 2.23926 -4.99707 4.99707c0 0.0341797 0.000976562 0.0898438 0.00195312 0.125c0 5.11914 0 10.2393 5.12012 10.2393h138.24c5.11914 0 4.2334 -0.74707 5.11914 -5.12012
c1.02441 -5.03809 0 -10.2393 -5.11914 -10.2393h-138.24zM194.56 192c0 -5.12012 0 -10.2402 -5.11914 -10.2402h-168.96c-5.12012 0 -7.08691 0.512695 -5.12012 0c0.347656 -0.0917969 -0.225586 13.5576 0 15.3604h168.96c5.12012 0 10.2393 0 10.2393 -5.12012z
M87.04 217.6c-0.107422 1.41113 -0.195312 3.70508 -0.195312 5.12012s0.0878906 3.70898 0.195312 5.12012h138.24c5.12012 0 5.38086 -0.214844 5.12012 -5.12012c-0.271484 -5.08398 0 -10.2393 -5.12012 -10.2393h-133.12c-5.08398 0 -5.12012 0 -5.12012 5.11914z" />
    <glyph glyph-name="uniF114" unicode="&#xf114;" 
d="M256 448c141.312 0 256 -114.688 256 -256s-114.688 -256 -256 -256s-256 114.688 -256 256s114.688 256 256 256zM256 442.88c-138.485 0 -250.88 -112.395 -250.88 -250.88s112.395 -250.88 250.88 -250.88s250.88 112.395 250.88 250.88
s-112.395 250.88 -250.88 250.88zM170.174 165.299c3.39453 2.9082 4.39746 7.16797 9.1084 10.2812c36.8223 24.3965 31.4316 30.0088 77.0713 24.9502c21.6475 -2.86719 49.0391 -7.61426 68.0957 -10.5889c8.7959 -1.36133 25.5186 -5.92383 28.5645 -16.7314
c5.83203 -20.7207 -24.791 -29.4092 -32.1992 -31.8623c9.37891 2.9375 23.8955 9.31445 32.4043 14.2334c12.5332 7.06641 80.2451 22.5283 91.2842 -9.50195c2.18164 -7.16797 1.24902 -19.4209 -5.44238 -25.3135c-20.6289 -18.1348 -124.642 -53.8623 -166.508 -50.0684
c-22.4053 2.04785 -30.1104 8.57617 -52.6074 9.72754c-16.3848 0.834961 -6.8252 -2.78027 -30.8789 -2.60547c-5.15625 0.0400391 -30.1514 8.5957 -30.1514 20.7305v53.7441c-0.00585938 6.08789 9.40527 11.4336 11.2588 13.0049zM189.051 157.932v0.00488281
c-1.58691 -1.0957 -9.98438 -4.80762 -9.99414 -9.02637v-40.3662c0 -4.74609 13.6445 -11.54 16.666 -11.6279c24.6982 -0.736328 20.8896 3.72754 34.9385 3.14941c19.3027 -0.819336 21.8008 -7.98242 41.0264 -9.39551
c35.9268 -2.63184 123.699 24.9854 143.007 35.1182c13.123 6.88672 11.8584 14.0439 9.44141 16.8496c-14.7148 14.1777 -89.6104 -13.9365 -117.499 -12.958c-33.5918 1.54102 -42.0762 12.4512 -45.8389 16.4912c5.54492 -1.98633 27.0996 -1.74121 40.627 -0.824219
c24.6064 2.89746 25.4668 4.25977 31.4414 9.55371c8.57617 7.61816 -2.04297 19.251 -11.0693 20.6846c-16.2607 2.58594 -43.7705 4.15234 -62.9043 7.43457c-43.0127 7.38281 -32.2607 -1.02441 -63.8662 -17.9199c-4.05078 -2.16113 -3.0625 -5.15625 -5.97559 -7.16797
zM127.785 69.1201c-9.45215 1.63281 -32.1387 4.49023 -41.0986 8.05371c-10.9619 4.38281 -20.127 16.7734 -20.127 21.8623v76.498c0 6.29199 11.2646 18.0635 19.5234 16.6807c9.66602 -1.6123 42.3877 -7.60254 51.8809 -10.7109
c5.69824 -2.99316 10.46 -10.6455 10.6289 -17.0801v-79.7695c0.00488281 -6.49219 -13.8291 -16.7324 -20.8076 -15.5342zM128.103 152.095c-0.198242 5.6875 -4.67578 11.9473 -9.99414 13.9727c-9.16504 3.72168 -12.0684 2.67285 -21.4375 4.1875
c-0.87207 0.584961 -2.43164 1.06055 -3.48047 1.06055c-3.44824 0 -6.24707 -2.79883 -6.24707 -6.24707c0 -0.341797 0.0546875 -0.892578 0.12207 -1.22852v-57.3896c0 -5.08398 4.0293 -7.52148 10.1992 -10.0303c8.92969 -3.63574 11.7354 -1.39746 20.5879 -5.00195
c6.02539 -2.44727 10.2393 0 10.2393 6.49707v54.1797h0.0107422zM107.156 109.763c-5.74414 0.0654297 -10.4062 4.78125 -10.4062 10.5264c0 5.81055 4.71582 10.5264 10.5273 10.5264c5.81055 0 10.5264 -4.71582 10.5264 -10.5264
c0 -0.112305 -0.00390625 -0.292969 -0.0078125 -0.404297c-0.161133 -5.58887 -4.8291 -10.125 -10.4199 -10.125c-0.0605469 0 -0.15918 0.00195312 -0.219727 0.00292969zM404.48 233.052c-0.34375 0 -0.661133 0.0927734 -1.02441 0.102539
c0.558594 2.75781 1.0127 7.28027 1.0127 10.0947c0 21.0527 -16.4072 42.9082 -36.6221 48.7852c6.20801 12.5889 22.6387 22.8047 36.6748 22.8047c22.5732 0 40.8936 -18.3203 40.8936 -40.8936s-18.3203 -40.8936 -40.8936 -40.8936h-0.0410156zM394.24 243.292
c0 -22.6094 -18.3506 -40.96 -40.96 -40.96c-22.6104 0 -40.96 18.3506 -40.96 40.96c0 22.6104 18.3496 40.96 40.96 40.96c22.6094 0 40.96 -18.3496 40.96 -40.96z" />
    <glyph glyph-name="uniF115" unicode="&#xf115;" 
d="M256 -64c-141.312 0 -256 114.688 -256 256s114.688 256 256 256s256 -114.688 256 -256s-114.688 -256 -256 -256zM256 442.88c-138.485 0 -250.88 -112.395 -250.88 -250.88s112.395 -250.88 250.88 -250.88s250.88 112.395 250.88 250.88
s-112.395 250.88 -250.88 250.88zM325.161 28.1602h-128.093c-25.0498 0.0830078 -46.7441 20.4355 -48.4248 45.4297c-0.271484 3.47168 0 5.35547 -0.168945 8.7041v206.986c0 0.0351562 1.10645 8.78027 1.33691 11.7295
c4.01465 21.7041 25.1855 39.3867 47.2568 39.4707h128.103c26.8213 -0.0820312 48.5889 -21.916 48.5889 -48.7373v-0.0517578v-214.743v-0.0458984c0 -26.8271 -21.7725 -48.6631 -48.5986 -48.7422zM322.56 325.12h-122.88
c-16.8955 0 -26.2861 -4.93066 -30.7197 -20.4805h184.32c-4.43457 15.5498 -13.8242 20.4805 -30.7207 20.4805zM358.4 289.28h-194.561v-204.8h194.561v204.8zM163.84 69.1201c9.04199 -15.9287 17.0244 -25.6006 35.8398 -25.6006h128
c19.1035 4.30664 23.7363 9.5957 30.7207 25.6006h-194.561zM261.36 48.6396h-0.0253906c-4.25293 0 -7.70508 3.45215 -7.70508 7.70605c0 4.25293 3.45215 7.70508 7.70508 7.70508c4.25391 0 7.70605 -3.45215 7.70605 -7.70508v-0.0253906
c0 -4.23926 -3.44141 -7.68066 -7.68066 -7.68066v0z" />
    <glyph glyph-name="uniF116" unicode="&#xf116;" 
d="M256 448c141.312 0 256 -114.688 256 -256s-114.688 -256 -256 -256s-256 114.688 -256 256s114.688 256 256 256zM256 442.88c-138.485 0 -250.88 -112.395 -250.88 -250.88s112.395 -250.88 250.88 -250.88s250.88 112.395 250.88 250.88
s-112.395 250.88 -250.88 250.88zM258.534 28.1602c-30.627 0.0253906 -74.7725 15.7236 -98.5391 35.041c-1.99121 1.62012 -3.60645 5.01855 -3.60645 7.58496c0 2.23633 1.2832 5.33398 2.86426 6.91504l58.6543 58.6396
c1.58008 1.58398 4.67871 2.86914 6.91602 2.86914c3.42578 0 7.3877 -2.51758 8.84375 -5.61914l18.1758 -48.8086l56.4424 147.87l-152.99 -56.4424l53.9287 -18.1816c3.09766 -1.45703 5.61133 -5.41895 5.61133 -8.84277c0 -2.2373 -1.28418 -5.33496 -2.86719 -6.91602
l-58.7822 -58.7773c-1.58008 -1.58496 -4.67969 -2.87109 -6.91699 -2.87109c-2.52441 0 -5.88477 1.57324 -7.50098 3.51074c-20.0801 24.0068 -36.376 68.8906 -36.376 100.188c0 86.2002 69.96 156.16 156.16 156.16s156.16 -69.96 156.16 -156.16
s-69.96 -156.16 -156.16 -156.16h-0.0175781zM175.938 71.8281c22.6816 -15.6055 54.9219 -29.2344 82.5957 -29.2344c75.3203 0 141.727 66.4062 141.727 141.727s-66.4062 141.731 -141.727 141.731s-141.727 -66.4062 -141.727 -141.731
c0 -28.4111 14.0342 -61.251 30.4082 -84.2598l46.2021 46.2021l-52.3721 22.2773c-3.0957 1.46289 -5.6084 5.42773 -5.6084 8.85156c0 3.78711 2.88867 7.90918 6.44824 9.20215l169.159 61.3418c0.899414 0.330078 2.40527 0.597656 3.36328 0.597656
c5.39258 0 9.76855 -4.37695 9.76855 -9.76953c0 -0.953125 -0.265625 -2.45508 -0.592773 -3.35156l-61.373 -169.159c-1.29004 -3.55859 -5.40918 -6.44629 -9.19434 -6.44629c-3.42188 0 -7.38379 2.51172 -8.84375 5.60645l-22.2773 52.3721z" />
    <glyph glyph-name="uniF117" unicode="&#xf117;" 
d="M321.628 448l-42.082 -26.0508h-40.0781c15.0293 -13.0254 46.0898 -39.0762 46.0898 -90.1758c0 -50.0986 -27.0527 -73.1436 -54.1055 -95.1865c-8.01562 -9.01758 -18.0352 -18.0352 -18.0352 -33.0645s10.0195 -23.0449 17.0332 -29.0566l23.0449 -19.0371
c28.0547 -24.0469 54.1055 -47.0918 54.1055 -93.1826c0 -63.123 -59.1152 -126.246 -169.33 -126.246c-93.1826 0 -138.271 46.0898 -138.271 95.1855c0 24.0469 12.0234 58.1143 49.0957 81.1592c40.0781 26.0508 94.1846 29.0566 123.241 31.0605
c-9.01758 12.0234 -19.0371 24.0469 -19.0371 45.0879c0 11.0215 3.00586 18.0352 6.01172 26.0508c-8.01562 0 -15.0293 -1.00195 -21.041 -1.00195c-68.1338 0 -106.208 53.1035 -106.208 105.205c0 30.0596 13.0254 64.126 41.0801 89.1748
c37.0723 32.0625 87.1709 40.0781 121.237 40.0781h127.248zM264.517 36.1953c0 34.0674 -22.043 52.1025 -70.1367 88.1729c-5.00977 1.00195 -9.01758 1.00195 -15.0293 1.00195c-5.00977 0 -40.0781 -2.00391 -67.1318 -11.0215
c-14.0273 -6.01172 -55.1074 -22.043 -55.1074 -69.1357c0 -47.0918 44.0859 -81.1582 113.222 -81.1582c61.1191 0 94.1836 31.0605 94.1836 72.1406zM212.415 251.616c15.0293 15.0293 16.0312 36.0703 16.0312 48.0938c0 48.0947 -28.0547 123.241 -81.1582 123.241
c-17.0332 0 -35.0693 -9.01758 -45.0889 -22.043c-11.0215 -14.0273 -14.0273 -32.0625 -14.0273 -49.0957c0 -45.0889 25.0488 -119.233 80.1572 -119.233c16.0312 0 34.0664 8.01562 44.0859 19.0371zM415.812 299.71v-70.1367h60.1172v-30.0586h-60.1172v-70.1367
h-30.0586v70.1367h-60.1182v30.0586h60.1182v70.1367h30.0586z" />
    <glyph glyph-name="uniF118" unicode="&#xf118;" 
d="M162.909 -64h-93.0908c-38.54 0 -69.8184 31.2783 -69.8184 69.8184v93.0908c0 38.5391 31.2783 69.8184 69.8184 69.8184h93.0908c38.5391 0 69.8184 -31.2793 69.8184 -69.8184v-93.0908c0 -38.54 -31.2793 -69.8184 -69.8184 -69.8184zM186.182 98.9092
c0 12.8467 -10.4258 23.2725 -23.2725 23.2725h-93.0908c-12.8467 0 -23.2725 -10.4258 -23.2725 -23.2725v-93.0908c0 -12.8467 10.4258 -23.2725 23.2725 -23.2725h93.0908c12.8467 0 23.2725 10.4258 23.2725 23.2725v93.0908zM162.909 215.272h-93.0908
c-38.54 0 -69.8184 31.2793 -69.8184 69.8184v93.0908c0 38.54 31.2783 69.8184 69.8184 69.8184h93.0908c38.5391 0 69.8184 -31.2783 69.8184 -69.8184v-93.0908c0 -38.5391 -31.2793 -69.8184 -69.8184 -69.8184zM186.182 378.182
c0 12.8467 -10.4258 23.2725 -23.2725 23.2725h-93.0908c-12.8467 0 -23.2725 -10.4258 -23.2725 -23.2725v-93.0908c0 -12.8467 10.4258 -23.2725 23.2725 -23.2725h93.0908c12.8467 0 23.2725 10.4258 23.2725 23.2725v93.0908zM442.182 -64h-93.0908
c-38.5391 0 -69.8184 31.2783 -69.8184 69.8184v93.0908c0 38.5391 31.2793 69.8184 69.8184 69.8184h93.0908c38.54 0 69.8184 -31.2793 69.8184 -69.8184v-93.0908c0 -38.54 -31.2783 -69.8184 -69.8184 -69.8184zM465.454 98.9092
c0 12.8467 -10.4258 23.2725 -23.2725 23.2725h-93.0908c-12.8467 0 -23.2725 -10.4258 -23.2725 -23.2725v-93.0908c0 -12.8467 10.4258 -23.2725 23.2725 -23.2725h93.0908c12.8467 0 23.2725 10.4258 23.2725 23.2725v93.0908zM442.182 215.272h-93.0908
c-38.5391 0 -69.8184 31.2793 -69.8184 69.8184v93.0908c0 38.54 31.2793 69.8184 69.8184 69.8184h93.0908c38.54 0 69.8184 -31.2783 69.8184 -69.8184v-93.0908c0 -38.5391 -31.2783 -69.8184 -69.8184 -69.8184zM465.454 378.182
c0 12.8467 -10.4258 23.2725 -23.2725 23.2725h-93.0908c-12.8467 0 -23.2725 -10.4258 -23.2725 -23.2725v-93.0908c0 -12.8467 10.4258 -23.2725 23.2725 -23.2725h93.0908c12.8467 0 23.2725 10.4258 23.2725 23.2725v93.0908z" />
    <glyph glyph-name="uniF119" unicode="&#xf119;" 
d="M480 234.667h-448c-17.6641 0 -32 14.3359 -32 32s14.3359 32 32 32h448c17.6641 0 32 -14.3359 32 -32s-14.3359 -32 -32 -32zM480 384h-448c-17.6641 0 -32 14.3359 -32 32s14.3359 32 32 32h448c17.6641 0 32 -14.3359 32 -32s-14.3359 -32 -32 -32zM32 149.333h448
c17.6641 0 32 -14.3359 32 -32s-14.3359 -32 -32 -32h-448c-17.6641 0 -32 14.3359 -32 32s14.3359 32 32 32z" />
    <glyph glyph-name="uniF11A" unicode="&#xf11a;" 
d="M256 -64c-141.397 0 -256 114.603 -256 256s114.603 256 256 256s256 -114.603 256 -256s-114.603 -256 -256 -256zM256 391.111c-109.966 0 -199.111 -89.1455 -199.111 -199.111s89.1455 -199.111 199.111 -199.111s199.111 89.1455 199.111 199.111
s-89.1455 199.111 -199.111 199.111zM284.359 334.108v-170.183h-56.7188v170.183h56.7188zM216.945 75.3779c-2.30371 5.14844 -3.44141 10.6377 -3.44141 16.5264c0 11.7471 4.15332 21.8447 12.459 30.293c8.30566 8.41992 18.3184 12.6582 30.0088 12.6582
c11.3203 0 21.2197 -4.03906 29.6963 -12.1182c8.50488 -8.07812 12.7432 -17.9766 12.7432 -29.7236c0 -11.7764 -4.15332 -21.8457 -12.459 -30.2939c-8.33398 -8.44727 -18.3184 -12.6572 -29.9805 -12.6572c-5.68945 0 -11.0654 1.08105 -16.2139 3.29883
c-5.11914 2.19043 -9.64258 5.14844 -13.5107 8.79004c-3.89648 3.66895 -6.99707 8.07812 -9.30176 13.2266z" />
    <glyph glyph-name="uniF11B" unicode="&#xf11b;" 
d="M256 -64c-141.397 0 -256 114.603 -256 256s114.603 256 256 256s256 -114.603 256 -256s-114.603 -256 -256 -256zM256 391.111c-109.966 0 -199.111 -89.1455 -199.111 -199.111s89.1455 -199.111 199.111 -199.111s199.111 89.1455 199.111 199.111
s-89.1455 199.111 -199.111 199.111zM256 248.889c-23.5518 0 -42.667 19.1152 -42.667 42.667s19.1152 42.667 42.667 42.667s42.667 -19.1152 42.667 -42.667s-19.1152 -42.667 -42.667 -42.667zM284.359 50.1475h-56.7188v170.184h56.7188v-170.184z" />
    <glyph glyph-name="uniF11C" unicode="&#xf11c;" 
d="M451.765 448c18.0703 0 34.1338 -8.03125 47.1846 -21.082c13.0508 -13.0518 13.0508 -31.1221 13.0508 -49.1924v-381.49c0 -18.0703 0 -31.1221 -13.0508 -44.1729c-13.0508 -12.0469 -29.1143 -16.0625 -47.1846 -16.0625h-381.49
c-19.0742 0 -37.1445 -3.01172 -50.1963 10.0391c-13.0508 13.0508 -20.0781 32.126 -20.0781 50.1963v381.49c0 18.0703 11.043 36.1406 24.0938 49.1924c13.0518 13.0508 28.1104 21.082 46.1807 21.082h381.49zM349.364 361.663v-27.1064v-19.0742
c0 -17.0664 13.0518 -30.1182 30.1182 -30.1182h16.0625h26.1025c17.0664 0 30.1172 13.0518 30.1172 30.1182v46.1807c0 17.0664 -13.0508 30.1172 -30.1172 30.1172h-42.165c-17.0664 0 -30.1182 -13.0508 -30.1182 -30.1172zM360.408 199.027
c0 6.02344 -1.00391 12.0469 -2.00781 18.0703c-9.03613 48.1885 -51.2002 85.334 -102.4 85.334s-93.3643 -36.1416 -102.4 -85.334c-1.00391 -6.02344 -2.00781 -12.0469 -2.00781 -18.0703c0 -58.2275 47.1846 -104.408 104.408 -104.408
c58.2275 0 104.408 47.1846 104.408 104.408zM61.2393 -3.76465h39.1533h351.372v30.1172v190.745h-31.1211c1.00391 -6.02344 1.00391 -12.0469 1.00391 -18.0703c0 -91.3564 -74.291 -164.643 -164.644 -164.643c-91.3564 0 -164.644 74.29 -164.644 164.643
c0 6.02344 0 12.0469 1.00391 18.0703h-32.125v-220.862z" />
    <glyph glyph-name="uniF11D" unicode="&#xf11d;" 
d="M320 -64h-288c-10.8643 0 -32 21.2803 -32 32v448c0 10.7197 21.1357 32 32 32h288c10.8643 0 32 -21.2803 32 -32v-448c0 -10.7197 -21.1357 -32 -32 -32zM175.792 -55.0244c8.08008 0 14.6396 6.46484 14.6396 14.4482c0 7.98438 -6.55957 14.4482 -14.6396 14.4482
c-8.0957 0 -14.6396 -6.46387 -14.6396 -14.4482c0 -7.9834 6.54395 -14.4482 14.6396 -14.4482zM176.096 429.008c-2.7041 0 -4.89551 -2.16016 -4.89551 -4.81543c0 -2.67285 2.19141 -4.83203 4.89551 -4.83203s4.89648 2.15918 4.89648 4.83203
c0 2.65527 -2.19238 4.81543 -4.89648 4.81543zM320 384c0 8.83203 -7.16797 16 -16 16h-256c-8.83203 0 -16 -7.16797 -16 -16v-384c0 -8.83203 7.16797 -16 16 -16h256c8.83203 0 16 7.16797 16 16v384z" />
    <glyph glyph-name="uniF11E" unicode="&#xf11e;" 
d="M279.272 -64h-232.727c-25.7168 0 -46.5459 20.8291 -46.5459 46.5459v418.908c0 25.7168 20.8291 46.5459 46.5459 46.5459h232.727c25.7168 0 46.5459 -20.8291 46.5459 -46.5459v-418.908c0 -25.7168 -20.8291 -46.5459 -46.5459 -46.5459zM162.909 -40.7275
c12.8467 0 23.2725 10.4268 23.2725 23.2734c0 12.8457 -10.4258 23.2725 -23.2725 23.2725s-23.2725 -10.4268 -23.2725 -23.2725c0 -12.8467 10.4258 -23.2734 23.2725 -23.2734zM209.454 401.454h-93.0908v-23.2725h93.0908v23.2725zM279.272 331.637
c0 12.8457 -10.4258 23.2725 -23.2725 23.2725h-186.182c-12.8467 0 -23.2725 -10.4268 -23.2725 -23.2725v-279.273c0 -12.8457 10.4258 -23.2725 23.2725 -23.2725h186.182c12.8467 0 23.2725 10.4268 23.2725 23.2725v279.273z" />
    <glyph glyph-name="uniF11F" unicode="&#xf11f;" 
d="M1.14258 -64v354.286h114.286v-354.286h-114.286zM57.1426 337.143c-35.4287 0 -57.1426 25.1436 -57.1426 56c0 30.8574 22.8574 54.8574 58.2861 54.8574c35.4277 0 57.1426 -24 58.2852 -56c0 -29.7139 -22.8574 -54.8574 -59.4287 -54.8574zM385.143 301.714
c72 0 130.286 -43.4277 130.286 -149.714v-217.143h-114.286v198.856c0 46.8574 -14.8564 77.7148 -54.8564 77.7148c-29.7148 0 -48 -20.5713 -56 -41.1426c-3.42871 -6.85742 -3.42871 -18.2861 -3.42871 -28.5723v-205.714h-114.286v240
c0 44.5713 -1.14258 82.2861 0 114.286h102.857v-45.7148h1.14258c14.8574 22.8574 49.1426 57.1426 108.571 57.1426z" />
    <glyph glyph-name="uniF120" unicode="&#xf120;" 
d="M442.182 -64h-372.363c-38.54 0 -69.8184 31.2783 -69.8184 69.8184v93.0908c0 38.5391 31.2783 69.8184 69.8184 69.8184h372.363c38.54 0 69.8184 -31.2793 69.8184 -69.8184v-93.0908c0 -38.54 -31.2783 -69.8184 -69.8184 -69.8184zM465.454 98.9092
c0 12.8467 -10.4258 23.2725 -23.2725 23.2725h-372.363c-12.8467 0 -23.2725 -10.4258 -23.2725 -23.2725v-93.0908c0 -12.8467 10.4258 -23.2725 23.2725 -23.2725h372.363c12.8467 0 23.2725 10.4258 23.2725 23.2725v93.0908zM442.182 215.272h-372.363
c-38.54 0 -69.8184 31.2793 -69.8184 69.8184v93.0908c0 38.54 31.2783 69.8184 69.8184 69.8184h372.363c38.54 0 69.8184 -31.2783 69.8184 -69.8184v-93.0908c0 -38.5391 -31.2783 -69.8184 -69.8184 -69.8184zM465.454 378.182
c0 12.8467 -10.4258 23.2725 -23.2725 23.2725h-372.363c-12.8467 0 -23.2725 -10.4258 -23.2725 -23.2725v-93.0908c0 -12.8467 10.4258 -23.2725 23.2725 -23.2725h372.363c12.8467 0 23.2725 10.4258 23.2725 23.2725v93.0908z" />
    <glyph glyph-name="uniF121" unicode="&#xf121;" 
d="M230.4 -12.7998c-127.258 0 -230.4 103.143 -230.4 230.399c0 127.258 103.143 230.4 230.4 230.4c127.257 0 230.399 -103.143 230.399 -230.4c0 -127.257 -103.143 -230.399 -230.399 -230.399zM230.4 376.807c-87.9365 0 -159.207 -71.2705 -159.207 -159.207
c0 -87.9355 71.2705 -159.206 159.207 -159.206c87.9355 0 159.206 71.2705 159.206 159.206c0 87.9365 -71.2705 159.207 -159.206 159.207zM495.82 -48.2051c-20.0439 -20.1211 -51.0967 -21.5801 -69.3242 -3.27637l-111.591 111.975
c30.874 16.665 56.0391 41.8301 72.6787 72.7295l111.488 -111.872c18.2529 -18.3037 16.793 -49.4336 -3.25195 -69.5557z" />
    <glyph glyph-name="uniF122" unicode="&#xf122;" 
d="M279.599 187.229l-243.27 -251.066l-35.7236 38.0039l204.8 217.53l-205.266 217.646l38.0039 38.8652z" />
    <glyph glyph-name="uniF123" unicode="&#xf123;" 
d="M498.44 -50.4404c-18.1289 -18.1279 -47.5283 -18.1279 -65.6562 0l-79.8398 79.8408c-35.8965 -23.584 -78.7842 -37.4004 -124.944 -37.4004c-125.92 0 -228 102.08 -228 228s102.08 228 228 228s228 -102.08 228 -228c0 -46.1602 -13.8164 -89.0479 -37.4004 -124.944
l79.8408 -79.8398c18.1279 -18.1279 18.1279 -47.5273 0 -65.6562zM228 376c-86.1602 0 -156 -69.8398 -156 -156s69.8398 -156 156 -156s156 69.8398 156 156s-69.8398 156 -156 156zM228 184c15.4639 0 28 -12.5361 28 -28s-12.5361 -12 -28 -12s-28 -3.46387 -28 12
s12.5361 28 28 28zM282.864 248l10.8555 -10.8643c3 -3 3 -7.85547 0 -10.8555s-7.85547 -3 -10.8555 0l-10.8643 10.8555l-10.8643 -10.8555c-3 -3 -7.85547 -3 -10.8555 0s-3 7.85547 0 10.8555l10.8555 10.8643l-10.8555 10.8643c-3 3 -3 7.85547 0 10.8555
s7.85547 3 10.8555 0l10.8643 -10.8555l10.8643 10.8555c3 3 7.85547 3 10.8555 0s3 -7.85547 0 -10.8555zM205.72 226.28c-3 -3 -7.85547 -3 -10.8555 0l-10.8643 10.8555l-10.8643 -10.8555c-3 -3 -7.85547 -3 -10.8555 0s-3 7.85547 0 10.8555l10.8555 10.8643
l-10.8555 10.8643c-3 3 -3 7.85547 0 10.8555s7.85547 3 10.8555 0l10.8643 -10.8555l10.8643 10.8555c3 3 7.85547 3 10.8555 0s3 -7.85547 0 -10.8555l-10.8555 -10.8643l10.8555 -10.8643c3 -3 3 -7.85547 0 -10.8555z" />
    <glyph glyph-name="uniF124" unicode="&#xf124;" 
d="M255.953 -64.1865c-58.7402 0 -256.186 46.7324 -256.186 256.187c0 141.266 114.943 256.187 256.186 256.187c141.266 0 256.187 -114.921 256.187 -256.187s-114.921 -256.187 -256.187 -256.187zM104.332 94.417c28.5557 28.5557 82.6182 87.5059 82.6182 87.5059
l-84.2246 17.5244c-6.00391 2.58301 -9.7041 8.84375 -9.40234 14.8477c0.302734 6.02832 4.56152 14.6855 10.7988 16.7568l222.697 52.9453c5.84082 2.11816 12.4043 0.651367 16.8262 -3.72363c4.39844 -4.42188 5.86426 -10.9844 3.72363 -16.8262l-33.6523 -223.488
c-2.37402 -6.21387 -13.1963 -10.4492 -20.1777 -10.752c-6.98242 -0.325195 -15.0342 3.39844 -18.0137 9.35547l-33.8379 76.2881s-52.5732 -57.3438 -78.0107 -86.5049c-6.49316 -7.42383 37.0508 -45.7998 92.3232 -45.7998c116.294 0 209.454 93.9053 209.454 209.454
c0 116.271 -93.1602 209.454 -209.454 209.454c-115.549 0 -209.454 -93.1836 -209.454 -209.454c0 -80.0586 49.71 -105.682 57.7861 -97.583z" />
    <glyph glyph-name="uniF125" unicode="&#xf125;" 
d="M474.709 108.352c-35.2207 -21.7275 -169.013 -104.298 -200.714 -123.829l0.436523 155.413c66.9121 39.5527 133.803 79.1045 200.704 118.635zM240.555 140.032l-0.4375 -156.288c-3.83984 2.26074 -139.562 82.3467 -203.584 120.128l0.448242 158.016
c67.8613 -40.6182 135.712 -81.2266 203.573 -121.855zM257.568 169.803c-0.448242 0.277344 -67.04 40.1279 -86.2295 51.6055c64.6074 41.4287 129.227 82.8584 193.834 124.288c23.4775 -14.2725 85.9307 -52.2139 93.6748 -56.9072
c-67.0928 -39.6689 -134.176 -79.3281 -201.279 -118.986zM332.522 365.525c-64.6504 -41.4932 -129.312 -82.9863 -193.983 -124.48c-28.2354 16.9072 -56.459 33.8027 -84.6934 50.7207c5.61035 3.26367 204.309 118.965 204.309 118.965
c8.09668 -4.92773 57.6963 -35.0615 74.3682 -45.2051zM508.811 189.558l0.288086 100.565c0.0537109 17.4609 -41.5576 33.4287 -52.832 40.2773c-63.6055 38.624 -128.085 76.0742 -190.891 116.021c-4.20312 2.67773 -9.85645 2.44336 -14.0693 -0.00976562
c-63.3916 -36.918 -126.806 -73.8457 -190.197 -110.763c-12.6611 -7.38184 -52.8213 -21.4404 -57.4082 -38.1445c-8.06348 -29.376 -0.704102 -70.3682 -0.789062 -100.512l-0.288086 -104.234c-0.0537109 -17.8457 40.6182 -32.6514 52.3096 -39.5312
c65.0234 -38.3789 196.085 -115.647 196.586 -115.883c3.58398 -1.85547 8.01074 -2.00488 12.5654 0.790039c62.4434 38.5381 124.875 77.0664 187.328 115.615c12.5869 7.76562 52.0645 22.71 56.6406 39.4561c7.72266 28.1816 0.671875 67.4238 0.756836 96.3525z" />
    <glyph glyph-name="uniF126" unicode="&#xf126;" 
d="M368.64 202.24c-67.8291 0 -122.88 55.0498 -122.88 122.88s55.0508 122.88 122.88 122.88c67.8301 0 122.88 -55.0498 122.88 -122.88s-55.0498 -122.88 -122.88 -122.88zM368.64 407.04c-45.2197 0 -81.9199 -36.7002 -81.9199 -81.9199
s36.7002 -81.9199 81.9199 -81.9199s81.9199 36.7002 81.9199 81.9199s-36.7002 81.9199 -81.9199 81.9199zM348.16 386.56h40.96v-40.96h40.96v-40.96h-81.9199v81.9199zM399.503 164.065l-10.3828 -23.2656c-11.1738 -19.9805 -38.6992 -38.3311 -61.4404 -40.96h-184.319
c-1.10156 -0.0722656 -2.88965 -0.130859 -3.99316 -0.130859c-23.9678 0 -49.7041 18.4082 -57.4473 41.0908s-33.8945 107.213 -40.96 122.88c-7.06543 0 -41.4102 -0.245117 -40.96 20.4805v40.96c0.634766 19.2715 21.9336 20.4795 40.96 20.4795h53.125
c14.791 -1.56934 32.4707 -13.4971 39.4648 -26.624l23.6338 -55.459h46.5928c27.6494 -56.4365 101.095 -102.24 163.94 -102.24c8.84082 0 23.0811 1.25 31.7861 2.78906zM153.6 38.4004c28.2627 0 51.2002 -22.9385 51.2002 -51.2002
c0 -28.2627 -22.9375 -51.2002 -51.2002 -51.2002c-28.2617 0 -51.1992 22.9375 -51.1992 51.2002c0 28.2617 22.9375 51.2002 51.1992 51.2002zM296.96 38.4004c28.2627 0 51.2002 -22.9385 51.2002 -51.2002c0 -28.2627 -22.9375 -51.2002 -51.2002 -51.2002
s-51.2002 22.9375 -51.2002 51.2002c0 28.2617 22.9375 51.2002 51.2002 51.2002z" />
    <glyph glyph-name="uniF127" unicode="&#xf127;" 
d="M-0.326172 187.229l241.455 260.979l38.0039 -38.8652l-205.288 -217.646l204.939 -217.53l-35.7236 -38.0039z" />
    <glyph glyph-name="uniF128" unicode="&#xf128;" 
d="M256.796 396.641c58.1133 -19.6191 120.694 -63.0693 120.694 -126.267c0 -83.459 13.7129 -135.896 59.0635 -181.889c35.3086 -20.0557 38.8525 -102.719 -25.6797 -102.719h-128.398c0 -67.0234 -102.719 -65.123 -102.719 0h-128.397
c-59.0635 0 -66.6133 76.2432 -25.6797 102.719c43.8604 46.8398 59.9619 98.4561 59.9619 181.889c0 63.1973 61.6309 106.647 119.795 126.267c-4.80176 63.7109 52.9775 73.8291 51.3594 0zM51.3594 37.126h359.515c-4.30664 12.3438 -15.5576 29.6006 -25.1152 38.5195
c-38.5957 47.6104 -51.9238 69.8486 -51.9238 166.918c0 56.7002 -46.0176 102.718 -102.719 102.718c-56.7002 0 -102.718 -46.0176 -102.718 -102.718c0 -97.0693 -11.1455 -112.092 -51.3594 -166.918c-9.68848 -8.89746 -21.1924 -26.1543 -25.6797 -38.5195z" />
    <glyph glyph-name="uniF129" unicode="&#xf129;" 
d="M379.259 182.519c-73.2725 0 -132.74 59.4678 -132.74 132.74c0 73.2734 59.4678 132.741 132.74 132.741c73.2734 0 132.741 -59.4678 132.741 -132.741c0 -73.2725 -59.4678 -132.74 -132.741 -132.74zM379.259 410.074
c-52.3369 0 -94.8145 -42.4775 -94.8145 -94.8154c0 -52.3369 42.4775 -94.8145 94.8145 -94.8145c52.3379 0 94.8154 42.4775 94.8154 94.8145c0 52.3379 -42.4775 94.8154 -94.8154 94.8154zM398.223 258.37h-37.9268v37.9258h-37.9258v37.9268h37.9258v37.9258h37.9268
v-37.9258h37.9258v-37.9268h-37.9258v-37.9258zM379.259 144.593h0.00390625c4.79492 0 12.5576 0.390625 17.3291 0.87207c-5.37207 -52.9141 -52.8975 -95.8594 -106.084 -95.8594c-1.6748 0 -4.3916 0.0771484 -6.06348 0.171875h-18.9629l-94.8145 -75.8516v37.9258
c0.0166016 0.416992 0.03125 1.09375 0.03125 1.51074c0 20.1182 -16.3281 36.4473 -36.4473 36.4473c-0.416992 0 -1.09375 -0.0146484 -1.50977 -0.0322266h-18.9639c-2.00781 -0.136719 -5.27051 -0.248047 -7.2832 -0.248047
c-58.9219 0 -106.743 47.8203 -106.743 106.742c0 2.0127 0.111328 5.27637 0.249023 7.28418v37.9258c-0.135742 1.99707 -0.246094 5.24219 -0.246094 7.24316c0 58.9434 47.8379 106.78 106.78 106.78c2.00195 0 5.24707 -0.109375 7.24316 -0.246094h94.8154
c0 -94.208 76.458 -170.666 170.666 -170.666z" />
    <glyph glyph-name="uniF12A" unicode="&#xf12a;" 
d="M85.333 448l256 -256l-256 -256l-85.333 85.333l170.667 170.667l-170.667 170.667z" />
    <glyph glyph-name="uniF12B" unicode="&#xf12b;" 
d="M227.556 -7.11133c-125.668 0 -227.556 101.889 -227.556 227.556c0 125.668 101.888 227.556 227.556 227.556c125.667 0 227.556 -101.888 227.556 -227.556c0 -125.667 -101.889 -227.556 -227.556 -227.556zM227.556 362.667
c-78.5352 0 -142.223 -63.6875 -142.223 -142.223s63.6875 -142.222 142.223 -142.222s142.222 63.6865 142.222 142.222s-63.6865 142.223 -142.222 142.223zM494.279 -46.2793c-22.9834 -23.0117 -60.3027 -23.0117 -83.3135 0l-112.1 112.1
c36.75 17.0098 66.3037 46.5635 83.3135 83.3135l112.1 -112.1c23.0117 -23.0107 23.0117 -60.3301 0 -83.3135z" />
    <glyph glyph-name="uniF12C" unicode="&#xf12c;" 
d="M55.7568 448.563h400.742c20.4287 0 39.168 -9.88184 48.7939 -25.7031c4.35156 -7.16797 6.50195 -15.001 6.50195 -22.835c0 -9.47168 -3.17383 -18.9434 -9.4209 -27.085l-200.396 -261.376c-10.291 -13.4141 -27.4434 -21.4521 -45.875 -21.4521
c-18.3809 0 -35.584 8.03809 -45.875 21.4521l-200.346 261.376c-11.418 14.8994 -12.5439 34.0996 -2.96973 49.9199c9.62598 15.8213 28.416 25.7031 48.8447 25.7031z" />
    <glyph glyph-name="uniF12D" unicode="&#xf12d;" 
d="M477.988 20.1875c-16.0664 -9.99609 -87.6494 39.8145 -103.473 29.9395c-16.4082 -10.2158 -11.873 -101.863 -27.7451 -111.762c-9.0459 -5.63184 -20.6514 -2.29199 -25.8682 7.48438l-77.4834 144.97l-77.5068 -144.97
c-5.2168 -9.77637 -16.7979 -13.1162 -25.8682 -7.48438c-15.8721 9.89844 -11.3369 101.546 -27.7207 111.762c-15.8232 9.875 -87.4307 -39.9355 -103.497 -29.9395c-9.07031 5.65625 -12.166 18.1641 -6.90039 27.9404l104.132 194.877
c5.2168 9.77637 16.8223 13.1172 25.8926 7.48535c0 0 109.129 -105.521 222.938 0c9.0459 5.63184 20.6514 2.29102 25.8691 -7.48535l104.155 -194.877c5.24121 -9.77637 2.14551 -22.2842 -6.9248 -27.9404zM209.115 153.697l-65.585 40.8867
c-6.80176 4.24316 -22.2842 -0.707031 -25.8926 -7.48438c-51.248 -85.4795 -60.3672 -104.034 -56.8076 -106.276c12.0449 -7.50977 65.7314 29.8662 77.6045 22.4541c12.2881 -7.65527 8.89941 -76.3848 20.7979 -83.8213
c3.80273 -2.36523 46.9082 84.1875 56.832 106.276c7.60645 17.5547 -5.77832 27.2334 -6.94922 27.9648zM366.885 187.1c-3.6084 6.77734 -19.0908 11.7275 -25.8682 7.48438l-65.6094 -40.8867c-6.77832 -4.24219 -10.5322 -21.1865 -6.92383 -27.9648
c19.0654 -41.9111 53.0283 -108.642 56.8076 -106.276c11.9219 7.43652 8.50879 76.166 20.7969 83.8213c11.8975 7.41211 65.585 -29.9639 77.6045 -22.4541c3.58398 2.24219 -14.1416 34.0107 -56.8076 106.276zM477.988 20.1875c4.7793 2.97461 0 0 0 0zM8.82617 20.1875
c0 0 -4.75488 2.97461 0 0zM243.419 252.952c-53.9307 0 -97.6699 43.6904 -97.6699 97.5488c0 53.8818 43.7393 97.5723 97.6699 97.5723s97.6465 -43.6904 97.6465 -97.5723c0 -53.8584 -43.7158 -97.5488 -97.6465 -97.5488z" />
    <glyph glyph-name="uniF12E" unicode="&#xf12e;" 
d="M409.6 -64h-358.399c-28.2627 0 -51.2002 22.9375 -51.2002 51.2002v204.8c0 28.2627 22.9375 51.2002 51.2002 51.2002h76.7998v-51.2002h-51.2002c-14.1309 0 -25.5996 -11.4688 -25.5996 -25.5996v-153.601c0 -14.1309 11.4688 -25.5996 25.5996 -25.5996h307.2
c14.1309 0 25.5996 11.4688 25.5996 25.5996v153.601c0 14.1309 -11.4688 25.5996 -25.5996 25.5996h-51.2002v51.2002h76.7998c28.2627 0 51.2002 -22.9375 51.2002 -51.2002v-204.8c0 -28.2627 -22.9375 -51.2002 -51.2002 -51.2002zM204.8 166.4l-0.255859 182.963
l-58.3682 -73.2676c-20.9922 -22.4512 -58.624 14.6182 -38.1436 37.9395l101.632 126.105c4.91113 4.40137 14.249 7.97266 20.8438 7.97266c6.1875 0 15.085 -3.19336 19.8604 -7.12793l101.632 -126.131c3.50098 -4.1582 6.3418 -11.9434 6.3418 -17.3789
c0 -14.8945 -12.0879 -26.9824 -26.9824 -26.9824c-5.48633 0 -13.3281 2.88867 -17.5029 6.44727l-57.6006 74.2402l-0.255859 -184.78c0 -14.1318 -11.4688 -25.6006 -25.5996 -25.6006c-14.1318 0 -25.6006 11.4688 -25.6006 25.6006z" />
    <glyph glyph-name="uniF12F" unicode="&#xf12f;" 
d="M511.968 208c0 -5.13574 -2.44824 -9.98438 -6.62402 -13.0723l-73.3438 -34.9277l32 -64c1.51953 -4.91211 2.16016 -15.6963 -0.927734 -19.8398c-3.07227 -4.16016 -9.83984 -12.0645 -15.0723 -12.1602h-80l-22.2725 -84.9922
c-1.71191 -4.86426 -5.63184 -8.65625 -10.6074 -10.2402c-1.69629 -0.543945 -3.42383 -0.799805 -5.15234 -0.799805c-3.3916 0 -6.73535 1.00781 -9.56738 2.95996l-64.4004 45.0723l-64.4004 -45.0723c-4.28809 -2.94336 -9.72754 -3.75977 -14.7031 -2.16016
c-4.97656 1.58398 -8.91211 5.37598 -10.624 10.2402l-22.2725 84.9922h-80c-5.23242 0.0957031 -12 8 -15.0723 12.1602c-3.07129 4.14355 -2.44727 14.9277 -0.927734 19.8398l32 64l-73.3438 34.9277c-4.16016 3.08789 -6.65625 7.93652 -6.65625 13.0723
s2.49609 9.96777 6.65625 13.0723l73.3438 34.9277l-33.5361 69.4404c-1.53613 4.91113 -0.607422 10.2393 2.46387 14.3994c3.07227 4.16016 9.83984 12.0645 15.0723 12.1602h80l22.2725 84.9756c1.71191 4.86426 5.63184 8.65625 10.624 10.2402
c4.97559 1.60059 10.415 0.799805 14.7031 -2.16016l64.4004 -45.0557l64.4004 45.0557c4.28809 2.95996 9.74316 3.76074 14.7031 2.16016c4.97656 -1.58398 8.91211 -5.37598 10.624 -10.2402l22.2725 -84.9756h80c5.23242 -0.0957031 12 -8.01562 15.0723 -12.1602
c3.08789 -4.16016 4 -9.48828 2.46387 -14.3994l-33.5361 -69.4404l73.3438 -34.9277c4.17578 -3.10449 6.62402 -7.93652 6.62402 -13.0723zM336 192h-32v96c0 10.3037 -11.5195 16 -21.3281 16h-53.3438c-9.80859 0 -21.3281 -5.69629 -21.3281 -16v-96h-32
c-7.02441 -7.24805 -3.24805 -17.7598 3.77637 -25.0078l63.5195 -65.6318c7.02441 -7.24805 18.4004 -7.24805 25.4082 0l63.5361 65.6318c7.00781 7.24805 10.7842 17.7598 3.75977 25.0078z" />
    <glyph glyph-name="uniF130" unicode="&#xf130;" 
d="M273.715 242.893h-241.715c-12.3389 0 -23.6543 5.63184 -29.4404 14.6943c-5.78516 9.01172 -5.06836 19.9688 1.79199 28.5186l120.832 149.351c6.19531 7.67969 16.5889 12.2881 27.6992 12.2881c11.0596 0 21.4531 -4.6084 27.6484 -12.2881l120.832 -149.351
c3.78906 -4.65918 5.68359 -10.0859 5.68359 -15.4619c0 -4.50586 -1.28027 -8.95996 -3.8916 -13.0566c-5.78613 -9.0625 -17.1006 -14.6943 -29.4404 -14.6943zM32 141.107h241.715c12.3398 0 23.6543 -5.63184 29.4404 -14.6943
c2.61133 -4.09668 3.8916 -8.55078 3.8916 -13.0049c0 -5.42773 -1.89453 -10.8545 -5.68359 -15.5137l-120.832 -149.351c-6.19531 -7.62891 -16.5889 -12.2881 -27.6484 -12.2881c-11.1104 0 -21.5039 4.65918 -27.6992 12.2881l-120.832 149.351
c-6.86035 8.5498 -7.57715 19.4561 -1.79199 28.5186c5.78613 9.0625 17.1016 14.6943 29.4404 14.6943z" />
    <glyph glyph-name="uniF131" unicode="&#xf131;" 
d="M647.658 388.193c1.45898 0 2.91699 0 5.83496 -1.45801c0 -1.45898 1.45801 -2.91797 0 -4.37598c-17.5049 -24.7979 -39.3848 -48.1367 -65.6416 -65.6416v-14.5869c0 -179.419 -142.951 -366.131 -380.718 -366.131c-71.4756 0 -142.951 20.4219 -204.217 58.3477
c-1.45801 0 -1.45801 1.45898 -1.45801 2.91699c0 1.45898 1.45801 1.45898 2.91699 1.45898c10.2109 -1.45898 20.4219 -1.45898 30.6328 -1.45898c56.8887 0 110.86 17.5049 156.079 49.5957c-53.9707 4.37598 -100.649 39.3848 -118.153 90.4385
c0 0 0 1.45898 1.45898 1.45898c0 1.45898 1.45801 1.45898 2.91699 1.45898c14.5869 -1.45898 30.6328 -2.91797 45.2197 0c-55.4307 17.5039 -94.8154 67.0996 -94.8154 125.447v1.45801c0 1.45898 0 2.91797 1.45898 2.91797h2.91699
c14.5869 -7.29395 30.6328 -13.1279 46.6787 -14.5869c-32.0918 24.7979 -51.0547 61.2646 -51.0547 102.108c0 23.3389 5.83496 45.2188 17.5049 65.6406c1.45801 1.45898 1.45801 1.45898 2.91699 1.45898s2.91699 0 2.91699 -1.45898
c65.6416 -77.3105 161.915 -125.447 266.94 -132.74c-1.45898 8.75195 -2.91699 17.5039 -2.91699 26.2559c0 72.9346 61.2646 131.282 135.658 131.282c36.4668 0 71.4756 -14.5869 96.2734 -40.8438c29.1738 5.83496 56.8887 16.0459 81.6865 30.6328
c1.45898 1.45898 2.91699 1.45898 4.37598 0c1.45898 0 1.45898 -1.45898 1.45898 -2.91699c-8.75293 -24.7979 -26.2568 -48.1367 -48.1367 -64.1826c21.8799 2.91699 42.3018 8.75195 61.2646 17.5039z" />
    <glyph glyph-name="uniF132" unicode="&#xf132;" 
d="M512 29.875c0 -45.8242 -40.8066 -93.875 -85.3252 -93.875h-341.35c-44.5186 0 -85.3252 48.0508 -85.3252 93.875c0 100.941 66.4062 154.829 154.573 176.333c-32.3584 13.4912 -52.5059 38.6562 -52.1729 85.3506c0.614258 85.1201 68.915 156.186 153.677 156.186
c84.7871 0 153.522 -71.0654 153.522 -156.186c0 -46.7197 -21.1709 -71.5264 -53.8623 -84.8896c89.0117 -21.2227 156.263 -75.1875 156.263 -176.794zM358.4 307.2c0 49.4844 -45.8496 89.5996 -102.4 89.5996s-102.4 -40.1152 -102.4 -89.5996
c0 -49.4854 45.8496 -89.6006 102.4 -89.6006s102.4 40.1152 102.4 89.6006zM256 166.4c-106.752 0 -204.8 -32.1279 -204.8 -119.476c0 -29.1328 32.6396 -59.7246 68.2754 -59.7246h273.049c35.6357 0 68.2754 30.5918 68.2754 59.7246
c0 87.3477 -98.0479 119.476 -204.8 119.476z" />
    <glyph glyph-name="uniF133" unicode="&#xf133;" 
d="M256 -64c-141.397 0 -256 114.603 -256 256s114.603 256 256 256s256 -114.603 256 -256s-114.603 -256 -256 -256zM256 391.111c-109.966 0 -199.111 -89.1455 -199.111 -199.111s89.1455 -199.111 199.111 -199.111s199.111 89.1455 199.111 199.111
s-89.1455 199.111 -199.111 199.111zM142.223 192c0 62.8379 50.9395 113.777 113.777 113.777s113.777 -50.9395 113.777 -113.777s-50.9395 -113.777 -113.777 -113.777s-113.777 50.9395 -113.777 113.777z" />
    <glyph glyph-name="uniF134" unicode="&#xf134;" 
d="M374.112 223.532c39.5498 0 72.6855 -34.2041 72.6855 -70.5469l2.1377 -153.921c0 -36.3418 -35.2734 -63.0645 -74.8232 -63.0645h-298.221c-39.5488 0 -75.8916 26.7227 -75.8916 63.0645v149.646c0 36.3418 35.2734 74.8223 74.8223 74.8223h299.29zM64.1338 -11.624
h32.0664v157.127h36.3428v23.5156h-98.3379v-23.5156h30.9971zM206.297 -14.8311h1.06836v134.681h-30.998v-84.4424c0 -11.7578 1.06934 -18.1709 0 -20.3096c-2.1377 -7.48145 -13.8955 -13.8955 -18.1709 -1.06836c-1.06934 2.1377 0 8.55078 0 20.3086v85.5117h-30.998
v-84.4424v-26.7227c0 -7.48242 0 -16.0332 7.48242 -21.3779c13.8955 -9.62012 40.6182 1.06934 47.0312 14.9648v-17.1025h24.585zM253.328 -2.00391c32.0664 -28.8604 52.375 -8.55176 52.375 25.6533v70.5469c0 26.7227 -20.3086 42.7559 -49.1689 21.3779v52.376
h-30.998v-181.712h25.6543zM323.875 32.2002c0 -69.4775 88.7178 -59.8574 78.0293 1.06934h-23.5156v-3.20703v-12.8262c0 -6.41406 -6.41406 -11.7578 -12.8271 -11.7578h-4.27539c-7.48242 0 -12.8271 5.34375 -12.8271 11.7578v1.06836v13.8955v17.1025h53.4453v19.2402
c0 13.8955 0 27.791 -1.06934 36.3418c-4.27539 24.585 -41.6865 28.8604 -59.8584 16.0342c-5.34375 -4.27637 -10.6885 -9.62012 -12.8262 -17.1025c-3.20703 -7.48242 -4.27539 -17.1025 -4.27539 -29.9287v-41.6875zM280.05 392.418h27.792v-109.027
c0 -5.34473 5.34375 -10.6895 11.7578 -10.6895c6.41309 0 11.7578 4.27539 11.7578 10.6895v109.027h26.7217v-141.095h-34.2041l1.06836 11.7578c-2.1377 -4.27539 -5.34375 -8.55078 -8.55078 -10.6885s-7.48242 -3.20703 -11.7578 -3.20703
c-5.34473 0 -9.62012 1.06934 -12.8271 3.20703c-3.20605 2.1377 -6.41309 5.34473 -7.48242 8.55078c-2.1377 4.27539 -3.20605 7.48242 -3.20605 11.7578c-1.06934 4.27539 -1.06934 12.8271 -1.06934 24.585v95.1318zM379.457 89.9209l-1.06836 -16.0332h-28.8604
v16.0332c0 6.41309 6.41309 12.8262 13.8955 12.8262h2.1377c7.48242 0 13.8955 -5.34375 13.8955 -12.8262zM269.361 108.092c7.48242 0 12.8262 -4.27539 13.8955 -10.6885v-79.0986c0 -6.41309 -6.41309 -10.6885 -13.8955 -10.6885s-13.8955 5.34375 -13.8955 10.6885
v79.0986c0 6.41309 6.41309 10.6885 13.8955 10.6885zM180.643 275.908c-1.06836 6.41309 -1.06836 16.0332 -2.1377 28.8604v37.4111c0 13.8955 1.06934 24.584 3.20703 32.0664s6.41309 13.8955 12.8271 18.1719c6.41309 4.27539 13.8955 6.41309 23.5156 6.41309
c7.48145 0 14.9639 -1.06934 20.3086 -4.27539c5.34473 -3.20703 9.62012 -7.48242 12.8271 -11.7578c3.20605 -5.34473 5.34375 -9.62012 6.41309 -14.9648c1.06836 -5.34473 2.1377 -12.8271 2.1377 -23.5156v-35.2734c0 -12.8271 -1.06934 -22.4473 -2.1377 -28.8604
c-1.06934 -6.41309 -3.20703 -11.7578 -6.41309 -17.1025c-3.20703 -5.34375 -7.48242 -9.62012 -12.8271 -11.7578c-5.34473 -3.20605 -10.6885 -4.27539 -18.1709 -4.27539c-8.55176 0 -14.9648 1.06934 -20.3096 3.20703
c-5.34375 2.1377 -9.62012 5.34473 -12.8262 9.62012c-3.20703 4.27539 -5.34473 9.62012 -6.41406 16.0332zM206.297 360.351v-74.8223c0 -8.55176 6.41309 -14.9648 13.8955 -14.9648s13.8955 7.48242 13.8955 14.9648v74.8223
c0 8.55176 -6.41309 14.9648 -13.8955 14.9648s-13.8955 -7.48242 -13.8955 -14.9648zM111.165 247.048v107.958l-40.6182 92.9941h34.2051l21.3779 -68.4092l20.3086 68.4092h35.2734l-38.4805 -92.9941v-107.958h-32.0664z" />
  </font>
</defs>
</svg>
