<svg xmlns="http://www.w3.org/2000/svg" xmlns:xlink="http://www.w3.org/1999/xlink" preserveAspectRatio="xMidYMid" width="24" height="24" viewBox="0 0 24 24">
  <defs>
    <style>
      .cls-1 {
        fill: #919191;
      }

      .cls-2 {
        fill: #fff;
        fill-rule: evenodd;
      }
    </style>
  </defs>
  <g>
    <circle cx="12" cy="12" r="12" class="cls-1"/>
    <path d="M16.717,8.708 L13.425,12.000 L16.686,15.260 C17.079,15.654 17.079,16.292 16.686,16.685 C16.292,17.079 15.654,17.079 15.260,16.685 L12.000,13.425 L8.740,16.685 C8.346,17.079 7.708,17.079 7.314,16.685 C6.921,16.292 6.921,15.654 7.314,15.260 L10.575,12.000 L7.283,8.708 C6.889,8.314 6.889,7.677 7.283,7.283 C7.676,6.889 8.315,6.889 8.708,7.283 L12.000,10.575 L15.292,7.283 C15.685,6.889 16.324,6.889 16.717,7.283 C17.111,7.677 17.111,8.314 16.717,8.708 Z" class="cls-2"/>
  </g>
</svg>
